<svg width="24" height="22" viewBox="0 0 24 22" fill="none" xmlns="http://www.w3.org/2000/svg">
<mask id="path-1-inside-1_1192_8410" fill="white">
<path d="M13.1505 21.5L23.9758 2.75H2.3252L13.1505 21.5Z"/>
</mask>
<path d="M13.1505 21.5L23.9758 2.75H2.3252L13.1505 21.5Z" fill="#2B2B2B"/>
<path d="M13.1505 21.5L12.2845 22L13.1505 23.5L14.0165 22L13.1505 21.5ZM23.9758 2.75L24.8419 3.25L25.7079 1.75H23.9758V2.75ZM2.3252 2.75V1.75H0.593145L1.45917 3.25L2.3252 2.75ZM14.0165 22L24.8419 3.25L23.1098 2.25L12.2845 21L14.0165 22ZM23.9758 1.75H2.3252V3.75H23.9758V1.75ZM1.45917 3.25L12.2845 22L14.0165 21L3.19122 2.25L1.45917 3.25Z" fill="#2B2B2B" mask="url(#path-1-inside-1_1192_8410)"/>
<mask id="path-3-inside-2_1192_8410" fill="white">
<path d="M10.8253 19.75L21.6506 1H0L10.8253 19.75Z"/>
</mask>
<path d="M10.8253 19.75L21.6506 1H0L10.8253 19.75Z" fill="white"/>
<path d="M10.8253 19.75L9.95929 20.25L10.8253 21.75L11.6913 20.25L10.8253 19.75ZM21.6506 1L22.5167 1.5L23.3827 0H21.6506V1ZM0 1V0H-1.73205L-0.866025 1.5L0 1ZM11.6913 20.25L22.5167 1.5L20.7846 0.5L9.95929 19.25L11.6913 20.25ZM21.6506 0H0V2H21.6506V0ZM-0.866025 1.5L9.95929 20.25L11.6913 19.25L0.866025 0.5L-0.866025 1.5Z" fill="#2B2B2B" mask="url(#path-3-inside-2_1192_8410)"/>
<path d="M0.5 0H10.7561H21.0726L19.3406 3H2.29584L0.5 0Z" fill="white"/>
<path d="M1.72949 2H19.9144L19.3387 3H2.30501L1.72949 2Z" fill="white"/>
</svg>
