<svg width="186" height="192" viewBox="0 0 186 192" fill="none" xmlns="http://www.w3.org/2000/svg">
<path d="M66.5637 28.9448L66.3113 29.3798L66.7477 29.6297L72.672 33.0219L73.833 33.6867L73.3926 32.4234L70.4304 23.9268L70.0721 22.899L69.5259 23.8404L66.5637 28.9448ZM54.0002 101.911V0.861821L125 41.4552V129.771L114.606 123.825L113.858 123.397V124.259V136.138L54.0002 101.911Z" stroke="#2B2B2B"/>
<path d="M62.9962 32.1958L68.9204 35.588L65.9583 27.0914L62.9962 32.1958ZM121.5 44.1651V133.634L110.358 127.259V140L49.5002 105.201V3L121.5 44.1651Z" fill="white"/>
<path d="M121.29 133.451L110.212 139.798V127.087L121.29 133.451Z" fill="white"/>
<path d="M66.0722 27.2212L69.017 35.6923L63.1273 32.3103L66.0722 27.2212Z" fill="white"/>
<path d="M107.53 53.9967L107.529 53.9961L76.3625 36.1162L76.3625 36.1162L76.3612 36.1155C75.9035 35.8566 75.748 35.2738 76.0113 34.8145C76.2714 34.3608 76.8596 34.204 77.3246 34.4666C77.3248 34.4667 77.325 34.4668 77.3252 34.467L108.491 52.3461L108.492 52.3469C108.949 52.6056 109.105 53.1876 108.843 53.6467C108.663 53.9519 108.343 54.1233 108.01 54.1233C107.848 54.1233 107.682 54.0847 107.53 53.9967Z" fill="#4325F5" stroke="white" stroke-width="0.5"/>
<path d="M94.4681 55.3512L94.4671 55.3507L76.3625 44.9721L76.3625 44.9721L76.3612 44.9714C75.9035 44.7125 75.748 44.1297 76.0113 43.6704C76.2714 43.2167 76.8597 43.06 77.3247 43.3226C77.3249 43.3227 77.325 43.3228 77.3252 43.3229L95.4287 53.7007L95.4299 53.7014C95.8873 53.9601 96.0429 54.5422 95.7805 55.0013C95.6008 55.3065 95.2812 55.4778 94.9479 55.4778C94.7859 55.4778 94.6201 55.4393 94.4681 55.3512Z" fill="#4325F5" stroke="white" stroke-width="0.5"/>
<path d="M107.53 62.8528L107.529 62.8523L99.0666 57.9962C99.0664 57.9961 99.0663 57.996 99.0661 57.9959C98.6051 57.7284 98.4524 57.1523 98.7137 56.695C98.9829 56.2381 99.5648 56.0846 100.028 56.346C100.028 56.3461 100.028 56.3462 100.028 56.3464L108.489 61.2017C108.49 61.2018 108.49 61.2019 108.49 61.202C108.951 61.4694 109.104 62.0455 108.842 62.5029C108.663 62.808 108.343 62.9794 108.01 62.9794C107.848 62.9794 107.682 62.9409 107.53 62.8528Z" fill="#4325F5" stroke="white" stroke-width="0.5"/>
<path d="M107.53 71.6925L107.529 71.6919L63.0583 46.1904L63.0583 46.1904L63.057 46.1897C62.5993 45.9308 62.4438 45.348 62.7071 44.8887C62.9672 44.435 63.5554 44.2782 64.0204 44.5408C64.0206 44.541 64.0208 44.5411 64.021 44.5412L108.491 70.042L108.492 70.0427C108.949 70.3014 109.105 70.8834 108.843 71.3425C108.663 71.6477 108.343 71.8191 108.01 71.8191C107.848 71.8191 107.682 71.7806 107.53 71.6925Z" fill="#4325F5" stroke="white" stroke-width="0.5"/>
<path d="M73.459 61.0015L73.4581 61.001L63.0584 55.0303L63.0584 55.0303L63.057 55.0295C62.5997 54.7708 62.444 54.1888 62.7064 53.7297C62.9755 53.2728 63.5574 53.1192 64.0204 53.3807C64.0206 53.3808 64.0208 53.3809 64.021 53.381L74.4193 59.3509L74.4207 59.3517C74.8781 59.6104 75.0337 60.1924 74.7713 60.6515C74.5916 60.9567 74.272 61.1281 73.9387 61.1281C73.7767 61.1281 73.6109 61.0895 73.459 61.0015Z" fill="#4325F5" stroke="white" stroke-width="0.5"/>
<path d="M107.53 80.532L107.529 80.5314L79.1295 64.2544L79.1295 64.2544L79.1283 64.2537C78.6706 63.9947 78.5151 63.4119 78.7784 62.9527C79.0385 62.499 79.6268 62.3422 80.0918 62.6048C80.0919 62.6049 80.0921 62.605 80.0923 62.6051L108.491 78.8815L108.492 78.8822C108.949 79.1409 109.105 79.7229 108.842 80.182C108.663 80.4872 108.343 80.6586 108.01 80.6586C107.848 80.6586 107.682 80.6201 107.53 80.532Z" fill="#4325F5" stroke="white" stroke-width="0.5"/>
<path d="M107.53 89.38L107.529 89.3794L63.0583 63.8779L63.0583 63.8779L63.057 63.8772C62.5993 63.6183 62.4438 63.0355 62.7071 62.5762C62.9672 62.1225 63.5554 61.9657 64.0204 62.2283C64.0206 62.2285 64.0208 62.2286 64.021 62.2287L108.491 87.7295L108.492 87.7302C108.949 87.9889 109.105 88.571 108.843 89.0301C108.663 89.3352 108.343 89.5066 108.01 89.5066C107.848 89.5066 107.682 89.4681 107.53 89.38Z" fill="#4325F5" stroke="white" stroke-width="0.5"/>
<path d="M85.2706 85.4609L85.2696 85.4603L63.0583 72.7256L63.0583 72.7256L63.057 72.7249C62.5993 72.4659 62.4438 71.8831 62.7071 71.4239C62.9672 70.9701 63.5555 70.8134 64.0204 71.076C64.0206 71.0761 64.0208 71.0762 64.021 71.0763L86.2311 83.8103L86.2323 83.8111C86.6897 84.0698 86.8453 84.6518 86.5829 85.1109C86.4032 85.4161 86.0836 85.5875 85.7503 85.5875C85.5883 85.5875 85.4225 85.5489 85.2706 85.4609Z" fill="#4325F5" stroke="white" stroke-width="0.5"/>
<path d="M107.53 98.2195L107.529 98.219L91.2399 88.8823L91.2399 88.8823L91.2387 88.8816C90.7809 88.6227 90.6254 88.0399 90.8887 87.5806C91.1488 87.1269 91.7371 86.9701 92.2021 87.2327C92.2023 87.2329 92.2025 87.233 92.2027 87.2331L108.491 96.569L108.492 96.5697C108.949 96.8284 109.105 97.4105 108.843 97.8696C108.663 98.1747 108.343 98.3461 108.01 98.3461C107.848 98.3461 107.682 98.3076 107.53 98.2195Z" fill="#4325F5" stroke="white" stroke-width="0.5"/>
<path d="M107.53 107.076L107.529 107.075L63.0583 81.5737L63.0583 81.5737L63.057 81.573C62.5993 81.3141 62.4438 80.7313 62.7071 80.272C62.9672 79.8183 63.5554 79.6615 64.0204 79.9241C64.0206 79.9243 64.0208 79.9244 64.021 79.9245L108.491 105.425L108.492 105.426C108.949 105.685 109.105 106.267 108.843 106.726C108.663 107.031 108.343 107.202 108.01 107.202C107.848 107.202 107.682 107.164 107.53 107.076Z" fill="#4325F5" stroke="white" stroke-width="0.5"/>
<path d="M78.3643 99.1893L78.3633 99.1887L63.0583 90.4131L63.0583 90.4131L63.057 90.4124C62.5993 90.1534 62.4438 89.5706 62.7071 89.1114C62.9672 88.6576 63.5555 88.5009 64.0204 88.7635C64.0206 88.7636 64.0208 88.7637 64.021 88.7638L79.3248 97.5388L79.3261 97.5395C79.7834 97.7982 79.9391 98.3802 79.6767 98.8393C79.497 99.1445 79.1774 99.3159 78.8441 99.3159C78.6821 99.3159 78.5163 99.2774 78.3643 99.1893Z" fill="#4325F5" stroke="white" stroke-width="0.5"/>
<path d="M107.53 115.915L107.529 115.915L85.2692 103.148L85.2692 103.148L85.2679 103.147C84.8102 102.888 84.6547 102.305 84.918 101.846C85.1781 101.393 85.7664 101.236 86.2314 101.498C86.2316 101.498 86.2318 101.499 86.232 101.499L108.49 114.265L108.492 114.265C108.949 114.524 109.105 115.106 108.842 115.565C108.663 115.87 108.343 116.042 108.01 116.042C107.848 116.042 107.682 116.003 107.53 115.915Z" fill="#4325F5" stroke="white" stroke-width="0.5"/>
<path d="M66.1641 26.2679C66.5371 26.2993 66.8522 26.5506 66.9824 26.9044L71.6531 40.3263L71.6531 40.3264C71.8254 40.8208 71.564 41.3666 71.0585 41.5382L71.0585 41.5381L71.0516 41.5406C70.9589 41.5752 70.8534 41.589 70.7435 41.589H70.6202C70.2715 41.5435 69.9602 41.3076 69.8336 40.9544C69.8335 40.9541 69.8334 40.9538 69.8333 40.9535L66.034 30.0319L65.8546 29.5164L65.5814 29.989L62.2412 35.7673L62.2408 35.7681C61.9791 36.2245 61.3906 36.3843 60.9291 36.1169L60.9268 36.1156C60.4665 35.8552 60.308 35.2725 60.5756 34.8168L60.5764 34.8153L65.2398 26.7449L65.2403 26.7441C65.4263 26.419 65.7844 26.2296 66.16 26.2675L66.16 26.2675L66.1641 26.2679Z" fill="#4325F5" stroke="white" stroke-width="0.5"/>
<path d="M68.5373 36.5178L68.5365 36.5174L62.6476 33.1358C62.6475 33.1357 62.6474 33.1357 62.6472 33.1356C62.1861 32.8681 62.0334 32.292 62.2948 31.8347C62.5639 31.3778 63.1458 31.2242 63.6088 31.4856C63.609 31.4858 63.6092 31.4859 63.6094 31.486L69.4968 34.8668C69.497 34.8668 69.4971 34.8669 69.4973 34.867C69.9584 35.1345 70.1111 35.7106 69.8497 36.1679C69.6699 36.4731 69.3503 36.6444 69.0171 36.6444C68.8551 36.6444 68.6893 36.6059 68.5373 36.5178Z" fill="#4325F5" stroke="white" stroke-width="0.5"/>
<path d="M50.1894 2.37631L50.1894 2.37631L50.1909 2.37721L121.769 43.4255C121.769 43.4256 121.769 43.4257 121.769 43.4258C122.066 43.5989 122.25 43.9107 122.25 44.2514V133.451C122.25 133.791 122.066 134.103 121.77 134.276C121.77 134.276 121.769 134.276 121.769 134.276L110.695 140.622C110.695 140.622 110.694 140.622 110.693 140.623C110.545 140.706 110.377 140.75 110.212 140.75C110.047 140.75 109.88 140.706 109.731 140.622C109.73 140.622 109.73 140.622 109.73 140.622L49.231 105.922C49.2309 105.922 49.2308 105.922 49.2307 105.922C48.934 105.749 48.75 105.437 48.75 105.096V3.2022C48.75 2.86133 48.9341 2.54941 49.231 2.37631C49.5243 2.20529 49.8961 2.20529 50.1894 2.37631ZM50.6704 104.407V104.552L50.796 104.624L110.088 138.628L110.212 138.7L110.337 138.628L120.204 132.97L120.33 132.898V132.753V44.9407V44.7958L120.204 44.7238L51.0448 5.06904L50.6704 4.85439V5.28591V104.407Z" fill="#2B2B2B" stroke="#2EFFD7" stroke-width="0.5"/>
<path d="M110.691 126.269L110.691 126.269L110.693 126.27L121.77 132.626L121.772 132.626C122.229 132.885 122.385 133.468 122.122 133.927C121.861 134.381 121.273 134.538 120.808 134.275C120.808 134.275 120.808 134.275 120.808 134.275L111.547 128.962L111.172 128.747V129.179V139.798C111.172 140.323 110.745 140.75 110.212 140.75C109.679 140.75 109.252 140.323 109.252 139.798V127.095C109.252 126.754 109.436 126.442 109.733 126.269C110.026 126.098 110.398 126.098 110.691 126.269Z" fill="#4325F5" stroke="white" stroke-width="0.5"/>
<path d="M121 44.5L125.5 41.5" stroke="#4325F5"/>
<path d="M49.5 3L53.5 0.5" stroke="#4325F5"/>
<path d="M121.5 133.5L125 130" stroke="#4325F5"/>
<ellipse cx="93" cy="180.5" rx="92.5" ry="11.5" fill="#2B2B2B"/>
</svg>
