<svg width="186" height="195" viewBox="0 0 186 195" fill="none" xmlns="http://www.w3.org/2000/svg">
<ellipse cx="93" cy="183.5" rx="92.5" ry="11.5" fill="#2B2B2B"/>
<g clip-path="url(#clip0_802_7499)">
<path d="M65.7627 3.8135C67.916 4.25499 69.2632 5.33783 69.6849 6.71486L71.8107 11.4038C65.27 10.7227 57.16 13.5477 52.6253 18.1762L51.5215 12.7583C51.0308 11.3964 51.4601 9.73188 52.9261 8.08925C55.7875 4.86281 61.5334 2.94639 65.7627 3.8135Z" fill="#2B2B2B"/>
<path d="M71.8022 11.4097C72.3556 11.4645 72.8891 11.5445 73.4169 11.6527C76.9284 12.3727 79.1318 14.1077 79.8776 16.3358L80.3761 17.8386L76.3368 17.0104C75.5702 16.7799 74.7201 16.5983 73.7965 16.4896L72.952 16.3164C73.0998 16.3467 73.2532 16.3855 73.3937 16.451C72.5912 16.3598 71.7249 16.3288 70.8063 16.3385C65.9849 16.4279 61.2581 17.952 57.3043 20.7124C52.1787 24.2886 50.3602 28.3301 51.3906 31.4232L49.7173 26.3871C48.9715 24.159 49.6989 21.4337 52.08 18.7614C52.2599 18.5636 52.4313 18.3714 52.6168 18.1821C57.1445 13.5521 65.2601 10.7357 71.8022 11.4097Z" fill="white"/>
<path d="M73.8043 16.4907C74.728 16.5994 75.578 16.781 76.3447 17.0116L73.8043 16.4907Z" fill="white"/>
<path d="M80.3842 17.8395L83.6355 18.5061C89.8986 19.7902 91.705 38.4127 94.6999 53.9569L91.3994 53.2803L91.398 53.2873C90.1172 53.0247 88.9048 54.9321 88.5578 57.0535L93.9062 58.1501C94.3509 62.6338 91.7846 67.1748 89.406 66.6871C88.477 66.4967 87.58 65.5428 86.9022 63.5192C81.7793 48.1253 80.9728 19.0821 73.3946 16.4504C73.5326 16.4567 73.6748 16.4786 73.7973 16.489L80.3772 17.8381L80.3842 17.8395Z" fill="white"/>
<path d="M72.9598 16.3172L73.8043 16.4903C73.6762 16.4714 73.541 16.451 73.4015 16.4517C73.2595 16.3933 73.1076 16.3475 72.9598 16.3172Z" fill="white"/>
<path d="M70.814 16.3396C71.727 16.3215 72.5919 16.3594 73.4015 16.4521C80.9797 19.0838 81.7877 48.1199 86.9092 63.5209C87.5855 65.5515 88.477 66.4969 89.4129 66.6888L89.4115 66.6958L98.4685 68.5527C105.54 91.5033 111.538 114.468 110.206 117.209L110.193 117.273C110.187 114.8 108.256 112.769 104.689 112.037C98.9461 110.86 91.1313 113.46 87.247 117.848C84.7497 120.658 84.471 123.519 86.1069 125.519C79.8515 118.832 54.6234 48.7397 51.3991 31.4178C50.3686 28.3246 52.1802 24.2815 57.313 20.7066C61.2739 17.9475 65.9939 16.422 70.8154 16.3326L70.814 16.3396Z" fill="#4325F5"/>
<path d="M94.6996 53.9574L102.074 55.4695C102.792 55.6166 103.531 56.45 104.147 58.3069C105.816 63.3275 102.818 69.4371 100.081 68.8759L89.4058 66.6872L89.4073 66.6801C91.7788 67.1664 94.352 62.6269 93.9074 58.1434C93.8346 57.4612 93.697 56.773 93.472 56.1182C92.8484 54.2598 92.1156 53.435 91.3978 53.2878L91.3992 53.2808L94.6996 53.9574Z" fill="white"/>
<path d="M91.3979 53.2876C92.1156 53.4348 92.854 54.2681 93.472 56.118C93.6886 56.7784 93.8347 57.461 93.9074 58.1432L88.5593 57.0467C88.9062 54.9253 90.1185 53.018 91.3993 53.2806L91.3979 53.2876Z" fill="white"/>
<path d="M104.681 112.037C108.249 112.768 110.172 114.798 110.192 117.273L110.176 117.637C110.176 117.71 110.17 117.775 110.163 117.846L109.275 137.053C109.428 135.808 108.551 134.756 106.799 134.396C104.209 133.865 100.683 135.042 98.9278 137.021C97.7946 138.292 97.6771 139.58 98.4222 140.488C98.4222 140.488 86.1446 125.586 86.104 125.534C84.488 123.508 84.7412 120.664 87.2441 117.863C91.1353 113.476 98.9427 110.875 104.685 112.052L104.681 112.037Z" fill="white"/>
<path d="M106.801 134.389C108.553 134.749 109.43 135.801 109.27 137.044L108.969 143.736C108.82 146.932 104.815 148.259 102.79 145.798L98.417 140.48C97.6705 139.579 97.7965 138.285 98.9226 137.013C100.678 135.033 104.204 133.857 106.794 134.388L106.801 134.389Z" fill="white"/>
<path d="M111.225 117.851C111.112 118.4 110.588 118.776 110.023 118.704C109.432 118.62 109.022 118.081 109.106 117.49C109.121 117.419 109.113 117.352 109.113 117.279C109.11 115.254 107.376 113.696 104.463 113.099C99.0585 111.991 91.6983 114.449 88.0451 118.569C86.0053 120.864 85.5911 123.206 86.9342 124.845C87.3096 125.304 87.2429 125.986 86.7846 126.362C86.3264 126.737 85.6434 126.67 85.2681 126.212C83.2204 123.717 83.6683 120.245 86.4319 117.138C90.5356 112.502 98.8228 109.742 104.896 110.988C108.822 111.793 111.262 114.199 111.27 117.273C111.272 117.443 111.265 117.617 111.239 117.78C111.235 117.802 111.229 117.83 111.225 117.851Z" fill="#2B2B2B"/>
<path d="M110.326 137.26C110.213 137.809 109.697 138.18 109.133 138.108C108.54 138.031 108.123 137.49 108.199 136.905C108.322 135.911 107.112 135.553 106.584 135.444C104.368 134.99 101.235 136.034 99.7363 137.729C99.3935 138.113 98.6605 139.078 99.2544 139.793C99.6297 140.252 99.563 140.934 99.1047 141.31C98.6465 141.685 97.9635 141.618 97.5882 141.16C96.4607 139.792 96.6669 137.928 98.1245 136.291C100.137 134.02 104.042 132.716 107.019 133.326C109.277 133.789 110.582 135.296 110.336 137.174C110.33 137.202 110.324 137.231 110.32 137.252L110.326 137.26Z" fill="#2B2B2B"/>
<path d="M80.9412 16.5531C80.8662 16.9191 80.6041 17.232 80.2259 17.3598C79.6586 17.5514 79.0543 17.2442 78.8626 16.6769C78.2126 14.7324 76.1991 13.3223 73.2083 12.7091C72.7438 12.6138 72.2525 12.5424 71.7005 12.4806C65.3878 11.8316 57.6964 14.5446 53.4022 18.9293C53.2266 19.106 53.0652 19.2855 52.8952 19.4707C50.8583 21.7517 50.0947 24.081 50.7502 26.034L52.4236 31.0703C52.6082 31.6362 52.3066 32.249 51.7408 32.4336C51.1749 32.6183 50.5692 32.3181 50.3775 31.7508L48.7041 26.7145C47.7944 23.9981 48.7124 20.9157 51.2834 18.0329C51.4732 17.8225 51.6615 17.6191 51.8555 17.4242C56.5688 12.6048 65.0124 9.62074 71.9208 10.3332C72.546 10.3954 73.1077 10.4812 73.6426 10.5908C77.4216 11.3656 80.0061 13.2815 80.9101 15.9894C80.974 16.1785 80.9802 16.3631 80.9427 16.5461L80.9412 16.5531Z" fill="#2B2B2B"/>
<path d="M109.961 144.511C109.638 146.088 108.508 147.381 106.94 147.911C105.129 148.515 103.177 147.953 101.966 146.488L85.2989 126.241C78.8379 119.233 53.653 49.252 50.3467 31.6859C49.1253 27.879 51.4924 23.4511 56.6875 19.823C60.8449 16.9282 65.7229 15.347 70.7868 15.256C71.7801 15.2396 72.6605 15.2735 73.4772 15.3676C73.6082 15.3724 73.7433 15.3928 73.8729 15.4047C74.9303 15.5408 75.8451 15.7284 76.6526 15.9746C77.2266 16.1436 77.5421 16.751 77.3745 17.3179C77.2055 17.8919 76.6052 18.2088 76.0312 18.0398C75.3334 17.8307 74.5382 17.6677 73.6596 17.5536L73.5822 17.5377C73.5104 17.5303 73.4315 17.5215 73.3583 17.5211C73.3301 17.5154 73.3005 17.5166 73.2639 17.5165C72.5331 17.4326 71.733 17.4006 70.8144 17.4102C66.1775 17.4935 61.7087 18.9385 57.9089 21.5914C53.5705 24.6178 51.4622 28.2481 52.3995 31.0802C52.412 31.1267 52.4244 31.1733 52.4369 31.2198C55.5583 47.9707 80.7979 118.293 86.867 124.78C86.8908 124.807 86.9146 124.834 86.9314 124.86C87.1303 125.106 103.435 144.904 103.599 145.106C104.374 146.05 105.468 146.113 106.231 145.859C106.988 145.603 107.821 144.901 107.873 143.68L109.097 117.143C109.105 116.998 109.141 116.859 109.204 116.732C110.026 114.76 106.175 97.3093 97.4075 68.8631C97.2313 68.2917 97.5526 67.6902 98.117 67.5126C98.6884 67.3365 99.2899 67.6578 99.4675 68.2222C101.74 75.5958 112.817 112.054 111.243 117.407L111.231 117.647C111.233 117.742 111.222 117.835 111.217 117.93L110.033 143.771C110.019 144.017 109.991 144.261 109.943 144.493L109.961 144.511Z" fill="#2B2B2B"/>
<path d="M81.4397 18.056C81.3647 18.4219 81.1026 18.7348 80.7244 18.8626C80.1571 19.0543 79.5528 18.7471 79.3611 18.1798L78.8612 16.684C78.6766 16.1182 78.9782 15.5054 79.544 15.3208C80.1113 15.1291 80.7156 15.4363 80.9072 16.0036L81.4058 17.5064C81.4696 17.6955 81.4758 17.8801 81.4383 18.063L81.4397 18.056Z" fill="#2B2B2B"/>
<path d="M72.8577 11.6253C72.7913 11.949 72.5772 12.2424 72.2454 12.3944C71.7032 12.6425 71.0634 12.4013 70.8222 11.8606L68.6965 7.1717C68.6755 7.13074 68.6631 7.08419 68.6492 7.04468C68.3329 6.0119 67.2041 5.22316 65.5433 4.88266C61.7222 4.09923 56.3079 5.90031 53.7298 8.81817C52.5867 10.1017 52.1635 11.3789 52.5389 12.4091C52.5584 12.4571 52.5694 12.5107 52.5819 12.5572L53.6856 17.9752C53.8082 18.5576 53.4279 19.1249 52.8454 19.2475C52.2645 19.363 51.6957 18.9898 51.5731 18.4074L50.4846 13.0585C49.8832 11.2706 50.4564 9.26164 52.1236 7.38894C55.2612 3.85249 61.3458 1.82219 65.9832 2.77299C68.404 3.2693 70.1164 4.57367 70.6911 6.34872L72.7847 10.9797C72.8795 11.1971 72.9066 11.4227 72.8618 11.6408L72.8577 11.6253Z" fill="#2B2B2B"/>
<path d="M105.455 63.84C105.065 65.74 104.253 67.414 103.296 68.5012C102.258 69.6669 101.038 70.1794 99.8632 69.9385L89.188 67.7498C88.6039 67.63 88.2291 67.0619 88.3488 66.4778C88.4686 65.8937 89.0367 65.5189 89.6208 65.6387L100.296 67.8274C100.683 67.9067 101.187 67.6288 101.683 67.0705C103.199 65.3647 104.153 61.7473 103.123 58.6542C102.596 57.0724 102.061 56.5739 101.857 56.5321L91.1814 54.3434C90.5973 54.2236 90.2225 53.6555 90.3422 53.0714C90.462 52.4873 91.0301 52.1125 91.6142 52.2322L102.289 54.4209C103.514 54.672 104.456 55.8332 105.169 57.9738C105.823 59.9338 105.833 61.9963 105.453 63.847L105.455 63.84Z" fill="#2B2B2B"/>
<path d="M94.7711 61.6564C94.3441 63.7394 93.4121 65.6383 92.1627 66.7607C90.9755 67.83 89.8862 67.8853 89.1824 67.741C87.7468 67.4467 86.6359 66.1409 85.8721 63.8577C83.9487 58.0736 82.6304 50.4115 81.3489 42.999C79.4029 31.7103 77.2006 18.9171 73.0318 17.4684C73.0036 17.4627 72.9839 17.4513 72.9572 17.4385C72.9109 17.4143 72.8334 17.3984 72.7279 17.3768C72.1438 17.257 71.769 16.6889 71.8887 16.1048C72.0085 15.5207 72.5766 15.1459 73.1607 15.2656L83.8363 17.4544C89.6421 18.6447 91.725 30.7681 94.141 44.8077C94.655 47.773 95.177 50.8426 95.7447 53.7602C95.8518 54.3468 95.4729 54.9071 94.8919 55.0227C94.6254 55.0707 94.3636 55.0244 94.1472 54.8993C94.2671 55.1732 94.3741 55.4738 94.4783 55.7885C94.7199 56.5054 94.8811 57.2571 94.9592 58.0211C94.9563 58.0351 94.966 58.0591 94.9631 58.0732C95.08 59.2558 94.9966 60.4853 94.7556 61.6605L94.7711 61.6564ZM77.008 18.247C80.0781 22.873 81.6842 32.2074 83.4851 42.6303C84.7458 49.9652 86.0519 57.5441 87.9267 63.1717C88.3988 64.5884 89.0326 65.503 89.6238 65.6242C90.0179 65.705 90.4363 65.4168 90.7235 65.1604C91.8584 64.1318 92.9267 61.7109 92.8819 59.0324L88.3428 58.1018C87.7798 57.9864 87.4007 57.4393 87.495 56.872C87.7985 54.9983 88.6558 53.3921 89.7315 52.652C90.3209 52.2449 90.9754 52.0931 91.6158 52.2244C92.3688 52.3788 93.0144 52.8778 93.5668 53.7244C93.0281 50.9153 92.528 47.9895 92.0388 45.154C90.0434 33.5692 87.785 20.4419 83.4219 19.5473L77.0179 18.2344L77.008 18.247ZM89.858 56.2199L92.5392 56.7696C92.5087 56.668 92.4782 56.5664 92.4406 56.4634C91.9129 54.8885 91.3771 54.39 91.166 54.3468C91.0956 54.3323 90.9853 54.4051 90.9359 54.4316C90.5698 54.6792 90.1426 55.3322 89.8509 56.2184L89.858 56.2199Z" fill="#2B2B2B"/>
</g>
<defs>
<clipPath id="clip0_802_7499">
<rect width="134.586" height="85.2847" fill="white" transform="translate(25.5 131.844) rotate(-78.4134)"/>
</clipPath>
</defs>
</svg>
