<svg width="14" height="14" viewBox="0 0 14 14" fill="none" xmlns="http://www.w3.org/2000/svg">
<path d="M8.85488 6.99988L12.8799 2.97488C13.3874 2.46738 13.3874 1.62738 12.8799 1.11988C12.3724 0.612383 11.5324 0.612383 11.0249 1.11988L6.99988 5.14488L2.97488 1.11988C2.46738 0.612383 1.62738 0.612383 1.11988 1.11988C0.612383 1.62738 0.612383 2.46738 1.11988 2.97488L5.14488 6.99988L1.11988 11.0249C0.612383 11.5324 0.612383 12.3724 1.11988 12.8799C1.38238 13.1424 1.71488 13.2649 2.04738 13.2649C2.37988 13.2649 2.71238 13.1424 2.97488 12.8799L6.99988 8.85488L11.0249 12.8799C11.2874 13.1424 11.6199 13.2649 11.9524 13.2649C12.2849 13.2649 12.6174 13.1424 12.8799 12.8799C13.3874 12.3724 13.3874 11.5324 12.8799 11.0249L8.85488 6.99988Z" fill="#4325F5"/>
</svg>
