<svg width="165" height="93" viewBox="0 0 165 93" fill="none" xmlns="http://www.w3.org/2000/svg">
<path d="M164.271 59.3338C164.274 58.7815 163.828 58.3317 163.276 58.329L154.276 58.2853C153.724 58.2826 153.274 58.7282 153.271 59.2804C153.269 59.8327 153.714 60.2826 154.266 60.2853L162.266 60.3241L162.227 68.324C162.225 68.8763 162.67 69.3262 163.223 69.3289C163.775 69.3315 164.225 68.886 164.227 68.3337L164.271 59.3338ZM90.6048 6.68084L91.4105 7.27315L90.6048 6.68084ZM162.567 58.6184C153.408 67.6894 140.901 78.2543 127.799 84.5771C114.684 90.9061 101.217 92.8806 89.8682 85.2352L88.7507 86.8939C100.968 95.125 115.29 92.8347 128.668 86.3783C142.06 79.9157 154.751 69.1745 163.975 60.0395L162.567 58.6184ZM89.8682 85.2352C75.5794 75.6089 72.6978 60.6238 75.0545 45.6752C77.4154 30.7007 85.0224 15.9628 91.4105 7.27315L89.7991 6.08853C83.2705 14.9692 75.501 30.0005 73.079 45.3638C70.6528 60.7531 73.5819 76.6747 88.7507 86.8939L89.8682 85.2352ZM91.4105 7.27315C93.865 3.93441 96.2966 2.36635 98.2136 2.1775C99.1424 2.08599 99.9852 2.31069 100.735 2.85794C101.499 3.41595 102.216 4.34774 102.787 5.74007C103.937 8.54053 104.419 13.0137 103.664 19.2769C102.91 25.5187 100.938 33.454 97.2729 43.1192L99.143 43.8284C102.849 34.0549 104.872 25.959 105.649 19.5165C106.424 13.0954 105.972 8.23116 104.638 4.9804C103.967 3.34712 103.054 2.07484 101.914 1.24273C100.76 0.39988 99.4254 0.0484255 98.0175 0.187135C95.2608 0.458715 92.3809 2.57658 89.7991 6.08853L91.4105 7.27315ZM97.2729 43.1192C90.0409 62.1894 71.7905 74.8661 52.6762 74.4396C33.6513 74.015 13.4289 60.5763 2.34457 26.6939L0.443696 27.3157C11.7105 61.7557 32.5232 75.9903 52.6316 76.4391C72.6504 76.8858 91.6314 63.6358 99.143 43.8284L97.2729 43.1192Z" fill="#2B2B2B"/>
</svg>
