<svg width="185" height="244" viewBox="0 0 185 244" fill="none" xmlns="http://www.w3.org/2000/svg">
<path d="M185 232.5C185 238.851 143.586 244 92.5 244C41.4137 244 0 238.851 0 232.5C0 226.149 41.4137 221 92.5 221C143.586 221 185 226.149 185 232.5Z" fill="#2B2B2B"/>
<path d="M20.4999 61.5L120.5 5C120.333 24.6667 120.1 65.8 120.5 73C120.9 80.2 117.333 83.6667 115.5 84.5C92.9999 97.5 47.3999 123.9 44.9999 125.5C41.9999 127.5 22.9999 156 20.9999 159C19.3999 161.4 18.9999 159 18.9999 157.5V69.5C18.9999 63.9 19.9999 61.8333 20.4999 61.5Z" fill="white"/>
<path d="M19.4231 160.792C20.1156 160.792 20.8568 160.344 21.4108 159.555L43.0142 128.821C44.2442 127.063 45.7594 125.622 47.2745 124.743L117.29 84.3475C119.571 83.029 121.363 79.936 121.363 77.307V5.85212C121.363 4.99749 121.021 4.31379 120.418 3.9638C119.815 3.61381 119.05 3.66264 118.308 4.08589L20.1481 60.711C18.8936 61.4354 17.908 63.1365 17.908 64.5853V159.058C17.908 159.88 18.3071 160.499 18.967 160.71C19.1136 160.759 19.2684 160.784 19.4231 160.784V160.792ZM119.53 5.36376C119.53 5.36376 119.587 5.36376 119.603 5.38004C119.652 5.41259 119.734 5.56724 119.734 5.86026V77.307C119.734 79.3419 118.243 81.922 116.475 82.9394L46.4599 123.335C44.7248 124.336 43.0712 125.907 41.6863 127.885L20.083 158.619C19.863 158.928 19.6594 159.066 19.5372 159.131C19.5372 159.115 19.5372 159.099 19.5372 159.074V64.5934C19.5372 63.7144 20.2052 62.5668 20.9627 62.1272L119.123 5.50213C119.302 5.39632 119.449 5.36376 119.53 5.36376Z" fill="#2B2B2B"/>
<path d="M19.2276 160.556C19.5046 160.556 19.7734 160.409 19.9282 160.157C20.1481 159.783 20.0341 159.302 19.6757 159.066C19.6838 159.066 19.6757 159.009 19.6757 158.928C19.6757 157.992 19.6757 65.7329 19.6838 64.4714C19.7897 63.6004 20.3436 62.6726 20.9872 62.2575C22.2498 61.5086 118.105 6.21025 119.074 5.64863C119.343 5.50213 119.498 5.50213 119.546 5.52654C119.937 5.73817 120.426 5.59166 120.638 5.20097C120.85 4.81029 120.719 4.32193 120.337 4.10217L113.755 0.268557C113.193 -0.105851 112.394 -0.0895726 111.612 0.34995C110.627 0.919701 13.9327 56.7065 13.615 56.8855C12.442 57.5774 11.5133 59.075 11.4074 60.4587C11.4074 60.9715 11.3911 67.2876 11.3911 155.037C11.3911 155.933 11.8473 156.364 12.1243 156.535C12.1405 156.551 12.2057 156.6 12.3035 156.641L18.8122 160.442C18.9425 160.515 19.081 160.556 19.2195 160.556H19.2276ZM20.1156 60.8738C18.9995 61.59 18.1523 63.0307 18.0546 64.3818C18.0546 64.3818 18.0492 95.6259 18.0383 158.114L13.0448 155.2C13.0448 155.2 13.0122 155.127 13.0122 155.045C13.0122 154.118 13.0122 62.4284 13.0203 60.5645C13.1018 59.718 13.729 58.7006 14.4296 58.2936C14.7391 58.1146 111.433 2.3278 112.41 1.76619C112.663 1.61968 112.834 1.61968 112.883 1.65224L117.787 4.50913C30.3715 54.9402 21.1664 60.2552 20.1156 60.8982V60.8738Z" fill="#2B2B2B"/>
<path d="M109.957 65.7976L110.771 67.2073L86.5806 81.1622L85.766 79.7524L109.957 65.7976Z" fill="#2B2B2B"/>
<path d="M79.8105 83.1849L80.6251 84.5946L43.475 106.025L42.6604 104.616L79.8105 83.1849Z" fill="#2B2B2B"/>
<path d="M31.7563 98.2169L109.959 53.1089V55.9821L31.7563 101.098V98.2169Z" fill="#4325F5"/>
<path d="M109.952 38.876L110.767 40.2857L57.9412 70.7593L57.1265 69.3495L109.952 38.876Z" fill="#2B2B2B"/>
<path d="M52.1206 72.2357L52.9352 73.6455L44.5683 78.4721L43.7537 77.0623L52.1206 72.2357Z" fill="#2B2B2B"/>
<path d="M109.958 25.4172L110.772 26.8269L72.1265 49.1205L71.3119 47.7107L109.958 25.4172Z" fill="#2B2B2B"/>
<path d="M70.1813 200.609L70.5886 199.901L65.0818 196.711C64.5931 196.45 64.3324 195.856 64.3324 195.042V134.681C64.3324 133.843 64.9515 132.768 65.6765 132.353L148.628 84.5103C148.905 84.3475 149.166 84.315 149.32 84.4126L154.843 87.587L155.251 86.8788L149.744 83.7127C149.337 83.4603 148.775 83.4929 148.221 83.8103L65.2855 131.653C64.2998 132.223 63.5341 133.558 63.5341 134.689V195.05C63.5341 196.182 63.9495 197.028 64.699 197.427L70.1894 200.609H70.1813Z" fill="#2B2B2B"/>
<path d="M71.4999 134.5L154.5 86.9999C155.898 86.1999 156.082 87.9999 156 88.9999V167.5C156 170.3 154 170.333 153 170C148.5 168.833 139 166.3 137 165.5C135 164.7 133.5 165.167 133 165.5L131 166.5C113 177 76.2999 198.4 73.4999 200C70.6999 201.6 69.6665 198.333 69.4999 196.5V140C69.4999 136.8 70.8332 135 71.4999 134.5Z" fill="white"/>
<path d="M71.3543 201C71.8512 201 72.3889 200.837 72.9347 200.52L132.319 166.27C133.59 165.537 134.837 165.277 135.839 165.545L154.159 170.478C154.518 170.575 154.933 170.461 155.316 170.168C155.943 169.688 156.391 168.825 156.391 168.085V87.9695C156.391 87.3509 156.155 86.8544 155.731 86.6184C155.316 86.3742 154.762 86.4149 154.232 86.7242L70.9877 134.746C70.0021 135.316 69.2363 136.651 69.2363 137.782V198.379C69.2363 199.478 69.6355 200.316 70.3523 200.731C70.6538 200.91 71.004 200.992 71.3706 200.992L71.3543 201ZM135.008 164.625C134.046 164.625 132.996 164.943 131.92 165.561L72.5355 199.82C71.8431 200.219 71.2077 200.292 70.7515 200.031C70.2953 199.771 70.0428 199.185 70.0428 198.379V137.782C70.0428 136.944 70.6619 135.869 71.3869 135.454L154.64 87.4323C154.917 87.2695 155.169 87.237 155.324 87.3265C155.487 87.416 155.577 87.6521 155.577 87.9776V168.093C155.577 168.581 155.251 169.2 154.827 169.525C154.648 169.664 154.477 169.721 154.371 169.696L136.05 164.764C135.716 164.674 135.366 164.625 135 164.625H135.008Z" fill="#2B2B2B"/>
<path d="M144.68 137.515L145.087 138.22L120.868 152.191L120.461 151.486L144.68 137.515Z" fill="#2B2B2B"/>
<path d="M114.499 154.932L114.908 155.635L93.7965 167.902L93.387 167.199L114.499 154.932Z" fill="#2B2B2B"/>
<path d="M82.2619 160.572L144.987 124.303V127.201L82.2619 163.478V160.572Z" fill="#4325F5"/>
<path d="M144.676 110.557L145.085 111.262L108.268 132.586L107.86 131.881L144.676 110.557Z" fill="#2B2B2B"/>
</svg>
