<svg width="185" height="220" viewBox="0 0 185 220" fill="none" xmlns="http://www.w3.org/2000/svg">
<mask id="path-1-inside-1_794_5501" fill="white">
<path d="M185 208.5C185 214.851 143.586 220 92.5 220C41.4137 220 0 214.851 0 208.5C0 202.149 41.4137 197 92.5 197C143.586 197 185 202.149 185 208.5Z"/>
<path d="M58.4249 171.343L57.6049 169.921L68.7816 163.463L68.8636 163.414L68.9784 163.348C70.4052 162.436 71.2088 160.513 71.2088 157.966V156.807C71.2088 151.483 69.1752 146.347 65.6245 142.724C62.0903 139.108 58.4167 137.794 56.0387 139.289C56.0223 139.305 55.9977 139.314 55.9813 139.322C55.5877 139.544 48.2077 143.825 45.3705 145.468L44.5505 144.047L54.7349 138.139C54.8743 138.056 55.0301 137.974 55.1777 137.9C58.2445 135.961 62.6971 137.374 66.8054 141.565C70.7086 145.55 72.857 150.965 72.857 156.799V157.958C72.857 161.088 71.7828 163.496 69.8394 164.745L69.6016 164.884L58.4331 171.335L58.4249 171.343Z"/>
<path d="M41.8281 150.546V152.058C41.8281 157.604 43.9355 162.986 47.8387 166.93C54.7431 173.898 61.2375 171.828 61.2375 164.243V161.976C61.2375 155.558 56.5881 147.711 50.9793 144.827C45.9937 142.263 41.8281 144.934 41.8281 150.554V150.546Z"/>
<path d="M55.8911 172C53.2343 172 50.1593 170.431 47.2647 167.505C43.2959 163.496 41.0163 157.867 41.0163 152.058V150.546C41.0163 147.539 42.1643 145.106 44.1733 143.882C46.1741 142.658 48.7243 142.732 51.3647 144.088C57.1703 147.07 62.0739 155.262 62.0739 161.967V164.235C62.0739 167.867 60.6553 170.538 58.1707 171.565C57.4655 171.86 56.7029 172 55.8993 172H55.8911ZM47.3221 144.663C46.4775 144.663 45.6985 144.868 45.0179 145.287C43.5091 146.208 42.6481 148.13 42.6481 150.554V152.066C42.6481 157.448 44.7555 162.658 48.4209 166.355C51.7091 169.675 55.1121 171.055 57.5393 170.053C59.3761 169.297 60.4257 167.177 60.4257 164.243V161.976C60.4257 155.813 55.9321 148.295 50.6103 145.558C49.4541 144.967 48.3471 144.671 47.3303 144.671L47.3221 144.663Z"/>
<path d="M61.2539 138.476L60.4339 137.054L70.7004 131.08C70.7004 130.111 70.6594 127.761 70.6348 126.208C70.6348 121.459 71.2006 118.073 72.3732 115.83C73.226 114.187 77.2604 112.765 78.269 112.436L88.8716 106.266C92.332 104.17 94.71 101.763 95.9318 99.1006C97.8999 94.836 98.8921 89.9142 98.8921 84.4582C98.8921 73.3984 95.9483 62.7823 90.1426 52.9057C84.337 43.0208 76.3174 35.0752 66.3133 29.2823C56.0141 23.3252 47.9863 22.0351 42.4513 25.4697C42.1807 25.6259 35.35 29.6028 31.7502 31.6899L30.9302 30.2684L36.2685 27.1624C39.5567 25.2479 40.9507 24.4344 41.6231 24.1304L41.5903 24.0729C47.6747 20.3014 56.2683 21.575 67.1334 27.8608C77.3916 33.7934 85.608 41.9444 91.5612 52.0758C97.5145 62.2153 100.532 73.1108 100.532 84.4582C100.532 90.1525 99.4825 95.3044 97.4161 99.7826C96.0548 102.741 93.4554 105.395 89.6998 107.671L79.007 113.891C78.9578 113.924 78.9086 113.94 78.8512 113.965C76.7274 114.655 74.2018 115.855 73.8164 116.586C72.7914 118.558 72.2666 121.787 72.2666 126.183C72.3267 129.853 72.3185 131.762 72.242 131.91C72.1682 132.05 72.0616 132.173 71.9222 132.255L61.2457 138.467L61.2539 138.476Z"/>
<path d="M36.7031 64.4585L35.883 63.037L46.4857 56.8662C47.4697 56.2499 48.1339 55.1653 48.4455 53.7109C48.7817 52.1086 49.1999 50.6543 49.6837 49.3889L51.2171 49.9805C50.7661 51.1637 50.3725 52.5359 50.0527 54.056C49.6509 55.9623 48.7325 57.4085 47.3959 58.2466C47.3877 58.2466 47.3303 58.2877 47.3221 58.2877L36.7031 64.4667V64.4585Z"/>
<path d="M79.8434 58.7478C73.9394 48.6904 65.8952 40.7201 55.7107 34.8287C37.1459 24.0893 25.9118 28.2224 21.9922 47.2196C21.041 51.8293 24.0586 58.6492 28.5276 62.2482C33.0622 65.8964 37.2443 64.779 38.2283 60.1282C40.4915 49.4793 45.9281 46.6445 54.5709 51.6485C59.1711 54.3107 62.7955 58.0001 65.4688 62.733C68.1256 67.4576 69.4622 72.9465 69.4622 79.1995C69.4622 84.6636 68.5028 88.6159 66.6003 91.0645C64.6979 93.5049 61.2211 95.781 56.1699 97.868C51.0695 99.9962 47.8715 102.568 46.5841 105.6C45.2967 108.632 44.6489 114.926 44.6489 124.491L44.5669 128.541L60.5159 137.769L60.4339 132.453C60.4339 127.9 60.9833 124.573 62.0821 122.469C63.1809 120.366 66.2888 118.361 71.4056 116.438C78.884 113.669 83.64 110.095 85.6654 105.699C87.6908 101.303 88.6994 96.3151 88.6994 90.7112C88.6994 79.4542 85.7474 68.797 79.8434 58.7396V58.7478Z"/>
<path d="M60.5241 138.591C60.3847 138.591 60.2371 138.558 60.1141 138.484L44.1651 129.256C43.9027 129.108 43.7469 128.829 43.7551 128.525L43.8371 124.474C43.8371 114.729 44.4931 108.443 45.8379 105.28C47.1991 102.067 50.5775 99.3142 55.8583 97.1121C60.7455 95.0908 64.1485 92.8804 65.9525 90.5633C67.732 88.279 68.6422 84.45 68.6422 79.2077C68.6422 73.1355 67.3301 67.737 64.7553 63.1438C62.1723 58.5588 58.6053 54.9352 54.1609 52.3634C50.2823 50.1202 47.1007 49.5286 44.6981 50.605C42.0495 51.7882 40.1471 55.0503 39.0319 60.309C38.5317 62.6508 37.2607 64.3024 35.4402 64.9515C33.2672 65.7321 30.6268 65.0008 28.0192 62.8973C23.2468 59.0518 20.1882 51.9443 21.1886 47.0553C23.091 37.8032 26.7892 31.8871 32.1766 29.4631C38.1135 26.7927 46.1741 28.3621 56.1207 34.1138C66.379 40.0464 74.5954 48.1974 80.5486 58.3205C86.5018 68.4519 89.5194 79.3556 89.5194 90.703C89.5194 96.3972 88.4698 101.549 86.4034 106.036C84.296 110.612 79.3432 114.367 71.6844 117.202C66.7889 119.043 63.7959 120.941 62.8037 122.839C61.7787 124.811 61.2539 128.04 61.2539 132.436L61.3359 137.744C61.3359 138.04 61.1883 138.319 60.9341 138.467C60.8029 138.541 60.6635 138.582 60.5159 138.582L60.5241 138.591ZM45.4115 128.073L59.6877 136.331L59.6221 132.461C59.6221 127.712 60.1879 124.326 61.3605 122.083C62.5659 119.774 65.7557 117.679 71.1186 115.666C78.3592 112.987 83.0004 109.519 84.9192 105.354C86.8872 101.089 87.8794 96.1672 87.8794 90.7112C87.8794 79.6514 84.9356 69.0353 79.1382 59.1587C73.3326 49.2738 65.3129 41.3282 55.3089 35.5353C45.8379 30.0547 38.2857 28.5182 32.8572 30.9586C27.9782 33.1525 24.5916 38.6824 22.804 47.384C21.9266 51.6567 24.7884 58.1644 29.0524 61.5991C31.168 63.2999 33.3 63.9573 34.899 63.3821C36.1618 62.9302 37.0639 61.7141 37.4329 59.9475C38.6629 54.1464 40.8851 50.4899 44.0339 49.0849C46.9449 47.7866 50.6267 48.4029 54.9891 50.9254C59.6877 53.6452 63.4597 57.4742 66.1903 62.3221C68.9128 67.1618 70.2904 72.8314 70.2904 79.1912C70.2904 84.8115 69.2654 88.9775 67.2563 91.5575C65.2719 94.1047 61.6475 96.4794 56.4979 98.6158C51.6271 100.654 48.5521 103.102 47.3549 105.912C46.1167 108.829 45.4853 115.082 45.4853 124.482L45.4115 128.065V128.073Z"/>
<path d="M127.018 149.305L126.198 147.884L137.719 141.228C137.719 141.228 137.801 141.179 137.809 141.179L137.932 141.113C139.408 140.168 140.245 138.18 140.245 135.542V134.384C140.245 128.681 137.998 123.225 134.078 119.413C130.569 116.003 126.928 114.795 124.575 116.274C124.558 116.282 124.534 116.298 124.517 116.307C124.115 116.528 116.506 120.949 113.578 122.642L112.758 121.22L123.263 115.132C123.41 115.049 123.566 114.959 123.714 114.885C126.78 112.946 131.085 114.195 135.226 118.221C139.466 122.338 141.893 128.229 141.893 134.375V135.534C141.893 138.747 140.794 141.228 138.793 142.51L127.035 149.305H127.018Z"/>
<path d="M126.42 113.357L125.6 111.935L136.145 105.797C136.555 99.4621 141.286 24.2947 141.335 23.5059C141.77 16.5709 136.866 7.65571 130.626 4.04853C128.035 2.55307 125.608 2.24083 123.787 3.16933C123.312 3.42405 116.867 7.13805 112.611 9.60309L111.791 8.18158L117.391 4.94416C120.934 2.89817 122.393 2.06006 123.082 1.76425L123.049 1.69852C125.386 0.507083 128.371 0.835755 131.454 2.6188C138.17 6.50535 143.451 16.119 142.975 23.6045L137.982 102.773C137.812 105.447 137.593 106.857 137.326 107.005L126.428 113.349L126.42 113.357Z"/>
<path d="M126.01 113.472C125.87 113.472 125.723 113.439 125.6 113.365L113.775 106.529C113.537 106.389 113.382 106.142 113.365 105.863L108.158 17.105C107.92 13.0213 109.191 9.80851 111.651 8.2884C114.038 6.80938 117.178 7.05588 120.499 8.97861C127.215 12.8652 132.496 22.4788 132.02 29.9643L126.813 112.699C126.797 112.987 126.633 113.233 126.379 113.373C126.256 113.439 126.124 113.472 125.993 113.472H126.01Z"/>
<path d="M124.181 149.568C121.951 149.568 119.417 148.451 116.916 146.323C112.086 142.19 109.322 136.002 109.322 129.347V128.451C109.322 125.164 110.544 122.584 112.668 121.36C114.792 120.136 117.514 120.366 120.327 122.017C125.87 125.263 130.372 133.126 130.372 139.535V141.803C130.372 145.32 129.027 147.958 126.674 149.042C125.903 149.396 125.058 149.576 124.173 149.576L124.181 149.568Z"/>
</mask>
<path d="M185 208.5C185 214.851 143.586 220 92.5 220C41.4137 220 0 214.851 0 208.5C0 202.149 41.4137 197 92.5 197C143.586 197 185 202.149 185 208.5Z" fill="#2B2B2B"/>
<path d="M58.4249 171.343L57.6049 169.921L68.7816 163.463L68.8636 163.414L68.9784 163.348C70.4052 162.436 71.2088 160.513 71.2088 157.966V156.807C71.2088 151.483 69.1752 146.347 65.6245 142.724C62.0903 139.108 58.4167 137.794 56.0387 139.289C56.0223 139.305 55.9977 139.314 55.9813 139.322C55.5877 139.544 48.2077 143.825 45.3705 145.468L44.5505 144.047L54.7349 138.139C54.8743 138.056 55.0301 137.974 55.1777 137.9C58.2445 135.961 62.6971 137.374 66.8054 141.565C70.7086 145.55 72.857 150.965 72.857 156.799V157.958C72.857 161.088 71.7828 163.496 69.8394 164.745L69.6016 164.884L58.4331 171.335L58.4249 171.343Z" fill="#4325F5"/>
<path d="M41.8281 150.546V152.058C41.8281 157.604 43.9355 162.986 47.8387 166.93C54.7431 173.898 61.2375 171.828 61.2375 164.243V161.976C61.2375 155.558 56.5881 147.711 50.9793 144.827C45.9937 142.263 41.8281 144.934 41.8281 150.554V150.546Z" fill="#4325F5"/>
<path d="M55.8911 172C53.2343 172 50.1593 170.431 47.2647 167.505C43.2959 163.496 41.0163 157.867 41.0163 152.058V150.546C41.0163 147.539 42.1643 145.106 44.1733 143.882C46.1741 142.658 48.7243 142.732 51.3647 144.088C57.1703 147.07 62.0739 155.262 62.0739 161.967V164.235C62.0739 167.867 60.6553 170.538 58.1707 171.565C57.4655 171.86 56.7029 172 55.8993 172H55.8911ZM47.3221 144.663C46.4775 144.663 45.6985 144.868 45.0179 145.287C43.5091 146.208 42.6481 148.13 42.6481 150.554V152.066C42.6481 157.448 44.7555 162.658 48.4209 166.355C51.7091 169.675 55.1121 171.055 57.5393 170.053C59.3761 169.297 60.4257 167.177 60.4257 164.243V161.976C60.4257 155.813 55.9321 148.295 50.6103 145.558C49.4541 144.967 48.3471 144.671 47.3303 144.671L47.3221 144.663Z" fill="#4325F5"/>
<path d="M61.2539 138.476L60.4339 137.054L70.7004 131.08C70.7004 130.111 70.6594 127.761 70.6348 126.208C70.6348 121.459 71.2006 118.073 72.3732 115.83C73.226 114.187 77.2604 112.765 78.269 112.436L88.8716 106.266C92.332 104.17 94.71 101.763 95.9318 99.1006C97.8999 94.836 98.8921 89.9142 98.8921 84.4582C98.8921 73.3984 95.9483 62.7823 90.1426 52.9057C84.337 43.0208 76.3174 35.0752 66.3133 29.2823C56.0141 23.3252 47.9863 22.0351 42.4513 25.4697C42.1807 25.6259 35.35 29.6028 31.7502 31.6899L30.9302 30.2684L36.2685 27.1624C39.5567 25.2479 40.9507 24.4344 41.6231 24.1304L41.5903 24.0729C47.6747 20.3014 56.2683 21.575 67.1334 27.8608C77.3916 33.7934 85.608 41.9444 91.5612 52.0758C97.5145 62.2153 100.532 73.1108 100.532 84.4582C100.532 90.1525 99.4825 95.3044 97.4161 99.7826C96.0548 102.741 93.4554 105.395 89.6998 107.671L79.007 113.891C78.9578 113.924 78.9086 113.94 78.8512 113.965C76.7274 114.655 74.2018 115.855 73.8164 116.586C72.7914 118.558 72.2666 121.787 72.2666 126.183C72.3267 129.853 72.3185 131.762 72.242 131.91C72.1682 132.05 72.0616 132.173 71.9222 132.255L61.2457 138.467L61.2539 138.476Z" fill="#4325F5"/>
<path d="M36.7031 64.4585L35.883 63.037L46.4857 56.8662C47.4697 56.2499 48.1339 55.1653 48.4455 53.7109C48.7817 52.1086 49.1999 50.6543 49.6837 49.3889L51.2171 49.9805C50.7661 51.1637 50.3725 52.5359 50.0527 54.056C49.6509 55.9623 48.7325 57.4085 47.3959 58.2466C47.3877 58.2466 47.3303 58.2877 47.3221 58.2877L36.7031 64.4667V64.4585Z" fill="#4325F5"/>
<path d="M79.8434 58.7478C73.9394 48.6904 65.8952 40.7201 55.7107 34.8287C37.1459 24.0893 25.9118 28.2224 21.9922 47.2196C21.041 51.8293 24.0586 58.6492 28.5276 62.2482C33.0622 65.8964 37.2443 64.779 38.2283 60.1282C40.4915 49.4793 45.9281 46.6445 54.5709 51.6485C59.1711 54.3107 62.7955 58.0001 65.4688 62.733C68.1256 67.4576 69.4622 72.9465 69.4622 79.1995C69.4622 84.6636 68.5028 88.6159 66.6003 91.0645C64.6979 93.5049 61.2211 95.781 56.1699 97.868C51.0695 99.9962 47.8715 102.568 46.5841 105.6C45.2967 108.632 44.6489 114.926 44.6489 124.491L44.5669 128.541L60.5159 137.769L60.4339 132.453C60.4339 127.9 60.9833 124.573 62.0821 122.469C63.1809 120.366 66.2888 118.361 71.4056 116.438C78.884 113.669 83.64 110.095 85.6654 105.699C87.6908 101.303 88.6994 96.3151 88.6994 90.7112C88.6994 79.4542 85.7474 68.797 79.8434 58.7396V58.7478Z" fill="#4325F5"/>
<path d="M60.5241 138.591C60.3847 138.591 60.2371 138.558 60.1141 138.484L44.1651 129.256C43.9027 129.108 43.7469 128.829 43.7551 128.525L43.8371 124.474C43.8371 114.729 44.4931 108.443 45.8379 105.28C47.1991 102.067 50.5775 99.3142 55.8583 97.1121C60.7455 95.0908 64.1485 92.8804 65.9525 90.5633C67.732 88.279 68.6422 84.45 68.6422 79.2077C68.6422 73.1355 67.3301 67.737 64.7553 63.1438C62.1723 58.5588 58.6053 54.9352 54.1609 52.3634C50.2823 50.1202 47.1007 49.5286 44.6981 50.605C42.0495 51.7882 40.1471 55.0503 39.0319 60.309C38.5317 62.6508 37.2607 64.3024 35.4402 64.9515C33.2672 65.7321 30.6268 65.0008 28.0192 62.8973C23.2468 59.0518 20.1882 51.9443 21.1886 47.0553C23.091 37.8032 26.7892 31.8871 32.1766 29.4631C38.1135 26.7927 46.1741 28.3621 56.1207 34.1138C66.379 40.0464 74.5954 48.1974 80.5486 58.3205C86.5018 68.4519 89.5194 79.3556 89.5194 90.703C89.5194 96.3972 88.4698 101.549 86.4034 106.036C84.296 110.612 79.3432 114.367 71.6844 117.202C66.7889 119.043 63.7959 120.941 62.8037 122.839C61.7787 124.811 61.2539 128.04 61.2539 132.436L61.3359 137.744C61.3359 138.04 61.1883 138.319 60.9341 138.467C60.8029 138.541 60.6635 138.582 60.5159 138.582L60.5241 138.591ZM45.4115 128.073L59.6877 136.331L59.6221 132.461C59.6221 127.712 60.1879 124.326 61.3605 122.083C62.5659 119.774 65.7557 117.679 71.1186 115.666C78.3592 112.987 83.0004 109.519 84.9192 105.354C86.8872 101.089 87.8794 96.1672 87.8794 90.7112C87.8794 79.6514 84.9356 69.0353 79.1382 59.1587C73.3326 49.2738 65.3129 41.3282 55.3089 35.5353C45.8379 30.0547 38.2857 28.5182 32.8572 30.9586C27.9782 33.1525 24.5916 38.6824 22.804 47.384C21.9266 51.6567 24.7884 58.1644 29.0524 61.5991C31.168 63.2999 33.3 63.9573 34.899 63.3821C36.1618 62.9302 37.0639 61.7141 37.4329 59.9475C38.6629 54.1464 40.8851 50.4899 44.0339 49.0849C46.9449 47.7866 50.6267 48.4029 54.9891 50.9254C59.6877 53.6452 63.4597 57.4742 66.1903 62.3221C68.9128 67.1618 70.2904 72.8314 70.2904 79.1912C70.2904 84.8115 69.2654 88.9775 67.2563 91.5575C65.2719 94.1047 61.6475 96.4794 56.4979 98.6158C51.6271 100.654 48.5521 103.102 47.3549 105.912C46.1167 108.829 45.4853 115.082 45.4853 124.482L45.4115 128.065V128.073Z" fill="#4325F5"/>
<path d="M127.018 149.305L126.198 147.884L137.719 141.228C137.719 141.228 137.801 141.179 137.809 141.179L137.932 141.113C139.408 140.168 140.245 138.18 140.245 135.542V134.384C140.245 128.681 137.998 123.225 134.078 119.413C130.569 116.003 126.928 114.795 124.575 116.274C124.558 116.282 124.534 116.298 124.517 116.307C124.115 116.528 116.506 120.949 113.578 122.642L112.758 121.22L123.263 115.132C123.41 115.049 123.566 114.959 123.714 114.885C126.78 112.946 131.085 114.195 135.226 118.221C139.466 122.338 141.893 128.229 141.893 134.375V135.534C141.893 138.747 140.794 141.228 138.793 142.51L127.035 149.305H127.018Z" fill="#2B2B2B"/>
<path d="M126.42 113.357L125.6 111.935L136.145 105.797C136.555 99.4621 141.286 24.2947 141.335 23.5059C141.77 16.5709 136.866 7.65571 130.626 4.04853C128.035 2.55307 125.608 2.24083 123.787 3.16933C123.312 3.42405 116.867 7.13805 112.611 9.60309L111.791 8.18158L117.391 4.94416C120.934 2.89817 122.393 2.06006 123.082 1.76425L123.049 1.69852C125.386 0.507083 128.371 0.835755 131.454 2.6188C138.17 6.50535 143.451 16.119 142.975 23.6045L137.982 102.773C137.812 105.447 137.593 106.857 137.326 107.005L126.428 113.349L126.42 113.357Z" fill="#2B2B2B"/>
<path d="M126.01 113.472C125.87 113.472 125.723 113.439 125.6 113.365L113.775 106.529C113.537 106.389 113.382 106.142 113.365 105.863L108.158 17.105C107.92 13.0213 109.191 9.80851 111.651 8.2884C114.038 6.80938 117.178 7.05588 120.499 8.97861C127.215 12.8652 132.496 22.4788 132.02 29.9643L126.813 112.699C126.797 112.987 126.633 113.233 126.379 113.373C126.256 113.439 126.124 113.472 125.993 113.472H126.01Z" fill="white"/>
<path d="M124.181 149.568C121.951 149.568 119.417 148.451 116.916 146.323C112.086 142.19 109.322 136.002 109.322 129.347V128.451C109.322 125.164 110.544 122.584 112.668 121.36C114.792 120.136 117.514 120.366 120.327 122.017C125.87 125.263 130.372 133.126 130.372 139.535V141.803C130.372 145.32 129.027 147.958 126.674 149.042C125.903 149.396 125.058 149.576 124.173 149.576L124.181 149.568Z" fill="white"/>
<path d="M58.4249 171.343L57.5587 171.842L58.2111 172.973L59.133 172.049L58.4249 171.343ZM57.6049 169.921L57.1046 169.055L56.2394 169.555L56.7387 170.421L57.6049 169.921ZM68.7816 163.463L69.2819 164.329L69.2893 164.324L69.2967 164.32L68.7816 163.463ZM68.8636 163.414L68.3666 162.546L68.3575 162.551L68.3484 162.556L68.8636 163.414ZM68.9784 163.348L69.4753 164.216L69.4964 164.203L69.517 164.19L68.9784 163.348ZM65.6245 142.724L64.9095 143.423L64.9103 143.423L65.6245 142.724ZM56.0387 139.289L55.5064 138.442L55.4107 138.503L55.3309 138.583L56.0387 139.289ZM55.9813 139.322L55.5334 138.428L55.5116 138.439L55.4903 138.451L55.9813 139.322ZM45.3705 145.468L44.5043 145.968L45.0048 146.835L45.8717 146.333L45.3705 145.468ZM44.5505 144.047L44.0487 143.182L43.1858 143.682L43.6843 144.546L44.5505 144.047ZM54.7349 138.139L55.2367 139.004L55.2427 139L54.7349 138.139ZM55.1777 137.9L55.6257 138.794L55.6701 138.772L55.7121 138.746L55.1777 137.9ZM66.8054 141.565L67.5198 140.865L67.5194 140.865L66.8054 141.565ZM69.8394 164.745L70.3458 165.607L70.3631 165.597L70.38 165.586L69.8394 164.745ZM69.6016 164.884L70.1017 165.75L70.108 165.747L69.6016 164.884ZM58.4331 171.335L57.933 170.469L57.8184 170.535L57.725 170.628L58.4331 171.335ZM47.8387 166.93L47.1279 167.634L47.1284 167.634L47.8387 166.93ZM50.9793 144.827L50.522 145.716L50.9793 144.827ZM47.2647 167.505L47.9755 166.802L47.9754 166.802L47.2647 167.505ZM44.1733 143.882L44.6937 144.736L44.6952 144.735L44.1733 143.882ZM51.3647 144.088L51.8217 143.198L51.8215 143.198L51.3647 144.088ZM58.1707 171.565L57.7887 170.64L57.7839 170.642L58.1707 171.565ZM47.3221 144.663L48.0302 143.957L47.7371 143.663H47.3221V144.663ZM45.0179 145.287L45.5386 146.141L45.5422 146.139L45.0179 145.287ZM48.4209 166.355L49.1313 165.651L49.1311 165.651L48.4209 166.355ZM57.5393 170.053L57.1587 169.128L57.1576 169.128L57.5393 170.053ZM50.6103 145.558L51.0675 144.669L51.0658 144.668L50.6103 145.558ZM47.3303 144.671L46.6222 145.377L46.9153 145.671H47.3303V144.671ZM61.2539 138.476L60.5457 139.181L62.1201 137.976L61.2539 138.476ZM60.4339 137.054L59.931 136.19L59.0699 136.691L59.5677 137.554L60.4339 137.054ZM70.7004 131.08L71.2033 131.945L71.7004 131.655V131.08H70.7004ZM70.6348 126.208H69.6348V126.216L69.6349 126.224L70.6348 126.208ZM72.3732 115.83L73.2594 116.293L73.2608 116.291L72.3732 115.83ZM78.269 112.436L78.5788 113.387L78.68 113.354L78.772 113.301L78.269 112.436ZM88.8716 106.266L89.3746 107.13L89.3821 107.126L89.3896 107.121L88.8716 106.266ZM95.9318 99.1006L95.0239 98.6815L95.023 98.6835L95.9318 99.1006ZM90.1426 52.9057L89.2804 53.4121L89.2805 53.4124L90.1426 52.9057ZM66.3133 29.2823L66.8145 28.417L66.814 28.4167L66.3133 29.2823ZM42.4513 25.4697L42.951 26.3359L42.9649 26.3279L42.9785 26.3194L42.4513 25.4697ZM31.7502 31.6899L30.884 32.1895L31.3848 33.0577L32.2518 32.555L31.7502 31.6899ZM30.9302 30.2684L30.4273 29.404L29.5662 29.9051L30.064 30.768L30.9302 30.2684ZM36.2685 27.1624L36.7714 28.0268L36.7716 28.0266L36.2685 27.1624ZM41.6231 24.1304L42.0351 25.0416L43.0359 24.5891L42.4917 23.635L41.6231 24.1304ZM41.5903 24.0729L41.0634 23.2229L40.244 23.7309L40.7216 24.5683L41.5903 24.0729ZM67.1334 27.8608L66.6326 28.7264L66.6327 28.7265L67.1334 27.8608ZM91.5612 52.0758L92.4236 51.5695L92.4234 51.5692L91.5612 52.0758ZM97.4161 99.7826L96.5081 99.3636L96.5076 99.3645L97.4161 99.7826ZM89.6998 107.671L90.2027 108.535L90.2104 108.531L90.2181 108.526L89.6998 107.671ZM79.007 113.891L78.5042 113.026L78.4773 113.042L78.4515 113.059L79.007 113.891ZM78.8512 113.965L79.1603 114.916L79.2038 114.902L79.2458 114.884L78.8512 113.965ZM73.8164 116.586L72.9317 116.12L72.9291 116.125L73.8164 116.586ZM72.2666 126.183H71.2666V126.191L71.2667 126.2L72.2666 126.183ZM72.242 131.91L73.1262 132.377L73.1301 132.37L72.242 131.91ZM71.9222 132.255L72.4251 133.12L72.43 133.117L71.9222 132.255ZM61.2457 138.467L60.7428 137.603L59.6222 138.255L60.5375 139.173L61.2457 138.467ZM36.7031 64.4585H37.7031V64.1908L37.5693 63.9588L36.7031 64.4585ZM35.883 63.037L35.38 62.1727L34.5191 62.6738L35.0168 63.5367L35.883 63.037ZM46.4857 56.8662L46.9887 57.7304L47.0027 57.7223L47.0165 57.7137L46.4857 56.8662ZM48.4455 53.7109L49.4233 53.9204L49.4242 53.9163L48.4455 53.7109ZM49.6837 49.3889L50.0436 48.4559L49.1078 48.0949L48.7496 49.0318L49.6837 49.3889ZM51.2171 49.9805L52.1515 50.3367L52.5062 49.406L51.5771 49.0475L51.2171 49.9805ZM50.0527 54.056L51.0312 54.2623L51.0313 54.2619L50.0527 54.056ZM47.3959 58.2466V59.2466H47.6835L47.9271 59.0938L47.3959 58.2466ZM47.3221 58.2877V57.2877H47.0523L46.8192 57.4234L47.3221 58.2877ZM36.7031 64.4667H35.7031V66.2056L37.206 65.331L36.7031 64.4667ZM79.8434 58.7478L78.981 59.2541L80.8434 62.4266V58.7478H79.8434ZM55.7107 34.8287L55.21 35.6943L55.21 35.6943L55.7107 34.8287ZM21.9922 47.2196L22.9716 47.4217L22.9716 47.4217L21.9922 47.2196ZM28.5276 62.2482L27.9004 63.027L27.9008 63.0273L28.5276 62.2482ZM38.2283 60.1282L37.2501 59.9204L37.2499 59.9212L38.2283 60.1282ZM54.5709 51.6485L54.0698 52.5139L54.07 52.514L54.5709 51.6485ZM65.4688 62.733L66.3404 62.2428L66.3395 62.2412L65.4688 62.733ZM66.6003 91.0645L67.389 91.6793L67.39 91.6781L66.6003 91.0645ZM56.1699 97.868L55.788 96.9438L55.7848 96.9452L56.1699 97.868ZM44.6489 124.491L45.6487 124.511L45.6489 124.501V124.491H44.6489ZM44.5669 128.541L43.5671 128.521L43.5551 129.111L44.0661 129.407L44.5669 128.541ZM60.5159 137.769L60.0151 138.634L61.543 139.518L61.5158 137.753L60.5159 137.769ZM60.4339 132.453H59.4339V132.46L59.434 132.468L60.4339 132.453ZM71.4056 116.438L71.0583 115.5L71.0538 115.502L71.4056 116.438ZM79.8434 58.7396L80.7058 58.2334L78.8434 55.0608V58.7396H79.8434ZM60.5241 138.591V139.591H62.9368L61.2316 137.884L60.5241 138.591ZM60.1141 138.484L60.6294 137.627L60.6222 137.622L60.6149 137.618L60.1141 138.484ZM44.1651 129.256L44.6659 128.391L44.6561 128.385L44.1651 129.256ZM43.7551 128.525L44.7547 128.552L44.7549 128.545L43.7551 128.525ZM43.8371 124.474L44.8369 124.494L44.8371 124.484V124.474H43.8371ZM45.8379 105.28L46.7582 105.671L46.7586 105.67L45.8379 105.28ZM55.8583 97.1121L55.4761 96.188L55.4734 96.1891L55.8583 97.1121ZM65.9525 90.5633L65.1637 89.9488L65.1635 89.949L65.9525 90.5633ZM64.7553 63.1438L65.6276 62.6548L65.6266 62.653L64.7553 63.1438ZM54.1609 52.3634L54.6618 51.4978L54.6616 51.4977L54.1609 52.3634ZM44.6981 50.605L45.106 51.518L45.1069 51.5176L44.6981 50.605ZM39.0319 60.309L40.0098 60.5179L40.0101 60.5165L39.0319 60.309ZM35.4402 64.9515L35.1044 64.0096L35.1022 64.0104L35.4402 64.9515ZM28.0192 62.8973L28.6471 62.119L28.6467 62.1186L28.0192 62.8973ZM21.1886 47.0553L20.2091 46.8539L20.2089 46.8548L21.1886 47.0553ZM32.1766 29.4631L31.7664 28.5511L31.7663 28.5512L32.1766 29.4631ZM56.1207 34.1138L56.6213 33.2482L56.6213 33.2481L56.1207 34.1138ZM80.5486 58.3205L81.4108 57.8139L81.4106 57.8136L80.5486 58.3205ZM86.4034 106.036L85.4951 105.617L85.4951 105.617L86.4034 106.036ZM71.6844 117.202L71.3372 116.264L71.3324 116.266L71.6844 117.202ZM62.8037 122.839L61.9175 122.376L61.9164 122.378L62.8037 122.839ZM61.2539 132.436H60.2539V132.444L60.254 132.452L61.2539 132.436ZM61.3359 137.744H62.3359V137.736L62.3358 137.729L61.3359 137.744ZM60.9341 138.467L61.4252 139.339L61.437 139.332L60.9341 138.467ZM60.5159 138.582V137.582H58.1033L59.8085 139.289L60.5159 138.582ZM45.4115 128.073H44.4115V128.65L44.9108 128.939L45.4115 128.073ZM59.6877 136.331L59.187 137.197L60.7175 138.082L60.6876 136.314L59.6877 136.331ZM59.6221 132.461H58.6221V132.469L58.6223 132.478L59.6221 132.461ZM61.3605 122.083L62.2468 122.546L62.247 122.546L61.3605 122.083ZM71.1186 115.666L70.7716 114.728L70.7671 114.729L71.1186 115.666ZM84.9192 105.354L84.0112 104.935L84.0109 104.935L84.9192 105.354ZM79.1382 59.1587L80.0006 58.6524L80.0005 58.6522L79.1382 59.1587ZM55.3089 35.5353L55.81 34.6699L55.8098 34.6698L55.3089 35.5353ZM32.8572 30.9586L32.4472 30.0465L32.4471 30.0465L32.8572 30.9586ZM22.804 47.384L21.8245 47.1827L21.8244 47.1828L22.804 47.384ZM29.0524 61.5991L28.4251 62.3778L28.4258 62.3784L29.0524 61.5991ZM34.899 63.3821L34.5621 62.4406L34.5606 62.4411L34.899 63.3821ZM37.4329 59.9475L36.4546 59.7401L36.454 59.743L37.4329 59.9475ZM44.0339 49.0849L43.6266 48.1716L43.6264 48.1716L44.0339 49.0849ZM54.9891 50.9254L55.4901 50.06L55.4897 50.0597L54.9891 50.9254ZM66.1903 62.3221L67.0619 61.8319L67.0616 61.8314L66.1903 62.3221ZM67.2563 91.5575L68.0452 92.1721L68.0454 92.1719L67.2563 91.5575ZM56.4979 98.6158L56.1147 97.6921L56.112 97.6933L56.4979 98.6158ZM47.3549 105.912L46.4349 105.52L46.4344 105.522L47.3549 105.912ZM45.4853 124.482L46.4851 124.503L46.4853 124.493V124.482H45.4853ZM45.4115 128.065L44.4117 128.044L44.4115 128.055V128.065H45.4115ZM127.018 149.305L126.152 149.805L126.441 150.305H127.018V149.305ZM126.198 147.884L125.698 147.018L124.833 147.518L125.332 148.383L126.198 147.884ZM137.719 141.228L138.219 142.094L138.227 142.09L138.234 142.085L137.719 141.228ZM137.809 141.179V142.179H138.06L138.281 142.061L137.809 141.179ZM137.932 141.113L138.404 141.995L138.438 141.977L138.472 141.955L137.932 141.113ZM134.078 119.413L134.776 118.696L134.775 118.695L134.078 119.413ZM124.575 116.274L125.022 117.168L125.066 117.146L125.107 117.12L124.575 116.274ZM124.517 116.307L124.069 115.413L124.051 115.421L124.034 115.431L124.517 116.307ZM113.578 122.642L112.712 123.141L113.212 124.008L114.079 123.507L113.578 122.642ZM112.758 121.22L112.257 120.355L111.393 120.855L111.892 121.72L112.758 121.22ZM123.263 115.132L122.776 114.258L122.769 114.262L122.761 114.266L123.263 115.132ZM123.714 114.885L124.161 115.779L124.206 115.757L124.248 115.73L123.714 114.885ZM135.226 118.221L134.529 118.938L134.53 118.939L135.226 118.221ZM138.793 142.51L139.294 143.376L139.314 143.364L139.333 143.352L138.793 142.51ZM127.035 149.305V150.305H127.303L127.535 150.171L127.035 149.305ZM126.42 113.357L125.553 113.856L126.206 114.987L127.128 114.063L126.42 113.357ZM125.6 111.935L125.096 111.071L124.236 111.572L124.733 112.435L125.6 111.935ZM136.145 105.797L136.648 106.662L137.108 106.394L137.143 105.862L136.145 105.797ZM141.335 23.5059L140.337 23.4434L140.337 23.4437L141.335 23.5059ZM130.626 4.04853L131.127 3.18277L131.126 3.18242L130.626 4.04853ZM123.787 3.16933L123.333 2.27851L123.324 2.28307L123.315 2.2878L123.787 3.16933ZM112.611 9.60309L111.744 10.1028L112.245 10.9705L113.112 10.4684L112.611 9.60309ZM111.791 8.18158L111.29 7.31582L110.425 7.81582L110.924 8.68126L111.791 8.18158ZM117.391 4.94416L116.891 4.07822L116.891 4.0784L117.391 4.94416ZM123.082 1.76425L123.477 2.68311L124.45 2.26527L123.977 1.31779L123.082 1.76425ZM123.049 1.69852L122.595 0.807617L121.712 1.2579L122.155 2.14499L123.049 1.69852ZM131.454 2.6188L131.955 1.75329L131.955 1.75314L131.454 2.6188ZM142.975 23.6045L141.977 23.5411L141.977 23.5416L142.975 23.6045ZM137.982 102.773L138.98 102.837L138.98 102.836L137.982 102.773ZM137.326 107.005L136.842 106.13L136.832 106.135L136.823 106.141L137.326 107.005ZM126.428 113.349L125.925 112.484L125.812 112.55L125.72 112.642L126.428 113.349ZM125.6 113.365L126.115 112.508L126.107 112.504L126.1 112.499L125.6 113.365ZM113.775 106.529L113.269 107.391L113.275 107.394L113.775 106.529ZM113.365 105.863L112.367 105.922L112.367 105.922L113.365 105.863ZM108.158 17.105L107.16 17.1632L107.16 17.1636L108.158 17.105ZM111.651 8.2884L112.177 9.13909L112.178 9.13837L111.651 8.2884ZM120.499 8.97861L119.998 9.84403L119.998 9.84413L120.499 8.97861ZM132.02 29.9643L131.022 29.9009L131.022 29.9015L132.02 29.9643ZM126.813 112.699L125.815 112.637L125.815 112.642L126.813 112.699ZM126.379 113.373L126.85 114.255L126.86 114.25L126.379 113.373ZM124.181 149.568L124.889 150.274L126.59 148.568H124.181V149.568ZM116.916 146.323L116.266 147.082L116.268 147.084L116.916 146.323ZM120.327 122.017L119.821 122.88L119.822 122.88L120.327 122.017ZM126.674 149.042L127.09 149.951L127.092 149.951L126.674 149.042ZM124.173 149.576L123.465 148.87L121.763 150.576H124.173V149.576ZM184 208.5C184 208.722 183.794 209.239 182.601 209.963C181.479 210.645 179.758 211.338 177.449 212.017C172.845 213.37 166.134 214.601 157.784 215.639C141.097 217.714 118.015 219 92.5 219V221C118.071 221 141.239 219.712 158.031 217.624C166.42 216.581 173.255 215.334 178.013 213.936C180.384 213.239 182.298 212.488 183.64 211.672C184.912 210.9 186 209.866 186 208.5H184ZM92.5 219C66.9847 219 43.9029 217.714 27.216 215.639C18.8656 214.601 12.1548 213.37 7.55111 212.017C5.24176 211.338 3.52111 210.645 2.39851 209.963C1.2059 209.239 1 208.722 1 208.5H-1C-1 209.866 0.0882772 210.9 1.36003 211.672C2.7018 212.488 4.6157 213.239 6.9871 213.936C11.7449 215.334 18.5805 216.581 26.9692 217.624C43.7608 219.712 66.929 221 92.5 221V219ZM1 208.5C1 208.278 1.2059 207.762 2.39851 207.037C3.52111 206.355 5.24176 205.662 7.55111 204.983C12.1548 203.63 18.8656 202.399 27.216 201.361C43.9029 199.286 66.9847 198 92.5 198V196C66.929 196 43.7608 197.288 26.9692 199.376C18.5805 200.419 11.7449 201.666 6.9871 203.064C4.6157 203.761 2.7018 204.513 1.36003 205.328C0.0882772 206.1 -1 207.135 -1 208.5H1ZM92.5 198C118.015 198 141.097 199.286 157.784 201.361C166.134 202.399 172.845 203.63 177.449 204.983C179.758 205.662 181.479 206.355 182.601 207.037C183.794 207.762 184 208.278 184 208.5H186C186 207.135 184.912 206.1 183.64 205.328C182.298 204.513 180.384 203.761 178.013 203.064C173.255 201.666 166.42 200.419 158.031 199.376C141.239 197.288 118.071 196 92.5 196V198ZM59.2911 170.843L58.4711 169.422L56.7387 170.421L57.5587 171.842L59.2911 170.843ZM58.1052 170.787L69.2819 164.329L68.2812 162.597L57.1046 169.055L58.1052 170.787ZM69.2967 164.32L69.3787 164.271L68.3484 162.556L68.2664 162.606L69.2967 164.32ZM69.3605 164.281L69.4753 164.216L68.4814 162.48L68.3666 162.546L69.3605 164.281ZM69.517 164.19C71.355 163.015 72.2088 160.675 72.2088 157.966H70.2088C70.2088 160.351 69.4553 161.856 68.4398 162.505L69.517 164.19ZM72.2088 157.966V156.807H70.2088V157.966H72.2088ZM72.2088 156.807C72.2088 151.236 70.0828 145.845 66.3388 142.024L64.9103 143.423C68.2675 146.85 70.2088 151.729 70.2088 156.807H72.2088ZM66.3396 142.025C64.5029 140.146 62.5773 138.808 60.7353 138.148C58.8888 137.487 57.0336 137.482 55.5064 138.442L56.5711 140.136C57.4218 139.601 58.5924 139.505 60.0608 140.031C61.5337 140.559 63.212 141.686 64.9095 143.423L66.3396 142.025ZM55.3309 138.583C55.385 138.528 55.4365 138.49 55.4747 138.465C55.5128 138.44 55.5446 138.423 55.5621 138.414C55.5785 138.406 55.5915 138.401 55.5858 138.403C55.5853 138.403 55.5781 138.407 55.5709 138.41C55.5632 138.413 55.5496 138.42 55.5334 138.428L56.4293 140.216C56.4098 140.226 56.3918 140.234 56.404 140.228C56.4081 140.226 56.4313 140.216 56.458 140.203C56.5062 140.178 56.6271 140.115 56.7465 139.995L55.3309 138.583ZM55.4903 138.451C55.0899 138.676 47.6991 142.964 44.8693 144.603L45.8717 146.333C48.7163 144.686 56.0855 140.411 56.4723 140.193L55.4903 138.451ZM46.2367 144.968L45.4167 143.547L43.6843 144.546L44.5043 145.968L46.2367 144.968ZM45.0523 144.912L55.2367 139.004L54.2331 137.274L44.0487 143.182L45.0523 144.912ZM55.2427 139C55.3553 138.934 55.4891 138.863 55.6257 138.794L54.7298 137.006C54.5711 137.086 54.3933 137.179 54.2271 137.277L55.2427 139ZM55.7121 138.746C56.9408 137.969 58.5011 137.82 60.2999 138.388C62.1111 138.96 64.1161 140.25 66.0913 142.265L67.5194 140.865C65.3864 138.689 63.111 137.178 60.9021 136.48C58.6809 135.779 56.4814 135.893 54.6433 137.055L55.7121 138.746ZM66.0909 142.265C69.8016 146.053 71.857 151.213 71.857 156.799H73.857C73.857 150.717 71.6155 145.047 67.5198 140.865L66.0909 142.265ZM71.857 156.799V157.958H73.857V156.799H71.857ZM71.857 157.958C71.857 160.88 70.86 162.9 69.2987 163.903L70.38 165.586C72.7055 164.091 73.857 161.296 73.857 157.958H71.857ZM69.3329 163.882L69.0951 164.022L70.108 165.747L70.3458 165.607L69.3329 163.882ZM69.1014 164.018L57.933 170.469L58.9332 172.2L70.1017 165.75L69.1014 164.018ZM57.725 170.628L57.7168 170.637L59.133 172.049L59.1412 172.041L57.725 170.628ZM40.8281 150.546V152.058H42.8281V150.546H40.8281ZM40.8281 152.058C40.8281 157.855 43.0305 163.493 47.1279 167.634L48.5495 166.227C44.8405 162.479 42.8281 157.354 42.8281 152.058H40.8281ZM47.1284 167.634C50.6811 171.22 54.3721 172.731 57.3599 172.016C60.4671 171.273 62.2375 168.296 62.2375 164.243H60.2375C60.2375 167.775 58.7607 169.625 56.8947 170.071C54.9091 170.546 51.9007 169.609 48.549 166.226L47.1284 167.634ZM62.2375 164.243V161.976H60.2375V164.243H62.2375ZM62.2375 161.976C62.2375 158.544 61.0019 154.802 59.0706 151.564C57.1402 148.328 54.4515 145.488 51.4366 143.938L50.522 145.716C53.1159 147.05 55.5563 149.576 57.3529 152.589C59.1485 155.599 60.2375 158.99 60.2375 161.976H62.2375ZM51.4366 143.938C48.7218 142.542 46.0433 142.488 44.0007 143.776C41.9655 145.059 40.8281 147.508 40.8281 150.554H42.8281C42.8281 147.981 43.7735 146.284 45.0675 145.468C46.3541 144.656 48.2512 144.549 50.522 145.716L51.4366 143.938ZM42.8281 150.554V150.546H40.8281V150.554H42.8281ZM55.8911 171C53.609 171 50.7747 169.631 47.9755 166.802L46.5539 168.209C49.5439 171.231 52.8596 173 55.8911 173V171ZM47.9754 166.802C44.1976 162.985 42.0163 157.612 42.0163 152.058H40.0163C40.0163 158.122 42.3941 164.006 46.554 168.209L47.9754 166.802ZM42.0163 152.058V150.546H40.0163V152.058H42.0163ZM42.0163 150.546C42.0163 147.774 43.0678 145.727 44.6937 144.736L43.6529 143.028C41.2607 144.486 40.0163 147.303 40.0163 150.546H42.0163ZM44.6952 144.735C46.3175 143.742 48.4827 143.732 50.9079 144.977L51.8215 143.198C48.9658 141.732 46.0307 141.573 43.6513 143.029L44.6952 144.735ZM50.9077 144.977C53.5999 146.36 56.1534 148.997 58.0385 152.145C59.9226 155.292 61.0739 158.84 61.0739 161.967H63.0739C63.0739 158.39 61.7735 154.49 59.7544 151.118C57.7363 147.748 54.9351 144.798 51.8217 143.198L50.9077 144.977ZM61.0739 161.967V164.235H63.0739V161.967H61.0739ZM61.0739 164.235C61.0739 167.635 59.7619 169.825 57.7887 170.64L58.5528 172.489C61.5487 171.25 63.0739 168.099 63.0739 164.235H61.0739ZM57.7839 170.642C57.2149 170.881 56.5858 171 55.8993 171V173C56.82 173 57.7161 172.84 58.5575 172.487L57.7839 170.642ZM55.8993 171H55.8911V173H55.8993V171ZM47.3221 143.663C46.3108 143.663 45.3468 143.91 44.4936 144.436L45.5422 146.139C46.0501 145.826 46.6442 145.663 47.3221 145.663V143.663ZM44.4972 144.434C42.5836 145.601 41.6481 147.929 41.6481 150.554H43.6481C43.6481 148.332 44.4345 146.814 45.5386 146.141L44.4972 144.434ZM41.6481 150.554V152.066H43.6481V150.554H41.6481ZM41.6481 152.066C41.6481 157.702 43.8531 163.168 47.7107 167.059L49.1311 165.651C45.6578 162.147 43.6481 157.194 43.6481 152.066H41.6481ZM47.7104 167.059C49.4204 168.785 51.2028 170.052 52.9272 170.751C54.6498 171.45 56.3913 171.609 57.9211 170.977L57.1576 169.128C56.2602 169.499 55.0865 169.469 53.6788 168.898C52.2728 168.328 50.7096 167.245 49.1313 165.651L47.7104 167.059ZM57.9199 170.977C60.3045 169.996 61.4257 167.355 61.4257 164.243H59.4257C59.4257 166.999 58.4477 168.597 57.1587 169.128L57.9199 170.977ZM61.4257 164.243V161.976H59.4257V164.243H61.4257ZM61.4257 161.976C61.4257 158.67 60.2282 155.074 58.372 151.969C56.517 148.866 53.9393 146.146 51.0675 144.669L50.153 146.448C52.6031 147.707 54.9331 150.114 56.6554 152.995C58.3765 155.874 59.4257 159.118 59.4257 161.976H61.4257ZM51.0658 144.668C49.8034 144.022 48.5404 143.671 47.3303 143.671V145.671C48.1538 145.671 49.1048 145.911 50.1548 146.449L51.0658 144.668ZM48.0384 143.965L48.0302 143.957L46.614 145.369L46.6222 145.377L48.0384 143.965ZM62.1201 137.976L61.3001 136.554L59.5677 137.554L60.3877 138.975L62.1201 137.976ZM60.9368 137.918L71.2033 131.945L70.1974 130.216L59.931 136.19L60.9368 137.918ZM71.7004 131.08C71.7004 130.1 71.6591 127.737 71.6346 126.192L69.6349 126.224C69.6596 127.784 69.7004 130.121 69.7004 131.08H71.7004ZM71.6348 126.208C71.6348 121.501 72.2019 118.316 73.2594 116.293L71.4869 115.367C70.1992 117.83 69.6348 121.416 69.6348 126.208H71.6348ZM73.2608 116.291C73.3663 116.087 73.6276 115.801 74.0961 115.465C74.5464 115.141 75.1067 114.827 75.699 114.54C76.8823 113.966 78.095 113.545 78.5788 113.387L77.9592 111.486C77.4344 111.657 76.1256 112.11 74.8264 112.74C74.1773 113.055 73.5061 113.426 72.9286 113.841C72.3693 114.243 71.8065 114.751 71.4856 115.369L73.2608 116.291ZM78.772 113.301L89.3746 107.13L88.3686 105.401L77.766 111.572L78.772 113.301ZM89.3896 107.121C92.9567 104.961 95.5087 102.42 96.8407 99.5177L95.023 98.6835C93.9114 101.106 91.7074 103.38 88.3537 105.41L89.3896 107.121ZM96.8398 99.5196C98.8777 95.1036 99.8921 90.035 99.8921 84.4582H97.8921C97.8921 89.7934 96.922 94.5685 95.0239 98.6815L96.8398 99.5196ZM99.8921 84.4582C99.8921 73.2136 96.8973 62.4234 91.0047 52.3989L89.2805 53.4124C94.9992 63.1412 97.8921 73.5831 97.8921 84.4582H99.8921ZM91.0049 52.3992C85.111 42.364 76.9662 34.2954 66.8145 28.417L65.8122 30.1477C75.6685 35.855 83.5631 43.6777 89.2804 53.4121L91.0049 52.3992ZM66.814 28.4167C56.4626 22.4293 47.968 20.8696 41.924 24.62L42.9785 26.3194C48.0046 23.2007 55.5657 24.221 65.8127 30.148L66.814 28.4167ZM41.9515 24.6036C41.6808 24.7598 34.843 28.7409 31.2487 30.8248L32.2518 32.555C35.8571 30.4647 42.6806 26.4919 42.951 26.3359L41.9515 24.6036ZM32.6164 31.1902L31.7964 29.7687L30.064 30.768L30.884 32.1895L32.6164 31.1902ZM31.4331 31.1327L36.7714 28.0268L35.7655 26.2981L30.4273 29.404L31.4331 31.1327ZM36.7716 28.0266C40.0985 26.0896 41.424 25.3179 42.0351 25.0416L41.2111 23.2192C40.4773 23.551 39.0148 24.4062 35.7653 26.2982L36.7716 28.0266ZM42.4917 23.635L42.4589 23.5775L40.7216 24.5683L40.7544 24.6258L42.4917 23.635ZM42.1171 24.9228C47.7035 21.46 55.8397 22.4823 66.6326 28.7264L67.6341 26.9953C56.697 20.6677 47.6459 19.1427 41.0634 23.2229L42.1171 24.9228ZM66.6327 28.7265C76.7424 34.5731 84.8339 42.6009 90.6991 52.5824L92.4234 51.5692C86.3821 41.288 78.0407 33.0136 67.634 26.9952L66.6327 28.7265ZM90.6989 52.5821C96.5653 62.5739 99.5321 73.2954 99.5321 84.4582H101.532C101.532 72.9262 98.4636 61.8568 92.4236 51.5695L90.6989 52.5821ZM99.5321 84.4582C99.5321 90.0296 98.5053 95.0353 96.5081 99.3636L98.324 100.202C100.46 95.5735 101.532 90.2753 101.532 84.4582H99.5321ZM96.5076 99.3645C95.2547 102.087 92.8252 104.607 89.1815 106.815L90.2181 108.526C94.0857 106.182 96.855 103.394 98.3245 100.201L96.5076 99.3645ZM89.197 106.806L78.5042 113.026L79.5098 114.755L90.2027 108.535L89.197 106.806ZM78.4515 113.059C78.4716 113.046 78.4896 113.036 78.5038 113.028C78.5176 113.021 78.527 113.017 78.5287 113.016C78.5295 113.016 78.529 113.016 78.5263 113.017C78.5234 113.018 78.5197 113.02 78.5132 113.022C78.5076 113.025 78.4986 113.028 78.4896 113.032C78.4802 113.036 78.469 113.041 78.4566 113.046L79.2458 114.884C79.251 114.881 79.2564 114.879 79.2725 114.873C79.2855 114.867 79.3096 114.857 79.3356 114.846C79.3911 114.821 79.4725 114.782 79.5625 114.722L78.4515 113.059ZM78.5421 113.014C77.4362 113.373 76.2259 113.865 75.2308 114.367C74.7345 114.618 74.2714 114.882 73.8949 115.145C73.5594 115.379 73.1493 115.707 72.9317 116.12L74.701 117.052C74.6762 117.099 74.7263 117.003 75.0391 116.785C75.3109 116.596 75.6842 116.379 76.1329 116.152C77.028 115.7 78.1424 115.247 79.1603 114.916L78.5421 113.014ZM72.9291 116.125C71.788 118.32 71.2666 121.753 71.2666 126.183H73.2666C73.2666 121.821 73.7947 118.796 74.7037 117.047L72.9291 116.125ZM71.2667 126.2C71.2967 128.033 71.3096 129.419 71.3055 130.363C71.3035 130.837 71.2972 131.189 71.2874 131.428C71.2824 131.549 71.277 131.627 71.2725 131.672C71.2702 131.695 71.2695 131.695 71.2722 131.68C71.2735 131.673 71.2777 131.651 71.286 131.622C71.2925 131.598 71.3119 131.532 71.3538 131.451L73.1301 132.37C73.2087 132.218 73.2334 132.073 73.2389 132.044C73.2501 131.983 73.2573 131.923 73.2624 131.873C73.2728 131.77 73.2801 131.647 73.2857 131.51C73.2971 131.235 73.3034 130.853 73.3055 130.372C73.3097 129.407 73.2965 128.004 73.2664 126.167L71.2667 126.2ZM71.3578 131.443C71.3546 131.449 71.3673 131.422 71.4144 131.394L72.43 133.117C72.7559 132.925 72.9817 132.651 73.1262 132.377L71.3578 131.443ZM71.4193 131.391L60.7428 137.603L61.7486 139.332L72.4251 133.12L71.4193 131.391ZM60.5375 139.173L60.5457 139.181L61.9622 137.77L61.954 137.761L60.5375 139.173ZM37.5693 63.9588L36.7493 62.5373L35.0168 63.5367L35.8368 64.9582L37.5693 63.9588ZM36.3861 63.9013L46.9887 57.7304L45.9827 56.0019L35.38 62.1727L36.3861 63.9013ZM47.0165 57.7137C48.2948 56.9131 49.0735 55.5531 49.4233 53.9204L47.4677 53.5014C47.1943 54.7775 46.6446 55.5867 45.9549 56.0187L47.0165 57.7137ZM49.4242 53.9163C49.7515 52.3565 50.1559 50.954 50.6178 49.746L48.7496 49.0318C48.2439 50.3545 47.8119 51.8608 47.4668 53.5056L49.4242 53.9163ZM49.3237 50.3218L50.8571 50.9135L51.5771 49.0475L50.0436 48.4559L49.3237 50.3218ZM50.2827 49.6243C49.8098 50.865 49.4026 52.2887 49.0741 53.8502L51.0313 54.2619C51.3424 52.7831 51.7224 51.4624 52.1515 50.3367L50.2827 49.6243ZM49.0742 53.8498C48.7145 55.5562 47.9202 56.7375 46.8646 57.3994L47.9271 59.0938C49.5448 58.0795 50.5873 56.3685 51.0312 54.2623L49.0742 53.8498ZM47.3959 57.2466C47.3447 57.2466 47.3007 57.2505 47.2664 57.255C47.2318 57.2595 47.2018 57.2652 47.1778 57.2706C47.1308 57.281 47.093 57.293 47.0679 57.3017C47.0417 57.3107 47.0199 57.3194 47.0039 57.3261C46.9875 57.3331 46.9735 57.3395 46.9624 57.3447C46.9409 57.3549 46.9233 57.3642 46.9117 57.3704C46.8996 57.377 46.8893 57.3828 46.8816 57.3873C46.8666 57.3959 46.854 57.4036 46.8466 57.4082C46.839 57.4129 46.8317 57.4175 46.8282 57.4196C46.826 57.421 46.8247 57.4218 46.8236 57.4225C46.8225 57.4232 46.8222 57.4234 46.8224 57.4233C46.8225 57.4232 46.8237 57.4224 46.8256 57.4213C46.8275 57.4202 46.8309 57.4182 46.8354 57.4155C46.8398 57.413 46.847 57.4089 46.8562 57.4039C46.8649 57.3992 46.8798 57.3914 46.899 57.3823C46.9089 57.3776 46.9218 57.3717 46.9372 57.3652C46.9522 57.3589 46.973 57.3505 46.9983 57.3418C47.0225 57.3335 47.0595 57.3217 47.1058 57.3114C47.1295 57.3062 47.1591 57.3005 47.1935 57.296C47.2274 57.2916 47.2711 57.2877 47.3221 57.2877V59.2877C47.3733 59.2877 47.4173 59.2837 47.4515 59.2793C47.4862 59.2748 47.5161 59.269 47.5402 59.2637C47.5872 59.2532 47.625 59.2413 47.6501 59.2326C47.6763 59.2236 47.698 59.2149 47.7141 59.2081C47.7305 59.2012 47.7445 59.1948 47.7556 59.1896C47.7771 59.1793 47.7947 59.1701 47.8062 59.1639C47.8184 59.1573 47.8287 59.1515 47.8364 59.147C47.8514 59.1384 47.864 59.1306 47.8714 59.1261C47.879 59.1214 47.8863 59.1168 47.8898 59.1146C47.892 59.1133 47.8932 59.1125 47.8944 59.1118C47.8955 59.1111 47.8958 59.1109 47.8956 59.111C47.8954 59.1111 47.8942 59.1118 47.8923 59.113C47.8905 59.1141 47.8871 59.1161 47.8825 59.1188C47.8782 59.1213 47.871 59.1254 47.8617 59.1304C47.8531 59.1351 47.8382 59.1429 47.819 59.152C47.8091 59.1567 47.7962 59.1626 47.7808 59.1691C47.7658 59.1754 47.745 59.1837 47.7197 59.1925C47.6955 59.2008 47.6584 59.2125 47.6122 59.2228C47.5885 59.2281 47.5588 59.2338 47.5245 59.2383C47.4905 59.2427 47.4469 59.2466 47.3959 59.2466V57.2466ZM46.8192 57.4234L36.2001 63.6024L37.206 65.331L47.825 59.152L46.8192 57.4234ZM37.7031 64.4667V64.4585H35.7031V64.4667H37.7031ZM80.7058 58.2416C74.7134 48.0336 66.5439 39.9402 56.2114 33.9631L55.21 35.6943C65.2464 41.5001 73.1654 49.3472 78.981 59.2541L80.7058 58.2416ZM56.2114 33.9631C46.8635 28.5555 39.0687 26.7089 33.0145 28.9343C26.9059 31.1798 22.9975 37.3984 21.0128 47.0176L22.9716 47.4217C24.9065 38.0437 28.5749 32.6971 33.7045 30.8115C38.8885 28.906 45.9931 30.3625 55.21 35.6943L56.2114 33.9631ZM21.0128 47.0175C20.4807 49.5962 21.069 52.6728 22.3111 55.5135C23.5596 58.3689 25.5222 61.1118 27.9004 63.027L29.1548 61.4693C27.0641 59.7856 25.2834 57.3191 24.1436 54.7123C22.9974 52.0909 22.5525 49.4527 22.9716 47.4217L21.0128 47.0175ZM27.9008 63.0273C30.2989 64.9567 32.788 65.7752 34.9365 65.2742C37.147 64.7587 38.6572 62.932 39.2066 60.3352L37.2499 59.9212C36.8153 61.9752 35.7425 63.0326 34.4823 63.3265C33.1602 63.6348 31.2909 63.1879 29.1545 61.469L27.9008 63.0273ZM39.2064 60.3361C40.3216 55.0888 42.1586 52.1058 44.4682 50.9059C46.7329 49.7294 49.8531 50.0725 54.0698 52.5139L55.072 50.7831C50.6459 48.2205 46.7264 47.479 43.5462 49.1311C40.411 50.7599 38.3981 54.5187 37.2501 59.9204L39.2064 60.3361ZM54.07 52.514C58.5119 55.0846 62.0103 58.6432 64.598 63.2248L66.3395 62.2412C63.5808 57.357 59.8304 53.5369 55.0718 50.783L54.07 52.514ZM64.5971 63.2231C67.158 67.7773 68.4622 73.0925 68.4622 79.1995H70.4622C70.4622 72.8004 69.0931 67.138 66.3404 62.2428L64.5971 63.2231ZM68.4622 79.1995C68.4622 84.5905 67.5072 88.2674 65.8107 90.451L67.39 91.6781C69.4983 88.9645 70.4622 84.7368 70.4622 79.1995H68.4622ZM65.8117 90.4497C64.0684 92.686 60.7831 94.88 55.788 96.9438L56.5518 98.7923C61.6592 96.682 65.3275 94.3238 67.389 91.6793L65.8117 90.4497ZM55.7848 96.9452C50.5987 99.1091 47.104 101.817 45.6636 105.209L47.5045 105.991C48.6389 103.319 51.5403 100.883 56.555 98.7909L55.7848 96.9452ZM45.6636 105.209C44.9598 106.867 44.4645 109.32 44.1389 112.494C43.8113 115.688 43.6489 119.689 43.6489 124.491H45.6489C45.6489 119.727 45.8104 115.799 46.1285 112.698C46.4487 109.576 46.921 107.365 47.5045 105.991L45.6636 105.209ZM43.6491 124.47L43.5671 128.521L45.5667 128.562L45.6487 124.511L43.6491 124.47ZM44.0661 129.407L60.0151 138.634L61.0167 136.903L45.0677 127.676L44.0661 129.407ZM61.5158 137.753L61.4338 132.437L59.434 132.468L59.516 137.784L61.5158 137.753ZM61.4339 132.453C61.4339 127.939 61.9856 124.814 62.9685 122.932L61.1958 122.006C59.9811 124.332 59.4339 127.862 59.4339 132.453H61.4339ZM62.9685 122.932C63.405 122.096 64.297 121.184 65.78 120.226C67.2525 119.274 69.2371 118.321 71.7573 117.374L71.0538 115.502C68.4573 116.478 66.3295 117.489 64.6942 118.546C63.0694 119.596 61.858 120.738 61.1958 122.006L62.9685 122.932ZM71.7528 117.376C79.3255 114.572 84.3837 110.87 86.5736 106.117L84.7572 105.28C82.8963 109.319 78.4425 112.766 71.0583 115.5L71.7528 117.376ZM86.5736 106.117C88.6684 101.571 89.6994 96.4366 89.6994 90.7112H87.6994C87.6994 96.1935 86.7132 101.035 84.7572 105.28L86.5736 106.117ZM89.6994 90.7112C89.6994 79.2696 86.6965 68.4384 80.7058 58.2334L78.981 59.2459C84.7983 69.1555 87.6994 79.6387 87.6994 90.7112H89.6994ZM78.8434 58.7396V58.7478H80.8434V58.7396H78.8434ZM60.5241 137.591C60.5316 137.591 60.5417 137.591 60.556 137.595C60.5702 137.598 60.5963 137.607 60.6294 137.627L59.5989 139.341C59.906 139.525 60.2397 139.591 60.5241 139.591V137.591ZM60.6149 137.618L44.6659 128.391L43.6643 130.122L59.6133 139.349L60.6149 137.618ZM44.6561 128.385C44.7232 128.423 44.7563 128.493 44.7547 128.552L42.7554 128.498C42.7375 129.165 43.0821 129.794 43.6741 130.127L44.6561 128.385ZM44.7549 128.545L44.8369 124.494L42.8373 124.454L42.7553 128.505L44.7549 128.545ZM44.8371 124.474C44.8371 119.62 45.0006 115.65 45.3278 112.512C45.6568 109.357 46.1448 107.114 46.7582 105.671L44.9176 104.888C44.1862 106.609 43.6738 109.09 43.3386 112.305C43.0015 115.537 42.8371 119.583 42.8371 124.474H44.8371ZM46.7586 105.67C47.9691 102.813 51.0569 100.198 56.2432 98.0351L55.4734 96.1891C50.098 98.4307 46.4291 101.321 44.9171 104.889L46.7586 105.67ZM56.2405 98.0362C61.1787 95.9938 64.7766 93.7016 66.7416 91.1776L65.1635 89.949C63.5205 92.0593 60.3123 94.1878 55.4761 96.188L56.2405 98.0362ZM66.7414 91.1778C68.7304 88.6245 69.6422 84.5148 69.6422 79.2077H67.6422C67.6422 84.3852 66.7335 87.9335 65.1637 89.9488L66.7414 91.1778ZM69.6422 79.2077C69.6422 72.9896 68.2978 67.4181 65.6276 62.6548L63.883 63.6328C66.3625 68.0559 67.6422 73.2813 67.6422 79.2077H69.6422ZM65.6266 62.653C62.9577 57.9155 59.2642 54.1611 54.6618 51.4978L53.66 53.2289C57.9465 55.7093 61.387 59.2021 63.8841 63.6346L65.6266 62.653ZM54.6616 51.4977C50.6979 49.2053 47.1418 48.4144 44.2892 49.6924L45.1069 51.5176C47.0596 50.6427 49.8667 51.035 53.6603 53.229L54.6616 51.4977ZM44.2902 49.6919C41.1742 51.0839 39.1814 54.7837 38.0536 60.1016L40.0101 60.5165C41.1128 55.3169 42.9247 52.4924 45.106 51.518L44.2902 49.6919ZM38.0539 60.1001C37.6055 62.1997 36.5145 63.5068 35.1044 64.0096L35.7761 65.8934C38.0068 65.098 39.4579 63.1019 40.0098 60.5179L38.0539 60.1001ZM35.1022 64.0104C33.392 64.6247 31.1169 64.1114 28.6471 62.119L27.3914 63.6756C30.1367 65.8903 33.1424 66.8395 35.7783 65.8926L35.1022 64.0104ZM28.6467 62.1186C26.4041 60.3117 24.5385 57.7126 23.3575 54.9719C22.1709 52.2183 21.7225 49.4343 22.1683 47.2558L20.2089 46.8548C19.6543 49.5653 20.235 52.7795 21.5207 55.7634C22.812 58.76 24.8619 61.6375 27.3918 63.676L28.6467 62.1186ZM22.1681 47.2567C24.0451 38.1282 27.6335 32.6038 32.5869 30.3751L31.7663 28.5512C25.945 31.1704 22.1369 37.4781 20.2091 46.8539L22.1681 47.2567ZM32.5869 30.3751C38.0646 27.9111 45.7443 29.2687 55.6201 34.9795L56.6213 33.2481C46.6038 27.4554 38.1623 25.6742 31.7664 28.5511L32.5869 30.3751ZM55.6201 34.9795C65.7298 40.8262 73.8214 48.854 79.6866 58.8275L81.4106 57.8136C75.3694 47.5409 67.0281 39.2666 56.6213 33.2482L55.6201 34.9795ZM79.6864 58.8272C85.5526 68.8104 88.5194 79.54 88.5194 90.703H90.5194C90.5194 79.1712 87.451 68.0934 81.4108 57.8139L79.6864 58.8272ZM88.5194 90.703C88.5194 96.2743 87.4927 101.28 85.4951 105.617L87.3117 106.454C89.4469 101.818 90.5194 96.5202 90.5194 90.703H88.5194ZM85.4951 105.617C83.5505 109.84 78.8956 113.467 71.3372 116.264L72.0315 118.14C79.7908 115.268 85.0415 111.384 87.3117 106.454L85.4951 105.617ZM71.3324 116.266C68.8481 117.2 66.8073 118.163 65.2445 119.155C63.6978 120.136 62.5317 121.201 61.9175 122.376L63.69 123.302C64.0679 122.579 64.8944 121.746 66.3161 120.843C67.7218 119.951 69.6252 119.045 72.0363 118.138L71.3324 116.266ZM61.9164 122.378C60.7754 124.573 60.2539 128.006 60.2539 132.436H62.2539C62.2539 128.074 62.7821 125.049 63.691 123.3L61.9164 122.378ZM60.254 132.452L60.336 137.76L62.3358 137.729L62.2538 132.421L60.254 132.452ZM60.3359 137.744C60.3359 137.716 60.3508 137.65 60.4312 137.603L61.437 139.332C62.0259 138.989 62.3359 138.364 62.3359 137.744H60.3359ZM60.4431 137.596C60.4406 137.598 60.447 137.594 60.4616 137.59C60.4768 137.585 60.4957 137.582 60.5159 137.582V139.582C60.8574 139.582 61.1643 139.485 61.4252 139.338L60.4431 137.596ZM59.8085 139.289L59.8167 139.297L61.2316 137.884L61.2234 137.876L59.8085 139.289ZM44.9108 128.939L59.187 137.197L60.1884 135.465L45.9122 127.207L44.9108 128.939ZM60.6876 136.314L60.622 132.444L58.6223 132.478L58.6879 136.348L60.6876 136.314ZM60.6221 132.461C60.6221 127.754 61.1892 124.569 62.2468 122.546L60.4743 121.62C59.1866 124.083 58.6221 127.669 58.6221 132.461H60.6221ZM62.247 122.546C62.7421 121.597 63.6906 120.611 65.2299 119.599C66.764 118.59 68.8277 117.594 71.47 116.602L70.7671 114.729C68.0466 115.751 65.8339 116.808 64.1312 117.928C62.4335 119.044 61.1844 120.26 60.4741 121.62L62.247 122.546ZM71.4655 116.604C78.7948 113.892 83.7426 110.299 85.8275 105.772L84.0109 104.935C82.2582 108.74 77.9236 112.082 70.7716 114.728L71.4655 116.604ZM85.8272 105.773C87.8651 101.357 88.8794 96.288 88.8794 90.7112H86.8794C86.8794 96.0464 85.9093 100.821 84.0112 104.935L85.8272 105.773ZM88.8794 90.7112C88.8794 79.4667 85.8846 68.6766 80.0006 58.6524L78.2758 59.6649C83.9866 69.3939 86.8794 79.8361 86.8794 90.7112H88.8794ZM80.0005 58.6522C74.1065 48.617 65.9618 40.5484 55.81 34.6699L54.8078 36.4007C64.6641 42.108 72.5586 49.9307 78.2759 59.6651L80.0005 58.6522ZM55.8098 34.6698C46.2824 29.1566 38.3433 27.3959 32.4472 30.0465L33.2673 31.8706C38.228 29.6405 45.3934 30.9529 54.8081 36.4009L55.8098 34.6698ZM32.4471 30.0465C27.1246 32.4399 23.6341 38.3738 21.8245 47.1827L23.7836 47.5852C25.5491 38.9909 28.8319 33.8651 33.2673 31.8706L32.4471 30.0465ZM21.8244 47.1828C21.3288 49.5965 21.8995 52.5121 23.0847 55.2083C24.2773 57.921 26.1491 60.5445 28.4251 62.3778L29.6797 60.8203C27.6917 59.219 26.0006 56.8713 24.9156 54.4034C23.8234 51.9188 23.4018 49.4442 23.7836 47.5851L21.8244 47.1828ZM28.4258 62.3784C30.6393 64.158 33.1448 65.0758 35.2375 64.3231L34.5606 62.4411C33.4553 62.8387 31.6967 62.4419 29.679 60.8197L28.4258 62.3784ZM35.236 64.3236C36.9335 63.7161 37.9984 62.1307 38.4117 60.1519L36.454 59.743C36.1293 61.2975 35.3902 62.1442 34.5621 62.4406L35.236 64.3236ZM38.4111 60.1549C39.6216 54.4456 41.7432 51.202 44.4414 49.9981L43.6264 48.1716C40.0269 49.7778 37.7041 53.8472 36.4546 59.7401L38.4111 60.1549ZM44.4412 49.9981C46.9214 48.892 50.2399 49.3343 54.4885 51.7911L55.4897 50.0597C51.0135 47.4714 46.9684 46.6812 43.6266 48.1716L44.4412 49.9981ZM54.4881 51.7909C59.0291 54.4194 62.6745 58.1177 65.3191 62.8129L67.0616 61.8314C64.245 56.8307 60.3464 52.871 55.4901 50.06L54.4881 51.7909ZM65.3188 62.8124C67.9454 67.4818 69.2904 72.9778 69.2904 79.1912H71.2904C71.2904 72.685 69.8801 66.8419 67.0619 61.8319L65.3188 62.8124ZM69.2904 79.1912C69.2904 84.7324 68.2719 88.6256 66.4673 90.9432L68.0454 92.1719C70.2588 89.3293 71.2904 84.8907 71.2904 79.1912H69.2904ZM66.4675 90.943C64.6411 93.2873 61.2066 95.5797 56.1147 97.6921L56.8811 99.5394C62.0885 97.3791 65.9028 94.9222 68.0452 92.1721L66.4675 90.943ZM56.112 97.6933C51.1644 99.7631 47.7873 102.346 46.4349 105.52L48.2749 106.304C49.3169 103.858 52.0898 101.544 56.8839 99.5383L56.112 97.6933ZM46.4344 105.522C45.7541 107.124 45.2757 109.54 44.9608 112.666C44.6436 115.814 44.4853 119.764 44.4853 124.482H46.4853C46.4853 119.801 46.6427 115.924 46.9507 112.866C47.2611 109.786 47.7174 107.617 48.2754 106.303L46.4344 105.522ZM44.4855 124.462L44.4117 128.044L46.4113 128.085L46.4851 124.503L44.4855 124.462ZM44.4115 128.065V128.073H46.4115V128.065H44.4115ZM127.884 148.806L127.064 147.384L125.332 148.383L126.152 149.805L127.884 148.806ZM126.698 148.75L138.219 142.094L137.219 140.362L125.698 147.018L126.698 148.75ZM137.719 141.228C138.234 142.085 138.234 142.085 138.234 142.085C138.234 142.085 138.234 142.085 138.234 142.085C138.234 142.085 138.234 142.085 138.234 142.085C138.234 142.085 138.234 142.085 138.234 142.085C138.234 142.085 138.234 142.085 138.234 142.085C138.234 142.085 138.234 142.085 138.234 142.085C138.234 142.085 138.235 142.085 138.235 142.085C138.237 142.084 138.239 142.083 138.241 142.081C138.247 142.078 138.253 142.074 138.258 142.071C138.265 142.067 138.263 142.068 138.255 142.073C138.253 142.074 138.235 142.083 138.21 142.094C138.198 142.1 138.17 142.112 138.132 142.125C138.113 142.132 138.08 142.142 138.038 142.152C138.004 142.16 137.92 142.179 137.809 142.179V140.179C137.627 140.179 137.487 140.232 137.482 140.234C137.442 140.247 137.411 140.261 137.396 140.267C137.365 140.281 137.34 140.294 137.329 140.3C137.303 140.314 137.278 140.328 137.264 140.336C137.248 140.345 137.233 140.354 137.223 140.36C137.218 140.363 137.213 140.365 137.21 140.367C137.209 140.368 137.207 140.369 137.206 140.37C137.206 140.37 137.205 140.37 137.205 140.371C137.205 140.371 137.204 140.371 137.204 140.371C137.204 140.371 137.204 140.371 137.204 140.371C137.204 140.371 137.204 140.371 137.204 140.371C137.204 140.371 137.204 140.371 137.204 140.371C137.204 140.371 137.204 140.371 137.719 141.228ZM138.281 142.061L138.404 141.995L137.461 140.231L137.338 140.297L138.281 142.061ZM138.472 141.955C140.357 140.748 141.245 138.344 141.245 135.542H139.245C139.245 138.015 138.46 139.588 137.393 140.271L138.472 141.955ZM141.245 135.542V134.384H139.245V135.542H141.245ZM141.245 134.384C141.245 128.424 138.898 122.705 134.776 118.696L133.381 120.129C137.098 123.745 139.245 128.938 139.245 134.384H141.245ZM134.775 118.695C132.947 116.919 131.034 115.665 129.207 115.06C127.376 114.455 125.546 114.482 124.042 115.427L125.107 117.12C125.957 116.586 127.124 116.478 128.579 116.959C130.038 117.442 131.7 118.496 133.382 120.13L134.775 118.695ZM124.127 115.38C124.11 115.388 124.096 115.395 124.086 115.401C124.075 115.407 124.066 115.412 124.059 115.416C124.046 115.424 124.034 115.431 124.031 115.433C124.024 115.437 124.026 115.436 124.029 115.434C124.031 115.433 124.035 115.43 124.041 115.427C124.047 115.424 124.057 115.419 124.069 115.413L124.965 117.201C124.982 117.192 124.995 117.185 125.006 117.179C125.016 117.173 125.026 117.168 125.032 117.164C125.045 117.157 125.057 117.149 125.061 117.147C125.068 117.143 125.066 117.144 125.063 117.146C125.061 117.147 125.056 117.15 125.05 117.153C125.044 117.156 125.035 117.162 125.022 117.168L124.127 115.38ZM124.034 115.431C123.621 115.659 115.991 120.092 113.078 121.776L114.079 123.507C117.021 121.806 124.61 117.398 125 117.182L124.034 115.431ZM114.445 122.142L113.625 120.721L111.892 121.72L112.712 123.141L114.445 122.142ZM113.26 122.085L123.764 115.997L122.761 114.266L112.257 120.355L113.26 122.085ZM123.749 116.005C123.919 115.911 124.04 115.84 124.161 115.779L123.266 113.991C123.092 114.078 122.901 114.188 122.776 114.258L123.749 116.005ZM124.248 115.73C126.698 114.181 130.479 115 134.529 118.938L135.923 117.504C131.691 113.389 126.862 111.711 123.179 114.04L124.248 115.73ZM134.53 118.939C138.566 122.858 140.893 128.487 140.893 134.375H142.893C142.893 127.972 140.365 121.817 135.923 117.504L134.53 118.939ZM140.893 134.375V135.534H142.893V134.375H140.893ZM140.893 135.534C140.893 138.541 139.87 140.633 138.254 141.668L139.333 143.352C141.718 141.824 142.893 138.952 142.893 135.534H140.893ZM138.293 141.644L126.534 148.439L127.535 150.171L139.294 143.376L138.293 141.644ZM127.035 148.305H127.018V150.305H127.035V148.305ZM127.286 112.857L126.466 111.436L124.733 112.435L125.553 113.856L127.286 112.857ZM126.103 112.799L136.648 106.662L135.642 104.933L125.096 111.071L126.103 112.799ZM137.143 105.862C137.553 99.5254 142.284 24.3569 142.333 23.5682L140.337 23.4437C140.288 24.2326 135.557 99.3988 135.147 105.733L137.143 105.862ZM142.333 23.5685C142.566 19.8606 141.375 15.7089 139.36 12.0472C137.344 8.38315 134.442 5.09906 131.127 3.18277L130.126 4.91429C133.051 6.60518 135.721 9.58229 137.608 13.0114C139.496 16.4429 140.54 20.2163 140.337 23.4434L142.333 23.5685ZM131.126 3.18242C128.388 1.60213 125.58 1.13252 123.333 2.27851L124.242 4.06015C125.636 3.34914 127.682 3.50401 130.126 4.91464L131.126 3.18242ZM123.315 2.2878C122.82 2.55288 116.352 6.28061 112.109 8.73777L113.112 10.4684C117.381 7.99548 123.803 4.29522 124.259 4.05086L123.315 2.2878ZM113.477 9.10341L112.657 7.68191L110.924 8.68126L111.744 10.1028L113.477 9.10341ZM112.291 9.04735L117.892 5.80992L116.891 4.0784L111.29 7.31582L112.291 9.04735ZM117.891 5.8101C121.476 3.73965 122.859 2.94842 123.477 2.68311L122.688 0.845401C121.928 1.1717 120.391 2.0567 116.891 4.07822L117.891 5.8101ZM123.977 1.31779L123.944 1.25205L122.155 2.14499L122.187 2.21072L123.977 1.31779ZM123.504 2.58942C125.435 1.6046 128.047 1.80349 130.954 3.48447L131.955 1.75314C128.695 -0.131984 125.337 -0.590432 122.595 0.807617L123.504 2.58942ZM130.953 3.48432C134.116 5.31466 136.999 8.53595 139.035 12.2434C141.072 15.953 142.2 20.0386 141.977 23.5411L143.973 23.6679C144.226 19.6849 142.952 15.2209 140.788 11.2807C138.623 7.33831 135.508 3.8095 131.955 1.75329L130.953 3.48432ZM141.977 23.5416L136.984 102.711L138.98 102.836L143.973 23.6675L141.977 23.5416ZM136.984 102.71C136.899 104.038 136.805 105.023 136.702 105.683C136.65 106.017 136.602 106.234 136.563 106.359C136.543 106.423 136.535 106.431 136.548 106.408C136.549 106.406 136.629 106.247 136.842 106.13L137.809 107.881C138.089 107.726 138.235 107.49 138.299 107.373C138.376 107.234 138.431 107.086 138.472 106.955C138.554 106.691 138.621 106.361 138.679 105.989C138.795 105.239 138.894 104.182 138.98 102.837L136.984 102.71ZM136.823 106.141L125.925 112.484L126.931 114.213L137.829 107.869L136.823 106.141ZM125.72 112.642L125.711 112.651L127.128 114.063L127.136 114.055L125.72 112.642ZM126.01 112.472C126.017 112.472 126.027 112.472 126.041 112.476C126.056 112.48 126.082 112.488 126.115 112.508L125.084 114.222C125.391 114.407 125.725 114.472 126.01 114.472V112.472ZM126.1 112.499L114.276 105.663L113.275 107.394L125.099 114.231L126.1 112.499ZM114.282 105.666C114.324 105.691 114.36 105.741 114.363 105.804L112.367 105.922C112.403 106.543 112.751 107.087 113.269 107.391L114.282 105.666ZM114.363 105.804L109.156 17.0465L107.16 17.1636L112.367 105.922L114.363 105.804ZM109.156 17.0469C108.93 13.1577 110.153 10.3898 112.177 9.13909L111.126 7.43771C108.23 9.22724 106.911 12.8848 107.16 17.1632L109.156 17.0469ZM112.178 9.13837C114.138 7.92384 116.862 8.02818 119.998 9.84403L121 8.11319C117.495 6.08357 113.937 5.69491 111.124 7.43843L112.178 9.13837ZM119.998 9.84413C123.161 11.6745 126.044 14.8958 128.08 18.6032C130.117 22.3128 131.245 26.3984 131.022 29.9009L133.018 30.0277C133.271 26.0448 131.997 21.5807 129.833 17.6406C127.668 13.6981 124.553 10.1693 121 8.1131L119.998 9.84413ZM131.022 29.9015L125.815 112.637L127.811 112.762L133.018 30.0272L131.022 29.9015ZM125.815 112.642C125.817 112.61 125.828 112.576 125.847 112.546C125.865 112.518 125.885 112.503 125.897 112.497L126.86 114.25C127.397 113.954 127.774 113.409 127.812 112.756L125.815 112.642ZM125.907 112.491C125.925 112.482 125.955 112.472 125.993 112.472V114.472C126.294 114.472 126.587 114.396 126.85 114.255L125.907 112.491ZM125.993 114.472H126.01V112.472H125.993V114.472ZM124.181 148.568C122.274 148.568 119.962 147.602 117.564 145.561L116.268 147.084C118.871 149.3 121.627 150.568 124.181 150.568V148.568ZM117.566 145.563C112.97 141.63 110.322 135.726 110.322 129.347H108.322C108.322 136.278 111.202 142.749 116.266 147.082L117.566 145.563ZM110.322 129.347V128.451H108.322V129.347H110.322ZM110.322 128.451C110.322 125.385 111.456 123.213 113.168 122.226L112.169 120.494C109.633 121.955 108.322 124.943 108.322 128.451H110.322ZM113.168 122.226C114.879 121.24 117.203 121.342 119.821 122.88L120.833 121.155C117.826 119.389 114.705 119.031 112.169 120.494L113.168 122.226ZM119.822 122.88C122.407 124.394 124.805 127.025 126.561 130.087C128.316 133.15 129.372 136.547 129.372 139.535H131.372C131.372 136.115 130.177 132.376 128.296 129.093C126.414 125.81 123.791 122.886 120.832 121.154L119.822 122.88ZM129.372 139.535V141.803H131.372V139.535H129.372ZM129.372 141.803C129.372 145.095 128.125 147.272 126.255 148.134L127.092 149.951C129.929 148.643 131.372 145.545 131.372 141.803H129.372ZM126.257 148.133C125.622 148.424 124.921 148.576 124.173 148.576V150.576C125.196 150.576 126.184 150.367 127.09 149.951L126.257 148.133ZM124.881 150.283L124.889 150.274L123.473 148.862L123.465 148.87L124.881 150.283Z" fill="#2B2B2B" mask="url(#path-1-inside-1_794_5501)"/>
</svg>
