<svg width="31" height="30" viewBox="0 0 31 30" fill="none" xmlns="http://www.w3.org/2000/svg">
<path d="M3.38184 16.55V14.3875C3.38184 11.8 5.49433 9.6875 8.08183 9.6875H22.4318C25.0193 9.6875 27.1318 11.8 27.1318 14.3875V16.1875H24.6068C23.9068 16.1875 23.2693 16.4625 22.8068 16.9375C22.2818 17.45 21.9818 18.1875 22.0568 18.975C22.1693 20.325 23.4068 21.3125 24.7568 21.3125H27.1318V22.8C27.1318 25.3875 25.0193 27.5 22.4318 27.5H15.5818" stroke="white" stroke-width="1.5" stroke-linecap="round" stroke-linejoin="round"/>
<path d="M3.38184 15.5126V9.80019C3.38184 8.31269 4.29433 6.98764 5.68183 6.46264L15.6068 2.71264C17.1568 2.12514 18.8193 3.27517 18.8193 4.93767V9.68766" stroke="white" stroke-width="1.5" stroke-linecap="round" stroke-linejoin="round"/>
<path d="M28.4553 17.4624V20.0375C28.4553 20.725 27.9053 21.2875 27.2053 21.3125H24.7554C23.4054 21.3125 22.1679 20.325 22.0554 18.975C21.9804 18.1875 22.2803 17.45 22.8053 16.9375C23.2678 16.4625 23.9053 16.1875 24.6053 16.1875H27.2053C27.9053 16.2125 28.4553 16.7749 28.4553 17.4624Z" stroke="white" stroke-width="1.5" stroke-linecap="round" stroke-linejoin="round"/>
<path d="M9.00684 15H17.7568" stroke="white" stroke-width="1.5" stroke-linecap="round" stroke-linejoin="round"/>
<path d="M4.00684 20.625H10.6818C11.4818 20.625 12.1318 21.275 12.1318 22.075V23.675" stroke="white" stroke-width="1.5" stroke-miterlimit="10" stroke-linecap="round" stroke-linejoin="round"/>
<path d="M5.53184 19.1001L4.00684 20.6251L5.53184 22.15" stroke="white" stroke-width="1.5" stroke-miterlimit="10" stroke-linecap="round" stroke-linejoin="round"/>
<path d="M12.1318 27.2253H5.45684C4.65684 27.2253 4.00684 26.5753 4.00684 25.7753V24.1753" stroke="white" stroke-width="1.5" stroke-miterlimit="10" stroke-linecap="round" stroke-linejoin="round"/>
<path d="M10.6084 28.7502L12.1334 27.2252L10.6084 25.7002" stroke="white" stroke-width="1.5" stroke-miterlimit="10" stroke-linecap="round" stroke-linejoin="round"/>
</svg>
