<svg width="31" height="31" viewBox="0 0 31 31" fill="none" xmlns="http://www.w3.org/2000/svg">
<path d="M15.1309 28C22.0344 28 27.6309 22.4036 27.6309 15.5C27.6309 8.59644 22.0344 3 15.1309 3C8.2273 3 2.63086 8.59644 2.63086 15.5C2.63086 22.4036 8.2273 28 15.1309 28Z" stroke="white" stroke-width="1.5" stroke-linecap="round" stroke-linejoin="round"/>
<path d="M10.1309 4.25H11.3809C8.94336 11.55 8.94336 19.45 11.3809 26.75H10.1309" stroke="white" stroke-width="1.5" stroke-linecap="round" stroke-linejoin="round"/>
<path d="M18.8809 4.25C21.3184 11.55 21.3184 19.45 18.8809 26.75" stroke="white" stroke-width="1.5" stroke-linecap="round" stroke-linejoin="round"/>
<path d="M3.88086 20.5V19.25C11.1809 21.6875 19.0809 21.6875 26.3809 19.25V20.5" stroke="white" stroke-width="1.5" stroke-linecap="round" stroke-linejoin="round"/>
<path d="M3.88086 11.75C11.1809 9.3125 19.0809 9.3125 26.3809 11.75" stroke="white" stroke-width="1.5" stroke-linecap="round" stroke-linejoin="round"/>
</svg>
