<svg width="173" height="50" viewBox="0 0 173 50" fill="none" xmlns="http://www.w3.org/2000/svg">
<path d="M166.593 50H6.40741C2.88494 50 0 47.1859 0 43.75V6.25C0 2.81406 2.88494 0 6.40741 0H166.593C170.115 0 173 2.81406 173 6.25V43.75C173 47.1859 170.115 50 166.593 50Z" fill="white"/>
<path d="M166.593 1.00156C169.559 1.00156 171.973 3.35625 171.973 6.25V43.75C171.973 46.6437 169.559 48.9984 166.593 48.9984H6.40741C3.44078 48.9984 1.02679 46.6437 1.02679 43.75V6.25C1.02679 3.35625 3.44078 1.00156 6.40741 1.00156H166.593ZM166.593 0H6.40741C2.88494 0 0 2.81406 0 6.25V43.75C0 47.1859 2.88494 50 6.40741 50H166.593C170.115 50 173 47.1859 173 43.75V6.25C173 2.81406 170.115 0 166.593 0Z" fill="#A6A6A6"/>
<path d="M13.3721 9.42324C12.9957 9.80761 12.7778 10.4061 12.7778 11.1811V38.8248C12.7778 39.5998 12.9957 40.1982 13.3721 40.5826L13.465 40.667L29.3458 25.1826V24.817L13.465 9.33262L13.3721 9.42324Z" fill="url(#paint0_linear_1295_8462)"/>
<path d="M34.6334 30.3467L29.3457 25.1826V24.817L34.6398 19.6529L34.7584 19.7201L41.028 23.1998C42.8173 24.1873 42.8173 25.8123 41.028 26.8061L34.7584 30.2795L34.6334 30.3467V30.3467Z" fill="url(#paint1_linear_1295_8462)"/>
<path d="M34.7584 30.2796L29.3457 24.9999L13.3721 40.5827C13.9664 41.1921 14.9355 41.2655 16.0376 40.6562L34.7584 30.2796" fill="url(#paint2_linear_1295_8462)"/>
<path d="M34.7584 19.7203L16.0376 9.34376C14.9355 8.74063 13.9664 8.81407 13.3721 9.42344L29.3457 25L34.7584 19.7203Z" fill="url(#paint3_linear_1295_8462)"/>
<path d="M60.7649 12.805C60.7649 13.8487 60.4445 14.6847 59.8134 15.3081C59.0877 16.0472 58.1426 16.419 56.9845 16.419C55.8776 16.419 54.9325 16.0409 54.1572 15.2956C53.3803 14.5394 52.9927 13.6112 52.9927 12.5003C52.9927 11.3894 53.3803 10.4612 54.1572 9.71123C54.9325 8.95967 55.8776 8.58154 56.9845 8.58154C57.5355 8.58154 58.0609 8.69248 58.5623 8.89873C59.0621 9.10654 59.469 9.38779 59.7637 9.73467L59.0941 10.394C58.5799 9.80186 57.8799 9.50967 56.9845 9.50967C56.1772 9.50967 55.4771 9.78467 54.8829 10.3394C54.295 10.8956 54.0002 11.6159 54.0002 12.5003C54.0002 13.3847 54.295 14.1112 54.8829 14.6675C55.4771 15.2159 56.1772 15.4972 56.9845 15.4972C57.8415 15.4972 58.5623 15.2159 59.131 14.6612C59.5058 14.294 59.7189 13.7878 59.7749 13.1409H56.9845V12.2378H60.7072C60.752 12.4331 60.7649 12.6222 60.7649 12.805V12.805Z" fill="black" stroke="black" stroke-width="0.16" stroke-miterlimit="10"/>
<path d="M66.6709 9.67373H63.174V12.0487H66.3265V12.9519H63.174V15.3269H66.6709V16.2472H62.1841V8.75342H66.6709V9.67373Z" fill="black" stroke="black" stroke-width="0.16" stroke-miterlimit="10"/>
<path d="M70.8389 16.2472H69.849V9.67373H67.7041V8.75342H72.9854V9.67373H70.8389V16.2472V16.2472Z" fill="black" stroke="black" stroke-width="0.16" stroke-miterlimit="10"/>
<path d="M76.8076 16.2472V8.75342H77.796V16.2472H76.8076Z" fill="black" stroke="black" stroke-width="0.16" stroke-miterlimit="10"/>
<path d="M82.1768 16.2472H81.1949V9.67373H79.042V8.75342H84.3297V9.67373H82.1768V16.2472Z" fill="black" stroke="black" stroke-width="0.16" stroke-miterlimit="10"/>
<path d="M94.3286 15.2831C93.571 16.0409 92.6323 16.419 91.5126 16.419C90.3865 16.419 89.4478 16.0409 88.6901 15.2831C87.9341 14.5269 87.5576 13.5987 87.5576 12.5003C87.5576 11.4019 87.9341 10.4737 88.6901 9.71748C89.4478 8.95967 90.3865 8.58154 91.5126 8.58154C92.6259 8.58154 93.5646 8.95967 94.3222 9.72373C95.0847 10.4862 95.4612 11.4081 95.4612 12.5003C95.4612 13.5987 95.0847 14.5269 94.3286 15.2831ZM89.4222 14.655C89.9924 15.2159 90.686 15.4972 91.5126 15.4972C92.3327 15.4972 93.0327 15.2159 93.5966 14.655C94.1653 14.094 94.4536 13.3737 94.4536 12.5003C94.4536 11.6269 94.1653 10.9065 93.5966 10.3456C93.0327 9.78467 92.3327 9.50342 91.5126 9.50342C90.686 9.50342 89.9924 9.78467 89.4222 10.3456C88.8535 10.9065 88.5652 11.6269 88.5652 12.5003C88.5652 13.3737 88.8535 14.094 89.4222 14.655V14.655Z" fill="black" stroke="black" stroke-width="0.16" stroke-miterlimit="10"/>
<path d="M96.8496 16.2472V8.75342H98.051L101.787 14.5815H101.83L101.787 13.1409V8.75342H102.775V16.2472H101.743L97.8315 10.1315H97.7883L97.8315 11.5784V16.2472H96.8496V16.2472Z" fill="black" stroke="black" stroke-width="0.16" stroke-miterlimit="10"/>
<path d="M87.3135 27.1904C84.3036 27.1904 81.8448 29.4248 81.8448 32.5076C81.8448 35.5654 84.3036 37.8232 87.3135 37.8232C90.3298 37.8232 92.7886 35.5654 92.7886 32.5076C92.7886 29.4248 90.3298 27.1904 87.3135 27.1904ZM87.3135 35.7295C85.662 35.7295 84.2412 34.3998 84.2412 32.5076C84.2412 30.5904 85.662 29.2842 87.3135 29.2842C88.965 29.2842 90.3923 30.5904 90.3923 32.5076C90.3923 34.3998 88.965 35.7295 87.3135 35.7295V35.7295ZM75.3813 27.1904C72.365 27.1904 69.9126 29.4248 69.9126 32.5076C69.9126 35.5654 72.365 37.8232 75.3813 37.8232C78.396 37.8232 80.85 35.5654 80.85 32.5076C80.85 29.4248 78.396 27.1904 75.3813 27.1904ZM75.3813 35.7295C73.7282 35.7295 72.3026 34.3998 72.3026 32.5076C72.3026 30.5904 73.7282 29.2842 75.3813 29.2842C77.0328 29.2842 78.4537 30.5904 78.4537 32.5076C78.4537 34.3998 77.0328 35.7295 75.3813 35.7295ZM61.1825 28.8201V31.0795H66.7137C66.5519 32.342 66.1194 33.2701 65.4563 33.917C64.6489 34.6982 63.3915 35.5654 61.1825 35.5654C57.7786 35.5654 55.1131 32.8857 55.1131 29.5654C55.1131 26.2451 57.7786 23.5654 61.1825 23.5654C63.023 23.5654 64.3622 24.267 65.3505 25.1764L66.9828 23.5842C65.6004 22.2967 63.7615 21.3076 61.1825 21.3076C56.5147 21.3076 52.5918 25.0123 52.5918 29.5654C52.5918 34.1186 56.5147 37.8232 61.1825 37.8232C63.7054 37.8232 65.6004 37.017 67.0901 35.5045C68.6167 34.0154 69.0925 31.9217 69.0925 30.2311C69.0925 29.7061 69.0476 29.2232 68.9675 28.8201H61.1825ZM119.243 30.5717C118.793 29.3826 117.404 27.1904 114.575 27.1904C111.772 27.1904 109.438 29.3451 109.438 32.5076C109.438 35.4857 111.748 37.8232 114.845 37.8232C117.348 37.8232 118.793 36.3342 119.387 35.467L117.529 34.2592C116.909 35.1436 116.065 35.7295 114.845 35.7295C113.632 35.7295 112.762 35.1873 112.205 34.1186L119.495 31.1764L119.243 30.5717V30.5717ZM111.811 32.342C111.748 30.292 113.443 29.242 114.657 29.242C115.609 29.242 116.416 29.7061 116.685 30.3701L111.811 32.342V32.342ZM105.885 37.4998H108.282V21.8748H105.885V37.4998ZM101.961 28.3748H101.881C101.343 27.7529 100.316 27.1904 99.015 27.1904C96.2855 27.1904 93.7898 29.5279 93.7898 32.5248C93.7898 35.5045 96.2855 37.8232 99.015 37.8232C100.316 37.8232 101.343 37.2561 101.881 36.6154H101.961V37.3779C101.961 39.4107 100.848 40.5029 99.0519 40.5029C97.5878 40.5029 96.6795 39.4717 96.3047 38.6045L94.2207 39.4529C94.8214 40.8623 96.412 42.5967 99.0519 42.5967C101.862 42.5967 104.232 40.9842 104.232 37.0607V27.5139H101.961V28.3748V28.3748ZM99.2201 35.7295C97.5686 35.7295 96.1862 34.3811 96.1862 32.5248C96.1862 30.6514 97.5686 29.2842 99.2201 29.2842C100.848 29.2842 102.131 30.6514 102.131 32.5248C102.131 34.3811 100.848 35.7295 99.2201 35.7295V35.7295ZM130.463 21.8748H124.731V37.4998H127.121V31.5795H130.463C133.117 31.5795 135.72 29.7061 135.72 26.7264C135.72 23.7482 133.11 21.8748 130.463 21.8748V21.8748ZM130.525 29.4061H127.121V24.0482H130.525C132.31 24.0482 133.328 25.4936 133.328 26.7264C133.328 27.9357 132.31 29.4061 130.525 29.4061ZM145.299 27.1607C143.572 27.1607 141.776 27.9045 141.038 29.5529L143.159 30.4201C143.615 29.5529 144.455 29.2717 145.342 29.2717C146.582 29.2717 147.839 29.9982 147.859 31.2811V31.4451C147.426 31.2014 146.5 30.8404 145.361 30.8404C143.077 30.8404 140.75 32.067 140.75 34.3561C140.75 36.4498 142.621 37.7982 144.724 37.7982C146.332 37.7982 147.22 37.0904 147.777 36.267H147.859V37.4748H150.167V31.4811C150.167 28.7107 148.046 27.1607 145.299 27.1607ZM145.011 35.7232C144.229 35.7232 143.14 35.3451 143.14 34.3998C143.14 33.1904 144.498 32.7264 145.674 32.7264C146.726 32.7264 147.22 32.9529 147.859 33.2514C147.671 34.6982 146.395 35.7232 145.011 35.7232V35.7232ZM158.577 27.5029L155.829 34.2764H155.748L152.908 27.5029H150.33L154.598 36.9686L152.163 42.2357H154.66L161.236 27.5029H158.577V27.5029ZM137.033 37.4998H139.43V21.8748H137.033V37.4998Z" fill="black"/>
<defs>
<linearGradient id="paint0_linear_1295_8462" x1="27.9358" y1="39.1127" x2="6.96425" y2="17.613" gradientUnits="userSpaceOnUse">
<stop stop-color="#00A0FF"/>
<stop offset="0.0066" stop-color="#00A1FF"/>
<stop offset="0.2601" stop-color="#00BEFF"/>
<stop offset="0.5122" stop-color="#00D2FF"/>
<stop offset="0.7604" stop-color="#00DFFF"/>
<stop offset="1" stop-color="#00E3FF"/>
</linearGradient>
<linearGradient id="paint1_linear_1295_8462" x1="43.3579" y1="24.9981" x2="12.3501" y2="24.9981" gradientUnits="userSpaceOnUse">
<stop stop-color="#FFE000"/>
<stop offset="0.4087" stop-color="#FFBD00"/>
<stop offset="0.7754" stop-color="#FFA500"/>
<stop offset="1" stop-color="#FF9C00"/>
</linearGradient>
<linearGradient id="paint2_linear_1295_8462" x1="31.8151" y1="22.1298" x2="3.37607" y2="-7.02553" gradientUnits="userSpaceOnUse">
<stop stop-color="#FF3A44"/>
<stop offset="1" stop-color="#C31162"/>
</linearGradient>
<linearGradient id="paint3_linear_1295_8462" x1="9.35117" y1="49.7798" x2="22.0505" y2="36.7607" gradientUnits="userSpaceOnUse">
<stop stop-color="#32A071"/>
<stop offset="0.0685" stop-color="#2DA771"/>
<stop offset="0.4762" stop-color="#15CF74"/>
<stop offset="0.8009" stop-color="#06E775"/>
<stop offset="1" stop-color="#00F076"/>
</linearGradient>
</defs>
</svg>
