<svg width="31" height="30" viewBox="0 0 31 30" fill="none" xmlns="http://www.w3.org/2000/svg">
<path d="M15.7193 2.6873L26.9693 7.18727C27.4068 7.36227 27.7568 7.88726 27.7568 8.34976V12.4998C27.7568 13.1873 27.1943 13.7498 26.5068 13.7498H4.00684C3.31934 13.7498 2.75684 13.1873 2.75684 12.4998V8.34976C2.75684 7.88726 3.10684 7.36227 3.54434 7.18727L14.7943 2.6873C15.0443 2.5873 15.4693 2.5873 15.7193 2.6873Z" stroke="white" stroke-width="1.5" stroke-miterlimit="10" stroke-linecap="round" stroke-linejoin="round"/>
<path d="M27.7568 27.5H2.75684V23.75C2.75684 23.0625 3.31934 22.5 4.00684 22.5H26.5068C27.1943 22.5 27.7568 23.0625 27.7568 23.75V27.5Z" stroke="white" stroke-width="1.5" stroke-miterlimit="10" stroke-linecap="round" stroke-linejoin="round"/>
<path d="M5.25684 22.5V13.75" stroke="white" stroke-width="1.5" stroke-miterlimit="10" stroke-linecap="round" stroke-linejoin="round"/>
<path d="M10.2568 22.5V13.75" stroke="white" stroke-width="1.5" stroke-miterlimit="10" stroke-linecap="round" stroke-linejoin="round"/>
<path d="M15.2568 22.5V13.75" stroke="white" stroke-width="1.5" stroke-miterlimit="10" stroke-linecap="round" stroke-linejoin="round"/>
<path d="M20.2568 22.5V13.75" stroke="white" stroke-width="1.5" stroke-miterlimit="10" stroke-linecap="round" stroke-linejoin="round"/>
<path d="M25.2568 22.5V13.75" stroke="white" stroke-width="1.5" stroke-miterlimit="10" stroke-linecap="round" stroke-linejoin="round"/>
<path d="M1.50684 27.5H29.0068" stroke="white" stroke-width="1.5" stroke-miterlimit="10" stroke-linecap="round" stroke-linejoin="round"/>
<path d="M15.2568 10.625C16.2924 10.625 17.1318 9.78553 17.1318 8.75C17.1318 7.71447 16.2924 6.875 15.2568 6.875C14.2213 6.875 13.3818 7.71447 13.3818 8.75C13.3818 9.78553 14.2213 10.625 15.2568 10.625Z" stroke="white" stroke-width="1.5" stroke-miterlimit="10" stroke-linecap="round" stroke-linejoin="round"/>
</svg>
