<svg width="104" height="74" viewBox="0 0 104 74" fill="none" xmlns="http://www.w3.org/2000/svg">
<circle cx="51.8736" cy="36.7501" r="36.7203" fill="#FFB200"/>
<g clip-path="url(#clip0_1362_8714)">
<path d="M35.8352 0.292725L34.582 0.996425V1.89425C34.582 11.6288 41.2432 23.709 46.697 26.7705L47.9501 26.0668V25.8241C47.5463 25.08 47.1591 24.2913 46.7927 23.4582C43.1 20.3846 38.408 12.2637 37.5712 4.4664L41.901 6.89295L43.1541 6.18925C43.1458 5.82526 43.1416 5.45724 43.1416 5.08921V5.08112C43.1416 4.8506 43.1624 4.63221 43.1999 4.42191L35.8352 0.292725Z" fill="white"/>
<path d="M46.6976 27.0292C46.6518 27.0292 46.6018 27.0171 46.5602 26.9928C41.0481 23.903 34.312 11.7096 34.312 1.89419V0.996362C34.312 0.903344 34.362 0.814371 34.4494 0.76584L35.7025 0.0661834C35.7858 0.0176524 35.8899 0.0176524 35.9731 0.0661834L43.3337 4.19537C43.4295 4.25199 43.4836 4.35714 43.4669 4.46633C43.4336 4.67663 43.4128 4.87885 43.4128 5.08106C43.4128 5.45717 43.417 5.82116 43.4253 6.18514C43.4253 6.2822 43.3753 6.37118 43.2879 6.41971L42.0348 7.12341C41.9515 7.17194 41.8474 7.17194 41.7642 7.12341L37.9007 4.95569C38.8624 12.4133 43.3004 20.2025 46.9682 23.2559C46.9973 23.2842 47.0265 23.3166 47.039 23.353C47.397 24.1619 47.7842 24.9505 48.188 25.7027C48.2088 25.7391 48.2172 25.7836 48.2172 25.824V26.0667C48.2172 26.1597 48.1672 26.2487 48.0798 26.2972L46.8266 27.0009C46.785 27.0252 46.7392 27.0373 46.6893 27.0373L46.6976 27.0292ZM34.8532 1.15004V1.89419C34.8532 11.4669 41.3312 23.3166 46.6976 26.463L47.6801 25.8887C47.2888 25.1608 46.9141 24.4005 46.5685 23.6159C42.7467 20.4007 38.1297 12.203 37.3012 4.4906C37.2887 4.39354 37.3387 4.29647 37.4219 4.2439C37.5052 4.19132 37.6176 4.18728 37.705 4.23581L41.8974 6.58957L42.8758 6.03955C42.8674 5.7241 42.8633 5.40864 42.8674 5.08915C42.8674 4.9112 42.8799 4.7373 42.9007 4.56339L35.8357 0.595981L34.8532 1.15004Z" fill="black"/>
<path d="M41.9426 5.12577C41.9093 5.33607 41.8843 5.55446 41.8843 5.78498V5.79307C41.8843 6.16109 41.8885 6.52912 41.8968 6.89311L36.2015 3.69814C36.5554 11.9201 41.6137 20.8943 45.5396 24.158C45.906 24.9911 46.2932 25.7798 46.697 26.5239V26.7666C41.2432 23.7091 34.582 11.6289 34.582 1.89441V0.996582L41.9426 5.12577Z" fill="white"/>
<path d="M46.6976 27.0293C46.6518 27.0293 46.6018 27.0171 46.5602 26.9929C41.0481 23.9031 34.312 11.7096 34.312 1.89424V0.996413C34.312 0.903395 34.362 0.814422 34.4494 0.76589C34.5327 0.717359 34.6367 0.717359 34.72 0.76589L42.0806 4.89507C42.1763 4.95169 42.2305 5.05684 42.2138 5.16604C42.1805 5.37634 42.1597 5.57855 42.1597 5.78077C42.1597 6.15688 42.1638 6.52086 42.1722 6.88485C42.1722 6.97787 42.1222 7.06684 42.0389 7.11537C41.9557 7.1639 41.8516 7.1639 41.7642 7.11537L36.5019 4.16711C37.0389 12.5266 42.1472 20.9872 45.7192 23.9556C45.7525 23.984 45.7775 24.0163 45.79 24.0527C46.1439 24.8575 46.5311 25.6461 46.9391 26.4024C46.9599 26.4388 46.9682 26.4833 46.9682 26.5237V26.7664C46.9682 26.8594 46.9182 26.9484 46.8308 26.9969C46.7892 27.0212 46.7434 27.0333 46.6934 27.0333L46.6976 27.0293ZM34.8532 1.45341V1.89424C34.8532 11.1677 40.9274 22.5725 46.1855 26.1395C45.8774 25.5491 45.586 24.9384 45.3112 24.3196C41.606 21.1894 36.3062 12.3325 35.9315 3.71011C35.9273 3.61305 35.9773 3.52407 36.0606 3.47554C36.1438 3.42701 36.2521 3.42297 36.3353 3.47554L41.6143 6.43593C41.6143 6.22563 41.6101 6.01129 41.6101 5.79694C41.6101 5.5826 41.6226 5.44509 41.6434 5.27119L34.8532 1.45341Z" fill="black"/>
<path d="M69.3244 49.5847L53.0004 40.4285L36.6973 49.5725V56.6014L53.0171 65.7576L69.3244 56.6136V49.5847Z" fill="white"/>
<path d="M53.0174 66.0203C52.9716 66.0203 52.9217 66.0082 52.8801 65.9839L36.5602 56.8318C36.477 56.7833 36.4229 56.6983 36.4229 56.6013V49.5724C36.4229 49.4793 36.4728 49.3904 36.5602 49.3418L52.8634 40.1978C52.9467 40.1492 53.0507 40.1492 53.134 40.1978L69.458 49.354C69.5413 49.4025 69.5954 49.4874 69.5954 49.5845V56.6134C69.5954 56.7064 69.5454 56.7954 69.458 56.8439L53.1548 65.988C53.1132 66.0123 53.0674 66.0244 53.0174 66.0244V66.0203ZM36.9682 56.4476L53.0216 65.4501L69.0542 56.4557V49.7301L53.0008 40.7276L36.9682 49.726V56.4516V56.4476Z" fill="black"/>
<path d="M69.3244 49.5847L53.0004 40.4285L36.6973 49.5725L53.0171 58.7287L69.3244 49.5847Z" fill="white"/>
<path d="M53.0174 58.9913C52.9716 58.9913 52.9217 58.9792 52.8801 58.9549L36.5602 49.7987C36.477 49.7502 36.4229 49.6653 36.4229 49.5682C36.4229 49.4711 36.4728 49.3862 36.5602 49.3377L52.8634 40.1936C52.9467 40.1451 53.0507 40.1451 53.134 40.1936L69.458 49.3498C69.5413 49.3983 69.5954 49.4833 69.5954 49.5803C69.5954 49.6774 69.5454 49.7623 69.458 49.8109L53.1548 58.9549C53.1132 58.9792 53.0674 58.9913 53.0174 58.9913V58.9913ZM37.2388 49.5723L53.0174 58.4251L68.7794 49.5844L52.9966 40.7315L37.2347 49.5723H37.2388Z" fill="black"/>
<path d="M53.0171 58.7288V65.7577L69.3244 56.6136V49.5847L53.0171 58.7288Z" fill="black"/>
<path d="M53.0174 66.0203C52.9717 66.0203 52.9217 66.0082 52.8801 65.9839C52.7968 65.9354 52.7427 65.8504 52.7427 65.7534V58.7245C52.7427 58.6314 52.7926 58.5425 52.8801 58.4939L69.1832 49.3499C69.2665 49.3013 69.3706 49.3013 69.4538 49.3499C69.5371 49.3984 69.5912 49.4833 69.5912 49.5804V56.6093C69.5912 56.7023 69.5413 56.7913 69.4538 56.8398L53.1507 65.9839C53.109 66.0082 53.0632 66.0203 53.0133 66.0203H53.0174ZM53.2881 58.8822V65.3004L69.05 56.4597V50.0374L53.2881 58.8781V58.8822Z" fill="black"/>
<path d="M51.211 62.712V59.7435L38.5049 52.6135V55.5861L51.211 62.712Z" fill="white"/>
<path d="M62.4972 49.5762C62.4972 47.3114 60.6654 45.9606 57.6262 44.4561L57.6096 44.4683C54.9617 43.1822 51.0483 43.1782 48.4088 44.4683L48.3922 44.4561C48.2756 44.5128 48.1674 44.5694 48.055 44.626C48.0466 44.63 48.0342 44.6341 48.0258 44.6381C48.0217 44.6381 48.0175 44.6422 48.0133 44.6462C45.2115 46.0738 43.5296 47.4044 43.5254 49.5681V49.5762C43.5254 50.9391 44.4538 52.2979 46.3106 53.3373C50.02 55.4201 56.0275 55.4201 59.7286 53.3414C61.5813 52.302 62.5055 50.9391 62.5055 49.5762H62.4972Z" fill="white"/>
<path d="M53.022 55.1575C50.5408 55.1575 48.0595 54.6277 46.1694 53.5681C44.2918 52.5166 43.251 51.1011 43.251 49.5805C43.2551 47.251 45.1078 45.8355 47.8846 44.42L48.2677 44.2259C48.2968 44.2097 48.3301 44.2016 48.3634 44.1976C51.0695 42.9156 54.9455 42.9156 57.6557 44.1976C57.689 44.1976 57.7223 44.2057 57.7515 44.2219C60.8489 45.7587 62.7723 47.1904 62.7723 49.5765C62.7723 51.0971 61.7398 52.5166 59.8622 53.5722C57.9763 54.6277 55.4992 55.1575 53.022 55.1575V55.1575ZM48.4425 44.7274L48.1761 44.8609C45.4575 46.244 43.7964 47.5058 43.7922 49.5684C43.7922 50.8949 44.7372 52.1527 46.44 53.1071C50.0662 55.1414 55.9613 55.1454 59.5874 53.1111C61.2944 52.1567 62.2311 50.8989 62.2269 49.5765C62.2269 47.4654 60.5242 46.1914 57.5766 44.7274C57.5433 44.7274 57.5142 44.7193 57.485 44.7031C54.9246 43.4616 51.0737 43.4575 48.5258 44.7031C48.4966 44.7153 48.4675 44.7234 48.4383 44.7274H48.4425Z" fill="black"/>
<path d="M57.6258 44.4554L57.6091 44.4676C56.2852 43.8245 54.6491 43.501 53.0088 43.501C53.8747 43.501 54.7365 43.8245 55.4359 44.4676L55.4443 44.4554C57.0513 45.9639 58.0171 47.3147 58.0171 49.5754C58.3793 50.2266 58.9997 52.0101 59.2328 53.5873C59.3993 53.5065 59.5617 53.4296 59.7199 53.3406C61.5725 52.3013 62.4968 50.9384 62.4968 49.5754C62.4968 47.3107 60.6649 45.9599 57.6258 44.4554V44.4554Z" fill="black"/>
<path d="M59.2498 53.8381C59.2082 53.8381 59.1665 53.83 59.1332 53.8139C59.0583 53.7734 58.9792 53.7128 58.9667 53.6319C58.7335 52.0668 58.1216 50.3156 57.7843 49.7049C57.7635 49.6685 57.751 49.624 57.751 49.5795C57.751 47.4401 56.8601 46.1621 55.3239 44.7062C55.2989 44.6941 55.2739 44.6819 55.2531 44.6617C54.6286 44.0874 53.8334 43.7679 53.0133 43.7679C52.8634 43.7679 52.7427 43.6507 52.7427 43.5051C52.7427 43.3595 52.8634 43.2422 53.0133 43.2422H53.0174C54.7119 43.2422 56.3563 43.5819 57.6594 44.2007C57.6927 44.2007 57.726 44.2088 57.7552 44.2249C60.8526 45.7618 62.776 47.1934 62.776 49.5795C62.776 51.1002 61.7436 52.5197 59.8659 53.5753C59.7202 53.6561 59.5662 53.733 59.4122 53.8058C59.3664 53.826 59.3122 53.8381 59.2581 53.8381H59.2498ZM58.2922 49.5108C58.6336 50.1619 59.179 51.6987 59.4455 53.1911C59.4954 53.1668 59.5412 53.1385 59.587 53.1142C61.2939 52.1598 62.2306 50.902 62.2265 49.5795C62.2265 47.4684 60.5279 46.1985 57.5845 44.7345C57.5512 44.7345 57.5179 44.7224 57.4846 44.7062C56.8268 44.3867 56.0691 44.1441 55.2614 43.9823C55.3613 44.0551 55.4613 44.136 55.557 44.2209C55.5862 44.233 55.6111 44.2492 55.6319 44.2694C57.2556 45.7941 58.2673 47.2056 58.2881 49.5148L58.2922 49.5108Z" fill="black"/>
<path d="M58.0011 50.2394C60.753 48.6986 60.753 46.1911 57.9928 44.6462C55.2367 43.1013 50.7738 43.1013 48.0219 44.6462C45.27 46.1911 45.27 48.6945 48.0261 50.2394C50.7821 51.7884 55.2451 51.7843 57.997 50.2394H58.0011Z" fill="white"/>
<path d="M53.0179 51.6508C51.1612 51.6508 49.3044 51.2544 47.893 50.4618C46.4734 49.665 45.6907 48.5933 45.6865 47.4367C45.6865 46.2841 46.4692 45.2083 47.8847 44.4116C50.7115 42.8303 55.3077 42.8303 58.1262 44.4116C59.5459 45.2083 60.3327 46.2841 60.3327 47.4407C60.3327 48.5933 59.5542 49.6691 58.1345 50.4618C56.7232 51.2544 54.8706 51.6467 53.0179 51.6467V51.6508ZM53.0013 43.7443C51.2444 43.7443 49.4917 44.1204 48.1553 44.8686C46.9105 45.5642 46.2277 46.4782 46.2277 47.4367C46.2277 48.3952 46.9147 49.3092 48.1595 50.0048C50.8323 51.5052 55.187 51.5092 57.8598 50.0048C59.1004 49.3092 59.7873 48.3992 59.7873 47.4407C59.7873 46.4822 59.1004 45.5682 57.8556 44.8686C56.5192 44.1163 54.7582 43.7402 53.0013 43.7402V43.7443Z" fill="black"/>
<path d="M57.4594 45.9126H57.4636C56.1564 44.5699 55.8025 43.8056 55.8025 40.8816C55.8025 40.4812 55.5277 40.0808 54.9823 39.7734C53.8916 39.1628 52.1222 39.1628 51.0314 39.7734C50.4611 40.0929 50.1946 40.5176 50.2238 40.9341C50.2196 43.7409 49.8782 44.5416 48.6542 45.8196C47.3012 46.956 47.5218 48.509 49.3162 49.516C51.3562 50.6646 54.6701 50.6646 56.7101 49.516C58.4545 48.5373 58.7001 47.045 57.4636 45.9126H57.4594Z" fill="white"/>
<path d="M53.0174 50.6318C51.6269 50.6318 50.2364 50.3366 49.1831 49.7421C48.1922 49.188 47.6052 48.4358 47.5219 47.627C47.4512 46.9111 47.7884 46.1953 48.4753 45.617C49.6285 44.4118 49.9491 43.6879 49.9533 40.9297C49.92 40.412 50.2613 39.8984 50.8983 39.5385C52.0848 38.8752 53.9416 38.8752 55.124 39.5385C55.7276 39.8822 56.069 40.3433 56.0774 40.8488C56.0774 40.8569 56.0774 40.869 56.0774 40.8771C56.0774 43.7162 56.3938 44.4239 57.6635 45.7262C57.6719 45.7343 57.676 45.7423 57.6844 45.7464C58.288 46.3126 58.5753 46.9961 58.4962 47.6715C58.4004 48.4601 57.8176 49.1961 56.8476 49.7381C55.7901 50.3285 54.4037 50.6238 53.0174 50.6238V50.6318ZM53.0091 39.5749C52.3429 39.5749 51.6768 39.7164 51.1689 39.9995C50.7151 40.2543 50.4737 40.5819 50.4945 40.9175C50.4945 43.8294 50.099 44.6949 48.8542 45.9971C48.2755 46.4865 48.009 47.0284 48.0632 47.5784C48.1256 48.2134 48.621 48.82 49.4537 49.2851C51.4146 50.3892 54.6119 50.3892 56.5769 49.2851C57.3929 48.8281 57.88 48.2336 57.955 47.6148C58.0174 47.0891 57.7843 46.5633 57.2764 46.1023C57.2597 46.0901 57.2472 46.074 57.2389 46.0578C55.9025 44.6827 55.5361 43.8658 55.5361 40.9054C55.5361 40.8973 55.5361 40.8892 55.5361 40.8771C55.5361 40.5576 55.2947 40.2462 54.8534 39.9955C54.3455 39.7124 53.6793 39.5708 53.0132 39.5708L53.0091 39.5749Z" fill="black"/>
<path d="M57.4585 45.9125H57.4627C56.1555 44.5698 55.8016 43.8054 55.8016 40.8814C55.8016 40.481 55.5268 40.0807 54.9814 39.7733C54.4361 39.4659 53.72 39.3123 53.0039 39.3123C53.3994 39.3123 53.7949 39.4659 54.0988 39.7733C54.4027 40.0807 54.5526 40.481 54.5526 40.8814C54.5526 43.8054 54.7483 44.5698 55.4727 45.9125C56.1471 47.0246 56.6884 49.4269 55.456 50.0214C55.9015 49.888 56.3303 49.7303 56.7092 49.5159C58.4536 48.5372 58.6992 47.0449 57.4627 45.9125H57.4585Z" fill="black"/>
<path d="M55.4566 50.2802C55.3484 50.2802 55.2484 50.2155 55.2026 50.1144C55.1485 49.985 55.2068 49.8434 55.3359 49.7828C55.569 49.6695 55.7355 49.4592 55.8313 49.1519C56.0894 48.3066 55.7355 46.8628 55.2401 46.0459C55.2318 46.0337 55.2276 46.0216 55.2193 46.0095C54.4824 44.6385 54.2826 43.8337 54.2826 40.8854C54.2826 37.9371 54.1494 40.2019 53.9037 39.9552C53.6623 39.7126 53.3417 39.5751 53.0045 39.5751C52.6672 39.5751 52.7339 39.4578 52.7339 39.3122C52.7339 39.1666 52.8546 39.0493 53.0045 39.0493C53.7955 39.0493 54.5449 39.2232 55.1152 39.5427C55.7189 39.8865 56.0603 40.3475 56.0686 40.8531C56.0686 40.8611 56.0686 40.8733 56.0686 40.8814C56.0686 43.7204 56.385 44.4282 57.6548 45.7304C57.6631 45.7385 57.6673 45.7466 57.6756 45.7506C58.2793 46.3168 58.5665 47.0003 58.4874 47.6757C58.3917 48.4643 57.8088 49.2004 56.8388 49.7423C56.4891 49.9405 56.0603 50.1104 55.5315 50.2681C55.5066 50.2762 55.4774 50.2802 55.4524 50.2802H55.4566ZM55.723 45.8032C56.1935 46.5959 56.6931 48.1853 56.3517 49.3015C56.3392 49.3419 56.3267 49.3824 56.3101 49.4188C56.4017 49.3743 56.4891 49.3298 56.5723 49.2853C57.3883 48.8283 57.8754 48.2338 57.9504 47.615C58.0128 47.0893 57.7797 46.5635 57.2718 46.1025C57.2551 46.0904 57.2426 46.0742 57.2343 46.058C55.8979 44.683 55.5315 43.866 55.5315 40.9056C55.5315 40.8975 55.5315 40.8895 55.5315 40.8773C55.5315 40.5578 55.2901 40.2464 54.8488 39.9957C54.7405 39.935 54.624 39.8824 54.5032 39.8339C54.7155 40.1372 54.828 40.4972 54.828 40.8773C54.828 43.7568 55.007 44.4686 55.7147 45.787C55.7147 45.7911 55.7189 45.7951 55.723 45.8032V45.8032Z" fill="black"/>
<path d="M54.9863 41.9887C56.077 41.378 56.077 40.3831 54.9863 39.7725C53.8955 39.1618 52.1261 39.1618 51.0354 39.7725C49.9446 40.3831 49.9446 41.378 51.0354 41.9887C52.1261 42.6034 53.8997 42.6034 54.9904 41.9887H54.9863Z" fill="white"/>
<path d="M53.0134 42.7129C52.2515 42.7129 51.4896 42.5471 50.8985 42.2155C50.2823 41.8717 49.9451 41.3945 49.9409 40.8768C49.9409 40.3591 50.2781 39.886 50.8943 39.5382C52.0808 38.8749 53.9334 38.879 55.12 39.5382C55.7361 39.886 56.0775 40.3591 56.0775 40.8768C56.0775 41.3945 55.7403 41.8677 55.1241 42.2114C54.5329 42.543 53.7752 42.7089 53.0134 42.7089V42.7129ZM53.005 39.5705C52.3389 39.5705 51.6728 39.7121 51.1649 39.9952C50.7236 40.2419 50.4821 40.5533 50.4821 40.8728C50.4821 41.1923 50.7236 41.5077 51.1649 41.7544C52.1807 42.3247 53.8335 42.3287 54.8494 41.7544C55.2907 41.5077 55.5321 41.1963 55.5321 40.8768C55.5321 40.5573 55.2907 40.2419 54.8494 39.9952C54.3414 39.7121 53.6753 39.5705 53.0092 39.5705H53.005Z" fill="black"/>
<path d="M56.5344 37.6135C56.5344 35.7208 54.9566 34.188 53.0082 34.188C51.0598 34.188 49.4819 35.7208 49.4819 37.6135C49.4819 39.5062 51.0598 41.039 53.0082 41.043C54.9566 41.043 56.5344 39.5062 56.5344 37.6135Z" fill="white"/>
<path d="M53.0088 41.3058C50.9147 41.3058 49.2119 39.6477 49.2119 37.6134C49.2119 35.5791 50.9188 33.925 53.0088 33.925C55.1029 33.925 56.8056 35.5791 56.8056 37.6134C56.8056 39.6477 55.1029 41.3018 53.0088 41.3058V41.3058ZM53.0088 34.4508C51.2144 34.4508 49.7531 35.8703 49.7531 37.6134C49.7531 39.3565 51.2144 40.776 53.0088 40.776C54.8031 40.776 56.2644 39.3565 56.2644 37.6134C56.2644 35.8703 54.8031 34.4508 53.0088 34.4508V34.4508Z" fill="black"/>
<path d="M54.0087 34.3458C54.8913 34.9687 55.4741 35.9716 55.4741 37.1162C55.4741 39.0089 53.8963 40.5457 51.9479 40.5416C51.5982 40.5416 51.2693 40.4769 50.9487 40.388C51.5316 40.7964 52.2393 41.0431 53.0095 41.0431C54.9579 41.0431 56.5358 39.5063 56.5358 37.6136C56.5358 35.7209 55.4658 34.7624 54.0087 34.3418V34.3458Z" fill="black"/>
<path d="M53.0094 41.3057C52.2142 41.3057 51.4481 41.0631 50.7904 40.598C50.6821 40.5211 50.6488 40.3836 50.7071 40.2704C50.7654 40.1531 50.8986 40.1005 51.0277 40.1329C51.3774 40.2299 51.6688 40.2785 51.9477 40.2785C52.8178 40.2785 53.6338 39.9509 54.25 39.3523C54.8661 38.7538 55.2034 37.9611 55.2034 37.1159C55.2034 36.2706 54.6955 35.1544 53.8503 34.5599C53.7421 34.4831 53.7088 34.3456 53.7671 34.2283C53.8253 34.111 53.9586 34.0544 54.0876 34.0908C55.7154 34.5599 56.8104 35.9754 56.8104 37.6133C56.8104 39.2512 55.1076 41.3017 53.0135 41.3057H53.0094ZM52.593 40.7517C52.7304 40.7678 52.8678 40.7759 53.0094 40.7759C54.8037 40.7759 56.265 39.3564 56.265 37.6133C56.265 35.8702 55.8986 35.9309 55.2783 35.3526C55.5781 35.8864 55.7446 36.4931 55.7446 37.1118C55.7446 38.0986 55.3491 39.0248 54.633 39.7204C54.071 40.2663 53.3632 40.6222 52.593 40.7476V40.7517Z" fill="black"/>
<path d="M54.9863 36.3666C56.077 35.7519 56.077 34.761 54.9863 34.1463C53.8955 33.5356 52.1261 33.5316 51.0354 34.1463C49.9446 34.757 49.9446 35.7478 51.0354 36.3626C52.1261 36.9732 53.8997 36.9732 54.9904 36.3626L54.9863 36.3666Z" fill="white"/>
<path d="M53.0131 37.091C52.2512 37.091 51.4894 36.9252 50.8982 36.5935C50.282 36.2457 49.9448 35.7726 49.9448 35.2549C49.9448 34.7372 50.282 34.2641 50.8982 33.9203C52.0806 33.257 53.9332 33.257 55.1239 33.9203C55.74 34.2681 56.0772 34.7413 56.0814 35.2589C56.0814 35.7766 55.7442 36.2498 55.128 36.5976C54.5369 36.9292 53.7791 37.095 53.0173 37.095L53.0131 37.091ZM53.0048 33.9486C52.3387 33.9486 51.6726 34.0902 51.1646 34.3733C50.7233 34.62 50.4819 34.9314 50.4819 35.2509C50.4819 35.5704 50.7233 35.8858 51.1646 36.1325C52.1805 36.7027 53.8333 36.7027 54.8491 36.1325C55.2904 35.8858 55.5319 35.5744 55.5319 35.2509C55.5319 34.9273 55.2862 34.6159 54.8491 34.3692C54.3412 34.0861 53.6751 33.9405 53.009 33.9405L53.0048 33.9486Z" fill="black"/>
<path d="M54.9863 34.1469C54.4409 33.8396 53.7249 33.6899 53.0088 33.6899C53.4085 33.6899 53.8123 33.8436 54.1162 34.1469C54.7282 34.7617 54.7282 35.7525 54.1162 36.3632C53.8081 36.6706 53.4085 36.8202 53.0088 36.8242C53.7249 36.8242 54.4409 36.6706 54.9863 36.3672C56.0771 35.7525 56.0771 34.7617 54.9863 34.1469Z" fill="black"/>
<path d="M53.0133 37.0871C52.8634 37.0871 52.7427 36.9698 52.7427 36.8242C52.7427 36.6786 52.8634 36.5613 53.0133 36.5613C53.3588 36.5613 53.6836 36.4278 53.9292 36.1811C54.4371 35.6716 54.4371 34.8425 53.9292 34.3329C53.6836 34.0903 53.3588 33.9528 53.0133 33.9528C52.8634 33.9528 52.7427 33.8355 52.7427 33.6899C52.7427 33.5443 52.8634 33.427 53.0133 33.427C53.8085 33.427 54.5578 33.6009 55.124 33.9204C55.7402 34.2642 56.0774 34.7414 56.0816 35.259C56.0816 35.7767 55.7444 36.2499 55.1282 36.5977C54.5578 36.9172 53.8085 37.0911 53.0174 37.0911L53.0133 37.0871ZM54.5329 34.2237C54.9575 34.8465 54.9575 35.6716 54.5329 36.2903C54.6453 36.2458 54.7535 36.1933 54.8576 36.1367C55.2947 35.89 55.5404 35.5785 55.5404 35.255C55.5404 34.9315 55.2947 34.6201 54.8576 34.3734C54.7577 34.3167 54.6494 34.2642 54.537 34.2197L54.5329 34.2237Z" fill="black"/>
<path d="M67.5672 9.22652V9.21843C67.5631 7.1316 66.1393 5.04476 63.2999 3.45133C57.6088 0.260412 48.3956 0.260412 42.7128 3.44324C39.8693 5.04072 38.4539 7.1316 38.458 9.21843C38.458 24.991 45.7187 34.5516 53.0168 34.5516C60.3149 34.5516 67.5714 24.991 67.5756 9.22652H67.5672Z" fill="white"/>
<path d="M53.0091 34.8186C45.7193 34.8186 38.1797 25.2418 38.1797 9.22247C38.1797 -6.79682 38.1797 9.2063 38.1797 9.19416C38.188 6.92534 39.7451 4.8021 42.5719 3.21675C48.3255 -0.0105607 57.6802 -0.00247205 63.4338 3.2208C66.2689 4.81019 67.8301 6.94151 67.8385 9.21843V9.22652C67.8385 25.2418 60.2989 34.8145 53.0091 34.8186V34.8186ZM38.7251 9.24674C38.7334 24.9223 45.994 34.2888 53.0091 34.2928C60.0283 34.2928 67.2931 24.9142 67.2931 9.23056C67.2889 7.13968 65.8193 5.17417 63.159 3.68184C57.5595 0.539458 48.4462 0.535413 42.8425 3.67375C40.1822 5.16608 38.7167 7.13968 38.7209 9.22247C38.7209 9.23056 38.7209 9.24269 38.7209 9.25078L38.7251 9.24674Z" fill="black"/>
<path d="M63.3087 14.9976C68.9915 11.8107 68.9873 6.64214 63.2962 3.44718C57.6051 0.256261 48.3919 0.256261 42.7091 3.43909C37.0263 6.62596 37.0346 11.7986 42.7216 14.9854C48.4085 18.1764 57.6259 18.1764 63.3087 14.9976Z" fill="white"/>
<path d="M53.0296 17.6386C49.2494 17.6386 45.4692 16.8297 42.5883 15.2161C39.749 13.6267 38.1836 11.4913 38.1836 9.21036C38.1836 6.93344 39.7448 4.80212 42.5758 3.21273C48.3252 -0.0105417 57.6799 -0.00245299 63.4335 3.22082C66.2728 4.81425 67.8382 6.94962 67.8382 9.23058C67.8382 11.5115 66.277 13.6388 63.446 15.2282C60.5734 16.8378 56.8015 17.6426 53.0296 17.6426V17.6386ZM52.9963 1.31597C49.3202 1.31597 45.6482 2.10056 42.8464 3.66973C40.1903 5.16206 38.7248 7.12757 38.7248 9.21036C38.7248 11.2931 40.1944 13.2627 42.8589 14.7591C48.4584 17.9015 57.5717 17.9095 63.1712 14.7712C65.8274 13.2789 67.2928 11.3134 67.2928 9.23058C67.2928 7.14779 65.8232 5.17419 63.1587 3.67782C60.3569 2.1046 56.6724 1.32002 52.9922 1.32002L52.9963 1.31597Z" fill="black"/>
<path d="M63.9457 8.50283C63.8582 8.50283 63.775 8.46239 63.7209 8.38555C63.1505 7.56861 62.2929 6.83255 61.1688 6.20165C60.7025 5.93877 60.1821 5.69207 59.6242 5.47368C59.4869 5.41706 59.4202 5.26338 59.4744 5.12992C59.5327 4.99646 59.6867 4.93175 59.8282 4.98433C60.4111 5.21485 60.9523 5.46964 61.4394 5.74465C62.6342 6.416 63.5543 7.20463 64.1705 8.09032C64.2537 8.21164 64.2204 8.37341 64.0997 8.4543C64.0539 8.48665 63.9998 8.49879 63.9498 8.49879L63.9457 8.50283Z" fill="black"/>
<path d="M42.5177 13.8369C42.4427 13.8369 42.3678 13.8045 42.3137 13.7479C41.2645 12.5791 40.8316 11.2607 41.0564 9.94228C41.3311 8.34885 42.5759 6.85652 44.566 5.7403C47.8674 3.88803 52.8175 3.28544 57.1847 4.20348C57.3304 4.23584 57.4261 4.37334 57.3928 4.51489C57.3595 4.65644 57.218 4.74946 57.0723 4.71711C52.83 3.82737 48.0298 4.4057 44.8407 6.19326C42.9923 7.22859 41.8391 8.5915 41.5934 10.0232C41.3936 11.1839 41.7849 12.3527 42.7258 13.3961C42.8257 13.5053 42.8132 13.6711 42.7008 13.7681C42.6509 13.8126 42.5884 13.8329 42.5218 13.8329L42.5177 13.8369Z" fill="black"/>
<path d="M67.5678 9.21884C67.5678 9.20266 67.5636 9.18244 67.5636 9.16626C67.5928 11.2774 66.1814 13.3885 63.313 14.9981C63.0257 15.1598 62.726 15.3014 62.4262 15.447C61.3479 27.4706 57.1931 34.552 53.0132 34.5561C60.3113 34.5561 67.5678 24.9955 67.572 9.23097V9.22288L67.5678 9.21884Z" fill="black"/>
<path d="M53.0094 34.8189C52.8595 34.8189 52.7388 34.7016 52.7388 34.556C52.7388 34.4104 52.8595 34.2932 53.0094 34.2932C56.7105 34.2932 61.0402 27.8102 62.1518 15.4267C62.1601 15.3337 62.2184 15.2528 62.3017 15.2124C62.5973 15.0708 62.8929 14.9293 63.1718 14.7715C65.8571 13.2671 67.3184 11.2773 67.2892 9.17024C67.2892 9.02869 67.4016 8.91141 67.5473 8.90332C67.693 8.90736 67.8179 9.00443 67.8304 9.14598C67.8304 9.15406 67.8388 9.21068 67.8388 9.21877C67.8388 25.2421 60.2992 34.8149 53.0094 34.8189V34.8189ZM62.6764 15.6168C61.8562 24.4939 59.2376 31.264 55.8945 33.7674C61.5232 31.7251 66.6356 23.7983 67.2351 11.6251C66.5398 12.9799 65.2534 14.2134 63.4424 15.2285C63.1968 15.366 62.9387 15.4955 62.6764 15.6208V15.6168Z" fill="black"/>
<path d="M63.9326 16.0535L62.6794 16.7572C62.7127 17.0039 62.7336 17.2465 62.7377 17.477V17.4851C62.7377 17.8532 62.7336 18.2171 62.7252 18.573L68.4205 21.768C68.2165 26.2288 66.4846 29.2135 64.3073 30.7503C62.9958 31.3165 61.6095 31.4216 60.3397 31.0536L59.0866 31.7573C58.7202 32.1779 58.333 32.5338 57.9292 32.825V33.0676C60.1982 34.3375 62.6711 34.2809 64.7943 33.0838L66.0849 32.3639C69.045 30.6654 71.2973 26.7465 71.2973 21.0805V20.1867L63.9367 16.0575L63.9326 16.0535Z" fill="white"/>
<path d="M61.3853 34.2564C60.1613 34.2564 58.9332 33.9328 57.7883 33.2898C57.705 33.2413 57.6509 33.1563 57.6509 33.0593V32.8166C57.6509 32.7317 57.6925 32.6549 57.7591 32.6063C58.1505 32.3232 58.5252 31.9795 58.8707 31.5791C58.8915 31.5548 58.9165 31.5346 58.9415 31.5225L60.1946 30.8188C60.2571 30.7824 60.3362 30.7743 60.4069 30.7945C61.6226 31.1463 62.9298 31.0452 64.1871 30.5033C65.5152 29.561 67.8508 27.1547 68.1339 21.9093L62.5843 18.7952C62.4969 18.7467 62.4469 18.6577 62.4469 18.5606C62.4552 18.2047 62.4594 17.8448 62.4594 17.4808C62.4594 17.2624 62.4386 17.0319 62.4053 16.7892C62.3886 16.6841 62.4427 16.5789 62.5385 16.5223L63.7916 15.8186C63.8749 15.7701 63.979 15.7701 64.0622 15.8186L71.4228 19.9478C71.5061 19.9963 71.5602 20.0813 71.5602 20.1783V21.0721C71.5602 26.3418 69.5785 30.6287 66.2521 32.5538C66.2396 32.5659 66.2271 32.574 66.2105 32.5821L64.9199 33.306C64.9032 33.3141 64.8907 33.3222 64.8741 33.3262C63.7666 33.9409 62.576 34.2483 61.3811 34.2483L61.3853 34.2564ZM58.2296 32.9258C60.2987 34.0178 62.6301 33.9935 64.6534 32.853C64.6701 32.8449 64.6826 32.8368 64.6992 32.8328L65.9107 32.1534C65.9232 32.1453 65.9357 32.1331 65.9482 32.1291C69.1289 30.3092 71.0273 26.18 71.0273 21.0762V20.332L63.9373 16.3565L62.9756 16.8944C62.9965 17.0966 63.0089 17.2907 63.0131 17.4727C63.0131 17.7963 63.0089 18.1117 63.0048 18.4191L68.5627 21.5372C68.6501 21.5857 68.7042 21.6788 68.7001 21.7758C68.5127 25.909 67.014 29.1687 64.4744 30.9603C63.088 31.5629 61.6934 31.6842 60.382 31.3324L59.2704 31.9552C58.9456 32.3232 58.6001 32.6468 58.2421 32.9218L58.2296 32.9258Z" fill="black"/>
<path d="M62.6797 16.7573C62.713 17.004 62.7338 17.2467 62.738 17.4772V17.4853C62.738 17.8533 62.7338 18.2173 62.7255 18.5732L68.4208 21.7682C68.0669 29.5938 63.0086 32.8899 59.0827 31.7534C58.7163 32.174 58.3291 32.5299 57.9253 32.8211V33.0638C63.3791 36.1212 70.0403 31.5189 70.0403 21.7803V20.8865L62.6797 16.7573V16.7573Z" fill="white"/>
<path d="M61.3936 34.2605C60.1696 34.2605 58.9373 33.9369 57.7883 33.2939C57.705 33.2453 57.6509 33.1604 57.6509 33.0634V32.8207C57.6509 32.7358 57.6925 32.6589 57.7591 32.6104C58.1505 32.3273 58.5252 31.9835 58.8707 31.5832C58.9415 31.5023 59.0497 31.4699 59.1538 31.5023C60.765 31.9674 62.5635 31.6317 64.0914 30.5761C65.4861 29.6136 67.8508 27.2113 68.1339 21.9133L62.5843 18.7993C62.4969 18.7507 62.4469 18.6618 62.4469 18.5647C62.4552 18.2088 62.4594 17.8489 62.4594 17.4849C62.4594 17.2665 62.4386 17.036 62.4053 16.7933C62.3928 16.6922 62.4344 16.5951 62.5218 16.5385C62.6093 16.4819 62.7175 16.4779 62.8091 16.5304L70.1697 20.6596C70.2529 20.7082 70.3071 20.7931 70.3071 20.8901V21.7839C70.3071 27.1143 68.2879 31.4295 64.9032 33.3262C63.7916 33.949 62.5926 34.2605 61.3895 34.2605H61.3936ZM58.2296 32.9299C60.2945 34.0218 62.6218 34.0016 64.6368 32.8692C67.8508 31.0655 69.77 26.9201 69.77 21.7839V21.0398L63.0006 17.2422C63.0048 17.3231 63.0089 17.4 63.0089 17.4768C63.0089 17.8003 63.0048 18.1158 63.0006 18.4231L68.5585 21.5413C68.6459 21.5898 68.7001 21.6828 68.6959 21.7799C68.4419 27.4095 65.9065 29.9776 64.4161 31.0089C62.8091 32.121 60.9107 32.4972 59.1788 32.0563C58.879 32.3839 58.5626 32.6791 58.2337 32.9299H58.2296Z" fill="black"/>
<path d="M64.3037 30.7495C62.9923 31.3157 61.6059 31.4168 60.3361 31.0528L59.083 31.7565C60.7691 32.2459 62.6634 31.9102 64.3037 30.7536V30.7495Z" fill="black"/>
<path d="M60.6194 32.2344C60.074 32.2344 59.5328 32.1616 59.0082 32.0079C58.9042 31.9796 58.8292 31.8906 58.8167 31.7854C58.8042 31.6803 58.8584 31.5792 58.9499 31.5266L60.2031 30.8229C60.2655 30.7865 60.3446 30.7784 60.4154 30.7986C61.6311 31.1505 62.9425 31.0494 64.1956 30.5075C64.3247 30.4549 64.4704 30.4994 64.5411 30.6167C64.6119 30.7339 64.5786 30.8836 64.4662 30.9604C63.2797 31.7976 61.9391 32.2303 60.6194 32.2303V32.2344ZM59.8201 31.6479C60.5403 31.7571 61.2813 31.7167 62.0057 31.5347C61.4562 31.5428 60.9067 31.4821 60.3738 31.3406L59.8201 31.652V31.6479Z" fill="black"/>
<path d="M70.0416 20.8827V21.7764C70.0416 27.4627 67.7685 31.3977 64.7876 33.0761L66.0782 32.3562C69.0382 30.6576 71.2905 26.7387 71.2905 21.0727V20.179L70.0374 20.8827H70.0416Z" fill="black"/>
<path d="M64.7916 33.347C64.7125 33.347 64.6334 33.3146 64.5793 33.2499C64.5293 33.1893 64.5085 33.1124 64.5252 33.0356C64.5377 32.9587 64.5876 32.894 64.6542 32.8536C67.8599 31.0458 69.7708 26.9085 69.7708 21.7804V20.8866C69.7708 20.7936 69.8208 20.7046 69.9082 20.6561L71.1613 19.9524C71.2446 19.9039 71.3487 19.9039 71.432 19.9524C71.5152 20.0009 71.5693 20.0859 71.5693 20.1829V21.0767C71.5693 26.3464 69.5877 30.6333 66.2612 32.5584C66.2488 32.5705 66.2363 32.5786 66.2196 32.5867L64.929 33.3106C64.8874 33.3349 64.8416 33.347 64.7916 33.347ZM70.3121 21.0363V21.7804C70.3121 25.2868 69.4378 28.3523 67.8724 30.5807C69.8749 28.417 71.024 25.0401 71.024 21.0767V20.6359L70.3121 21.0363Z" fill="black"/>
</g>
<g clip-path="url(#clip1_1362_8714)">
<path d="M5.56893 60.6974C5.54753 60.6974 5.53683 60.6974 5.51544 60.6974C5.22662 60.6766 4.98059 60.4896 4.89501 60.2195C4.49922 58.9833 3.8574 57.612 3.04442 56.2511C2.24214 54.8902 1.33289 53.6643 0.423645 52.7086C0.231098 52.5008 0.188309 52.1995 0.305977 51.9502C0.434342 51.7009 0.701768 51.5347 0.990588 51.5762C1.78217 51.6282 2.58445 51.4516 3.30115 51.0464C4.01785 50.6517 4.5741 50.0699 4.9271 49.3635C5.05547 49.1141 5.2908 48.9479 5.61171 48.9791C5.90053 48.9999 6.13587 49.1869 6.22145 49.457C6.61724 50.6932 7.25906 52.0749 8.06134 53.4358C8.87431 54.7967 9.78356 56.0225 10.6928 56.9783C10.8854 57.1861 10.9281 57.4769 10.8105 57.7263C10.6821 57.9756 10.4147 58.1314 10.1366 58.1106C9.33429 58.0483 8.53201 58.2353 7.81531 58.6405C7.0986 59.0456 6.53166 59.6274 6.18935 60.3234C6.07169 60.5623 5.82565 60.7078 5.55823 60.7078L5.56893 60.6974ZM2.37051 52.8333C3.03372 53.6539 3.67555 54.5889 4.26389 55.5758C4.85222 56.5731 5.36568 57.5704 5.76147 58.5366C6.14657 58.121 6.60654 57.7574 7.13069 57.4666C7.65485 57.1757 8.2004 56.9679 8.77804 56.864C8.11482 56.0433 7.473 55.1187 6.87397 54.1214C6.28563 53.1241 5.77217 52.1268 5.37638 51.1607C4.99128 51.5866 4.53131 51.9398 4.00716 52.2307C3.483 52.5216 2.93745 52.7294 2.37051 52.8436V52.8333Z" fill="black"/>
</g>
<g clip-path="url(#clip2_1362_8714)">
<path d="M99.2335 17.0593C100.276 17.0593 101.318 16.825 102.131 16.3648C103.012 15.8627 103.495 15.1599 103.495 14.39C103.495 13.6202 103.012 12.9257 102.131 12.432C100.513 11.5116 97.9626 11.5116 96.3443 12.432C95.4632 12.9341 94.9803 13.637 94.9803 14.4068C94.9803 15.1682 95.4632 15.8711 96.3443 16.3732C97.1577 16.8334 98.1913 17.0677 99.2335 17.0677V17.0593ZM99.2419 12.8337C100.098 12.8337 100.945 13.0178 101.58 13.3776C102.097 13.6704 102.385 14.0386 102.385 14.3984C102.385 14.7582 102.089 15.1264 101.572 15.4193C100.301 16.1472 98.1574 16.1472 96.8866 15.4193C96.3698 15.1264 96.0817 14.7582 96.0817 14.3984C96.0817 14.0386 96.3782 13.6704 96.895 13.3692C97.5305 13.0094 98.3862 12.8253 99.2419 12.8253V12.8337Z" fill="black"/>
</g>
<defs>
<clipPath id="clip0_1362_8714">
<rect width="37.2525" height="65.9901" fill="white" transform="translate(34.312 0.0297852)"/>
</clipPath>
<clipPath id="clip1_1362_8714">
<rect width="10.6436" height="11.7079" fill="white" transform="translate(0.252441 48.99)"/>
</clipPath>
<clipPath id="clip2_1362_8714">
<rect width="8.51485" height="5.32178" fill="white" transform="matrix(-1 0 0 1 103.495 11.7375)"/>
</clipPath>
</defs>
</svg>
