<svg width="104" height="74" viewBox="0 0 104 74" fill="none" xmlns="http://www.w3.org/2000/svg">
<circle cx="51.6803" cy="36.7501" r="36.7203" fill="#EB7032"/>
<g clip-path="url(#clip0_1362_8713)">
<path d="M35.6418 0.292725L34.3887 0.996425V1.89425C34.3887 11.6288 41.0498 23.709 46.5036 26.7705L47.7568 26.0668V25.8241C47.3529 25.08 46.9658 24.2913 46.5994 23.4582C42.9066 20.3846 38.2147 12.2637 37.3779 4.46639L41.7076 6.89295L42.9607 6.18925C42.9524 5.82526 42.9482 5.45724 42.9482 5.08921V5.08112C42.9482 4.8506 42.9691 4.63221 43.0065 4.42191L35.6418 0.292725Z" fill="white"/>
<path d="M46.5042 27.0292C46.4584 27.0292 46.4085 27.0171 46.3668 26.9928C40.8547 23.903 34.1187 11.7096 34.1187 1.89419V0.996362C34.1187 0.903344 34.1686 0.814371 34.256 0.76584L35.5092 0.0661834C35.5924 0.0176524 35.6965 0.0176524 35.7798 0.0661834L43.1403 4.19537C43.2361 4.25199 43.2902 4.35714 43.2736 4.46633C43.2403 4.67663 43.2194 4.87885 43.2194 5.08106C43.2194 5.45717 43.2236 5.82116 43.2319 6.18514C43.2319 6.2822 43.182 6.37118 43.0946 6.41971L41.8414 7.12341C41.7582 7.17194 41.6541 7.17194 41.5708 7.12341L37.7073 4.95569C38.669 12.4133 43.107 20.2025 46.7748 23.2559C46.804 23.2842 46.8331 23.3166 46.8456 23.353C47.2036 24.1619 47.5908 24.9505 47.9947 25.7027C48.0155 25.7391 48.0238 25.7836 48.0238 25.824V26.0667C48.0238 26.1597 47.9738 26.2487 47.8864 26.2972L46.6333 27.0009C46.5917 27.0252 46.5459 27.0373 46.4959 27.0373L46.5042 27.0292ZM34.6599 1.15004V1.89419C34.6599 11.4669 41.1378 23.3166 46.5042 26.463L47.4867 25.8888C47.0954 25.1608 46.7207 24.4005 46.3752 23.6159C42.5533 20.4007 37.9363 12.203 37.1078 4.4906C37.0954 4.39354 37.1453 4.29647 37.2286 4.2439C37.3118 4.19132 37.4242 4.18728 37.5117 4.23581L41.704 6.58957L42.6824 6.03955C42.6741 5.7241 42.6699 5.40864 42.6741 5.08915C42.6741 4.9112 42.6866 4.7373 42.7074 4.56339L35.6424 0.595981L34.6599 1.15004Z" fill="black"/>
<path d="M41.7492 5.12577C41.7159 5.33607 41.691 5.55446 41.691 5.78498V5.79307C41.691 6.1611 41.6951 6.52912 41.7034 6.89311L36.0082 3.69814C36.362 11.9201 41.4203 20.8943 45.3463 24.158C45.7126 24.9911 46.0998 25.7798 46.5036 26.5239V26.7666C41.0498 23.7091 34.3887 11.6289 34.3887 1.89441V0.996582L41.7492 5.12577Z" fill="white"/>
<path d="M46.5042 27.0293C46.4584 27.0293 46.4085 27.0171 46.3668 26.9929C40.8547 23.9031 34.1187 11.7096 34.1187 1.89424V0.996413C34.1187 0.903395 34.1686 0.814422 34.256 0.76589C34.3393 0.717359 34.4434 0.717359 34.5266 0.76589L41.8872 4.89507C41.983 4.95169 42.0371 5.05684 42.0204 5.16604C41.9871 5.37634 41.9663 5.57855 41.9663 5.78077C41.9663 6.15688 41.9705 6.52086 41.9788 6.88485C41.9788 6.97787 41.9289 7.06684 41.8456 7.11537C41.7623 7.1639 41.6582 7.1639 41.5708 7.11537L36.3085 4.16711C36.8456 12.5266 41.9538 20.9872 45.5259 23.9556C45.5592 23.984 45.5842 24.0163 45.5966 24.0527C45.9505 24.8575 46.3377 25.6461 46.7457 26.4024C46.7665 26.4388 46.7748 26.4833 46.7748 26.5237V26.7664C46.7748 26.8594 46.7249 26.9484 46.6375 26.9969C46.5958 27.0212 46.55 27.0333 46.5001 27.0333L46.5042 27.0293ZM34.6599 1.45341V1.89424C34.6599 11.1677 40.734 22.5725 45.9922 26.1395C45.6841 25.5491 45.3926 24.9384 45.1179 24.3196C41.4126 21.1894 36.1128 12.3325 35.7381 3.71011C35.734 3.61305 35.7839 3.52407 35.8672 3.47554C35.9505 3.42701 36.0587 3.42297 36.142 3.47554L41.4209 6.43594C41.4209 6.22563 41.4168 6.01129 41.4168 5.79694C41.4168 5.5826 41.4293 5.44509 41.4501 5.27119L34.6599 1.45341Z" fill="black"/>
<path d="M69.131 49.5847L52.8071 40.4285L36.5039 49.5725V56.6014L52.8237 65.7576L69.131 56.6136V49.5847Z" fill="white"/>
<path d="M52.8241 66.0203C52.7783 66.0203 52.7283 66.0082 52.6867 65.9839L36.3669 56.8318C36.2836 56.7833 36.2295 56.6983 36.2295 56.6013V49.5724C36.2295 49.4793 36.2795 49.3904 36.3669 49.3418L52.67 40.1978C52.7533 40.1492 52.8574 40.1492 52.9407 40.1978L69.2646 49.354C69.3479 49.4025 69.402 49.4874 69.402 49.5845V56.6134C69.402 56.7064 69.3521 56.7954 69.2646 56.8439L52.9615 65.988C52.9198 66.0123 52.874 66.0244 52.8241 66.0244V66.0203ZM36.7749 56.4476L52.8282 65.4501L68.8608 56.4557V49.7301L52.8074 40.7276L36.7749 49.726V56.4516V56.4476Z" fill="black"/>
<path d="M69.131 49.5847L52.8071 40.4285L36.5039 49.5725L52.8237 58.7287L69.131 49.5847Z" fill="white"/>
<path d="M52.8241 58.9913C52.7783 58.9913 52.7283 58.9792 52.6867 58.9549L36.3669 49.7987C36.2836 49.7502 36.2295 49.6653 36.2295 49.5682C36.2295 49.4711 36.2795 49.3862 36.3669 49.3377L52.67 40.1936C52.7533 40.1451 52.8574 40.1451 52.9407 40.1936L69.2646 49.3498C69.3479 49.3983 69.402 49.4833 69.402 49.5803C69.402 49.6774 69.3521 49.7623 69.2646 49.8109L52.9615 58.9549C52.9198 58.9792 52.874 58.9913 52.8241 58.9913ZM37.0455 49.5723L52.8241 58.4251L68.586 49.5844L52.8033 40.7315L37.0413 49.5723H37.0455Z" fill="black"/>
<path d="M52.8237 58.7288V65.7577L69.1311 56.6136V49.5847L52.8237 58.7288Z" fill="black"/>
<path d="M52.8241 66.0203C52.7783 66.0203 52.7283 66.0082 52.6867 65.9839C52.6034 65.9354 52.5493 65.8504 52.5493 65.7534V58.7245C52.5493 58.6314 52.5993 58.5425 52.6867 58.4939L68.9899 49.3499C69.0731 49.3013 69.1772 49.3013 69.2605 49.3499C69.3437 49.3984 69.3979 49.4833 69.3979 49.5804V56.6093C69.3979 56.7023 69.3479 56.7913 69.2605 56.8398L52.9573 65.9839C52.9157 66.0082 52.8699 66.0203 52.8199 66.0203H52.8241ZM53.0947 58.8822V65.3004L68.8566 56.4597V50.0374L53.0947 58.8781V58.8822Z" fill="black"/>
<path d="M51.0177 62.712V59.7435L38.3115 52.6135V55.5861L51.0177 62.712Z" fill="white"/>
<path d="M62.3038 49.5762C62.3038 47.3114 60.472 45.9606 57.4329 44.4561L57.4162 44.4683C54.7684 43.1822 50.855 43.1782 48.2155 44.4683L48.1988 44.4561C48.0823 44.5128 47.974 44.5694 47.8616 44.626C47.8533 44.63 47.8408 44.6341 47.8325 44.6381C47.8283 44.6381 47.8241 44.6422 47.82 44.6462C45.0181 46.0738 43.3362 47.4044 43.332 49.5681V49.5762C43.332 50.9391 44.2604 52.2979 46.1172 53.3373C49.8267 55.4201 55.8342 55.4201 59.5353 53.3414C61.3879 52.302 62.3121 50.9391 62.3121 49.5762H62.3038Z" fill="white"/>
<path d="M52.8287 55.1575C50.3474 55.1575 47.8661 54.6277 45.976 53.5681C44.0984 52.5166 43.0576 51.1011 43.0576 49.5805C43.0618 47.251 44.9144 45.8355 47.6913 44.42L48.0743 44.2259C48.1034 44.2097 48.1367 44.2016 48.17 44.1976C50.8761 42.9156 54.7521 42.9156 57.4624 44.1976C57.4957 44.1976 57.529 44.2057 57.5581 44.2219C60.6555 45.7587 62.5789 47.1904 62.5789 49.5765C62.5789 51.0971 61.5465 52.5166 59.6689 53.5722C57.7829 54.6277 55.3058 55.1575 52.8287 55.1575ZM48.2491 44.7274L47.9827 44.8609C45.2641 46.244 43.603 47.5058 43.5988 49.5684C43.5988 50.8949 44.5439 52.1527 46.2466 53.1071C49.8728 55.1414 55.7679 55.1454 59.3941 53.1111C61.101 52.1567 62.0377 50.8989 62.0336 49.5765C62.0336 47.4654 60.3308 46.1914 57.3832 44.7274C57.3499 44.7274 57.3208 44.7193 57.2917 44.7031C54.7313 43.4616 50.8803 43.4575 48.3324 44.7031C48.3033 44.7153 48.2741 44.7234 48.245 44.7274H48.2491Z" fill="black"/>
<path d="M57.4324 44.4554L57.4158 44.4676C56.0919 43.8245 54.4557 43.501 52.8154 43.501C53.6814 43.501 54.5432 43.8245 55.2426 44.4676L55.2509 44.4554C56.8579 45.9639 57.8238 47.3147 57.8238 49.5754C58.186 50.2266 58.8063 52.0101 59.0394 53.5873C59.206 53.5065 59.3683 53.4296 59.5265 53.3406C61.3792 52.3013 62.3034 50.9384 62.3034 49.5754C62.3034 47.3107 60.4716 45.9599 57.4324 44.4554Z" fill="black"/>
<path d="M59.0564 53.8381C59.0148 53.8381 58.9732 53.83 58.9399 53.8139C58.8649 53.7734 58.7858 53.7128 58.7733 53.6319C58.5402 52.0668 57.9282 50.3156 57.591 49.7049C57.5702 49.6685 57.5577 49.624 57.5577 49.5795C57.5577 47.4401 56.6667 46.1621 55.1305 44.7062C55.1055 44.6941 55.0806 44.6819 55.0597 44.6617C54.4353 44.0874 53.6401 43.7679 52.8199 43.7679C52.67 43.7679 52.5493 43.6507 52.5493 43.5051C52.5493 43.3595 52.67 43.2422 52.8199 43.2422H52.8241C54.5185 43.2422 56.163 43.5819 57.4661 44.2007C57.4994 44.2007 57.5327 44.2088 57.5618 44.2249C60.6593 45.7618 62.5827 47.1934 62.5827 49.5795C62.5827 51.1002 61.5502 52.5197 59.6726 53.5753C59.5269 53.6561 59.3728 53.733 59.2188 53.8058C59.173 53.826 59.1189 53.8381 59.0648 53.8381H59.0564ZM58.0989 49.5108C58.4403 50.1619 58.9857 51.6987 59.2521 53.1911C59.3021 53.1668 59.3479 53.1385 59.3936 53.1142C61.1006 52.1598 62.0373 50.902 62.0331 49.5795C62.0331 47.4684 60.3345 46.1985 57.3911 44.7345C57.3578 44.7345 57.3245 44.7224 57.2912 44.7062C56.6334 44.3867 55.8757 44.1441 55.0681 43.9823C55.168 44.0551 55.2679 44.136 55.3637 44.2209C55.3928 44.233 55.4178 44.2492 55.4386 44.2694C57.0622 45.7941 58.0739 47.2056 58.0947 49.5148L58.0989 49.5108Z" fill="black"/>
<path d="M57.8078 50.2394C60.5597 48.6986 60.5597 46.1911 57.7994 44.6462C55.0434 43.1013 50.5804 43.1013 47.8285 44.6462C45.0766 46.1911 45.0766 48.6945 47.8327 50.2394C50.5887 51.7884 55.0517 51.7843 57.8036 50.2394H57.8078Z" fill="white"/>
<path d="M52.8246 51.6508C50.9678 51.6508 49.111 51.2544 47.6997 50.4618C46.28 49.665 45.4973 48.5933 45.4932 47.4367C45.4932 46.2841 46.2758 45.2083 47.6913 44.4116C50.5182 42.8303 55.1144 42.8303 57.9329 44.4116C59.3525 45.2083 60.1394 46.2841 60.1394 47.4407C60.1394 48.5933 59.3608 49.6691 57.9412 50.4618C56.5299 51.2544 54.6772 51.6467 52.8246 51.6467V51.6508ZM52.8079 43.7443C51.0511 43.7443 49.2983 44.1204 47.962 44.8686C46.7171 45.5642 46.0344 46.4782 46.0344 47.4367C46.0344 48.3952 46.7213 49.3092 47.9661 50.0048C50.6389 51.5052 54.9936 51.5092 57.6664 50.0048C58.9071 49.3092 59.594 48.3992 59.594 47.4407C59.594 46.4822 58.9071 45.5682 57.6623 44.8686C56.3259 44.1163 54.5648 43.7402 52.8079 43.7402V43.7443Z" fill="black"/>
<path d="M57.2661 45.9126H57.2702C55.963 44.5699 55.6091 43.8056 55.6091 40.8816C55.6091 40.4812 55.3344 40.0808 54.789 39.7734C53.6982 39.1628 51.9288 39.1628 50.8381 39.7734C50.2677 40.0929 50.0013 40.5176 50.0304 40.9341C50.0262 43.7409 49.6849 44.5416 48.4609 45.8196C47.1078 46.956 47.3285 48.509 49.1228 49.516C51.1628 50.6646 54.4767 50.6646 56.5167 49.516C58.2611 48.5373 58.5067 47.045 57.2702 45.9126H57.2661Z" fill="white"/>
<path d="M52.824 50.6318C51.4335 50.6318 50.043 50.3366 48.9897 49.7421C47.9989 49.188 47.4118 48.4358 47.3286 47.627C47.2578 46.9111 47.595 46.1953 48.282 45.617C49.4352 44.4118 49.7557 43.6879 49.7599 40.9297C49.7266 40.412 50.068 39.8984 50.705 39.5385C51.8915 38.8752 53.7483 38.8752 54.9306 39.5385C55.5343 39.8822 55.8757 40.3433 55.884 40.8488C55.884 40.8569 55.884 40.869 55.884 40.8771C55.884 43.7162 56.2004 44.4239 57.4702 45.7262C57.4785 45.7343 57.4827 45.7423 57.491 45.7464C58.0947 46.3126 58.3819 46.9961 58.3028 47.6715C58.2071 48.4601 57.6242 49.1961 56.6542 49.7381C55.5967 50.3285 54.2104 50.6238 52.824 50.6238V50.6318ZM52.8157 39.5749C52.1496 39.5749 51.4835 39.7164 50.9756 39.9995C50.5218 40.2543 50.2803 40.5819 50.3011 40.9175C50.3011 43.8294 49.9056 44.6949 48.6608 45.9971C48.0821 46.4865 47.8157 47.0284 47.8698 47.5784C47.9322 48.2134 48.4277 48.82 49.2603 49.2851C51.2212 50.3892 54.4185 50.3892 56.3836 49.2851C57.1996 48.8281 57.6867 48.2336 57.7616 47.6148C57.8241 47.0891 57.5909 46.5633 57.083 46.1023C57.0663 46.0901 57.0539 46.074 57.0455 46.0578C55.7091 44.6827 55.3428 43.8658 55.3428 40.9054C55.3428 40.8973 55.3428 40.8892 55.3428 40.8771C55.3428 40.5576 55.1013 40.2462 54.66 39.9955C54.1521 39.7124 53.486 39.5708 52.8199 39.5708L52.8157 39.5749Z" fill="black"/>
<path d="M57.2652 45.9125H57.2694C55.9621 44.5698 55.6082 43.8054 55.6082 40.8814C55.6082 40.481 55.3335 40.0807 54.7881 39.7733C54.2427 39.4659 53.5266 39.3123 52.8105 39.3123C53.2061 39.3123 53.6016 39.4659 53.9055 39.7733C54.2094 40.0807 54.3593 40.481 54.3593 40.8814C54.3593 43.8054 54.5549 44.5698 55.2793 45.9125C55.9538 47.0246 56.495 49.4269 55.2627 50.0214C55.7081 49.888 56.137 49.7303 56.5158 49.5159C58.2602 48.5372 58.5058 47.0449 57.2694 45.9125H57.2652Z" fill="black"/>
<path d="M55.2632 50.2802C55.155 50.2802 55.0551 50.2155 55.0093 50.1144C54.9552 49.985 55.0134 49.8434 55.1425 49.7828C55.3756 49.6695 55.5422 49.4592 55.6379 49.1519C55.8961 48.3066 55.5422 46.8628 55.0468 46.0459C55.0384 46.0337 55.0343 46.0216 55.0259 46.0095C54.2891 44.6385 54.0892 43.8337 54.0892 40.8854C54.0892 37.9371 53.956 40.2019 53.7104 39.9552C53.4689 39.7126 53.1483 39.5751 52.8111 39.5751C52.4739 39.5751 52.5405 39.4578 52.5405 39.3122C52.5405 39.1666 52.6612 39.0493 52.8111 39.0493C53.6021 39.0493 54.3515 39.2232 54.9219 39.5427C55.5255 39.8865 55.8669 40.3475 55.8752 40.8531C55.8752 40.8611 55.8752 40.8733 55.8752 40.8814C55.8752 43.7204 56.1916 44.4282 57.4614 45.7304C57.4697 45.7385 57.4739 45.7466 57.4822 45.7506C58.0859 46.3168 58.3732 47.0003 58.2941 47.6757C58.1983 48.4643 57.6155 49.2004 56.6454 49.7423C56.2957 49.9405 55.8669 50.1104 55.3382 50.2681C55.3132 50.2762 55.2841 50.2802 55.2591 50.2802H55.2632ZM55.5297 45.8032C56.0001 46.5959 56.4997 48.1853 56.1583 49.3015C56.1458 49.3419 56.1334 49.3824 56.1167 49.4188C56.2083 49.3743 56.2957 49.3298 56.379 49.2853C57.195 48.8283 57.6821 48.2338 57.757 47.615C57.8195 47.0893 57.5863 46.5635 57.0784 46.1025C57.0618 46.0904 57.0493 46.0742 57.0409 46.058C55.7045 44.683 55.3382 43.866 55.3382 40.9056C55.3382 40.8975 55.3382 40.8895 55.3382 40.8773C55.3382 40.5578 55.0967 40.2464 54.6554 39.9957C54.5472 39.935 54.4306 39.8824 54.3099 39.8339C54.5222 40.1372 54.6346 40.4972 54.6346 40.8773C54.6346 43.7568 54.8136 44.4686 55.5214 45.787C55.5214 45.7911 55.5255 45.7951 55.5297 45.8032Z" fill="black"/>
<path d="M54.7929 41.9887C55.8837 41.378 55.8837 40.3831 54.7929 39.7725C53.7021 39.1618 51.9328 39.1618 50.842 39.7725C49.7512 40.3831 49.7512 41.378 50.842 41.9887C51.9328 42.6034 53.7063 42.6034 54.7971 41.9887H54.7929Z" fill="white"/>
<path d="M52.82 42.7129C52.0581 42.7129 51.2963 42.5471 50.7051 42.2155C50.0889 41.8717 49.7517 41.3945 49.7476 40.8768C49.7476 40.3591 50.0848 39.886 50.7009 39.5382C51.8875 38.8749 53.7401 38.879 54.9266 39.5382C55.5428 39.886 55.8841 40.3591 55.8841 40.8768C55.8841 41.3945 55.5469 41.8677 54.9308 42.2114C54.3396 42.543 53.5819 42.7089 52.82 42.7089V42.7129ZM52.8117 39.5705C52.1456 39.5705 51.4795 39.7121 50.9715 39.9952C50.5302 40.2419 50.2888 40.5533 50.2888 40.8728C50.2888 41.1923 50.5302 41.5077 50.9715 41.7544C51.9874 42.3247 53.6402 42.3287 54.656 41.7544C55.0973 41.5077 55.3388 41.1963 55.3388 40.8768C55.3388 40.5573 55.0973 40.2419 54.656 39.9952C54.1481 39.7121 53.482 39.5705 52.8159 39.5705H52.8117Z" fill="black"/>
<path d="M56.3411 37.6135C56.3411 35.7208 54.7632 34.188 52.8148 34.188C50.8664 34.188 49.2886 35.7208 49.2886 37.6135C49.2886 39.5062 50.8664 41.039 52.8148 41.043C54.7632 41.043 56.3411 39.5062 56.3411 37.6135Z" fill="white"/>
<path d="M52.8154 41.3058C50.7213 41.3058 49.0186 39.6477 49.0186 37.6134C49.0186 35.5791 50.7255 33.925 52.8154 33.925C54.9095 33.925 56.6123 35.5791 56.6123 37.6134C56.6123 39.6477 54.9095 41.3018 52.8154 41.3058ZM52.8154 34.4508C51.0211 34.4508 49.5598 35.8703 49.5598 37.6134C49.5598 39.3565 51.0211 40.776 52.8154 40.776C54.6098 40.776 56.071 39.3565 56.071 37.6134C56.071 35.8703 54.6098 34.4508 52.8154 34.4508Z" fill="black"/>
<path d="M53.8153 34.3458C54.6979 34.9687 55.2808 35.9716 55.2808 37.1162C55.2808 39.0089 53.7029 40.5457 51.7545 40.5416C51.4048 40.5416 51.0759 40.4769 50.7554 40.388C51.3382 40.7964 52.046 41.0431 52.8162 41.0431C54.7646 41.0431 56.3424 39.5063 56.3424 37.6136C56.3424 35.7209 55.2725 34.7624 53.8153 34.3418V34.3458Z" fill="black"/>
<path d="M52.816 41.3057C52.0208 41.3057 51.2548 41.0631 50.597 40.598C50.4888 40.5211 50.4554 40.3836 50.5137 40.2704C50.572 40.1531 50.7052 40.1005 50.8343 40.1329C51.184 40.2299 51.4754 40.2785 51.7544 40.2785C52.6245 40.2785 53.4405 39.9509 54.0566 39.3523C54.6728 38.7538 55.01 37.9611 55.01 37.1159C55.01 36.2706 54.5021 35.1544 53.657 34.5599C53.5487 34.4831 53.5154 34.3456 53.5737 34.2283C53.632 34.111 53.7652 34.0544 53.8943 34.0908C55.5221 34.5599 56.617 35.9754 56.617 37.6133C56.617 39.2512 54.9143 41.3017 52.8202 41.3057H52.816ZM52.3997 40.7517C52.5371 40.7678 52.6744 40.7759 52.816 40.7759C54.6103 40.7759 56.0716 39.3564 56.0716 37.6133C56.0716 35.8702 55.7053 35.9309 55.0849 35.3526C55.3847 35.8864 55.5512 36.4931 55.5512 37.1118C55.5512 38.0986 55.1557 39.0248 54.4396 39.7204C53.8776 40.2663 53.1699 40.6222 52.3997 40.7476V40.7517Z" fill="black"/>
<path d="M54.7929 36.3666C55.8837 35.7519 55.8837 34.761 54.7929 34.1463C53.7021 33.5356 51.9328 33.5316 50.842 34.1463C49.7512 34.757 49.7512 35.7478 50.842 36.3626C51.9328 36.9732 53.7063 36.9732 54.7971 36.3626L54.7929 36.3666Z" fill="white"/>
<path d="M52.8198 37.091C52.0579 37.091 51.296 36.9252 50.7048 36.5935C50.0887 36.2457 49.7515 35.7726 49.7515 35.2549C49.7515 34.7372 50.0887 34.2641 50.7048 33.9203C51.8872 33.257 53.7398 33.257 54.9305 33.9203C55.5467 34.2681 55.8839 34.7413 55.888 35.2589C55.888 35.7766 55.5508 36.2498 54.9347 36.5976C54.3435 36.9292 53.5858 37.095 52.8239 37.095L52.8198 37.091ZM52.8114 33.9486C52.1453 33.9486 51.4792 34.0902 50.9713 34.3733C50.53 34.62 50.2885 34.9314 50.2885 35.2509C50.2885 35.5704 50.53 35.8858 50.9713 36.1325C51.9871 36.7027 53.6399 36.7027 54.6557 36.1325C55.097 35.8858 55.3385 35.5744 55.3385 35.2509C55.3385 34.9273 55.0929 34.6159 54.6557 34.3692C54.1478 34.0861 53.4817 33.9405 52.8156 33.9405L52.8114 33.9486Z" fill="black"/>
<path d="M54.793 34.1469C54.2476 33.8396 53.5315 33.6899 52.8154 33.6899C53.2151 33.6899 53.6189 33.8436 53.9228 34.1469C54.5348 34.7617 54.5348 35.7525 53.9228 36.3632C53.6148 36.6706 53.2151 36.8202 52.8154 36.8242C53.5315 36.8242 54.2476 36.6706 54.793 36.3672C55.8837 35.7525 55.8837 34.7617 54.793 34.1469Z" fill="black"/>
<path d="M52.8199 37.0871C52.67 37.0871 52.5493 36.9698 52.5493 36.8242C52.5493 36.6786 52.67 36.5613 52.8199 36.5613C53.1655 36.5613 53.4902 36.4278 53.7358 36.1811C54.2437 35.6716 54.2437 34.8425 53.7358 34.3329C53.4902 34.0903 53.1655 33.9528 52.8199 33.9528C52.67 33.9528 52.5493 33.8355 52.5493 33.6899C52.5493 33.5443 52.67 33.427 52.8199 33.427C53.6151 33.427 54.3645 33.6009 54.9307 33.9204C55.5468 34.2642 55.8841 34.7414 55.8882 35.259C55.8882 35.7767 55.551 36.2499 54.9348 36.5977C54.3645 36.9172 53.6151 37.0911 52.8241 37.0911L52.8199 37.0871ZM54.3395 34.2237C54.7641 34.8465 54.7641 35.6716 54.3395 36.2903C54.4519 36.2458 54.5602 36.1933 54.6642 36.1367C55.1014 35.89 55.347 35.5785 55.347 35.255C55.347 34.9315 55.1014 34.6201 54.6642 34.3734C54.5643 34.3167 54.4561 34.2642 54.3437 34.2197L54.3395 34.2237Z" fill="black"/>
<path d="M67.3739 9.22652V9.21843C67.3697 7.1316 65.9459 5.04476 63.1066 3.45133C57.4155 0.260412 48.2023 0.260412 42.5195 3.44324C39.676 5.04072 38.2605 7.1316 38.2647 9.21843C38.2647 24.991 45.5253 34.5516 52.8234 34.5516C60.1216 34.5516 67.378 24.991 67.3822 9.22652H67.3739Z" fill="white"/>
<path d="M52.8157 34.8186C45.5259 34.8186 37.9863 25.2418 37.9863 9.22247C37.9863 -6.79682 37.9863 9.2063 37.9863 9.19416C37.9947 6.92534 39.5517 4.8021 42.3785 3.21675C48.1321 -0.0105608 57.4868 -0.00247204 63.2404 3.2208C66.0756 4.81019 67.6368 6.94151 67.6451 9.21843V9.22652C67.6451 25.2418 60.1055 34.8145 52.8157 34.8186ZM38.5317 9.24674C38.54 24.9223 45.8007 34.2888 52.8157 34.2928C59.8349 34.2928 67.0997 24.9142 67.0997 9.23056C67.0956 7.13968 65.6259 5.17417 62.9656 3.68184C57.3661 0.539458 48.2528 0.535413 42.6491 3.67375C39.9888 5.16608 38.5234 7.13968 38.5275 9.22247C38.5275 9.23056 38.5275 9.24269 38.5275 9.25078L38.5317 9.24674Z" fill="black"/>
<path d="M63.1153 14.9976C68.7981 11.8107 68.7939 6.64214 63.1028 3.44718C57.4117 0.256261 48.1985 0.256261 42.5157 3.43909C36.8329 6.62596 36.8412 11.7986 42.5282 14.9854C48.2152 18.1764 57.4325 18.1764 63.1153 14.9976Z" fill="white"/>
<path d="M52.8363 17.6386C49.0561 17.6386 45.2759 16.8297 42.3949 15.2161C39.5556 13.6267 37.9902 11.4913 37.9902 9.21036C37.9902 6.93344 39.5514 4.80212 42.3824 3.21273C48.1318 -0.0105417 57.4866 -0.00245297 63.2402 3.22082C66.0795 4.81425 67.6448 6.94962 67.6448 9.23058C67.6448 11.5115 66.0836 13.6388 63.2526 15.2282C60.38 16.8378 56.6081 17.6426 52.8363 17.6426V17.6386ZM52.803 1.31597C49.1268 1.31597 45.4549 2.10056 42.653 3.66973C39.9969 5.16206 38.5315 7.12757 38.5315 9.21036C38.5315 11.2931 40.0011 13.2627 42.6655 14.7591C48.2651 17.9015 57.3783 17.9095 62.9779 14.7712C65.634 13.2789 67.0995 11.3134 67.0995 9.23058C67.0995 7.14779 65.6298 5.17419 62.9654 3.67782C60.1635 2.1046 56.4791 1.32002 52.7988 1.32002L52.803 1.31597Z" fill="black"/>
<path d="M63.7523 8.50283C63.6649 8.50283 63.5816 8.46239 63.5275 8.38555C62.9571 7.56861 62.0995 6.83255 60.9754 6.20165C60.5092 5.93877 59.9888 5.69207 59.4309 5.47368C59.2935 5.41706 59.2269 5.26338 59.281 5.12992C59.3393 4.99646 59.4933 4.93175 59.6349 4.98433C60.2177 5.21485 60.7589 5.46964 61.246 5.74465C62.4409 6.416 63.361 7.20463 63.9771 8.09032C64.0604 8.21164 64.0271 8.37341 63.9063 8.4543C63.8605 8.48665 63.8064 8.49879 63.7565 8.49879L63.7523 8.50283Z" fill="black"/>
<path d="M42.3243 13.8369C42.2494 13.8369 42.1744 13.8045 42.1203 13.7479C41.0712 12.5791 40.6382 11.2607 40.863 9.94228C41.1378 8.34885 42.3826 6.85652 44.3726 5.7403C47.674 3.88803 52.6241 3.28544 56.9913 4.20348C57.137 4.23584 57.2328 4.37334 57.1995 4.51489C57.1662 4.65644 57.0246 4.74946 56.8789 4.71711C52.6366 3.82737 47.8364 4.4057 44.6474 6.19326C42.7989 7.22859 41.6457 8.5915 41.4001 10.0232C41.2002 11.1839 41.5916 12.3527 42.5325 13.3961C42.6324 13.5053 42.6199 13.6711 42.5075 13.7681C42.4575 13.8126 42.3951 13.8329 42.3285 13.8329L42.3243 13.8369Z" fill="black"/>
<path d="M67.3744 9.21884C67.3744 9.20266 67.3703 9.18244 67.3703 9.16626C67.3994 11.2774 65.9881 13.3885 63.1196 14.9981C62.8324 15.1598 62.5326 15.3014 62.2329 15.447C61.1546 27.4706 56.9997 34.552 52.8198 34.5561C60.1179 34.5561 67.3744 24.9955 67.3786 9.23097V9.22288L67.3744 9.21884Z" fill="black"/>
<path d="M52.816 34.8189C52.6661 34.8189 52.5454 34.7016 52.5454 34.556C52.5454 34.4104 52.6661 34.2932 52.816 34.2932C56.5171 34.2932 60.8469 27.8102 61.9584 15.4267C61.9668 15.3337 62.0251 15.2528 62.1083 15.2124C62.4039 15.0708 62.6995 14.9293 62.9784 14.7715C65.6637 13.2671 67.125 11.2773 67.0959 9.17024C67.0959 9.02869 67.2083 8.91141 67.354 8.90332C67.4997 8.90736 67.6246 9.00443 67.6371 9.14598C67.6371 9.15406 67.6454 9.21068 67.6454 9.21877C67.6454 25.2421 60.1058 34.8149 52.816 34.8189ZM62.483 15.6168C61.6629 24.4939 59.0442 31.264 55.7011 33.7674C61.3298 31.725 66.4422 23.7983 67.0417 11.6251C66.3465 12.9799 65.06 14.2134 63.249 15.2285C63.0034 15.366 62.7453 15.4955 62.483 15.6208V15.6168Z" fill="black"/>
<path d="M63.7392 16.0535L62.4861 16.7572C62.5194 17.0039 62.5402 17.2465 62.5444 17.477V17.4851C62.5444 17.8532 62.5402 18.2171 62.5319 18.573L68.2271 21.768C68.0232 26.2288 66.2913 29.2135 64.1139 30.7503C62.8025 31.3165 61.4161 31.4216 60.1463 31.0536L58.8932 31.7573C58.5269 32.1779 58.1397 32.5338 57.7358 32.825V33.0676C60.0048 34.3375 62.4777 34.2809 64.601 33.0838L65.8916 32.3639C68.8516 30.6654 71.1039 26.7465 71.1039 21.0805V20.1867L63.7434 16.0575L63.7392 16.0535Z" fill="white"/>
<path d="M61.1919 34.2564C59.9679 34.2564 58.7398 33.9328 57.5949 33.2898C57.5116 33.2413 57.4575 33.1563 57.4575 33.0593V32.8166C57.4575 32.7317 57.4992 32.6549 57.5658 32.6063C57.9571 32.3232 58.3318 31.9795 58.6773 31.5791C58.6982 31.5548 58.7231 31.5346 58.7481 31.5225L60.0012 30.8188C60.0637 30.7824 60.1428 30.7743 60.2136 30.7945C61.4292 31.1463 62.7365 31.0452 63.9938 30.5033C65.3218 29.561 67.6574 27.1547 67.9405 21.9093L62.3909 18.7952C62.3035 18.7467 62.2535 18.6577 62.2535 18.5606C62.2619 18.2047 62.266 17.8448 62.266 17.4808C62.266 17.2624 62.2452 17.0319 62.2119 16.7892C62.1953 16.6841 62.2494 16.5789 62.3451 16.5223L63.5983 15.8186C63.6815 15.7701 63.7856 15.7701 63.8689 15.8186L71.2294 19.9478C71.3127 19.9963 71.3668 20.0813 71.3668 20.1783V21.0721C71.3668 26.3418 69.3851 30.6287 66.0587 32.5538C66.0462 32.5659 66.0338 32.574 66.0171 32.5821L64.7265 33.306C64.7098 33.3141 64.6974 33.3222 64.6807 33.3262C63.5733 33.9409 62.3826 34.2483 61.1878 34.2483L61.1919 34.2564ZM58.0362 32.9258C60.1053 34.0178 62.4367 33.9935 64.4601 32.853C64.4767 32.8449 64.4892 32.8368 64.5059 32.8328L65.7173 32.1534C65.7298 32.1453 65.7423 32.1331 65.7548 32.1291C68.9355 30.3092 70.8339 26.18 70.8339 21.0762V20.332L63.744 16.3565L62.7823 16.8944C62.8031 17.0966 62.8156 17.2907 62.8197 17.4727C62.8197 17.7963 62.8156 18.1117 62.8114 18.4191L68.3693 21.5372C68.4567 21.5857 68.5109 21.6788 68.5067 21.7758C68.3194 25.909 66.8206 29.1687 64.281 30.9603C62.8947 31.5629 61.5 31.6842 60.1886 31.3324L59.077 31.9552C58.7523 32.3232 58.4067 32.6468 58.0487 32.9218L58.0362 32.9258Z" fill="black"/>
<path d="M62.4863 16.7573C62.5196 17.004 62.5404 17.2467 62.5446 17.4772V17.4853C62.5446 17.8533 62.5404 18.2173 62.5321 18.5732L68.2274 21.7682C67.8735 29.5938 62.8152 32.8899 58.8893 31.7534C58.5229 32.174 58.1358 32.5299 57.7319 32.8211V33.0638C63.1857 36.1212 69.8469 31.5189 69.8469 21.7803V20.8865L62.4863 16.7573Z" fill="white"/>
<path d="M61.2003 34.2605C59.9763 34.2605 58.744 33.9369 57.5949 33.2939C57.5116 33.2453 57.4575 33.1604 57.4575 33.0634V32.8207C57.4575 32.7358 57.4992 32.6589 57.5658 32.6104C57.9571 32.3273 58.3318 31.9835 58.6773 31.5832C58.7481 31.5023 58.8564 31.4699 58.9604 31.5023C60.5716 31.9674 62.3701 31.6317 63.898 30.5761C65.2927 29.6136 67.6574 27.2113 67.9405 21.9133L62.3909 18.7993C62.3035 18.7507 62.2535 18.6618 62.2535 18.5647C62.2619 18.2088 62.266 17.8489 62.266 17.4849C62.266 17.2665 62.2452 17.036 62.2119 16.7933C62.1994 16.6922 62.2411 16.5951 62.3285 16.5385C62.4159 16.4819 62.5242 16.4779 62.6157 16.5304L69.9763 20.6596C70.0596 20.7082 70.1137 20.7931 70.1137 20.8901V21.7839C70.1137 27.1143 68.0945 31.4295 64.7098 33.3262C63.5983 33.949 62.3993 34.2605 61.1961 34.2605H61.2003ZM58.0362 32.9299C60.1012 34.0218 62.4284 34.0016 64.4434 32.8692C67.6574 31.0655 69.5766 26.9201 69.5766 21.7839V21.0398L62.8073 17.2422C62.8114 17.3231 62.8156 17.4 62.8156 17.4768C62.8156 17.8003 62.8114 18.1158 62.8073 18.4231L68.3652 21.5413C68.4526 21.5898 68.5067 21.6828 68.5025 21.7799C68.2486 27.4095 65.7132 29.9776 64.2227 31.0089C62.6157 32.121 60.7173 32.4972 58.9854 32.0563C58.6857 32.3839 58.3693 32.6791 58.0404 32.9299H58.0362Z" fill="black"/>
<path d="M64.1103 30.7495C62.7989 31.3157 61.4126 31.4168 60.1428 31.0528L58.8896 31.7565C60.5758 32.2459 62.47 31.9102 64.1103 30.7536V30.7495Z" fill="black"/>
<path d="M60.426 32.2344C59.8807 32.2344 59.3394 32.1616 58.8149 32.0079C58.7108 31.9796 58.6359 31.8906 58.6234 31.7854C58.6109 31.6803 58.665 31.5792 58.7566 31.5266L60.0097 30.8229C60.0722 30.7865 60.1513 30.7784 60.222 30.7986C61.4377 31.1505 62.7491 31.0494 64.0022 30.5075C64.1313 30.4549 64.277 30.4994 64.3478 30.6167C64.4186 30.7339 64.3853 30.8836 64.2729 30.9604C63.0863 31.7976 61.7458 32.2303 60.426 32.2303V32.2344ZM59.6267 31.6479C60.3469 31.7571 61.088 31.7167 61.8124 31.5347C61.2628 31.5428 60.7133 31.4821 60.1804 31.3406L59.6267 31.652V31.6479Z" fill="black"/>
<path d="M69.8482 20.8827V21.7764C69.8482 27.4627 67.5751 31.3977 64.5942 33.0761L65.8848 32.3562C68.8449 30.6576 71.0972 26.7387 71.0972 21.0727V20.179L69.8441 20.8827H69.8482Z" fill="black"/>
<path d="M64.5983 33.347C64.5192 33.347 64.4401 33.3146 64.3859 33.2499C64.336 33.1893 64.3152 33.1124 64.3318 33.0356C64.3443 32.9587 64.3943 32.894 64.4609 32.8536C67.6666 31.0458 69.5775 26.9085 69.5775 21.7804V20.8866C69.5775 20.7936 69.6274 20.7046 69.7149 20.6561L70.968 19.9524C71.0513 19.9039 71.1553 19.9039 71.2386 19.9524C71.3219 20.0009 71.376 20.0859 71.376 20.1829V21.0767C71.376 26.3464 69.3943 30.6333 66.0679 32.5584C66.0554 32.5705 66.0429 32.5786 66.0262 32.5867L64.7357 33.3106C64.694 33.3349 64.6482 33.347 64.5983 33.347ZM70.1187 21.0363V21.7804C70.1187 25.2868 69.2444 28.3523 67.679 30.5807C69.6816 28.417 70.8306 25.0401 70.8306 21.0767V20.6359L70.1187 21.0363Z" fill="black"/>
</g>
<g clip-path="url(#clip1_1362_8713)">
<path d="M5.37557 60.6974C5.35417 60.6974 5.34347 60.6974 5.32208 60.6974C5.03326 60.6766 4.78723 60.4896 4.70165 60.2195C4.30586 58.9833 3.66404 57.612 2.85106 56.2511C2.04878 54.8902 1.13953 53.6643 0.230285 52.7086C0.0377383 52.5008 -0.00504988 52.1995 0.112618 51.9502C0.240982 51.7009 0.508408 51.5347 0.797229 51.5762C1.58881 51.6282 2.39109 51.4516 3.10779 51.0464C3.82449 50.6517 4.38074 50.0699 4.73374 49.3635C4.86211 49.1141 5.09744 48.9479 5.41835 48.9791C5.70717 48.9999 5.94251 49.1869 6.02809 49.457C6.42388 50.6932 7.0657 52.0749 7.86798 53.4358C8.68095 54.7967 9.5902 56.0225 10.4995 56.9783C10.692 57.1861 10.7348 57.4769 10.6171 57.7263C10.4888 57.9756 10.2213 58.1314 9.94321 58.1106C9.14093 58.0483 8.33865 58.2353 7.62195 58.6405C6.90524 59.0456 6.3383 59.6274 5.99599 60.3234C5.87833 60.5623 5.63229 60.7078 5.36487 60.7078L5.37557 60.6974ZM2.17715 52.8333C2.84036 53.6539 3.48219 54.5889 4.07053 55.5758C4.65886 56.5731 5.17232 57.5704 5.56811 58.5366C5.95321 58.121 6.41318 57.7574 6.93734 57.4666C7.46149 57.1757 8.00704 56.9679 8.58468 56.864C7.92146 56.0433 7.27964 55.1187 6.68061 54.1214C6.09227 53.1241 5.57881 52.1268 5.18302 51.1607C4.79793 51.5866 4.33795 51.9398 3.8138 52.2307C3.28964 52.5216 2.74409 52.7294 2.17715 52.8436V52.8333Z" fill="black"/>
</g>
<g clip-path="url(#clip2_1362_8713)">
<path d="M99.0401 17.0593C100.082 17.0593 101.124 16.825 101.938 16.3648C102.819 15.8627 103.302 15.1599 103.302 14.39C103.302 13.6202 102.819 12.9257 101.938 12.432C100.319 11.5116 97.7692 11.5116 96.151 12.432C95.2698 12.9341 94.7869 13.637 94.7869 14.4068C94.7869 15.1682 95.2698 15.8711 96.151 16.3732C96.9643 16.8334 97.998 17.0677 99.0401 17.0677V17.0593ZM99.0486 12.8337C99.9043 12.8337 100.752 13.0178 101.387 13.3776C101.904 13.6704 102.192 14.0386 102.192 14.3984C102.192 14.7582 101.895 15.1264 101.379 15.4193C100.108 16.1472 97.9641 16.1472 96.6932 15.4193C96.1764 15.1264 95.8883 14.7582 95.8883 14.3984C95.8883 14.0386 96.1849 13.6704 96.7017 13.3692C97.3371 13.0094 98.1928 12.8253 99.0486 12.8253V12.8337Z" fill="black"/>
</g>
<defs>
<clipPath id="clip0_1362_8713">
<rect width="37.2525" height="65.9901" fill="white" transform="translate(34.1187 0.0297852)"/>
</clipPath>
<clipPath id="clip1_1362_8713">
<rect width="10.6436" height="11.7079" fill="white" transform="translate(0.059082 48.99)"/>
</clipPath>
<clipPath id="clip2_1362_8713">
<rect width="8.51485" height="5.32178" fill="white" transform="matrix(-1 0 0 1 103.302 11.7375)"/>
</clipPath>
</defs>
</svg>
