<svg width="105" height="74" viewBox="0 0 105 74" fill="none" xmlns="http://www.w3.org/2000/svg">
<circle cx="52.4874" cy="36.7501" r="36.7203" fill="#2EFFD7"/>
<g clip-path="url(#clip0_1362_8712)">
<path d="M36.4489 0.292725L35.1958 0.996425V1.89425C35.1958 11.6288 41.8569 23.709 47.3108 26.7705L48.5639 26.0668V25.8241C48.1601 25.08 47.7729 24.2913 47.4065 23.4582C43.7137 20.3846 39.0218 12.2637 38.185 4.46639L42.5147 6.89295L43.7679 6.18925C43.7595 5.82526 43.7554 5.45724 43.7554 5.08921V5.08112C43.7554 4.8506 43.7762 4.63221 43.8137 4.42191L36.4489 0.292725Z" fill="white"/>
<path d="M47.3114 27.0292C47.2656 27.0292 47.2156 27.0171 47.174 26.9928C41.6619 23.903 34.9258 11.7096 34.9258 1.89419V0.996362C34.9258 0.903344 34.9757 0.814371 35.0632 0.76584L36.3163 0.0661834C36.3996 0.0176524 36.5036 0.0176524 36.5869 0.0661834L43.9475 4.19537C44.0432 4.25199 44.0974 4.35714 44.0807 4.46633C44.0474 4.67663 44.0266 4.87885 44.0266 5.08106C44.0266 5.45717 44.0307 5.82116 44.0391 6.18514C44.0391 6.2822 43.9891 6.37118 43.9017 6.41971L42.6486 7.12341C42.5653 7.17194 42.4612 7.17194 42.3779 7.12341L38.5145 4.95569C39.4762 12.4133 43.9142 20.2025 47.582 23.2559C47.6111 23.2842 47.6403 23.3166 47.6527 23.353C48.0108 24.1619 48.398 24.9505 48.8018 25.7027C48.8226 25.7391 48.8309 25.7836 48.8309 25.824V26.0667C48.8309 26.1597 48.781 26.2487 48.6935 26.2972L47.4404 27.0009C47.3988 27.0252 47.353 27.0373 47.303 27.0373L47.3114 27.0292ZM35.467 1.15004V1.89419C35.467 11.4669 41.945 23.3166 47.3114 26.463L48.2939 25.8888C47.9025 25.1608 47.5278 24.4005 47.1823 23.6159C43.3605 20.4007 38.7435 12.203 37.915 4.4906C37.9025 4.39354 37.9524 4.29647 38.0357 4.2439C38.119 4.19132 38.2314 4.18728 38.3188 4.23581L42.5112 6.58957L43.4895 6.03955C43.4812 5.7241 43.477 5.40864 43.4812 5.08915C43.4812 4.9112 43.4937 4.7373 43.5145 4.56339L36.4495 0.595981L35.467 1.15004Z" fill="black"/>
<path d="M42.5564 5.12577C42.5231 5.33607 42.4981 5.55446 42.4981 5.78498V5.79307C42.4981 6.1611 42.5022 6.52912 42.5106 6.89311L36.8153 3.69814C37.1692 11.9201 42.2275 20.8943 46.1534 24.158C46.5198 24.9911 46.9069 25.7798 47.3108 26.5239V26.7666C41.8569 23.7091 35.1958 11.6289 35.1958 1.89441V0.996582L42.5564 5.12577Z" fill="white"/>
<path d="M47.3114 27.0293C47.2656 27.0293 47.2156 27.0171 47.174 26.9929C41.6619 23.9031 34.9258 11.7096 34.9258 1.89424V0.996413C34.9258 0.903395 34.9757 0.814422 35.0632 0.76589C35.1464 0.717359 35.2505 0.717359 35.3338 0.76589L42.6943 4.89507C42.7901 4.95169 42.8442 5.05684 42.8276 5.16604C42.7943 5.37634 42.7734 5.57855 42.7734 5.78077C42.7734 6.15688 42.7776 6.52086 42.7859 6.88485C42.7859 6.97787 42.736 7.06684 42.6527 7.11537C42.5695 7.1639 42.4654 7.1639 42.3779 7.11537L37.1156 4.16711C37.6527 12.5266 42.761 20.9872 46.333 23.9556C46.3663 23.984 46.3913 24.0163 46.4038 24.0527C46.7576 24.8575 47.1448 25.6461 47.5528 26.4024C47.5736 26.4388 47.582 26.4833 47.582 26.5237V26.7664C47.582 26.8594 47.532 26.9484 47.4446 26.9969C47.4029 27.0212 47.3572 27.0333 47.3072 27.0333L47.3114 27.0293ZM35.467 1.45341V1.89424C35.467 11.1677 41.5411 22.5725 46.7993 26.1395C46.4912 25.5491 46.1998 24.9384 45.925 24.3196C42.2197 21.1894 36.92 12.3325 36.5453 3.71011C36.5411 3.61305 36.5911 3.52407 36.6743 3.47554C36.7576 3.42701 36.8658 3.42297 36.9491 3.47554L42.2281 6.43594C42.2281 6.22563 42.2239 6.01129 42.2239 5.79694C42.2239 5.5826 42.2364 5.44509 42.2572 5.27119L35.467 1.45341Z" fill="black"/>
<path d="M69.9382 49.5847L53.6142 40.4285L37.311 49.5725V56.6014L53.6308 65.7576L69.9382 56.6136V49.5847Z" fill="white"/>
<path d="M53.6312 66.0203C53.5854 66.0203 53.5355 66.0082 53.4938 65.9839L37.174 56.8318C37.0907 56.7833 37.0366 56.6983 37.0366 56.6013V49.5724C37.0366 49.4793 37.0866 49.3904 37.174 49.3418L53.4772 40.1978C53.5604 40.1492 53.6645 40.1492 53.7478 40.1978L70.0718 49.354C70.155 49.4025 70.2091 49.4874 70.2091 49.5845V56.6134C70.2091 56.7064 70.1592 56.7954 70.0718 56.8439L53.7686 65.988C53.727 66.0123 53.6812 66.0244 53.6312 66.0244V66.0203ZM37.582 56.4476L53.6354 65.4501L69.6679 56.4557V49.7301L53.6146 40.7276L37.582 49.726V56.4516V56.4476Z" fill="black"/>
<path d="M69.9382 49.5847L53.6142 40.4285L37.311 49.5725L53.6308 58.7287L69.9382 49.5847Z" fill="white"/>
<path d="M53.6312 58.9913C53.5854 58.9913 53.5355 58.9792 53.4938 58.9549L37.174 49.7987C37.0907 49.7502 37.0366 49.6653 37.0366 49.5682C37.0366 49.4711 37.0866 49.3862 37.174 49.3377L53.4772 40.1936C53.5604 40.1451 53.6645 40.1451 53.7478 40.1936L70.0718 49.3498C70.155 49.3983 70.2091 49.4833 70.2091 49.5803C70.2091 49.6774 70.1592 49.7623 70.0718 49.8109L53.7686 58.9549C53.727 58.9792 53.6812 58.9913 53.6312 58.9913ZM37.8526 49.5723L53.6312 58.4251L69.3932 49.5844L53.6104 40.7315L37.8484 49.5723H37.8526Z" fill="black"/>
<path d="M53.6309 58.7288V65.7577L69.9382 56.6136V49.5847L53.6309 58.7288Z" fill="black"/>
<path d="M53.6312 66.0203C53.5854 66.0203 53.5355 66.0082 53.4938 65.9839C53.4106 65.9354 53.3564 65.8504 53.3564 65.7534V58.7245C53.3564 58.6314 53.4064 58.5425 53.4938 58.4939L69.797 49.3499C69.8803 49.3013 69.9843 49.3013 70.0676 49.3499C70.1509 49.3984 70.205 49.4833 70.205 49.5804V56.6093C70.205 56.7023 70.155 56.7913 70.0676 56.8398L53.7644 65.9839C53.7228 66.0082 53.677 66.0203 53.6271 66.0203H53.6312ZM53.9018 58.8822V65.3004L69.6638 56.4597V50.0374L53.9018 58.8781V58.8822Z" fill="black"/>
<path d="M51.8248 62.712V59.7435L39.1187 52.6135V55.5861L51.8248 62.712Z" fill="white"/>
<path d="M63.1109 49.5762C63.1109 47.3114 61.2791 45.9606 58.24 44.4561L58.2233 44.4683C55.5755 43.1822 51.6621 43.1782 49.0226 44.4683L49.006 44.4561C48.8894 44.5128 48.7811 44.5694 48.6687 44.626C48.6604 44.63 48.6479 44.6341 48.6396 44.6381C48.6354 44.6381 48.6313 44.6422 48.6271 44.6462C45.8253 46.0738 44.1433 47.4044 44.1392 49.5681V49.5762C44.1392 50.9391 45.0676 52.2979 46.9244 53.3373C50.6338 55.4201 56.6413 55.4201 60.3424 53.3414C62.195 52.302 63.1193 50.9391 63.1193 49.5762H63.1109Z" fill="white"/>
<path d="M53.6358 55.1575C51.1545 55.1575 48.6733 54.6277 46.7832 53.5681C44.9056 52.5166 43.8647 51.1011 43.8647 49.5805C43.8689 47.251 45.7215 45.8355 48.4984 44.42L48.8814 44.2259C48.9106 44.2097 48.9439 44.2016 48.9772 44.1976C51.6833 42.9156 55.5592 42.9156 58.2695 44.1976C58.3028 44.1976 58.3361 44.2057 58.3652 44.2219C61.4627 45.7587 63.3861 47.1904 63.3861 49.5765C63.3861 51.0971 62.3536 52.5166 60.476 53.5722C58.59 54.6277 56.1129 55.1575 53.6358 55.1575ZM49.0563 44.7274L48.7898 44.8609C46.0713 46.244 44.4101 47.5058 44.406 49.5684C44.406 50.8949 45.351 52.1527 47.0538 53.1071C50.6799 55.1414 56.575 55.1454 60.2012 53.1111C61.9081 52.1567 62.8449 50.8989 62.8407 49.5765C62.8407 47.4654 61.1379 46.1914 58.1904 44.7274C58.1571 44.7274 58.1279 44.7193 58.0988 44.7031C55.5384 43.4616 51.6874 43.4575 49.1395 44.7031C49.1104 44.7153 49.0813 44.7234 49.0521 44.7274H49.0563Z" fill="black"/>
<path d="M58.2396 44.4554L58.2229 44.4676C56.899 43.8245 55.2629 43.501 53.6226 43.501C54.4885 43.501 55.3503 43.8245 56.0497 44.4676L56.058 44.4554C57.665 45.9639 58.6309 47.3147 58.6309 49.5754C58.9931 50.2266 59.6134 52.0101 59.8466 53.5873C60.0131 53.5065 60.1755 53.4296 60.3337 53.3406C62.1863 52.3013 63.1105 50.9384 63.1105 49.5754C63.1105 47.3107 61.2787 45.9599 58.2396 44.4554Z" fill="black"/>
<path d="M59.8636 53.8381C59.8219 53.8381 59.7803 53.83 59.747 53.8139C59.672 53.7734 59.5929 53.7128 59.5805 53.6319C59.3473 52.0668 58.7353 50.3156 58.3981 49.7049C58.3773 49.6685 58.3648 49.624 58.3648 49.5795C58.3648 47.4401 57.4739 46.1621 55.9376 44.7062C55.9127 44.6941 55.8877 44.6819 55.8669 44.6617C55.2424 44.0874 54.4472 43.7679 53.6271 43.7679C53.4772 43.7679 53.3564 43.6507 53.3564 43.5051C53.3564 43.3595 53.4772 43.2422 53.6271 43.2422H53.6312C55.3256 43.2422 56.9701 43.5819 58.2732 44.2007C58.3065 44.2007 58.3398 44.2088 58.369 44.2249C61.4664 45.7618 63.3898 47.1934 63.3898 49.5795C63.3898 51.1002 62.3573 52.5197 60.4797 53.5753C60.334 53.6561 60.18 53.733 60.0259 53.8058C59.9801 53.826 59.926 53.8381 59.8719 53.8381H59.8636ZM58.906 49.5108C59.2474 50.1619 59.7928 51.6987 60.0592 53.1911C60.1092 53.1668 60.155 53.1385 60.2008 53.1142C61.9077 52.1598 62.8444 50.902 62.8403 49.5795C62.8403 47.4684 61.1417 46.1985 58.1983 44.7345C58.165 44.7345 58.1317 44.7224 58.0983 44.7062C57.4406 44.3867 56.6829 44.1441 55.8752 43.9823C55.9751 44.0551 56.075 44.136 56.1708 44.2209C56.1999 44.233 56.2249 44.2492 56.2457 44.2694C57.8694 45.7941 58.881 47.2056 58.9019 49.5148L58.906 49.5108Z" fill="black"/>
<path d="M58.6149 50.2394C61.3668 48.6986 61.3668 46.1911 58.6066 44.6462C55.8505 43.1013 51.3875 43.1013 48.6357 44.6462C45.8838 46.1911 45.8838 48.6945 48.6398 50.2394C51.3959 51.7884 55.8588 51.7843 58.6107 50.2394H58.6149Z" fill="white"/>
<path d="M53.6317 51.6508C51.7749 51.6508 49.9181 51.2544 48.5068 50.4618C47.0871 49.665 46.3045 48.5933 46.3003 47.4367C46.3003 46.2841 47.083 45.2083 48.4985 44.4116C51.3253 42.8303 55.9215 42.8303 58.74 44.4116C60.1596 45.2083 60.9465 46.2841 60.9465 47.4407C60.9465 48.5933 60.168 49.6691 58.7483 50.4618C57.337 51.2544 55.4844 51.6467 53.6317 51.6467V51.6508ZM53.6151 43.7443C51.8582 43.7443 50.1055 44.1204 48.7691 44.8686C47.5243 45.5642 46.8415 46.4782 46.8415 47.4367C46.8415 48.3952 47.5284 49.3092 48.7732 50.0048C51.446 51.5052 55.8008 51.5092 58.4735 50.0048C59.7142 49.3092 60.4011 48.3992 60.4011 47.4407C60.4011 46.4822 59.7142 45.5682 58.4694 44.8686C57.133 44.1163 55.3719 43.7402 53.6151 43.7402V43.7443Z" fill="black"/>
<path d="M58.0732 45.9126H58.0774C56.7701 44.5699 56.4163 43.8056 56.4163 40.8816C56.4163 40.4812 56.1415 40.0808 55.5961 39.7734C54.5053 39.1628 52.736 39.1628 51.6452 39.7734C51.0748 40.0929 50.8084 40.5176 50.8375 40.9341C50.8334 43.7409 50.492 44.5416 49.268 45.8196C47.915 46.956 48.1356 48.509 49.93 49.516C51.9699 50.6646 55.2839 50.6646 57.3238 49.516C59.0682 48.5373 59.3139 47.045 58.0774 45.9126H58.0732Z" fill="white"/>
<path d="M53.6312 50.6318C52.2406 50.6318 50.8501 50.3366 49.7968 49.7421C48.806 49.188 48.219 48.4358 48.1357 47.627C48.0649 46.9111 48.4022 46.1953 49.0891 45.617C50.2423 44.4118 50.5629 43.6879 50.567 40.9297C50.5337 40.412 50.8751 39.8984 51.5121 39.5385C52.6986 38.8752 54.5554 38.8752 55.7377 39.5385C56.3414 39.8822 56.6828 40.3433 56.6911 40.8488C56.6911 40.8569 56.6911 40.869 56.6911 40.8771C56.6911 43.7162 57.0075 44.4239 58.2773 45.7262C58.2856 45.7343 58.2898 45.7423 58.2981 45.7464C58.9018 46.3126 59.1891 46.9961 59.11 47.6715C59.0142 48.4601 58.4313 49.1961 57.4613 49.7381C56.4039 50.3285 55.0175 50.6238 53.6312 50.6238V50.6318ZM53.6228 39.5749C52.9567 39.5749 52.2906 39.7164 51.7827 39.9995C51.3289 40.2543 51.0874 40.5819 51.1082 40.9175C51.1082 43.8294 50.7127 44.6949 49.4679 45.9971C48.8893 46.4865 48.6228 47.0284 48.6769 47.5784C48.7394 48.2134 49.2348 48.82 50.0674 49.2851C52.0283 50.3892 55.2257 50.3892 57.1907 49.2851C58.0067 48.8281 58.4938 48.2336 58.5687 47.6148C58.6312 47.0891 58.398 46.5633 57.8901 46.1023C57.8735 46.0901 57.861 46.074 57.8527 46.0578C56.5163 44.6827 56.1499 43.8658 56.1499 40.9054C56.1499 40.8973 56.1499 40.8892 56.1499 40.8771C56.1499 40.5576 55.9084 40.2462 55.4671 39.9955C54.9592 39.7124 54.2931 39.5708 53.627 39.5708L53.6228 39.5749Z" fill="black"/>
<path d="M58.0723 45.9125H58.0765C56.7692 44.5698 56.4154 43.8054 56.4154 40.8814C56.4154 40.481 56.1406 40.0807 55.5952 39.7733C55.0498 39.4659 54.3337 39.3123 53.6177 39.3123C54.0132 39.3123 54.4087 39.4659 54.7126 39.7733C55.0165 40.0807 55.1664 40.481 55.1664 40.8814C55.1664 43.8054 55.3621 44.5698 56.0865 45.9125C56.7609 47.0246 57.3021 49.4269 56.0698 50.0214C56.5153 49.888 56.9441 49.7303 57.3229 49.5159C59.0673 48.5372 59.313 47.0449 58.0765 45.9125H58.0723Z" fill="black"/>
<path d="M56.0704 50.2802C55.9621 50.2802 55.8622 50.2155 55.8164 50.1144C55.7623 49.985 55.8206 49.8434 55.9496 49.7828C56.1828 49.6695 56.3493 49.4592 56.4451 49.1519C56.7032 48.3066 56.3493 46.8628 55.8539 46.0459C55.8456 46.0337 55.8414 46.0216 55.8331 46.0095C55.0962 44.6385 54.8963 43.8337 54.8963 40.8854C54.8963 37.9371 54.7631 40.2019 54.5175 39.9552C54.276 39.7126 53.9555 39.5751 53.6182 39.5751C53.281 39.5751 53.3476 39.4578 53.3476 39.3122C53.3476 39.1666 53.4684 39.0493 53.6182 39.0493C54.4092 39.0493 55.1586 39.2232 55.729 39.5427C56.3327 39.8865 56.674 40.3475 56.6824 40.8531C56.6824 40.8611 56.6824 40.8733 56.6824 40.8814C56.6824 43.7204 56.9988 44.4282 58.2686 45.7304C58.2769 45.7385 58.281 45.7466 58.2894 45.7506C58.893 46.3168 59.1803 47.0003 59.1012 47.6757C59.0054 48.4643 58.4226 49.2004 57.4526 49.7423C57.1028 49.9405 56.674 50.1104 56.1453 50.2681C56.1203 50.2762 56.0912 50.2802 56.0662 50.2802H56.0704ZM56.3368 45.8032C56.8073 46.5959 57.3068 48.1853 56.9655 49.3015C56.953 49.3419 56.9405 49.3824 56.9238 49.4188C57.0154 49.3743 57.1029 49.3298 57.1861 49.2853C58.0021 48.8283 58.4892 48.2338 58.5641 47.615C58.6266 47.0893 58.3934 46.5635 57.8855 46.1025C57.8689 46.0904 57.8564 46.0742 57.8481 46.058C56.5117 44.683 56.1453 43.866 56.1453 40.9056C56.1453 40.8975 56.1453 40.8895 56.1453 40.8773C56.1453 40.5578 55.9038 40.2464 55.4625 39.9957C55.3543 39.935 55.2377 39.8824 55.117 39.8339C55.3293 40.1372 55.4417 40.4972 55.4417 40.8773C55.4417 43.7568 55.6207 44.4686 56.3285 45.787C56.3285 45.7911 56.3327 45.7951 56.3368 45.8032Z" fill="black"/>
<path d="M55.6 41.9887C56.6908 41.378 56.6908 40.3831 55.6 39.7725C54.5093 39.1618 52.7399 39.1618 51.6491 39.7725C50.5584 40.3831 50.5584 41.378 51.6491 41.9887C52.7399 42.6034 54.5134 42.6034 55.6042 41.9887H55.6Z" fill="white"/>
<path d="M53.6271 42.7129C52.8653 42.7129 52.1034 42.5471 51.5122 42.2155C50.8961 41.8717 50.5589 41.3945 50.5547 40.8768C50.5547 40.3591 50.8919 39.886 51.5081 39.5382C52.6946 38.8749 54.5472 38.879 55.7337 39.5382C56.3499 39.886 56.6913 40.3591 56.6913 40.8768C56.6913 41.3945 56.3541 41.8677 55.7379 42.2114C55.1467 42.543 54.389 42.7089 53.6271 42.7089V42.7129ZM53.6188 39.5705C52.9527 39.5705 52.2866 39.7121 51.7787 39.9952C51.3374 40.2419 51.0959 40.5533 51.0959 40.8728C51.0959 41.1923 51.3374 41.5077 51.7787 41.7544C52.7945 42.3247 54.4473 42.3287 55.4631 41.7544C55.9044 41.5077 56.1459 41.1963 56.1459 40.8768C56.1459 40.5573 55.9044 40.2419 55.4631 39.9952C54.9552 39.7121 54.2891 39.5705 53.623 39.5705H53.6188Z" fill="black"/>
<path d="M57.1482 37.6135C57.1482 35.7208 55.5703 34.188 53.6219 34.188C51.6736 34.188 50.0957 35.7208 50.0957 37.6135C50.0957 39.5062 51.6736 41.039 53.6219 41.043C55.5703 41.043 57.1482 39.5062 57.1482 37.6135Z" fill="white"/>
<path d="M53.6225 41.3058C51.5284 41.3058 49.8257 39.6477 49.8257 37.6134C49.8257 35.5791 51.5326 33.925 53.6225 33.925C55.7166 33.925 57.4194 35.5791 57.4194 37.6134C57.4194 39.6477 55.7166 41.3018 53.6225 41.3058ZM53.6225 34.4508C51.8282 34.4508 50.3669 35.8703 50.3669 37.6134C50.3669 39.3565 51.8282 40.776 53.6225 40.776C55.4169 40.776 56.8782 39.3565 56.8782 37.6134C56.8782 35.8703 55.4169 34.4508 53.6225 34.4508Z" fill="black"/>
<path d="M54.6225 34.3458C55.5051 34.9687 56.0879 35.9716 56.0879 37.1162C56.0879 39.0089 54.5101 40.5457 52.5617 40.5416C52.212 40.5416 51.8831 40.4769 51.5625 40.388C52.1454 40.7964 52.8531 41.0431 53.6233 41.0431C55.5717 41.0431 57.1495 39.5063 57.1495 37.6136C57.1495 35.7209 56.0796 34.7624 54.6225 34.3418V34.3458Z" fill="black"/>
<path d="M53.6231 41.3057C52.8279 41.3057 52.0619 41.0631 51.4041 40.598C51.2959 40.5211 51.2626 40.3836 51.3209 40.2704C51.3791 40.1531 51.5124 40.1005 51.6414 40.1329C51.9911 40.2299 52.2826 40.2785 52.5615 40.2785C53.4316 40.2785 54.2476 39.9509 54.8638 39.3523C55.4799 38.7538 55.8171 37.9611 55.8171 37.1159C55.8171 36.2706 55.3092 35.1544 54.4641 34.5599C54.3558 34.4831 54.3225 34.3456 54.3808 34.2283C54.4391 34.111 54.5723 34.0544 54.7014 34.0908C56.3292 34.5599 57.4241 35.9754 57.4241 37.6133C57.4241 39.2512 55.7214 41.3017 53.6273 41.3057H53.6231ZM53.2068 40.7517C53.3442 40.7678 53.4816 40.7759 53.6231 40.7759C55.4175 40.7759 56.8788 39.3564 56.8788 37.6133C56.8788 35.8702 56.5124 35.9309 55.8921 35.3526C56.1918 35.8864 56.3584 36.4931 56.3584 37.1118C56.3584 38.0986 55.9628 39.0248 55.2468 39.7204C54.6847 40.2663 53.977 40.6222 53.2068 40.7476V40.7517Z" fill="black"/>
<path d="M55.6 36.3666C56.6908 35.7519 56.6908 34.761 55.6 34.1463C54.5093 33.5356 52.7399 33.5316 51.6491 34.1463C50.5584 34.757 50.5584 35.7478 51.6491 36.3626C52.7399 36.9732 54.5134 36.9732 55.6042 36.3626L55.6 36.3666Z" fill="white"/>
<path d="M53.6269 37.091C52.865 37.091 52.1031 36.9252 51.512 36.5935C50.8958 36.2457 50.5586 35.7726 50.5586 35.2549C50.5586 34.7372 50.8958 34.2641 51.512 33.9203C52.6943 33.257 54.547 33.257 55.7376 33.9203C56.3538 34.2681 56.691 34.7413 56.6952 35.2589C56.6952 35.7766 56.358 36.2498 55.7418 36.5976C55.1506 36.9292 54.3929 37.095 53.631 37.095L53.6269 37.091ZM53.6186 33.9486C52.9524 33.9486 52.2863 34.0902 51.7784 34.3733C51.3371 34.62 51.0956 34.9314 51.0956 35.2509C51.0956 35.5704 51.3371 35.8858 51.7784 36.1325C52.7942 36.7027 54.447 36.7027 55.4629 36.1325C55.9042 35.8858 56.1456 35.5744 56.1456 35.2509C56.1456 34.9273 55.9 34.6159 55.4629 34.3692C54.955 34.0861 54.2888 33.9405 53.6227 33.9405L53.6186 33.9486Z" fill="black"/>
<path d="M55.6001 34.1469C55.0547 33.8396 54.3386 33.6899 53.6226 33.6899C54.0222 33.6899 54.4261 33.8436 54.73 34.1469C55.342 34.7617 55.342 35.7525 54.73 36.3632C54.4219 36.6706 54.0222 36.8202 53.6226 36.8242C54.3386 36.8242 55.0547 36.6706 55.6001 36.3672C56.6909 35.7525 56.6909 34.7617 55.6001 34.1469Z" fill="black"/>
<path d="M53.6271 37.0871C53.4772 37.0871 53.3564 36.9698 53.3564 36.8242C53.3564 36.6786 53.4772 36.5613 53.6271 36.5613C53.9726 36.5613 54.2973 36.4278 54.543 36.1811C55.0509 35.6716 55.0509 34.8425 54.543 34.3329C54.2973 34.0903 53.9726 33.9528 53.6271 33.9528C53.4772 33.9528 53.3564 33.8355 53.3564 33.6899C53.3564 33.5443 53.4772 33.427 53.6271 33.427C54.4222 33.427 55.1716 33.6009 55.7378 33.9204C56.354 34.2642 56.6912 34.7414 56.6953 35.259C56.6953 35.7767 56.3581 36.2499 55.742 36.5977C55.1716 36.9172 54.4222 37.0911 53.6312 37.0911L53.6271 37.0871ZM55.1466 34.2237C55.5713 34.8465 55.5713 35.6716 55.1466 36.2903C55.259 36.2458 55.3673 36.1933 55.4714 36.1367C55.9085 35.89 56.1541 35.5785 56.1541 35.255C56.1541 34.9315 55.9085 34.6201 55.4714 34.3734C55.3714 34.3167 55.2632 34.2642 55.1508 34.2197L55.1466 34.2237Z" fill="black"/>
<path d="M68.181 9.22652V9.21843C68.1768 7.1316 66.753 5.04476 63.9137 3.45133C58.2226 0.260412 49.0094 0.260412 43.3266 3.44324C40.4831 5.04072 39.0676 7.1316 39.0718 9.21843C39.0718 24.991 46.3324 34.5516 53.6306 34.5516C60.9287 34.5516 68.1852 24.991 68.1893 9.22652H68.181Z" fill="white"/>
<path d="M53.6228 34.8186C46.333 34.8186 38.7935 25.2418 38.7935 9.22247C38.7935 -6.79682 38.7935 9.2063 38.7935 9.19416C38.8018 6.92534 40.3588 4.8021 43.1857 3.21675C48.9392 -0.0105608 58.294 -0.00247204 64.0475 3.2208C66.8827 4.81019 68.4439 6.94151 68.4522 9.21843V9.22652C68.4522 25.2418 60.9126 34.8145 53.6228 34.8186ZM39.3388 9.24674C39.3472 24.9223 46.6078 34.2888 53.6228 34.2928C60.642 34.2928 67.9068 24.9142 67.9068 9.23056C67.9027 7.13968 66.4331 5.17417 63.7728 3.68184C58.1732 0.539458 49.06 0.535413 43.4563 3.67375C40.796 5.16608 39.3305 7.13968 39.3347 9.22247C39.3347 9.23056 39.3347 9.24269 39.3347 9.25078L39.3388 9.24674Z" fill="black"/>
<path d="M63.9224 14.9976C69.6052 11.8107 69.6011 6.64214 63.91 3.44718C58.2188 0.256261 49.0056 0.256261 43.3228 3.43909C37.6401 6.62596 37.6484 11.7986 43.3353 14.9854C49.0223 18.1764 58.2397 18.1764 63.9224 14.9976Z" fill="white"/>
<path d="M53.6434 17.6386C49.8632 17.6386 46.083 16.8297 43.202 15.2161C40.3627 13.6267 38.7974 11.4913 38.7974 9.21036C38.7974 6.93344 40.3586 4.80212 43.1896 3.21273C48.939 -0.0105417 58.2937 -0.00245297 64.0473 3.22082C66.8866 4.81425 68.452 6.94962 68.452 9.23058C68.452 11.5115 66.8908 13.6388 64.0598 15.2282C61.1872 16.8378 57.4153 17.6426 53.6434 17.6426V17.6386ZM53.6101 1.31597C49.934 1.31597 46.262 2.10056 43.4602 3.66973C40.804 5.16206 39.3386 7.12757 39.3386 9.21036C39.3386 11.2931 40.8082 13.2627 43.4727 14.7591C49.0722 17.9015 58.1855 17.9095 63.785 14.7712C66.4411 13.2789 67.9066 11.3134 67.9066 9.23058C67.9066 7.14779 66.437 5.17419 63.7725 3.67782C60.9707 2.1046 57.2862 1.32002 53.6059 1.32002L53.6101 1.31597Z" fill="black"/>
<path d="M64.5594 8.50283C64.472 8.50283 64.3887 8.46239 64.3346 8.38555C63.7643 7.56861 62.9066 6.83255 61.7826 6.20165C61.3163 5.93877 60.7959 5.69207 60.238 5.47368C60.1006 5.41706 60.034 5.26338 60.0881 5.12992C60.1464 4.99646 60.3005 4.93175 60.442 4.98433C61.0249 5.21485 61.5661 5.46964 62.0532 5.74465C63.248 6.416 64.1681 7.20463 64.7842 8.09032C64.8675 8.21164 64.8342 8.37341 64.7135 8.4543C64.6677 8.48665 64.6136 8.49879 64.5636 8.49879L64.5594 8.50283Z" fill="black"/>
<path d="M43.1314 13.8369C43.0565 13.8369 42.9816 13.8045 42.9274 13.7479C41.8783 12.5791 41.4453 11.2607 41.6701 9.94228C41.9449 8.34885 43.1897 6.85652 45.1797 5.7403C48.4812 3.88803 53.4312 3.28544 57.7985 4.20348C57.9442 4.23584 58.0399 4.37334 58.0066 4.51489C57.9733 4.65644 57.8318 4.74946 57.686 4.71711C53.4437 3.82737 48.6435 4.4057 45.4545 6.19326C43.606 7.22859 42.4528 8.5915 42.2072 10.0232C42.0074 11.1839 42.3987 12.3527 43.3396 13.3961C43.4395 13.5053 43.427 13.6711 43.3146 13.7681C43.2647 13.8126 43.2022 13.8329 43.1356 13.8329L43.1314 13.8369Z" fill="black"/>
<path d="M68.1816 9.21884C68.1816 9.20266 68.1774 9.18244 68.1774 9.16626C68.2065 11.2774 66.7952 13.3885 63.9268 14.9981C63.6395 15.1598 63.3397 15.3014 63.04 15.447C61.9617 27.4706 57.8068 34.552 53.627 34.5561C60.9251 34.5561 68.1816 24.9955 68.1857 9.23097V9.22288L68.1816 9.21884Z" fill="black"/>
<path d="M53.6231 34.8189C53.4733 34.8189 53.3525 34.7016 53.3525 34.556C53.3525 34.4104 53.4733 34.2932 53.6231 34.2932C57.3242 34.2932 61.654 27.8102 62.7656 15.4267C62.7739 15.3337 62.8322 15.2528 62.9155 15.2124C63.211 15.0708 63.5066 14.9293 63.7856 14.7715C66.4708 13.2671 67.9321 11.2773 67.903 9.17024C67.903 9.02869 68.0154 8.91141 68.1611 8.90332C68.3068 8.90736 68.4317 9.00443 68.4442 9.14598C68.4442 9.15406 68.4525 9.21068 68.4525 9.21877C68.4525 25.2421 60.9129 34.8149 53.6231 34.8189ZM63.2901 15.6168C62.47 24.4939 59.8513 31.264 56.5083 33.7674C62.1369 31.725 67.2494 23.7983 67.8489 11.6251C67.1536 12.9799 65.8672 14.2134 64.0562 15.2285C63.8105 15.366 63.5524 15.4955 63.2901 15.6208V15.6168Z" fill="black"/>
<path d="M64.5463 16.0535L63.2932 16.7572C63.3265 17.0039 63.3473 17.2465 63.3515 17.477V17.4851C63.3515 17.8532 63.3473 18.2171 63.339 18.573L69.0343 21.768C68.8303 26.2288 67.0984 29.2135 64.921 30.7503C63.6096 31.3165 62.2233 31.4216 60.9535 31.0536L59.7003 31.7573C59.334 32.1779 58.9468 32.5338 58.543 32.825V33.0676C60.8119 34.3375 63.2849 34.2809 65.4081 33.0838L66.6987 32.3639C69.6588 30.6654 71.9111 26.7465 71.9111 21.0805V20.1867L64.5505 16.0575L64.5463 16.0535Z" fill="white"/>
<path d="M61.9991 34.2564C60.7751 34.2564 59.5469 33.9328 58.402 33.2898C58.3188 33.2413 58.2646 33.1563 58.2646 33.0593V32.8166C58.2646 32.7317 58.3063 32.6549 58.3729 32.6063C58.7642 32.3232 59.1389 31.9795 59.4845 31.5791C59.5053 31.5548 59.5303 31.5346 59.5552 31.5225L60.8084 30.8188C60.8708 30.7824 60.9499 30.7743 61.0207 30.7945C62.2364 31.1463 63.5436 31.0452 64.8009 30.5033C66.129 29.561 68.4645 27.1547 68.7476 21.9093L63.1981 18.7952C63.1106 18.7467 63.0607 18.6577 63.0607 18.5606C63.069 18.2047 63.0732 17.8448 63.0732 17.4808C63.0732 17.2624 63.0524 17.0319 63.019 16.7892C63.0024 16.6841 63.0565 16.5789 63.1523 16.5223L64.4054 15.8186C64.4887 15.7701 64.5927 15.7701 64.676 15.8186L72.0366 19.9478C72.1198 19.9963 72.174 20.0813 72.174 20.1783V21.0721C72.174 26.3418 70.1923 30.6287 66.8659 32.5538C66.8534 32.5659 66.8409 32.574 66.8242 32.5821L65.5336 33.306C65.517 33.3141 65.5045 33.3222 65.4878 33.3262C64.3804 33.9409 63.1897 34.2483 61.9949 34.2483L61.9991 34.2564ZM58.8433 32.9258C60.9125 34.0178 63.2439 33.9935 65.2672 32.853C65.2838 32.8449 65.2963 32.8368 65.313 32.8328L66.5245 32.1534C66.537 32.1453 66.5495 32.1331 66.5619 32.1291C69.7426 30.3092 71.6411 26.18 71.6411 21.0762V20.332L64.5511 16.3565L63.5894 16.8944C63.6102 17.0966 63.6227 17.2907 63.6269 17.4727C63.6269 17.7963 63.6227 18.1117 63.6185 18.4191L69.1764 21.5372C69.2639 21.5857 69.318 21.6788 69.3138 21.7758C69.1265 25.909 67.6277 29.1687 65.0882 30.9603C63.7018 31.5629 62.3071 31.6842 60.9957 31.3324L59.8841 31.9552C59.5594 32.3232 59.2139 32.6468 58.8558 32.9218L58.8433 32.9258Z" fill="black"/>
<path d="M63.2935 16.7573C63.3268 17.004 63.3476 17.2467 63.3517 17.4772V17.4853C63.3517 17.8533 63.3476 18.2173 63.3393 18.5732L69.0345 21.7682C68.6807 29.5938 63.6224 32.8899 59.6964 31.7534C59.3301 32.174 58.9429 32.5299 58.5391 32.8211V33.0638C63.9929 36.1212 70.654 31.5189 70.654 21.7803V20.8865L63.2935 16.7573Z" fill="white"/>
<path d="M62.0074 34.2605C60.7834 34.2605 59.5511 33.9369 58.402 33.2939C58.3188 33.2453 58.2646 33.1604 58.2646 33.0634V32.8207C58.2646 32.7358 58.3063 32.6589 58.3729 32.6104C58.7642 32.3273 59.1389 31.9835 59.4845 31.5832C59.5552 31.5023 59.6635 31.4699 59.7676 31.5023C61.3787 31.9674 63.1772 31.6317 64.7051 30.5761C66.0998 29.6136 68.4645 27.2113 68.7476 21.9133L63.1981 18.7993C63.1106 18.7507 63.0607 18.6618 63.0607 18.5647C63.069 18.2088 63.0732 17.8489 63.0732 17.4849C63.0732 17.2665 63.0524 17.036 63.019 16.7933C63.0066 16.6922 63.0482 16.5951 63.1356 16.5385C63.223 16.4819 63.3313 16.4779 63.4229 16.5304L70.7834 20.6596C70.8667 20.7082 70.9208 20.7931 70.9208 20.8901V21.7839C70.9208 27.1143 68.9017 31.4295 65.517 33.3262C64.4054 33.949 63.2064 34.2605 62.0032 34.2605H62.0074ZM58.8433 32.9299C60.9083 34.0218 63.2355 34.0016 65.2505 32.8692C68.4645 31.0655 70.3838 26.9201 70.3838 21.7839V21.0398L63.6144 17.2422C63.6185 17.3231 63.6227 17.4 63.6227 17.4768C63.6227 17.8003 63.6185 18.1158 63.6144 18.4231L69.1723 21.5413C69.2597 21.5898 69.3138 21.6828 69.3097 21.7799C69.0557 27.4095 66.5203 29.9776 65.0299 31.0089C63.4229 32.121 61.5244 32.4972 59.7926 32.0563C59.4928 32.3839 59.1764 32.6791 58.8475 32.9299H58.8433Z" fill="black"/>
<path d="M64.9175 30.7495C63.606 31.3157 62.2197 31.4168 60.9499 31.0528L59.6968 31.7565C61.3829 32.2459 63.2771 31.9102 64.9175 30.7536V30.7495Z" fill="black"/>
<path d="M61.2332 32.2344C60.6878 32.2344 60.1466 32.1616 59.622 32.0079C59.5179 31.9796 59.443 31.8906 59.4305 31.7854C59.418 31.6803 59.4721 31.5792 59.5637 31.5266L60.8168 30.8229C60.8793 30.7865 60.9584 30.7784 61.0292 30.7986C62.2448 31.1505 63.5562 31.0494 64.8094 30.5075C64.9384 30.4549 65.0841 30.4994 65.1549 30.6167C65.2257 30.7339 65.1924 30.8836 65.08 30.9604C63.8935 31.7976 62.5529 32.2303 61.2332 32.2303V32.2344ZM60.4338 31.6479C61.1541 31.7571 61.8951 31.7167 62.6195 31.5347C62.07 31.5428 61.5204 31.4821 60.9875 31.3406L60.4338 31.652V31.6479Z" fill="black"/>
<path d="M70.6553 20.8827V21.7764C70.6553 27.4627 68.3822 31.3977 65.4014 33.0761L66.692 32.3562C69.652 30.6576 71.9043 26.7387 71.9043 21.0727V20.179L70.6512 20.8827H70.6553Z" fill="black"/>
<path d="M65.4054 33.347C65.3263 33.347 65.2472 33.3146 65.1931 33.2499C65.1431 33.1893 65.1223 33.1124 65.1389 33.0356C65.1514 32.9587 65.2014 32.894 65.268 32.8536C68.4737 31.0458 70.3846 26.9085 70.3846 21.7804V20.8866C70.3846 20.7936 70.4346 20.7046 70.522 20.6561L71.7751 19.9524C71.8584 19.9039 71.9625 19.9039 72.0457 19.9524C72.129 20.0009 72.1831 20.0859 72.1831 20.1829V21.0767C72.1831 26.3464 70.2014 30.6333 66.875 32.5584C66.8625 32.5705 66.85 32.5786 66.8334 32.5867L65.5428 33.3106C65.5011 33.3349 65.4553 33.347 65.4054 33.347ZM70.9258 21.0363V21.7804C70.9258 25.2868 70.0515 28.3523 68.4862 30.5807C70.4887 28.417 71.6377 25.0401 71.6377 21.0767V20.6359L70.9258 21.0363Z" fill="black"/>
</g>
<g clip-path="url(#clip1_1362_8712)">
<path d="M6.18269 60.6974C6.1613 60.6974 6.1506 60.6974 6.12921 60.6974C5.84039 60.6766 5.59436 60.4896 5.50878 60.2195C5.11299 58.9833 4.47117 57.612 3.65819 56.2511C2.85591 54.8902 1.94666 53.6643 1.03741 52.7086C0.844867 52.5008 0.802079 52.1995 0.919747 51.9502C1.04811 51.7009 1.31554 51.5347 1.60436 51.5762C2.39594 51.6282 3.19822 51.4516 3.91492 51.0464C4.63162 50.6517 5.18787 50.0699 5.54087 49.3635C5.66924 49.1141 5.90457 48.9479 6.22548 48.9791C6.5143 48.9999 6.74964 49.1869 6.83521 49.457C7.23101 50.6932 7.87283 52.0749 8.67511 53.4358C9.48808 54.7967 10.3973 56.0225 11.3066 56.9783C11.4991 57.1861 11.5419 57.4769 11.4242 57.7263C11.2959 57.9756 11.0285 58.1314 10.7503 58.1106C9.94806 58.0483 9.14578 58.2353 8.42907 58.6405C7.71237 59.0456 7.14543 59.6274 6.80312 60.3234C6.68546 60.5623 6.43942 60.7078 6.172 60.7078L6.18269 60.6974ZM2.98428 52.8333C3.64749 53.6539 4.28932 54.5889 4.87766 55.5758C5.46599 56.5731 5.97945 57.5704 6.37524 58.5366C6.76034 58.121 7.22031 57.7574 7.74446 57.4666C8.26862 57.1757 8.81417 56.9679 9.39181 56.864C8.72859 56.0433 8.08677 55.1187 7.48773 54.1214C6.8994 53.1241 6.38594 52.1268 5.99015 51.1607C5.60505 51.5866 5.14508 51.9398 4.62093 52.2307C4.09677 52.5216 3.55122 52.7294 2.98428 52.8436V52.8333Z" fill="black"/>
</g>
<g clip-path="url(#clip2_1362_8712)">
<path d="M99.8472 17.0593C100.889 17.0593 101.931 16.825 102.745 16.3648C103.626 15.8627 104.109 15.1599 104.109 14.39C104.109 13.6202 103.626 12.9257 102.745 12.432C101.127 11.5116 98.5764 11.5116 96.9581 12.432C96.077 12.9341 95.594 13.637 95.594 14.4068C95.594 15.1682 96.077 15.8711 96.9581 16.3732C97.7715 16.8334 98.8051 17.0677 99.8472 17.0677V17.0593ZM99.8557 12.8337C100.711 12.8337 101.559 13.0178 102.194 13.3776C102.711 13.6704 102.999 14.0386 102.999 14.3984C102.999 14.7582 102.702 15.1264 102.186 15.4193C100.915 16.1472 98.7712 16.1472 97.5003 15.4193C96.9835 15.1264 96.6955 14.7582 96.6955 14.3984C96.6955 14.0386 96.992 13.6704 97.5088 13.3692C98.1443 13.0094 99 12.8253 99.8557 12.8253V12.8337Z" fill="black"/>
</g>
<defs>
<clipPath id="clip0_1362_8712">
<rect width="37.2525" height="65.9901" fill="white" transform="translate(34.9258 0.0297852)"/>
</clipPath>
<clipPath id="clip1_1362_8712">
<rect width="10.6436" height="11.7079" fill="white" transform="translate(0.866211 48.99)"/>
</clipPath>
<clipPath id="clip2_1362_8712">
<rect width="8.51485" height="5.32178" fill="white" transform="matrix(-1 0 0 1 104.109 11.7375)"/>
</clipPath>
</defs>
</svg>
