<svg width="31" height="30" viewBox="0 0 31 30" fill="none" xmlns="http://www.w3.org/2000/svg">
<path d="M13.5846 13.9375H10.2721C9.48465 13.9375 8.84717 14.5749 8.84717 15.3624V21.7624H13.5846V13.9375V13.9375Z" stroke="white" stroke-width="1.5" stroke-miterlimit="10" stroke-linecap="round" stroke-linejoin="round"/>
<path d="M16.8987 8.25H14.9987C14.2112 8.25 13.5737 8.88752 13.5737 9.67502V21.7501H18.3112V9.67502C18.3112 8.88752 17.6862 8.25 16.8987 8.25Z" stroke="white" stroke-width="1.5" stroke-miterlimit="10" stroke-linecap="round" stroke-linejoin="round"/>
<path d="M21.6323 16.0625H18.3198V21.7501H23.0573V17.4875C23.0448 16.7 22.4073 16.0625 21.6323 16.0625Z" stroke="white" stroke-width="1.5" stroke-miterlimit="10" stroke-linecap="round" stroke-linejoin="round"/>
<path d="M12.1973 27.5H19.6973C25.9473 27.5 28.4473 25 28.4473 18.75V11.25C28.4473 5 25.9473 2.5 19.6973 2.5H12.1973C5.94727 2.5 3.44727 5 3.44727 11.25V18.75C3.44727 25 5.94727 27.5 12.1973 27.5Z" stroke="white" stroke-width="1.5" stroke-linecap="round" stroke-linejoin="round"/>
</svg>
