<svg width="31" height="30" viewBox="0 0 31 30" fill="none" xmlns="http://www.w3.org/2000/svg">
<path d="M22.8277 8.95C22.7527 8.9375 22.6652 8.9375 22.5902 8.95C20.8652 8.8875 19.4902 7.475 19.4902 5.725C19.4902 3.9375 20.9277 2.5 22.7152 2.5C24.5027 2.5 25.9402 3.95 25.9402 5.725C25.9277 7.475 24.5527 8.8875 22.8277 8.95Z" stroke="white" stroke-width="1.5" stroke-linecap="round" stroke-linejoin="round"/>
<path d="M21.5404 18.0502C23.2529 18.3377 25.1404 18.0377 26.4654 17.1502C28.2279 15.9752 28.2279 14.0502 26.4654 12.8752C25.1279 11.9877 23.2154 11.6877 21.5029 11.9877" stroke="white" stroke-width="1.5" stroke-linecap="round" stroke-linejoin="round"/>
<path d="M7.78975 8.95C7.86475 8.9375 7.95225 8.9375 8.02725 8.95C9.75225 8.8875 11.1272 7.475 11.1272 5.725C11.1272 3.9375 9.68975 2.5 7.90225 2.5C6.11475 2.5 4.67725 3.95 4.67725 5.725C4.68975 7.475 6.06475 8.8875 7.78975 8.95Z" stroke="white" stroke-width="1.5" stroke-linecap="round" stroke-linejoin="round"/>
<path d="M9.07744 18.0502C7.36494 18.3377 5.47744 18.0377 4.15244 17.1502C2.38994 15.9752 2.38994 14.0502 4.15244 12.8752C5.48994 11.9877 7.40244 11.6877 9.11494 11.9877" stroke="white" stroke-width="1.5" stroke-linecap="round" stroke-linejoin="round"/>
<path d="M15.3277 18.2874C15.2527 18.2749 15.1652 18.2749 15.0902 18.2874C13.3652 18.2249 11.9902 16.8124 11.9902 15.0624C11.9902 13.2749 13.4277 11.8374 15.2152 11.8374C17.0027 11.8374 18.4402 13.2874 18.4402 15.0624C18.4277 16.8124 17.0527 18.2374 15.3277 18.2874Z" stroke="white" stroke-width="1.5" stroke-linecap="round" stroke-linejoin="round"/>
<path d="M11.69 22.2247C9.92754 23.3997 9.92754 25.3247 11.69 26.4997C13.69 27.8372 16.965 27.8372 18.965 26.4997C20.7275 25.3247 20.7275 23.3997 18.965 22.2247C16.9775 20.8997 13.69 20.8997 11.69 22.2247Z" stroke="white" stroke-width="1.5" stroke-linecap="round" stroke-linejoin="round"/>
</svg>
