<svg width="48" height="49" viewBox="0 0 48 49" fill="none" xmlns="http://www.w3.org/2000/svg">
<circle cx="24" cy="24.9434" r="24" fill="#2EFFD7"/>
<path d="M32.5054 33.3552V33.3545H32.5099V26.7412C32.5099 23.5059 31.8099 21.0137 28.0089 21.0137C26.1816 21.0137 24.9553 22.0115 24.4547 22.9574H24.4018V21.3157H20.7979V33.3545H24.5506V27.3933C24.5506 25.8238 24.8496 24.3061 26.803 24.3061C28.7277 24.3061 28.7564 26.0973 28.7564 27.494V33.3552H32.5054Z" fill="#2B2B2B"/>
<path d="M14.6865 21.3372H18.4438V33.3759H14.6865V21.3372Z" fill="#2B2B2B"/>
<path d="M16.5756 15.3434C15.3742 15.3434 14.3994 16.3134 14.3994 17.5088C14.3994 18.7041 15.3742 19.6944 16.5756 19.6944C17.7769 19.6944 18.7517 18.7041 18.7517 17.5088C18.7509 16.3134 17.7761 15.3434 16.5756 15.3434V15.3434Z" fill="#2B2B2B"/>
</svg>
