<svg width="313" height="65" viewBox="0 0 313 65" fill="none" xmlns="http://www.w3.org/2000/svg">
<path d="M123.59 1.31641H107.777V63.9989H123.59V1.31641Z" fill="#2B2B2B"/>
<path d="M218.011 47.8922V40.3415H233.827V24.5401H218.011V16.9894H244.461V1.19141H213.547C207.28 1.19141 202.198 6.26796 202.198 12.5296V24.5435V40.345V52.3554C202.198 58.6171 207.28 63.6937 213.547 63.6937H244.461V47.8957H218.011V47.8922Z" fill="#2B2B2B"/>
<path d="M176.903 40.3389C174.129 45.1347 168.943 48.3712 163.009 48.3712C154.164 48.3712 146.971 41.1844 146.971 32.3481C146.971 23.5117 154.164 16.3249 163.009 16.3249C169.013 16.3249 174.257 19.6411 177.004 24.534H193.885C190.389 10.7528 177.875 0.523438 163.009 0.523438C145.445 0.523438 131.158 14.8002 131.158 32.3446C131.158 49.889 145.448 64.1657 163.009 64.1657C177.812 64.1657 190.285 54.0265 193.843 40.3319H176.903V40.3389Z" fill="#2B2B2B"/>
<path d="M98.5932 63.6936H67.679C61.4116 63.6936 56.3303 58.617 56.3303 52.3554V1.375H72.1429V47.8956H98.5932V63.6936Z" fill="#2B2B2B"/>
<path d="M24.5419 64.004C11.2127 64.004 0.793519 57.375 0.353027 44.8205H16.4188C16.8593 49.5956 19.863 51.8931 24.0979 51.8931C28.3329 51.8931 31.3366 49.6822 31.3366 46.0576C31.3366 34.5669 0.349559 40.7524 0.526449 18.7413C0.526449 6.98375 10.1479 0.441406 23.1268 0.441406C36.1057 0.441406 45.7271 7.16047 46.3445 19.0046H30.0116C29.748 15.0265 26.9212 12.639 22.8597 12.5524C19.2387 12.4623 16.5055 14.3196 16.5055 18.2111C16.5055 28.9949 47.1388 24.1331 47.1388 44.9072C47.1388 55.3375 39.0157 64.004 24.5384 64.004H24.5419Z" fill="#2B2B2B"/>
<path d="M260.822 63.9732C265.267 63.9732 268.869 60.3738 268.869 55.9339C268.869 51.4939 265.267 47.8945 260.822 47.8945C256.378 47.8945 252.776 51.4939 252.776 55.9339C252.776 60.3738 256.378 63.9732 260.822 63.9732Z" fill="#4325F4"/>
<path d="M282.563 63.9732C287.007 63.9732 290.609 60.3738 290.609 55.9339C290.609 51.4939 287.007 47.8945 282.563 47.8945C278.119 47.8945 274.516 51.4939 274.516 55.9339C274.516 60.3738 278.119 63.9732 282.563 63.9732Z" fill="#2EFFD6"/>
<path d="M304.306 63.9732C308.75 63.9732 312.353 60.3738 312.353 55.9339C312.353 51.4939 308.75 47.8945 304.306 47.8945C299.862 47.8945 296.259 51.4939 296.259 55.9339C296.259 60.3738 299.862 63.9732 304.306 63.9732Z" fill="#56FC2E"/>
</svg>
