<svg width="148" height="30" viewBox="0 0 148 30" fill="none" xmlns="http://www.w3.org/2000/svg">
<g clip-path="url(#clip0_743_13617)">
<path d="M123.169 29.7898C125.237 29.7898 126.913 28.1136 126.913 26.0458C126.913 23.978 125.237 22.3018 123.169 22.3018C121.101 22.3018 119.425 23.978 119.425 26.0458C119.425 28.1136 121.101 29.7898 123.169 29.7898Z" fill="#4325F5"/>
<path d="M133.683 29.7898C135.751 29.7898 137.428 28.1136 137.428 26.0458C137.428 23.978 135.751 22.3018 133.683 22.3018C131.616 22.3018 129.939 23.978 129.939 26.0458C129.939 28.1136 131.616 29.7898 133.683 29.7898Z" fill="#2EFFD7"/>
<path d="M144.199 29.7898C146.267 29.7898 147.943 28.1136 147.943 26.0458C147.943 23.978 146.267 22.3018 144.199 22.3018C142.131 22.3018 140.455 23.978 140.455 26.0458C140.455 28.1136 142.131 29.7898 144.199 29.7898Z" fill="#56FD2E"/>
<path d="M58.7032 0.41333H51.2664V29.9196H58.7032V0.41333Z" fill="white"/>
<path d="M103.109 11.3439V7.7889H115.01V0.352051H101.009C100.308 0.351896 99.614 0.489844 98.9663 0.758017C98.3186 1.02619 97.7301 1.41933 97.2343 1.91499C96.7386 2.41065 96.3454 2.99911 96.0771 3.64677C95.8088 4.29443 95.6707 4.98859 95.6708 5.68962V11.3439H103.109Z" fill="white"/>
<path d="M103.109 22.3367V18.782H95.6708V24.436C95.6707 25.137 95.8088 25.8311 96.077 26.4787C96.3452 27.1263 96.7384 27.7147 97.234 28.2103C97.7297 28.706 98.3181 29.0991 98.9657 29.3674C99.6133 29.6356 100.307 29.7736 101.008 29.7736H115.548V22.3367H103.109Z" fill="white"/>
<path d="M95.6718 11.344H110.547V18.782H95.6718V11.344Z" fill="white"/>
<path d="M83.7766 18.7822C82.9461 20.2256 81.6613 21.3535 80.1224 21.9901C78.5836 22.6266 76.8774 22.7359 75.2699 22.301C73.6624 21.866 72.2441 20.9112 71.2362 19.5856C70.2284 18.2599 69.6876 16.638 69.6982 14.9727C69.7089 13.3075 70.2705 11.6926 71.2953 10.38C72.3201 9.0674 73.7505 8.1309 75.3634 7.71658C76.9763 7.30227 78.681 7.43345 80.2116 8.08966C81.7421 8.74587 83.0124 9.89021 83.8243 11.3442H91.7628C90.8669 7.80834 88.7114 4.72103 85.7008 2.66158C82.6903 0.602123 79.0317 -0.287898 75.4115 0.158535C71.7914 0.604967 68.4586 2.35717 66.0386 5.08631C63.6186 7.81545 62.2777 11.3339 62.2676 14.9815C62.2575 18.629 63.5789 22.1549 65.9837 24.8974C68.3886 27.6399 71.7116 29.4105 75.3292 29.877C78.9468 30.3435 82.6103 29.4738 85.6322 27.431C88.6541 25.3883 90.8267 22.313 91.7422 18.7822H83.7766Z" fill="white"/>
<path d="M46.9474 29.7732H32.4084C31.7075 29.7732 31.0135 29.6351 30.3659 29.3669C29.7183 29.0987 29.1299 28.7055 28.6343 28.2099C28.1387 27.7142 27.7456 27.1258 27.4774 26.4782C27.2092 25.8306 27.0711 25.1366 27.0712 24.4356V0.438232H34.508V22.3364H46.9477L46.9474 29.7732Z" fill="white"/>
<path d="M12.1235 29.9196C5.85452 29.9196 0.954119 26.7985 0.748047 20.8898H8.30413C8.5102 23.1366 9.92327 24.2188 11.9163 24.2188C13.992 24.2188 15.3206 23.1781 15.3206 21.4718C15.3203 16.0624 0.748047 18.9754 0.831065 8.61411C0.831065 3.07931 5.35641 0 11.4594 0C17.8111 0 22.0868 3.16262 22.3783 8.73864H14.698C14.5734 6.86603 13.2449 5.74264 11.3349 5.70114C9.63271 5.65933 8.34593 6.53308 8.34593 8.36418C8.34593 13.4412 22.7521 11.1523 22.7521 20.9311C22.7521 25.8412 18.9327 29.9193 12.1247 29.9193" fill="white"/>
</g>
<defs>
<clipPath id="clip0_743_13617">
<rect width="147.194" height="30" fill="white" transform="translate(0.748047)"/>
</clipPath>
</defs>
</svg>
