<svg width="108" height="108" viewBox="0 0 108 108" fill="none" xmlns="http://www.w3.org/2000/svg">
<circle cx="54" cy="54" r="53" fill="white" stroke="#2B2B2B" stroke-width="2"/>
<path d="M29 65.225V41.275C29 37.95 30.925 37.15 33.275 39.5L39.75 45.975C40.725 46.95 42.325 46.95 43.275 45.975L52.225 37C53.2 36.025 54.8 36.025 55.75 37L64.725 45.975C65.7 46.95 67.3 46.95 68.25 45.975L74.725 39.5C77.075 37.15 79 37.95 79 41.275V65.25C79 72.75 74 77.75 66.5 77.75H41.5C34.6 77.725 29 72.125 29 65.225Z" stroke="#292D32" stroke-width="2" stroke-linecap="round" stroke-linejoin="round"/>
</svg>
