<svg width="108" height="108" viewBox="0 0 108 108" fill="none" xmlns="http://www.w3.org/2000/svg">
<circle cx="54" cy="54" r="53" fill="white" stroke="#2B2B2B" stroke-width="2"/>
<g clip-path="url(#clip0_890_7237)">
<path d="M54 54L76.5 31.5" stroke="black" stroke-width="2" stroke-linecap="round" stroke-linejoin="round"/>
<path d="M69.9143 38.086C65.9254 34.0852 60.5798 31.7276 54.9356 31.4799C49.2914 31.2323 43.7599 33.1127 39.4359 36.7488C35.112 40.385 32.3107 45.512 31.5865 51.115C30.8623 56.718 32.268 62.3888 35.5253 67.0048C38.7827 71.6209 43.6543 74.8458 49.176 76.0414C54.6977 77.237 60.467 76.316 65.3421 73.4608C70.2171 70.6055 73.8426 66.0242 75.501 60.6234C77.1594 55.2226 76.7297 49.3961 74.2971 44.297" stroke="black" stroke-width="2" stroke-linecap="round" stroke-linejoin="round"/>
<path d="M61.9458 46.0547C60.0877 44.2018 57.6393 43.0583 55.0259 42.8229C52.4125 42.5874 49.7991 43.2749 47.6398 44.7658C45.4805 46.2567 43.9117 48.4569 43.2058 50.9842C42.5 53.5115 42.7017 56.2062 43.7759 58.6002C44.8502 60.9943 46.7291 62.9364 49.0863 64.0892C51.4435 65.2421 54.13 65.5328 56.6793 64.9109C59.2285 64.289 61.4794 62.7938 63.0409 60.6849C64.6024 58.5761 65.3759 55.9869 65.227 53.3672" stroke="black" stroke-width="2" stroke-linecap="round" stroke-linejoin="round"/>
</g>
<defs>
<clipPath id="clip0_890_7237">
<rect width="60" height="60" fill="white" transform="translate(24 24)"/>
</clipPath>
</defs>
</svg>
