<svg width="692" height="571" viewBox="0 0 692 571" fill="none" xmlns="http://www.w3.org/2000/svg">
<path d="M575.421 306.943L405.169 208.648L234.917 306.943L405.169 405.238L575.421 306.943Z" fill="white" stroke="black"/>
<path d="M234.417 306.077L404.669 207.782V202.88L234.417 301.175V306.077Z" fill="white" stroke="black" stroke-linejoin="round"/>
<path d="M575.921 306.077V301.175L405.669 202.88V207.782L575.921 306.077Z" fill="white" stroke="black" stroke-linejoin="round"/>
<path d="M404.669 404.95V400.048L234.417 301.753V306.655L404.669 404.95Z" fill="white" stroke="black" stroke-linejoin="round"/>
<path d="M575.921 306.655V301.753L405.669 400.048V404.95L575.921 306.655Z" fill="white" stroke="black" stroke-linejoin="round"/>
<rect x="2.98023e-08" y="0.5" width="196.745" height="196.745" transform="matrix(-0.866025 0.5 0.866025 0.5 404.736 202.264)" fill="white" stroke="#2B2B2B"/>
<circle r="29.5839" transform="matrix(0.866025 0.5 -0.866025 0.5 198.307 138.558)" fill="#2B2B2B" stroke="#2B2B2B"/>
<path d="M243.52 138.558C243.521 143.761 240.083 149.067 232.979 153.169C225.878 157.268 216.54 159.332 207.175 159.332C197.81 159.332 188.472 157.268 181.372 153.169C174.269 149.068 170.831 143.763 170.83 138.562C170.829 133.358 174.268 128.052 181.372 123.951C188.472 119.851 197.81 117.787 207.175 117.787C216.54 117.787 225.878 119.851 232.979 123.951C240.081 128.051 243.519 133.356 243.52 138.558Z" fill="white" stroke="black"/>
<path d="M232.729 122.664C225.544 118.738 216.347 116.787 207.175 116.787C198.004 116.787 188.807 118.738 181.622 122.664V112.855C188.691 108.85 197.92 106.834 207.175 106.834C216.431 106.834 225.66 108.85 232.729 112.855V122.664Z" fill="white" stroke="black" stroke-linejoin="round"/>
<path d="M243.521 133.525C241.986 129.724 238.698 126.153 233.729 123.231V113.443C240.324 117.478 243.52 122.589 243.521 127.604C243.521 127.604 243.521 127.604 243.521 127.604V133.525Z" fill="white" stroke="black" stroke-linejoin="round"/>
<path d="M180.622 123.231C175.653 126.153 172.364 129.724 170.83 133.525V127.608V127.608C170.829 122.592 174.025 117.479 180.622 113.443V123.231Z" fill="white" stroke="black" stroke-linejoin="round"/>
<path d="M243.521 138.558C243.521 143.575 240.325 148.687 233.729 152.723V142.936C238.698 140.013 241.986 136.442 243.521 132.642V138.558V138.558Z" fill="white" stroke="black" stroke-linejoin="round"/>
<path d="M170.83 132.642C172.364 136.442 175.653 140.013 180.622 142.936V152.723C174.027 148.688 170.831 143.577 170.83 138.562C170.83 138.562 170.83 138.562 170.83 138.562V132.642Z" fill="white" stroke="black" stroke-linejoin="round"/>
<path d="M181.622 153.312V143.503C188.807 147.429 198.004 149.379 207.175 149.379C216.347 149.379 225.544 147.429 232.729 143.503V153.312C225.66 157.316 216.431 159.332 207.175 159.332C197.92 159.332 188.691 157.316 181.622 153.312Z" fill="white" stroke="black" stroke-linejoin="round"/>
<circle r="29.5839" transform="matrix(0.866025 0.5 -0.866025 0.5 207.175 127.606)" fill="#2B2B2B" stroke="#2B2B2B"/>
<path d="M243.52 119.583C243.521 124.786 240.083 130.092 232.979 134.194C225.878 138.293 216.54 140.357 207.175 140.357C197.81 140.357 188.472 138.293 181.372 134.194C174.269 130.093 170.831 124.789 170.83 119.587C170.829 114.384 174.268 109.078 181.372 104.976C188.472 100.877 197.81 98.8125 207.175 98.8125C216.54 98.8125 225.878 100.877 232.979 104.976C240.081 109.077 243.519 114.381 243.52 119.583Z" fill="white" stroke="black"/>
<path d="M232.729 103.69C225.544 99.7635 216.347 97.8133 207.175 97.8133C198.004 97.8133 188.807 99.7635 181.622 103.69V93.8805C188.691 89.876 197.92 87.8599 207.175 87.8599C216.431 87.8599 225.66 89.876 232.729 93.8805V103.69Z" fill="white" stroke="black" stroke-linejoin="round"/>
<path d="M243.52 114.551C241.986 110.75 238.697 107.179 233.729 104.256V94.4691C240.323 98.5043 243.519 103.615 243.52 108.63C243.52 108.63 243.52 108.63 243.52 108.63V114.551Z" fill="white" stroke="black" stroke-linejoin="round"/>
<path d="M180.622 104.256C175.653 107.179 172.364 110.75 170.83 114.551V108.634V108.634C170.829 103.618 174.025 98.5053 180.622 94.4691V104.256Z" fill="white" stroke="black" stroke-linejoin="round"/>
<path d="M243.52 119.583C243.521 124.6 240.325 129.712 233.729 133.749V123.961C238.697 121.038 241.986 117.468 243.52 113.667V119.583V119.583Z" fill="white" stroke="black" stroke-linejoin="round"/>
<path d="M170.83 113.667C172.364 117.468 175.653 121.039 180.622 123.961V133.749C174.027 129.714 170.831 124.603 170.83 119.588C170.83 119.588 170.83 119.588 170.83 119.588V113.667Z" fill="white" stroke="black" stroke-linejoin="round"/>
<path d="M181.622 134.337V124.528C188.807 128.454 198.004 130.404 207.175 130.404C216.347 130.404 225.544 128.454 232.729 124.528V134.337C225.66 138.342 216.431 140.358 207.175 140.358C197.92 140.358 188.691 138.342 181.622 134.337Z" fill="white" stroke="black" stroke-linejoin="round"/>
<circle r="29.5839" transform="matrix(0.866025 0.5 -0.866025 0.5 207.175 108.632)" fill="#2B2B2B" stroke="#2B2B2B"/>
<path d="M243.52 100.356C243.521 105.559 240.082 110.865 232.978 114.966C225.877 119.066 216.54 121.13 207.175 121.13C197.81 121.13 188.472 119.066 181.371 114.966C174.269 110.866 170.83 105.561 170.83 100.359C170.829 95.1563 174.267 89.8502 181.371 85.7485C188.472 81.649 197.81 79.585 207.175 79.585C216.54 79.585 225.877 81.649 232.978 85.7485C240.08 89.8492 243.519 95.1536 243.52 100.356Z" fill="white" stroke="black"/>
<path d="M232.729 84.4616C225.544 80.5355 216.347 78.5853 207.175 78.5853C198.004 78.5853 188.807 80.5355 181.622 84.4616V74.6524C188.691 70.6479 197.92 68.6318 207.175 68.6318C216.431 68.6318 225.66 70.6479 232.729 74.6524V84.4616Z" fill="white" stroke="black" stroke-linejoin="round"/>
<path d="M243.52 95.3226C241.986 91.522 238.697 87.9513 233.729 85.0285V75.2411C240.323 79.2762 243.519 84.3869 243.52 89.4022C243.52 89.4022 243.52 89.4023 243.52 89.4023V95.3226Z" fill="white" stroke="black" stroke-linejoin="round"/>
<path d="M170.83 94.4398C172.364 98.2405 175.652 101.811 180.621 104.734V114.521C174.027 110.486 170.83 105.376 170.83 100.36C170.83 100.36 170.83 100.36 170.83 100.36V94.4398Z" fill="white" stroke="black" stroke-linejoin="round"/>
<path d="M180.621 85.0285C175.652 87.9513 172.364 91.522 170.83 95.3226V89.4063V89.4062C170.829 84.3896 174.025 79.2773 180.621 75.2411V85.0285Z" fill="white" stroke="black" stroke-linejoin="round"/>
<path d="M243.52 100.356C243.521 105.372 240.325 110.485 233.729 114.521V104.734C238.697 101.811 241.986 98.2401 243.52 94.4395V100.356V100.356Z" fill="white" stroke="black" stroke-linejoin="round"/>
<path d="M181.622 115.11V105.301C188.807 109.227 198.004 111.177 207.175 111.177C216.347 111.177 225.544 109.227 232.729 105.301V115.11C225.66 119.114 216.431 121.13 207.175 121.13C197.92 121.13 188.691 119.114 181.622 115.11Z" fill="white" stroke="black" stroke-linejoin="round"/>
<circle r="29.5839" transform="matrix(0.866025 0.5 -0.866025 0.5 207.175 89.4042)" fill="white" stroke="#2B2B2B"/>
<circle r="22.2803" transform="matrix(0.866025 0.5 -0.866025 0.5 207.175 89.4043)" fill="white" stroke="#2B2B2B"/>
<circle r="29.5839" transform="matrix(0.866025 0.5 -0.866025 0.5 137.331 166.466)" fill="#2B2B2B" stroke="#2B2B2B"/>
<path d="M182.545 166.465C182.545 171.669 179.107 176.975 172.003 181.076C164.902 185.176 155.564 187.24 146.2 187.24C136.835 187.24 127.497 185.176 120.396 181.076C113.294 176.976 109.855 171.671 109.854 166.469C109.854 161.266 113.292 155.96 120.396 151.858C127.497 147.759 136.835 145.695 146.2 145.695C155.565 145.695 164.902 147.759 172.003 151.858C179.105 155.959 182.544 161.264 182.545 166.465Z" fill="white" stroke="black"/>
<path d="M171.753 150.571C164.568 146.645 155.372 144.695 146.2 144.695C137.028 144.695 127.831 146.645 120.646 150.571V140.762C127.715 136.757 136.944 134.741 146.2 134.741C155.455 134.741 164.684 136.757 171.753 140.762V150.571Z" fill="white" stroke="black" stroke-linejoin="round"/>
<path d="M182.545 161.432C181.01 157.631 177.722 154.061 172.753 151.138V141.35C179.348 145.386 182.544 150.496 182.545 155.512C182.545 155.512 182.545 155.512 182.545 155.512V161.432Z" fill="white" stroke="black" stroke-linejoin="round"/>
<path d="M119.646 151.138C114.677 154.061 111.389 157.631 109.854 161.432V155.516V155.516C109.854 150.499 113.05 145.387 119.646 141.35V151.138Z" fill="white" stroke="black" stroke-linejoin="round"/>
<path d="M182.545 166.466C182.545 171.482 179.349 176.595 172.753 180.631V170.843C177.722 167.921 181.01 164.35 182.545 160.549V166.466V166.466Z" fill="white" stroke="black" stroke-linejoin="round"/>
<path d="M109.854 160.549C111.389 164.349 114.677 167.92 119.646 170.843V180.63C113.052 176.595 109.855 171.484 109.854 166.469C109.854 166.469 109.854 166.469 109.854 166.469V160.549Z" fill="white" stroke="black" stroke-linejoin="round"/>
<path d="M120.646 181.22V171.41C127.831 175.337 137.028 177.287 146.2 177.287C155.372 177.287 164.568 175.337 171.753 171.41V181.22C164.684 185.224 155.455 187.24 146.2 187.24C136.944 187.24 127.715 185.224 120.646 181.22Z" fill="white" stroke="black" stroke-linejoin="round"/>
<circle r="29.5839" transform="matrix(0.866025 0.5 -0.866025 0.5 146.2 155.514)" fill="#2B2B2B" stroke="#2B2B2B"/>
<path d="M182.545 146.701C182.545 151.904 179.107 157.21 172.003 161.312C164.902 165.411 155.564 167.475 146.2 167.475C136.835 167.475 127.497 165.411 120.396 161.312C113.294 157.211 109.855 151.906 109.854 146.705C109.854 141.501 113.292 136.195 120.396 132.094C127.497 127.994 136.835 125.93 146.2 125.93C155.565 125.93 164.902 127.994 172.003 132.094C179.105 136.194 182.544 141.499 182.545 146.701Z" fill="white" stroke="black"/>
<path d="M171.753 130.807C164.568 126.881 155.372 124.931 146.2 124.931C137.028 124.931 127.831 126.881 120.646 130.807V120.998C127.715 116.993 136.944 114.977 146.2 114.977C155.455 114.977 164.684 116.993 171.753 120.998V130.807Z" fill="white" stroke="black" stroke-linejoin="round"/>
<path d="M182.545 141.668C181.01 137.867 177.722 134.296 172.753 131.374V121.586C179.348 125.621 182.544 130.732 182.545 135.747C182.545 135.747 182.545 135.747 182.545 135.748V141.668Z" fill="white" stroke="black" stroke-linejoin="round"/>
<path d="M109.854 140.785C111.389 144.585 114.677 148.156 119.646 151.079V160.866C113.052 156.831 109.855 151.72 109.854 146.705C109.854 146.705 109.854 146.705 109.854 146.705V140.785Z" fill="white" stroke="black" stroke-linejoin="round"/>
<path d="M119.646 131.374C114.677 134.296 111.389 137.867 109.854 141.668V135.751V135.751C109.854 130.735 113.05 125.623 119.646 121.586V131.374Z" fill="white" stroke="black" stroke-linejoin="round"/>
<path d="M182.545 146.701C182.545 151.717 179.349 156.83 172.753 160.866V151.078C177.722 148.156 181.01 144.585 182.545 140.784V146.701V146.701Z" fill="white" stroke="black" stroke-linejoin="round"/>
<path d="M120.646 161.455V151.646C127.831 155.572 137.028 157.522 146.2 157.522C155.372 157.522 164.568 155.572 171.753 151.646V161.455C164.684 165.459 155.455 167.476 146.2 167.476C136.944 167.476 127.715 165.459 120.646 161.455Z" fill="white" stroke="black" stroke-linejoin="round"/>
<circle r="29.5839" transform="matrix(0.866025 0.5 -0.866025 0.5 146.2 135.749)" fill="white" stroke="#2B2B2B"/>
<circle r="22.2803" transform="matrix(0.866025 0.5 -0.866025 0.5 146.2 135.749)" fill="white" stroke="#2B2B2B"/>
<rect x="2.98023e-08" y="0.5" width="89.307" height="148.04" transform="matrix(-0.866025 0.5 0.866025 0.5 362.064 244.679)" fill="#2B2B2B" stroke="#2B2B2B"/>
<rect x="-0.433013" y="0.25" width="102.473" height="188.626" transform="matrix(-0.866025 -0.5 -2.20305e-08 1 412.735 175.236)" fill="#4325F5" stroke="#2B2B2B"/>
<rect x="-0.433013" y="0.25" width="24.1973" height="45.1769" transform="matrix(-0.866025 -0.5 -2.20305e-08 1 396.043 184.308)" fill="white" stroke="#2B2B2B"/>
<rect x="-0.433013" y="0.25" width="24.1973" height="45.1769" transform="matrix(-0.866025 -0.5 -2.20305e-08 1 396.043 241.51)" fill="white" stroke="#2B2B2B"/>
<rect x="-0.433013" y="0.25" width="24.1973" height="45.1769" transform="matrix(-0.866025 -0.5 -2.20305e-08 1 396.043 301.777)" fill="white" stroke="#2B2B2B"/>
<rect x="-0.433013" y="0.25" width="24.1973" height="45.1769" transform="matrix(-0.866025 -0.5 -2.20305e-08 1 357.528 163.261)" fill="white" stroke="#2B2B2B"/>
<rect x="-0.433013" y="0.25" width="24.1973" height="45.1769" transform="matrix(-0.866025 -0.5 -2.20305e-08 1 357.528 220.462)" fill="white" stroke="#2B2B2B"/>
<rect x="-0.433013" y="0.25" width="24.1973" height="45.1769" transform="matrix(-0.866025 -0.5 -2.20305e-08 1 357.528 280.729)" fill="white" stroke="#2B2B2B"/>
<rect x="-0.433013" y="0.25" width="18.0657" height="38.8339" transform="matrix(-0.866025 -0.5 -2.20305e-08 1 396.043 184.308)" fill="#2B2B2B" stroke="#2B2B2B"/>
<rect x="-0.433013" y="0.25" width="18.0657" height="38.8339" transform="matrix(-0.866025 -0.5 -2.20305e-08 1 396.043 241.51)" fill="#2B2B2B" stroke="#2B2B2B"/>
<rect x="-0.433013" y="0.25" width="18.0657" height="38.8339" transform="matrix(-0.866025 -0.5 -2.20305e-08 1 396.043 301.777)" fill="#2B2B2B" stroke="#2B2B2B"/>
<rect x="-0.433013" y="0.25" width="18.0657" height="38.8339" transform="matrix(-0.866025 -0.5 -2.20305e-08 1 357.528 163.261)" fill="#2B2B2B" stroke="#2B2B2B"/>
<rect x="-0.433013" y="0.25" width="18.0657" height="38.8339" transform="matrix(-0.866025 -0.5 -2.20305e-08 1 357.528 220.462)" fill="#2B2B2B" stroke="#2B2B2B"/>
<rect x="-0.433013" y="0.25" width="18.0657" height="38.8339" transform="matrix(-0.866025 -0.5 -2.20305e-08 1 357.528 280.729)" fill="#2B2B2B" stroke="#2B2B2B"/>
<rect x="2.98023e-08" y="0.5" width="88.2025" height="102.473" transform="matrix(-0.866025 0.5 0.866025 0.5 400.752 79.3643)" fill="white" stroke="#2B2B2B"/>
<rect x="2.98023e-08" y="0.5" width="70.1004" height="81.4751" transform="matrix(-0.866025 0.5 0.866025 0.5 402.005 89.1396)" fill="white" stroke="#2B2B2B"/>
<path d="M458.547 137.864L472.788 130.307L402.872 89.9412L402.872 106.502L458.547 137.864Z" fill="#2B2B2B" stroke="#2B2B2B"/>
<path d="M355.483 132.211L342.007 124.364L402.006 89.6411L402.006 106.2L355.483 132.211Z" fill="white" stroke="#2B2B2B"/>
<rect x="-0.433013" y="0.75" width="88.122" height="188.626" transform="matrix(-0.866025 0.5 2.20305e-08 1 489.918 131.108)" fill="white" stroke="#2B2B2B"/>
<rect width="38.7059" height="3.17346" rx="1.58673" transform="matrix(-0.866025 0.5 0.866025 0.5 422.75 125.696)" fill="black"/>
<rect x="0.433013" y="0.25" width="24.1973" height="45.1769" transform="matrix(0.866025 -0.5 2.20305e-08 1 424.56 186.233)" fill="#2B2B2B" stroke="#2B2B2B"/>
<rect x="0.433013" y="0.25" width="24.1973" height="45.1769" transform="matrix(0.866025 -0.5 2.20305e-08 1 424.56 246.5)" fill="#2B2B2B" stroke="#2B2B2B"/>
<rect x="0.433013" y="0.25" width="24.1973" height="45.1769" transform="matrix(0.866025 -0.5 2.20305e-08 1 424.56 303.303)" fill="#2B2B2B" stroke="#2B2B2B"/>
<rect x="0.433013" y="0.25" width="24.1973" height="45.1769" transform="matrix(0.866025 -0.5 2.20305e-08 1 458.003 168.251)" fill="#2B2B2B" stroke="#2B2B2B"/>
<rect x="0.433013" y="0.25" width="24.1973" height="45.1769" transform="matrix(0.866025 -0.5 2.20305e-08 1 458.003 228.519)" fill="#2B2B2B" stroke="#2B2B2B"/>
<rect x="0.433013" y="0.25" width="24.1973" height="45.1769" transform="matrix(0.866025 -0.5 2.20305e-08 1 458.003 285.321)" fill="#2B2B2B" stroke="#2B2B2B"/>
<rect x="0.433013" y="0.25" width="18.5694" height="39.0725" transform="matrix(0.866025 -0.5 2.20305e-08 1 424.56 186.233)" fill="white" stroke="#2B2B2B"/>
<rect x="0.433013" y="0.25" width="18.5694" height="39.0725" transform="matrix(0.866025 -0.5 2.20305e-08 1 424.56 246.5)" fill="white" stroke="#2B2B2B"/>
<rect x="0.433013" y="0.25" width="18.5694" height="39.0725" transform="matrix(0.866025 -0.5 2.20305e-08 1 424.56 303.303)" fill="white" stroke="#2B2B2B"/>
<rect x="0.433013" y="0.25" width="18.5694" height="39.0725" transform="matrix(0.866025 -0.5 2.20305e-08 1 458.003 168.251)" fill="white" stroke="#2B2B2B"/>
<rect x="0.433013" y="0.25" width="18.5694" height="39.0725" transform="matrix(0.866025 -0.5 2.20305e-08 1 458.003 228.519)" fill="white" stroke="#2B2B2B"/>
<rect x="0.433013" y="0.25" width="18.5694" height="39.0725" transform="matrix(0.866025 -0.5 2.20305e-08 1 458.003 285.321)" fill="white" stroke="#2B2B2B"/>
<path d="M419.344 13.4547C427.236 16.3261 432.391 24.767 432.391 37.7557C432.391 49.2173 428.364 61.9512 421.83 73.2686C415.296 84.586 406.281 94.4401 396.355 100.171C387.748 105.141 379.93 106.162 373.867 103.956C365.975 101.084 360.82 92.6433 360.82 79.6545C360.82 68.1929 364.846 55.4591 371.381 44.1417C377.915 32.8242 386.929 22.9701 396.855 17.2393C405.463 12.2697 413.28 11.2485 419.344 13.4547Z" fill="#2EFFD7" stroke="#2B2B2B"/>
<path d="M422.696 73.7687C429.161 62.5714 433.224 49.9573 433.386 38.4681L443.772 42.2485C443.692 53.619 439.681 66.2093 433.213 77.4117C426.723 88.6526 417.786 98.4499 407.94 104.197L397.77 100.496C407.519 94.5917 416.297 84.8522 422.696 73.7687Z" fill="#2EFFD7" stroke="#2B2B2B" stroke-linejoin="round"/>
<path d="M433.39 37.4048C433.319 27.3385 430.17 19.7899 424.89 15.4729L430.727 17.5972L430.727 17.5972C438.473 20.4156 443.582 28.5992 443.769 41.1823L433.39 37.4048Z" fill="#2EFFD7" stroke="#2B2B2B" stroke-linejoin="round"/>
<path d="M385.25 108.098L379.611 106.046C384.736 106.225 390.537 104.645 396.653 101.153L406.795 104.844C398.56 109.354 391.091 110.223 385.25 108.098C385.25 108.098 385.25 108.098 385.25 108.098Z" fill="#2EFFD7" stroke="#2B2B2B" stroke-linejoin="round"/>
<path d="M419.344 13.4547L424.983 15.507C419.858 15.3275 414.056 16.9074 407.941 20.4L397.799 16.7086C406.034 12.1992 413.503 11.3294 419.344 13.4546C419.344 13.4547 419.344 13.4547 419.344 13.4547Z" fill="#2EFFD7" stroke="#2B2B2B" stroke-linejoin="round"/>
<path d="M373.867 103.955C366.121 101.137 361.011 92.9534 360.825 80.3703L371.204 84.1479C371.275 94.2141 374.424 101.763 379.704 106.08L373.867 103.955L373.867 103.955Z" fill="#2EFFD7" stroke="#2B2B2B" stroke-linejoin="round"/>
<path d="M406.823 21.0573C397.074 26.9615 388.296 36.701 381.897 47.7845C375.433 58.9818 371.37 71.5959 371.208 83.0851L360.821 79.3047C360.902 67.9342 364.913 55.3439 371.381 44.1415C377.871 32.9006 386.807 23.1033 396.654 17.356L406.823 21.0573Z" fill="#2EFFD7" stroke="#2B2B2B" stroke-linejoin="round"/>
<circle r="41.3988" transform="matrix(0.866025 -0.5 2.20305e-08 1 407.988 62.8478)" fill="white" stroke="#2B2B2B"/>
<circle r="31.1673" transform="matrix(0.866025 -0.5 2.20305e-08 1 407.989 62.8478)" fill="#2EFFD7" stroke="#2B2B2B"/>
<path d="M409.483 73.4232L410.778 72.6756C412.073 71.928 413.149 69.9727 413.149 68.3624C413.149 66.3611 412.531 66.3266 411.515 66.4991L409.503 66.8557L409.503 73.4117L409.483 73.4232Z" fill="#2B2B2B"/>
<path d="M407.929 42.0693C396.932 48.4643 388.027 63.9342 388.067 76.6092C388.107 89.2842 397.052 94.4025 408.048 88.0075C419.045 81.6125 427.95 66.1425 427.91 53.4676C427.871 40.7926 418.926 35.6973 407.929 42.0693ZM412.491 62.669C414.045 62.393 416.137 62.5195 416.137 66.6371C416.137 70.1797 413.726 74.4238 410.778 76.1261L409.483 76.8737L409.483 78.2079C409.483 79.1511 408.806 80.3243 407.989 80.7958C407.172 81.2674 406.495 80.8763 406.495 79.9332L406.495 78.599L405.777 79.0131C402.51 80.8994 399.861 79.2546 399.861 75.344C399.861 74.4008 400.538 73.2277 401.355 72.7561C402.172 72.2845 402.849 72.6756 402.849 73.6187C402.849 75.62 404.164 76.4942 405.777 75.5625L406.495 75.1485L406.495 67.3732L403.486 67.8678C401.933 68.1439 399.841 68.0173 399.841 63.8997C399.841 60.3571 402.251 56.113 405.2 54.4107L406.495 53.6631L406.495 52.3289C406.495 51.3857 407.172 50.2126 407.989 49.741C408.806 49.2694 409.483 49.6605 409.483 50.6036L409.483 51.9378L410.2 51.5238C413.467 49.6375 416.117 51.2822 416.117 55.1928C416.117 56.136 415.439 57.3092 414.623 57.7807C413.806 58.2523 413.129 57.8613 413.129 56.9181C413.129 54.9168 411.814 54.0427 410.2 54.9743L409.483 55.3884L409.483 63.1636L412.491 62.669Z" fill="#2B2B2B"/>
<path d="M402.849 62.1862C402.849 64.1875 403.466 64.222 404.482 64.0495L406.494 63.6929L406.494 57.1139L405.199 57.8615C403.904 58.6092 402.849 60.553 402.849 62.1862Z" fill="#2B2B2B"/>
<path d="M683.639 179.254L595.657 126.847L608.663 118.048L612.871 111.545L619.374 94.7138L626.642 86.6807L636.205 120.726C636.205 120.726 640.069 119.644 642.884 118.856C643.81 118.597 644.622 118.369 639.089 119.919C645.537 118.113 645.768 118.048 645.768 118.048L651.124 139.853H659.922L666.425 164.717H675.989L683.639 179.254Z" fill="black" stroke="black"/>
<path d="M584.873 130.772L597.879 121.973L608.663 118.048L595.656 126.847L584.873 130.772Z" fill="black" stroke="black" stroke-linejoin="round"/>
<path d="M597.879 121.973L602.087 115.47L612.871 111.545L608.663 118.048L597.879 121.973Z" fill="black" stroke="black" stroke-linejoin="round"/>
<path d="M602.086 115.47L608.589 98.6389L619.373 94.7139L612.87 111.545L602.086 115.47Z" fill="black" stroke="black" stroke-linejoin="round"/>
<path d="M672.855 183.179L584.873 130.772L595.656 126.847L683.639 179.254L672.855 183.179Z" fill="black" stroke="black" stroke-linejoin="round"/>
<path d="M608.59 98.6389L615.858 90.6057L626.642 86.6807L619.374 94.7138L608.59 98.6389Z" fill="black" stroke="black" stroke-linejoin="round"/>
<path d="M615.858 90.6057L625.421 124.651L636.205 120.726L626.642 86.6807L615.858 90.6057Z" fill="black" stroke="black" stroke-linejoin="round"/>
<path d="M625.421 124.651L632.101 122.781L642.884 118.856L636.205 120.726L625.421 124.651Z" fill="black" stroke="black" stroke-linejoin="round"/>
<path d="M632.1 122.781C631.461 122.96 630.293 123.287 628.305 123.844L639.089 119.919C644.622 118.37 643.81 118.597 642.884 118.856L632.1 122.781C633.24 122.462 632.693 122.615 632.1 122.781L632.1 122.781Z" fill="black"/>
<path d="M628.305 123.844C633.838 122.295 633.026 122.522 632.1 122.781L642.884 118.856C643.81 118.597 644.622 118.37 639.089 119.919L628.305 123.844Z" stroke="black" stroke-linejoin="round"/>
<path d="M628.305 123.844L634.984 121.973L645.768 118.048L639.089 119.919L628.305 123.844Z" fill="black" stroke="black" stroke-linejoin="round"/>
<path d="M634.984 121.973L640.34 143.778L651.124 139.853L645.768 118.048L634.984 121.973Z" fill="black" stroke="black" stroke-linejoin="round"/>
<path d="M640.34 143.778H649.139L659.922 139.853H651.124L640.34 143.778Z" fill="black" stroke="black" stroke-linejoin="round"/>
<path d="M649.138 143.778L655.641 168.642L666.425 164.717L659.922 139.853L649.138 143.778Z" fill="black" stroke="black" stroke-linejoin="round"/>
<path d="M655.641 168.642H665.204L675.988 164.717H666.425L655.641 168.642Z" fill="black" stroke="black" stroke-linejoin="round"/>
<path d="M665.205 168.642L672.855 183.179L683.639 179.254L675.988 164.717L665.205 168.642Z" fill="black" stroke="black" stroke-linejoin="round"/>
<path d="M672.855 183.179L584.873 130.772L597.879 121.974L602.087 115.471L608.59 98.6391L615.858 90.606L625.421 124.651L634.984 121.974L640.34 143.778H649.138L655.641 168.643H665.204L672.855 183.179Z" fill="#2EFFD7" stroke="black"/>
<path d="M510.418 239.055L598.846 179.7" stroke="#2B2B2B"/>
<circle cx="599.951" cy="178.242" r="4.29423" fill="#2B2B2B"/>
<path d="M305.155 367.205L216.728 426.561" stroke="#2B2B2B"/>
<circle cx="215.623" cy="428.018" r="4.29423" transform="rotate(-180 215.623 428.018)" fill="#2B2B2B"/>
<path d="M296.566 246.765L208.139 187.41" stroke="#2B2B2B"/>
<circle r="4.29423" transform="matrix(-1 0 0 1 207.034 185.952)" fill="#2B2B2B"/>
<circle r="4.29423" transform="matrix(-1 0 0 1 94.0925 190.246)" fill="#2B2B2B"/>
<path d="M80.1567 467.332L145.197 429.781L229.979 478.73L164.939 516.281L80.1567 467.332Z" fill="black"/>
<path d="M145.197 423.724L80.1562 461.275L80.1562 467.332L145.197 429.781L145.197 423.724Z" fill="black"/>
<path d="M229.979 472.673L145.197 423.724L145.197 429.781L229.979 478.73L229.979 472.673Z" fill="black"/>
<path d="M146.58 437.847L104.619 462.074L104.619 468.13L146.58 443.904L146.58 437.847Z" fill="black"/>
<path d="M159.359 445.226L117.397 469.452L117.397 475.509L159.359 451.282L159.359 445.226Z" fill="black"/>
<path d="M172.473 452.796L130.511 477.023L130.511 483.08L172.473 458.853L172.473 452.796Z" fill="black"/>
<path d="M185.061 460.064L143.099 484.291L143.099 490.347L185.061 466.121L185.061 460.064Z" fill="black"/>
<path d="M80.1567 461.275L164.939 510.224L164.939 516.281L80.1567 467.332L80.1567 461.275Z" fill="black"/>
<path d="M164.938 510.224L229.979 472.673L229.979 478.73L164.938 516.281L164.938 510.224Z" fill="black"/>
<rect x="0.866025" width="74.1026" height="96.8976" transform="matrix(0.866025 -0.5 0.866025 0.5 80.2728 461.708)" fill="white" stroke="#2B2B2B"/>
<path d="M104.619 462.074L146.58 437.847" stroke="#2B2B2B"/>
<path d="M117.397 469.452L159.359 445.225" stroke="#2B2B2B"/>
<path d="M130.511 477.023L172.473 452.796" stroke="#2B2B2B"/>
<path d="M143.099 484.291L185.061 460.064" stroke="#2B2B2B"/>
<circle r="14.4589" transform="matrix(0.866025 0.5 -0.866025 0.5 48.6367 503.407)" fill="#2B2B2B" stroke="#2B2B2B"/>
<circle r="14.4589" transform="matrix(0.866025 0.5 -0.866025 0.5 48.6367 497.351)" fill="white" stroke="#2B2B2B"/>
<path d="M31.2063 497.384L31.2074 497.368V497.351V482.178H66.0003V497.311C65.9979 497.325 65.9945 497.344 65.99 497.367C65.9776 497.43 65.9568 497.526 65.9238 497.652C65.8579 497.902 65.7439 498.267 65.5537 498.709C65.1735 499.592 64.4887 500.78 63.2731 501.973C60.8513 504.351 56.257 506.809 47.5732 506.809C38.8827 506.809 34.8361 504.348 32.9419 502.015C31.9887 500.841 31.5559 499.67 31.3606 498.798C31.2629 498.361 31.2248 497.999 31.2109 497.751C31.204 497.627 31.2031 497.531 31.2038 497.468C31.2042 497.437 31.2049 497.414 31.2055 497.4L31.2062 497.386L31.2062 497.385L31.2063 497.385L31.2063 497.384L31.2063 497.384Z" fill="#2EFFD7" stroke="#2B2B2B"/>
<circle r="14.4589" transform="matrix(0.866025 0.5 -0.866025 0.5 48.6367 482.889)" fill="white" stroke="#2B2B2B"/>
<circle r="14.4589" transform="matrix(0.866025 0.5 -0.866025 0.5 91.4878 530.917)" fill="#2B2B2B" stroke="#2B2B2B"/>
<circle r="14.4589" transform="matrix(0.866025 0.5 -0.866025 0.5 91.4878 524.861)" fill="white" stroke="#2B2B2B"/>
<path d="M74.0573 524.896L74.0573 524.895L74.0573 524.895L74.0574 524.894L74.0585 524.879V524.861V484.25H108.851V524.821C108.849 524.835 108.846 524.854 108.841 524.877C108.829 524.94 108.808 525.037 108.775 525.162C108.709 525.413 108.595 525.778 108.405 526.219C108.025 527.102 107.34 528.29 106.124 529.484C103.702 531.861 99.1081 534.32 90.4243 534.32C81.7338 534.32 77.6871 531.859 75.7929 529.525C74.8397 528.351 74.407 527.181 74.2117 526.308C74.114 525.871 74.0759 525.51 74.062 525.261C74.0551 525.137 74.0542 525.041 74.0549 524.979C74.0552 524.947 74.056 524.924 74.0566 524.91L74.0573 524.896V524.896Z" fill="#2EFFD7" stroke="#2B2B2B"/>
<circle r="14.4589" transform="matrix(0.866025 0.5 -0.866025 0.5 91.4878 481.933)" fill="white" stroke="#2B2B2B"/>
<circle r="14.4589" transform="matrix(0.866025 0.5 -0.866025 0.5 133.449 555.64)" fill="#2B2B2B" stroke="#2B2B2B"/>
<circle r="14.4589" transform="matrix(0.866025 0.5 -0.866025 0.5 133.449 549.583)" fill="white" stroke="#2B2B2B"/>
<path d="M116.019 549.619L116.019 549.618L116.019 549.617L116.019 549.617L116.02 549.601V549.584V478.689H150.813V549.544C150.81 549.558 150.807 549.576 150.802 549.599C150.79 549.662 150.769 549.759 150.736 549.884C150.67 550.135 150.556 550.5 150.366 550.942C149.986 551.824 149.301 553.013 148.086 554.206C145.664 556.583 141.069 559.042 132.386 559.042C123.695 559.042 119.649 556.581 117.754 554.248C116.801 553.073 116.368 551.903 116.173 551.03C116.075 550.594 116.037 550.232 116.023 549.984C116.016 549.859 116.016 549.764 116.016 549.701C116.017 549.67 116.017 549.647 116.018 549.633L116.019 549.619V549.619Z" fill="#2EFFD7" stroke="#2B2B2B"/>
<circle r="14.4589" transform="matrix(0.866025 0.5 -0.866025 0.5 133.449 478.189)" fill="white" stroke="#2B2B2B"/>
<path d="M87.7181 195.582L16.2495 236.767L67.1255 267.05" stroke="#2B2B2B" stroke-dasharray="10 10"/>
<circle r="26.7781" transform="matrix(0.866025 0.5 -0.866025 0.5 96.9609 291.757)" fill="#2B2B2B" stroke="#2B2B2B"/>
<circle r="26.7781" transform="matrix(0.866025 0.5 -0.866025 0.5 96.9609 285.7)" fill="white" stroke="#2B2B2B"/>
<path d="M112.259 275.286C120.583 280.092 120.485 287.95 112.041 292.825C103.596 297.701 89.9862 297.758 81.662 292.952C73.3379 288.146 73.4358 280.288 81.8806 275.412C90.3254 270.537 103.935 270.48 112.259 275.286Z" stroke="#2B2B2B" stroke-width="2" stroke-linecap="round" stroke-linejoin="round"/>
<path d="M107.432 283.611L99.8994 284.738C98.5907 284.937 96.7564 284.655 95.8063 284.106L89.6235 280.537" stroke="#2B2B2B" stroke-width="2" stroke-linecap="round" stroke-linejoin="round"/>
<path d="M460.003 425.085L537.839 396.879L688.236 479.154L620.946 518.005L460.003 425.085Z" fill="#2B2B2B" stroke="#2B2B2B" stroke-width="2"/>
<rect x="-5.96046e-08" y="1" width="67.0637" height="77.7279" transform="matrix(0.866025 0.5 -0.866025 0.5 586.502 349.398)" fill="#2B2B2B" stroke="#2B2B2B" stroke-width="2"/>
<path d="M689.503 479.09C655.784 452.277 639.589 402.642 645.005 383.684L576.513 422.976C570.825 465.227 609.183 506.428 620.693 518.954L689.503 479.09Z" fill="white" stroke="#2B2B2B" stroke-width="2"/>
<path d="M517.035 388.762C501.61 415.867 476.219 423.04 458.699 425.007L620.694 518.954C580.512 476.17 574.672 443.797 576.323 423.04L517.035 388.762Z" fill="white" stroke="#2B2B2B" stroke-width="2"/>
</svg>
