<svg width="60" height="55" viewBox="0 0 60 55" fill="none" xmlns="http://www.w3.org/2000/svg">
<g clip-path="url(#clip0_5_1401)">
<path d="M46.7929 45.5747H46.5562V33.9401C46.5562 33.8931 46.5562 33.8696 46.6035 33.8461L50.3905 31.6837C50.4379 31.6837 50.4615 31.6837 50.5089 31.6837C50.5562 31.6837 50.5562 31.7542 50.5562 31.7777V43.2243H50.3195V31.9893L46.7692 34.0341V45.5982L46.7929 45.5747Z" fill="#285056" stroke="black" stroke-width="0.5"/>
<path d="M36.4734 51.7329L36.2367 51.3333L56.8994 39.4872C56.9704 39.4402 57.0651 39.4402 57.1361 39.4872L59.716 40.9679L59.4793 41.3675L57.0178 39.9572L36.4734 51.7329V51.7329Z" fill="#221E2A" stroke="black" stroke-width="0.5"/>
<path d="M38.9823 54.906C38.9349 54.906 38.9113 54.906 38.8639 54.8825C38.7929 54.8355 38.7456 54.765 38.7456 54.671V52.9787C38.7456 52.8847 38.7929 52.8141 38.8639 52.7671L59.4556 40.968C59.5266 40.921 59.6213 40.921 59.6923 40.968C59.7633 41.015 59.8107 41.0855 59.8107 41.1795V42.8718C59.8107 42.9659 59.7633 43.0364 59.6923 43.0834L39.1006 54.8825C39.0533 54.8825 39.0296 54.906 38.9823 54.906ZM39.2189 53.1197V54.2714L59.3373 42.7308V41.5791L39.2189 53.1197Z" fill="#221E2A" stroke="black" stroke-width="0.5"/>
<path d="M22.0354 44.677L21.798 45.0837L38.812 54.878L39.0494 54.4713L22.0354 44.677Z" fill="#221E2A" stroke="black" stroke-width="0.5"/>
<path d="M57.2071 20.8953H56.7337V39.6987H57.2071V20.8953Z" fill="#221E2A" stroke="black" stroke-width="0.5"/>
<path d="M36.6154 33.8462H36.142V51.2629H36.6154V33.8462Z" fill="#221E2A" stroke="black" stroke-width="0.5"/>
<path d="M22.1655 43.0376L21.9281 43.4443L38.8256 53.1714L39.063 52.7647L22.1655 43.0376Z" fill="#221E2A" stroke="black" stroke-width="0.5"/>
<path d="M15.5503 23.0342H15.0769V29.4508H15.5503V23.0342Z" fill="#221E2A" stroke="black" stroke-width="0.5"/>
<path d="M35.7633 34.5983C35.7633 34.5983 35.716 34.5983 35.6923 34.5983L34.5089 34.2927C34.4379 34.2927 34.3905 34.2222 34.3432 34.1517C34.3195 34.0812 34.3195 34.0107 34.3432 33.9401L46.2485 12.9978C46.2722 12.9508 46.3432 12.9038 46.3905 12.8803C46.4615 12.8803 46.5089 12.8803 46.5799 12.9038L58.9112 20.4722C58.9586 20.5192 59.0059 20.5662 59.0296 20.6367C59.0296 20.7072 59.0296 20.7777 58.9822 20.8248L58.2249 21.7179C58.1538 21.8119 58.0118 21.8354 57.9172 21.7649L46.9822 15.0427L35.9527 34.4572C35.9053 34.5277 35.8343 34.5748 35.7396 34.5748L35.7633 34.5983ZM34.9586 33.9166L35.645 34.1047L46.6982 14.6431C46.7219 14.5961 46.7929 14.5491 46.8402 14.5256C46.9112 14.5256 46.9586 14.5256 47.0296 14.5491L58.0118 21.2713L58.4615 20.7307L46.5799 13.4444L34.9586 33.9166V33.9166Z" fill="#221E2A" stroke="black" stroke-width="0.5"/>
<path d="M34.4852 34.2692L12.1657 21.3889C12.0473 21.3184 12.0237 21.1774 12.071 21.0598L23.9763 0.117521C24 0.0705128 24.071 0.0235043 24.1184 0C24.1894 0 24.2367 0 24.3077 0.0235043L46.6272 12.9038L46.3905 13.3034L24.2604 0.564103L12.5917 21.0833L34.6982 33.8462L34.4615 34.2457L34.4852 34.2692Z" fill="#221E2A" stroke="black" stroke-width="0.5"/>
<path d="M45.7278 30.2265H45.6805C45.6331 30.2265 45.6331 30.156 45.6331 30.1325V25.0085C45.6331 24.9615 45.6331 24.938 45.6805 24.9145L50.1775 22.329C50.2249 22.329 50.2485 22.329 50.2959 22.329C50.3432 22.329 50.3432 22.3996 50.3432 22.4231V27.547C50.3432 27.594 50.3432 27.6175 50.2959 27.641L45.7988 30.2265H45.7515H45.7278ZM45.8462 25.032V29.8974L50.1065 27.453V22.5876L45.8462 25.032Z" fill="#58C0ED" stroke="black" stroke-width="0.5"/>
<path d="M32.4497 44.7992H32.4024L28.142 42.3547C28.0947 42.3547 28.0947 42.2842 28.0947 42.2607V33.5641C28.0947 33.5171 28.0947 33.4936 28.142 33.4701C28.1893 33.4701 28.213 33.4701 28.2603 33.4701L32.5207 35.9145C32.568 35.9145 32.568 35.9851 32.568 36.0086V44.7051C32.568 44.7521 32.568 44.7756 32.5207 44.7992H32.4734H32.4497ZM28.3077 42.1667L32.3314 44.4701V36.0321L28.3077 33.7286V42.1667Z" fill="#58C0ED" stroke="black" stroke-width="0.5"/>
<path d="M45.8461 46.2799H45.3728V33.1176C45.3728 33.0235 45.4201 32.953 45.4911 32.906L51.4083 29.5214C51.4793 29.4744 51.574 29.4744 51.645 29.5214C51.716 29.5684 51.7633 29.6389 51.7633 29.7329V43.0129H51.2899V30.156L45.8461 33.2821V46.327V46.2799Z" fill="#221E2A" stroke="black" stroke-width="0.5"/>
<path d="M36.2603 21.2713C36.2603 21.2713 36.213 21.2713 36.1893 21.2713L33.5858 19.6025C33.5621 19.6025 33.5385 19.532 33.5385 19.5085V13.6089H33.7751V19.438L36.142 20.9423V13.844H36.3787V21.1773C36.3787 21.2243 36.355 21.2713 36.3077 21.2713H36.2603V21.2713Z" fill="#58C0ED" stroke="#58C0ED" stroke-width="0.5"/>
<path d="M36.355 21.2243L36.1657 21.0833L38.9822 16.8996V13.5854H39.2189V16.9231C39.2189 16.9231 39.2189 16.9701 39.2189 16.9936L36.3787 21.2008L36.355 21.2243Z" fill="#58C0ED" stroke="#58C0ED" stroke-width="0.5"/>
<path d="M36.1894 15.0427L33.1124 13.2799C33.0651 13.2799 33.0651 13.2094 33.0651 13.1859V11.9872H33.3018V13.1154L36.3314 14.8547L36.213 15.0662L36.1894 15.0427Z" fill="#58C0ED" stroke="#58C0ED" stroke-width="0.5"/>
<path d="M36.5681 15.0427L36.4497 14.8312L39.4793 13.0919V11.9637H39.716V13.1624C39.716 13.2094 39.716 13.2329 39.6686 13.2564L36.5917 15.0192L36.5681 15.0427Z" fill="#58C0ED" stroke="#58C0ED" stroke-width="0.5"/>
<path d="M36.355 13.8675H36.3077L33.1598 12.0577C33.1124 12.0577 33.1124 11.9872 33.1124 11.9637C33.1124 11.9402 33.1124 11.8931 33.1598 11.8696L36.3077 10.0598C36.355 10.0598 36.3787 10.0598 36.426 10.0598L39.574 11.8696C39.6213 11.8696 39.6213 11.9402 39.6213 11.9637C39.6213 11.9872 39.6213 12.0342 39.574 12.0577L36.426 13.8675H36.3787H36.355ZM33.4438 11.9402L36.355 13.609L39.2663 11.9402L36.355 10.2714L33.4438 11.9402Z" fill="#58C0ED" stroke="#58C0ED" stroke-width="0.5"/>
<path d="M36.355 13.0684H36.3077L34.5089 12.0342C34.4616 12.0342 34.4615 11.9637 34.4615 11.9402C34.4615 11.9167 34.4616 11.8696 34.5089 11.8461L36.3077 10.812C36.355 10.812 36.3787 10.812 36.426 10.812L38.2249 11.8461C38.2722 11.8461 38.2722 11.9167 38.2722 11.9402C38.2722 11.9637 38.2722 12.0107 38.2249 12.0342L36.426 13.0684H36.3787H36.355ZM34.7929 11.9167L36.355 12.8098L37.9172 11.9167L36.355 11.0235L34.7929 11.9167Z" fill="#58C0ED" stroke="#58C0ED" stroke-width="0.5"/>
<path d="M11.2321 50.8185L10.9218 50.2631L21.3471 44.2779V33.9735H21.9677V44.463C21.9677 44.5864 21.9677 44.6482 21.8436 44.7099L11.2941 50.7568L11.2321 50.8185Z" fill="#58C0ED" stroke="#58C0ED" stroke-width="0.5"/>
<path d="M11.108 50.8185H10.9838L0.434397 44.7716C0.310286 44.7716 0.310287 44.5865 0.310287 44.5247V34.0352H0.930843V44.3396L10.8597 50.0163V40.0204H11.4803V50.5099C11.4803 50.6334 11.4803 50.6951 11.3562 50.7568H11.2321L11.108 50.8185Z" fill="#58C0ED" stroke="#58C0ED" stroke-width="0.5"/>
<path d="M11.0459 40.2672H10.9218L0.124109 34.0352C-1.89564e-06 34.0352 0 33.8501 0 33.7884C0 33.7267 -1.89564e-06 33.6033 0.124109 33.5416L10.9218 27.3096C11.0459 27.3096 11.1079 27.3096 11.2321 27.3096L22.0297 33.5416C22.1538 33.5416 22.1538 33.7267 22.1538 33.7884C22.1538 33.8501 22.1538 33.9735 22.0297 34.0352L11.2321 40.2672H11.1079H11.0459ZM0.868775 33.7267L11.0459 39.5885L21.223 33.7267L11.0459 27.8649L0.868775 33.7267Z" fill="#58C0ED" stroke="#58C0ED" stroke-width="0.5"/>
</g>
<defs>
<clipPath id="clip0_5_1401">
<rect width="60" height="55" fill="white"/>
</clipPath>
</defs>
</svg>
