<svg width="56" height="60" viewBox="0 0 56 60" fill="none" xmlns="http://www.w3.org/2000/svg">
<g clip-path="url(#clip0_5_1354)">
<path d="M43.8144 9.45874L16.2113 25.3866L11.8814 22.8866L39.4588 6.95874L43.8144 9.45874Z" fill="#58C0ED"/>
<path d="M16.2371 25.3866L11.8557 22.8608V33.7371V33.8402L12.3711 34.5103L12.8866 34.433L13.4021 35.1031L13.9175 35.0258L14.433 35.6959L14.9485 35.6443L15.4639 36.2887L16.2371 36.2371V25.3866Z" fill="#58C0ED"/>
<path d="M27.8351 60C27.7835 60 27.7577 60 27.7062 59.9743C27.6289 59.9227 27.5773 59.8454 27.5773 59.7423V33.0928H28.0928V59.2784L55.1546 43.6598V16.6237L39.3299 25.7475L39.0722 25.3093L55.2835 15.9536C55.3608 15.9021 55.4639 15.9021 55.5412 15.9536C55.6186 16.0052 55.6701 16.0825 55.6701 16.1856V43.8145C55.6701 43.9176 55.6186 43.9949 55.5412 44.0464L27.9639 59.9743C27.9124 59.9743 27.8866 60 27.8351 60V60Z" fill="#285056" stroke="#221E2A" stroke-width="0.5"/>
<path d="M27.7062 59.9485L0.128866 44.0206C0.0515464 43.9691 0 43.8918 0 43.7887V16.1856C0 16.0825 0.0515464 16.0052 0.128866 15.9536C0.206186 15.9021 0.309278 15.9021 0.386598 15.9536L27.835 31.8042L33.7887 28.3763L34.0464 28.8145L27.9639 32.3196C27.8866 32.3712 27.7835 32.3712 27.7062 32.3196L0.515464 16.6237V43.6598L27.9639 59.5103L27.7062 59.9485Z" fill="#285056" stroke="#221E2A" stroke-width="0.5"/>
<path d="M55.2835 16.3918L27.835 0.567018L0.386592 16.3918L0.12886 15.9536L27.7062 0.0257814C27.7835 -0.025765 27.8866 -0.025765 27.9639 0.0257814L55.5412 15.9536L55.2835 16.3918Z" fill="#285056" stroke="#221E2A" stroke-width="0.5"/>
<path d="M38.9948 40.3351C38.9433 40.3351 38.8917 40.3351 38.8402 40.2835C38.7113 40.2062 38.6598 40.0773 38.6598 39.8969V31.0052C38.6598 30.6959 38.8402 30.3609 39.0722 30.232L51.5206 23.0413C51.6495 22.9639 51.7783 22.9639 51.8814 23.0413C52.0103 23.1186 52.0619 23.2475 52.0619 23.4279V32.3196C52.0619 32.6289 51.8814 32.9639 51.6495 33.0928L39.201 40.2835C39.1237 40.3351 39.0722 40.3351 38.9948 40.3351ZM51.7268 23.2475C51.701 23.2475 51.6753 23.2475 51.6495 23.2475L39.201 30.4382C39.0464 30.5155 38.9175 30.7732 38.9175 31.0052V39.8969C38.9175 40 38.9433 40.0516 38.9691 40.0773C38.9948 40.0773 39.0464 40.0773 39.0722 40.0773L51.5206 32.8866C51.6753 32.8093 51.8041 32.5516 51.8041 32.3196V23.4279C51.8041 23.3248 51.7783 23.2732 51.7526 23.2475H51.7268Z" fill="#58C0ED" stroke="#58C0ED" stroke-width="0.5"/>
<path d="M49.7582 27.0953L40.8658 32.2087L41.1227 32.6555L50.0151 27.5422L49.7582 27.0953Z" fill="#285056" stroke="#221E2A" stroke-width="0.5"/>
<path d="M41.3144 34.7681L41.0567 34.3299L41.7268 33.9433L41.9845 34.3815L41.3144 34.7681ZM42.6546 33.9949L42.3969 33.5567L43.067 33.1701L43.3247 33.6083L42.6546 33.9949ZM43.9948 33.2217L43.7371 32.7835L44.4072 32.3969L44.6649 32.8351L43.9948 33.2217ZM45.335 32.4485L45.0773 32.0103L45.7474 31.6237L46.0052 32.0619L45.335 32.4485ZM46.6753 31.6753L46.4175 31.2371L47.0876 30.8505L47.3454 31.2887L46.6753 31.6753ZM48.0155 30.9021L47.7577 30.4639L48.4278 30.0773L48.6856 30.5155L48.0155 30.9021ZM49.3557 30.1289L49.0979 29.6907L49.768 29.3041L50.0258 29.7423L49.3557 30.1289Z" fill="#285056" stroke="#221E2A" stroke-width="0.5"/>
<path d="M48.0747 32.5296L46.4899 33.4445L46.7477 33.8909L48.3324 32.976L48.0747 32.5296Z" fill="#285056" stroke="#221E2A" stroke-width="0.5"/>
<path d="M45.5784 34.0074L40.8641 36.7182L41.121 37.1651L45.8353 34.4542L45.5784 34.0074Z" fill="#285056" stroke="#221E2A" stroke-width="0.5"/>
<path d="M24.098 55.0516H24.0464L15.799 50.2835C15.7474 50.2835 15.7474 50.2062 15.7474 50.1804V48.4279C15.7474 48.3763 15.7474 48.3505 15.799 48.3248C15.8505 48.3248 15.8763 48.3248 15.9278 48.3248L24.1753 53.0928C24.2268 53.0928 24.2268 53.1701 24.2268 53.1959V54.9485C24.2268 55 24.2268 55.0258 24.1753 55.0516H24.1237H24.098ZM15.9794 50.0773L23.9691 54.6907V53.2217L15.9794 48.6083V50.0773Z" fill="#58C0ED" stroke="#58C0ED" stroke-width="0.5"/>
<path d="M18.4278 48.5052H18.3763L16.8299 47.6031C16.7783 47.6031 16.7783 47.5258 16.7783 47.5V43.0928L15.6959 42.4742C15.6443 42.4742 15.6443 42.3969 15.6443 42.3712C15.6443 42.3454 15.6443 42.2938 15.7216 42.2681L17.6289 41.1856C17.6804 41.1598 17.7577 41.1856 17.8093 41.2371L19.7165 44.5361C19.7423 44.5876 19.7165 44.6392 19.7165 44.6907C19.6649 44.7423 19.6134 44.7423 19.5618 44.6907L18.6082 44.1495V48.4021C18.6082 48.4536 18.6082 48.4794 18.5567 48.5052H18.5051H18.4278ZM17.0103 47.3969L18.299 48.1443V43.8918C18.299 43.8402 18.299 43.8145 18.3505 43.7887C18.402 43.7887 18.4278 43.7887 18.4794 43.7887L19.201 44.2011L17.6031 41.4433L16.0051 42.3712L16.933 42.9124C16.9845 42.9124 16.9845 42.9897 16.9845 43.0155V47.4227L17.0103 47.3969Z" fill="#285056" stroke="#221E2A" stroke-width="0.5"/>
<path d="M23.067 51.134H23.0155L21.4691 50.232C21.4175 50.232 21.4175 50.1546 21.4175 50.1289V45.7216L20.3351 45.1031C20.2835 45.1031 20.2835 45.0258 20.2835 45C20.2835 44.9742 20.2835 44.9227 20.3608 44.8969L22.268 43.8144C22.3196 43.7887 22.3969 43.8144 22.4485 43.866L24.3557 47.1649C24.3814 47.2165 24.3557 47.268 24.3557 47.3196C24.3041 47.3711 24.2526 47.3711 24.201 47.3196L23.2474 46.7783V51.0309C23.2474 51.0825 23.2474 51.1082 23.1959 51.134H23.1443H23.067ZM21.6495 50.0258L22.9381 50.7732V46.5206C22.9381 46.4691 22.9381 46.4433 22.9897 46.4175C23.0412 46.4175 23.067 46.4175 23.1186 46.4175L23.8402 46.8299L22.2423 44.0722L20.6443 45L21.5722 45.5412C21.6237 45.5412 21.6237 45.6186 21.6237 45.6443V50.0515L21.6495 50.0258Z" fill="#285056" stroke="#221E2A" stroke-width="0.5"/>
<path d="M34.768 49.8454C34.5876 49.8454 34.433 49.7938 34.3041 49.7165C33.9175 49.4846 33.7371 49.0206 33.7629 48.3763C33.8402 47.165 34.6907 45.6959 35.6701 45.0258C36.2113 44.665 36.701 44.5877 37.0876 44.8196C37.4742 45.0516 37.6546 45.5155 37.6289 46.1598C37.5515 47.3712 36.701 48.8402 35.7216 49.5103C35.3866 49.7423 35.0773 49.8454 34.768 49.8454ZM36.6237 45.2062C36.4433 45.2062 36.2113 45.2835 35.9794 45.4639C35.1289 46.0567 34.3557 47.3712 34.3041 48.4279C34.2783 48.866 34.3814 49.1753 34.5876 49.2784C34.7938 49.3815 35.1031 49.3299 35.4639 49.0722C36.3144 48.4794 37.0876 47.165 37.1392 46.1083C37.1649 45.6701 37.0619 45.3609 36.8557 45.2578C36.8041 45.232 36.7268 45.2062 36.6495 45.2062H36.6237Z" fill="#221E2A"/>
<path d="M38.2474 48.1185L38.0155 48.0154C38.4278 47.1649 38.6598 46.3144 38.6598 45.567C38.6598 44.8196 38.3248 43.9175 37.732 43.5825C37.1392 43.2474 36.3402 43.299 35.5155 43.7886C35.1547 43.9948 34.8196 44.2783 34.4845 44.6134L34.3041 44.433C34.665 44.0721 35.0258 43.7886 35.3866 43.5825C36.2887 43.067 37.165 42.9897 37.8608 43.3763C38.5309 43.7629 38.9175 44.5618 38.9175 45.5928C38.9175 46.6237 38.6856 47.2938 38.2474 48.1701V48.1185Z" fill="#285056" stroke="#221E2A" stroke-width="0.5"/>
<path d="M34.3814 51.2629C34.0206 51.2629 33.7113 51.1856 33.4021 51.0052C32.732 50.6186 32.3454 49.8196 32.3454 48.7887C32.3454 47.7578 32.5773 47.0877 33.0155 46.2114L33.2474 46.3145C32.8351 47.165 32.6031 48.0155 32.6031 48.7629C32.6031 49.5103 32.9382 50.4124 33.5309 50.7474C34.1237 51.0825 34.9227 51.031 35.7474 50.5413C36.1083 50.3351 36.4433 50.0516 36.7784 49.7165L36.9588 49.8969C36.5979 50.2578 36.2371 50.5413 35.8763 50.7474C35.3608 51.0567 34.8454 51.1856 34.3814 51.1856V51.2629Z" fill="#285056" stroke="#221E2A" stroke-width="0.5"/>
</g>
<defs>
<clipPath id="clip0_5_1354">
<rect width="55.6701" height="60" fill="white"/>
</clipPath>
</defs>
</svg>
