<svg width="64" height="63" viewBox="0 0 64 63" fill="none" xmlns="http://www.w3.org/2000/svg">
<path d="M33.536 61.614C33.792 61.74 33.92 61.74 34.176 61.614C75.52 38.178 55.04 49.77 60.928 46.494C61.184 46.368 61.184 46.116 61.312 45.99C61.312 45.864 61.44 22.932 61.44 23.058C61.44 22.806 61.312 22.68 61.184 22.554C42.752 11.97 50.048 16.128 30.464 5.04003C30.464 5.04003 30.336 5.04003 30.336 4.91403L16.896 1.26003C16.768 1.26003 16.384 1.13403 16.256 1.51203L13.696 5.16603C13.44 5.41803 13.568 5.79603 13.824 6.04803C14.08 6.30003 14.464 6.17403 14.72 5.92203L17.024 2.77203L46.592 19.656C41.984 26.208 35.456 35.28 33.92 37.422L4.224 20.412L11.648 9.82803C11.904 9.57603 11.776 9.19803 11.52 8.94603C11.264 8.82003 10.88 8.94603 10.752 9.19803L2.816 20.286C2.816 20.412 2.688 20.538 2.688 20.664L2.56 43.596C2.56 43.848 2.688 43.974 2.816 44.1L33.536 61.614ZM3.968 21.798L31.872 37.674L33.408 38.556C33.408 40.824 33.28 57.834 33.28 59.976L3.84 43.218L3.968 21.798ZM47.616 20.16L59.136 23.184L36.224 36.288C39.68 31.374 44.288 24.822 47.616 20.16ZM51.968 40.194V49.266L43.904 44.73L51.968 40.194ZM51.328 50.4L43.52 54.936V45.99L51.328 50.4ZM53.248 49.392V39.564L54.528 38.808C54.784 38.682 54.912 38.304 54.784 37.926C54.656 37.674 54.272 37.548 53.888 37.674C52.096 38.682 54.784 37.17 40.832 45.108C40.576 45.234 40.448 45.612 40.576 45.99C40.704 46.242 41.088 46.368 41.472 46.242L42.112 45.864V55.692L34.432 60.102C34.432 58.338 34.56 40.824 34.56 38.682L60.16 24.066L60.032 45.486L53.248 49.392ZM56.192 21.168L47.616 18.9C44.928 17.388 23.68 5.16603 21.248 3.78003L29.952 6.04803L56.192 21.168Z" fill="black"/>
<path d="M11.904 8.56806C12.288 8.69406 12.672 8.69406 12.8 8.31606L13.568 7.30806C13.824 7.05606 13.696 6.67806 13.44 6.42606C13.184 6.17406 12.8 6.30006 12.544 6.55206L11.776 7.68606C11.648 7.93806 11.648 8.31606 11.904 8.56806Z" fill="black" stroke="white" stroke-width="0.9"/>
<path d="M7.296 27.468C7.04 27.342 6.912 27.342 6.656 27.468C6.4 27.594 6.272 27.846 6.272 27.972V31.878C6.272 32.13 6.4 32.256 6.656 32.382L12.288 35.658C12.544 35.784 12.672 35.784 12.928 35.658C13.184 35.532 13.312 35.28 13.312 35.154V31.248C13.312 30.996 13.184 30.87 12.928 30.744L7.296 27.468ZM12.032 34.146L7.68 31.626V29.106L12.032 31.626V34.146Z" fill="#58C0ED"/>
<path d="M16.128 32.508C15.872 32.382 15.744 32.382 15.488 32.508C15.232 32.634 15.104 32.886 15.104 33.012V36.918C15.104 37.17 15.232 37.296 15.488 37.422L21.12 40.698C21.248 40.698 21.376 40.824 21.504 40.824C21.888 40.824 22.144 40.572 22.144 40.194V36.288C22.144 36.036 22.016 35.91 21.76 35.784L16.128 32.508ZM20.864 39.186L16.512 36.666V34.146L20.864 36.666V39.186Z" fill="#58C0ED"/>
<path d="M29.952 45.7381C30.08 45.7381 30.208 45.8641 30.336 45.8641C30.72 45.8641 30.976 45.6121 30.976 45.2341V41.3281C30.976 41.0761 30.848 40.9501 30.592 40.8241L24.832 37.5481C24.576 37.4221 24.448 37.4221 24.192 37.5481C23.936 37.6741 23.808 37.9261 23.808 38.0521V41.9581C23.808 42.2101 23.936 42.3361 24.192 42.4621L29.952 45.7381ZM25.216 39.1861L29.696 41.7061V44.2261L25.216 41.7061V39.1861Z" fill="#58C0ED"/>
<path d="M7.296 36.036C7.04 35.91 6.912 35.91 6.656 36.036C6.4 36.162 6.272 36.288 6.272 36.54V40.446C6.272 40.698 6.4 40.824 6.656 40.95L12.288 44.226C12.416 44.226 12.544 44.352 12.672 44.352C13.056 44.352 13.312 44.1 13.312 43.722V39.816C13.312 39.564 13.184 39.438 12.928 39.312L7.296 36.036ZM12.032 42.588L7.68 40.068V37.548L12.032 40.068V42.588Z" fill="#58C0ED"/>
<path d="M16.128 40.95C15.872 40.824 15.744 40.824 15.488 40.95C15.232 41.076 15.104 41.328 15.104 41.454V45.36C15.104 45.612 15.232 45.738 15.488 45.864L21.12 49.14C21.248 49.14 21.376 49.266 21.504 49.266C21.888 49.266 22.144 49.014 22.144 48.636V44.73C22.144 44.478 22.016 44.352 21.76 44.226L16.128 40.95ZM20.864 47.628L16.512 45.108V42.588L20.864 45.108V47.628Z" fill="#58C0ED"/>
<path d="M24.96 45.99C24.704 45.864 24.576 45.864 24.32 45.99C24.064 46.116 23.936 46.368 23.936 46.494V50.4C23.936 50.652 24.064 50.778 24.32 50.904L30.08 54.18C30.336 54.306 30.464 54.306 30.72 54.18C30.976 54.054 31.104 53.802 31.104 53.676V49.77C31.104 49.518 30.976 49.392 30.72 49.266L24.96 45.99ZM29.696 52.668L25.216 50.148V47.628L29.696 50.148V52.668Z" fill="#58C0ED"/>
</svg>
