<svg width="65" height="60" viewBox="0 0 65 60" fill="none" xmlns="http://www.w3.org/2000/svg">
<g clip-path="url(#clip0_5_1371)">
<path d="M25.4704 39.1831L0.137678 24.5067C0.0550711 24.4516 0 24.369 0 24.2588C0 24.1487 0.0550711 24.0661 0.137678 24.011L2.0101 22.9371L2.28545 23.4052L0.826067 24.2313L25.7458 38.6599L25.4704 39.128V39.1831Z" fill="#221E2A" stroke="#221E2A" stroke-width="0.5"/>
<path d="M43.0932 13.6577H42.8178V17.1271H43.0932V13.6577Z" fill="#58C0ED"/>
<path d="M25.6081 37.8063C25.6081 37.8063 25.553 37.8063 25.5255 37.8063L2.3956 24.3965C2.34053 24.3965 2.34053 24.3139 2.34053 24.2863V10.1055H2.61589V24.1762L25.4704 37.4208V23.4878H25.7458V37.6411C25.7458 37.6962 25.7458 37.7237 25.6907 37.7512H25.6356L25.6081 37.8063Z" fill="#58C0ED" stroke="#3D93B9"/>
<path d="M25.7733 23.6531C25.7733 23.6531 25.7182 23.6531 25.6907 23.6531L2.45067 10.1606C2.3956 10.1606 2.3956 10.078 2.3956 10.0505C2.3956 10.0229 2.3956 9.96787 2.45067 9.94034L19.5778 0C19.6329 0 19.6604 0 19.7155 0L42.983 13.4649C43.0381 13.4649 43.0381 13.5475 43.0381 13.575C43.0381 13.6026 43.0381 13.6576 42.983 13.6852L25.8559 23.598H25.8008L25.7733 23.6531ZM2.7811 10.0505L25.7733 23.3777L42.6251 13.6301L19.6329 0.302891L2.7811 10.0505Z" fill="#58C0ED" stroke="#3D93B9"/>
<path d="M17.6974 42.5154L13.5958 44.8834L13.8712 45.3604L17.9727 42.9923L17.6974 42.5154Z" fill="#221E2A" stroke="#221E2A" stroke-width="0.5"/>
<path d="M42.6442 56.5999L38.1372 59.202L38.4126 59.679L42.9196 57.0768L42.6442 56.5999Z" fill="#221E2A" stroke="#221E2A" stroke-width="0.5"/>
<path d="M44.4424 57.2465C44.3873 57.2465 44.3598 57.2465 44.3047 57.2189L39.7889 54.6031L40.0642 54.1349L44.4699 56.6682L46.1221 56.0624L46.3148 56.5856L44.525 57.2465C44.4975 57.2465 44.4699 57.2465 44.4424 57.2465V57.2465Z" fill="#221E2A" stroke="#221E2A" stroke-width="0.5"/>
<path d="M30.4268 49.1785L16.1083 40.8903C16.0532 40.8628 15.9982 40.7801 15.9706 40.7251C15.1996 37.5585 12.9968 34.4745 10.5186 33.0427C9.25195 32.3267 8.06792 32.1064 7.10418 32.4369C6.30565 32.7122 5.67233 33.3455 5.28683 34.2818C5.2593 34.3644 5.20422 34.4194 5.12162 34.447C5.03901 34.447 4.9564 34.447 4.90133 34.447L0.275358 31.6934C0.192751 31.6383 0.13768 31.5557 0.13768 31.4456V24.3965H0.688391V31.2804L4.9564 33.7586C5.42451 32.8224 6.1129 32.1891 6.9665 31.8862C8.09546 31.5007 9.41717 31.7485 10.8215 32.547C13.3823 34.0339 15.6677 37.2005 16.4938 40.4773L30.7022 48.7104L30.4268 49.1785Z" fill="#221E2A" stroke="#221E2A" stroke-width="0.5"/>
<path d="M12.5838 45.7091C11.9229 45.7091 11.1794 45.4888 10.4084 45.0482C7.8201 43.5613 5.7274 39.9266 5.7274 36.9527C5.7274 33.9789 6.25058 34.3369 7.18679 33.7862C8.123 33.2354 9.38963 33.3456 10.6838 34.089C13.2721 35.576 15.3649 39.2107 15.3649 42.1845C15.3649 45.1583 14.8417 44.8004 13.9055 45.3511C13.52 45.5714 13.0519 45.6815 12.5838 45.6815V45.7091ZM10.6838 44.5801C11.8128 45.2409 12.8591 45.3511 13.6301 44.883C14.4011 44.4424 14.8141 43.4787 14.8141 42.212C14.8141 39.4309 12.8316 36.0165 10.4084 34.6122C9.27949 33.9514 8.23314 33.8412 7.46214 34.3093C6.69115 34.7499 6.27811 35.7136 6.27811 36.9803C6.27811 39.7614 8.26067 43.1758 10.6838 44.5801V44.5801Z" fill="#221E2A" stroke="#221E2A" stroke-width="0.5"/>
<path d="M11.7026 43.0381C11.3171 43.0381 10.9041 42.9004 10.4635 42.6526C9.00414 41.799 7.79257 39.7338 7.79257 38.0542C7.79257 36.3745 8.09546 36.5672 8.61864 36.2643C9.14181 35.9615 9.85774 36.0165 10.6012 36.4571C12.0606 37.3107 13.2722 39.3759 13.2722 41.0555C13.2722 42.7352 12.9693 42.5425 12.4461 42.8453C12.2258 42.983 11.978 43.0381 11.7026 43.0381V43.0381ZM9.38963 36.3745C9.16935 36.3745 8.94907 36.4296 8.78385 36.5397C8.34328 36.7875 8.09546 37.3382 8.09546 38.0817C8.09546 39.6788 9.22442 41.6338 10.6287 42.4323C11.2896 42.8178 11.8678 42.8729 12.3359 42.6251C12.7765 42.3772 13.0243 41.8265 13.0243 41.0831C13.0243 39.486 11.8954 37.531 10.4911 36.7324C10.1056 36.5122 9.72006 36.402 9.38963 36.402V36.3745Z" fill="#285056" stroke="#221E2A" stroke-width="0.5"/>
<path d="M11.0142 41.0555C10.849 41.0555 10.6563 41.0005 10.4635 40.8903C9.85774 40.5324 9.33456 39.6788 9.33456 38.9628C9.33456 38.2469 9.47224 38.302 9.72006 38.1643C9.96788 38.0266 10.2708 38.0542 10.6012 38.2469C11.207 38.6049 11.7302 39.4585 11.7302 40.1744C11.7302 40.8903 11.5925 40.8352 11.3447 40.9729C11.2345 41.028 11.1244 41.0555 11.0142 41.0555V41.0555ZM10.078 38.357C9.99542 38.357 9.94035 38.357 9.88528 38.4121C9.72006 38.4947 9.63746 38.6875 9.63746 38.9628C9.63746 39.5686 10.078 40.3396 10.6287 40.6425C10.8766 40.7802 11.0693 40.8077 11.2345 40.7251C11.3997 40.6425 11.4823 40.4497 11.4823 40.1744C11.4823 39.5686 11.0418 38.7976 10.4911 38.4947C10.3534 38.4121 10.2157 38.357 10.1056 38.357H10.078Z" fill="#285056" stroke="#221E2A" stroke-width="0.5"/>
<path d="M59.8899 32.6021H59.6145V30.6471C59.6145 30.6471 59.6145 30.592 59.6145 30.5645C59.6421 30.5094 59.6696 30.4543 59.6696 30.3717C59.6696 30.3167 59.6145 30.2891 59.587 30.2616C59.4768 30.2065 59.3116 30.2341 59.1189 30.3442L58.9812 30.0964C59.2566 29.9312 59.5319 29.9036 59.7247 30.0138C59.8348 30.0688 59.9174 30.179 59.9449 30.2891C59.9449 30.3717 59.9725 30.4819 59.8899 30.6471V32.547V32.6021Z" fill="#285056"/>
<path fill-rule="evenodd" clip-rule="evenodd" d="M60.6058 30.3993C60.6058 30.3993 60.2203 30.6196 60.1101 30.7022C60 30.7572 59.8623 30.8674 59.8899 31.0326V33.0151C59.9725 33.0978 60.0551 33.1804 60.1101 33.2905C60.2203 33.5383 60.3304 33.7586 60.413 33.9789C60.4956 33.9238 60.5507 33.8963 60.6058 33.8412C60.7435 33.7311 60.8536 33.676 60.9913 33.5108V30.5645C60.8536 30.4268 60.7435 30.3442 60.6058 30.3717V30.3993Z" fill="#58C0ED"/>
<path d="M63.4695 44.525H62.9188V41.441C62.9188 38.1643 54.4103 22.3038 51.464 21.1473C51.464 21.1473 51.464 21.1473 51.4364 21.1473L45.1859 17.5952C44.9105 17.43 44.6352 17.4025 44.4699 17.5126C44.2497 17.6778 29.1051 26.324 27.3704 27.3153L27.095 26.8472C32.8775 23.5429 43.8642 17.2373 44.1395 17.072C44.4975 16.8242 44.9656 16.8518 45.4337 17.1271L51.6567 20.6792C54.8233 22.0009 63.4144 37.9991 63.4144 41.4961V44.5801L63.4695 44.525Z" fill="#221E2A" stroke="#221E2A" stroke-width="0.5"/>
<path d="M46.3974 54.3277H45.8467V51.2437C45.8467 47.8568 37.5034 32.6572 34.8325 31.1703L28.0587 27.3153C27.7834 27.1501 27.5356 27.1225 27.3703 27.2327C27.2051 27.3428 27.095 27.5631 27.095 27.866V44.3598H26.5443V27.866C26.5443 27.3428 26.737 26.9573 27.095 26.737C27.453 26.5443 27.8935 26.5718 28.3341 26.8196L35.0803 30.6746C37.9165 32.2441 46.3699 47.6365 46.3699 51.2437V54.3277H46.3974Z" fill="#221E2A" stroke="#221E2A" stroke-width="0.5"/>
<path d="M38.4956 43C38.4223 43 38.3489 42.9791 38.3123 42.9374L29.0917 36.9253C29.0367 36.8836 29 36.821 29 36.7583V30.1409C29 30.0992 29.0183 30.0574 29.055 30.0157C29.0917 29.9948 29.1283 29.9948 29.165 30.0157C29.3666 30.1409 34.1877 33.2513 34.2611 33.3139C35.3793 33.9402 38.8072 41.5596 38.9722 42.2276C39.0455 42.499 38.9722 42.7495 38.7706 42.8956C38.6789 42.9582 38.5689 43 38.4773 43H38.4956ZM29.1833 36.7583L38.3856 42.7495C38.4406 42.7912 38.5506 42.7912 38.6606 42.7077C38.7339 42.6451 38.8439 42.5199 38.7889 42.2694C38.6056 41.5596 35.196 34.0863 34.1694 33.4809C34.0778 33.4183 30.9248 31.3725 29.165 30.2453V36.7375L29.1833 36.7583Z" fill="#285056" stroke="#221E2A"/>
<path d="M46.7279 54.8508H46.6728L45.9844 54.4653C45.9293 54.4653 45.9018 54.3827 45.9293 54.3552C45.9293 54.3001 45.9293 54.2726 46.0119 54.245L63.1115 44.6351C63.1666 44.6351 63.1941 44.6351 63.2492 44.6351L63.9376 45.0206C63.9927 45.0206 63.9927 45.1032 63.9927 45.1308C63.9927 45.1858 63.9927 45.2134 63.91 45.2409L46.838 54.8508H46.7829H46.7279ZM46.3148 54.3277L46.7279 54.5755L63.5245 45.1032L63.1391 44.883L46.3424 54.3552L46.3148 54.3277Z" fill="#285056" stroke="#221E2A" stroke-width="0.5"/>
<path d="M46.7279 56.8885C46.6453 56.8885 46.5351 56.8885 46.4525 56.8059L43.8091 55.2914C43.5888 55.1537 43.3685 55.0436 43.3685 54.5204V53.3364C43.3685 53.1712 43.4236 53.0335 43.5613 52.9784C43.6714 52.9233 43.8091 52.9233 43.9743 52.9784L46.5902 54.4929C46.6453 54.5204 46.7279 54.5204 46.7829 54.4929L63.7724 44.938C63.8275 44.9105 63.8825 44.938 63.9376 44.938C63.9376 44.938 64.0753 45.0757 64.0753 45.3235V46.5626C64.0753 46.7003 64.0753 46.9206 63.9101 47.0307C63.8275 47.0858 47.7467 56.3928 47.0583 56.8059C47.0032 56.8334 46.8931 56.8885 46.7829 56.8885H46.7279ZM43.699 53.1987C43.699 53.1987 43.699 53.1987 43.6714 53.1987C43.6714 53.1987 43.6163 53.2538 43.6163 53.3088V54.4929C43.6163 54.8508 43.7265 54.9059 43.8917 55.016L46.5627 56.558C46.6728 56.6406 46.8105 56.5856 46.838 56.558C47.0032 56.4479 63.6072 46.838 63.6898 46.7829C63.7173 46.7829 63.7173 46.6452 63.7173 46.5626V45.296C63.7173 45.2684 63.7173 45.2409 63.7173 45.2134L46.8655 54.7131C46.7279 54.7958 46.5351 54.7958 46.3974 54.7131L43.7816 53.1987C43.754 53.1987 43.699 53.1712 43.6714 53.1712L43.699 53.1987Z" fill="#285056" stroke="#221E2A" stroke-width="0.5"/>
<path d="M40.0642 45.4062H39.7889V41.8816C39.7889 41.4686 40.0642 41.028 40.3947 40.8353L40.7802 40.615L40.9178 40.8628L40.5323 41.0831C40.2845 41.2208 40.0642 41.5787 40.0642 41.8816V45.4062Z" fill="#285056"/>
<path fill-rule="evenodd" clip-rule="evenodd" d="M40.0918 45.4887L39.486 45.6539C39.3483 45.6815 39.2382 45.5989 39.2382 45.4612V42.3497C39.2382 42.1845 39.3483 42.0468 39.486 42.0192L40.0918 41.854C40.2295 41.8265 40.3396 41.9091 40.3396 42.0468V45.1583C40.3396 45.3235 40.2295 45.4612 40.0918 45.4887Z" fill="#58C0ED"/>
<path d="M51.6292 51.1336H51.3538V49.0409C51.3538 48.4076 51.6842 47.8293 52.235 47.5264L57.0812 44.7453C57.274 44.6352 57.4943 44.6352 57.687 44.7453C57.8798 44.8555 57.9899 45.0482 57.9899 45.2685V47.554H57.7145V45.2685C57.7145 45.1584 57.6595 45.0482 57.5493 44.9931C57.4392 44.9381 57.329 44.9381 57.2189 44.9931L52.3726 47.7742C51.9321 48.0221 51.6292 48.5177 51.6292 49.0409V51.1336Z" fill="#285056" stroke="#221E2A" stroke-width="0.5"/>
<path d="M47.6365 51.9872H47.5815C47.5264 51.9872 47.5264 51.9045 47.5264 51.877V49.6466C47.5264 49.5916 47.5264 49.564 47.5815 49.5365L49.8669 48.2148C50.0046 48.1322 50.1698 48.1322 50.3075 48.2148C50.4452 48.2974 50.5278 48.4351 50.5278 48.6003V50.1147C50.5278 50.28 50.4452 50.4176 50.3075 50.5002L47.7191 51.9872H47.6641H47.6365ZM47.7742 49.7017V51.6292L50.1698 50.2524C50.2249 50.2249 50.2524 50.1698 50.2524 50.1147V48.6003C50.2524 48.5177 50.1973 48.4626 50.1698 48.4626C50.1698 48.4626 50.0872 48.4075 50.0046 48.4626L47.7742 49.7292V49.7017Z" fill="#58C0ED" stroke="#58C0ED" stroke-width="0.5"/>
<path d="M47.0858 52.0973C47.0032 52.0973 46.9481 52.0973 46.8655 52.0422C46.7279 51.9596 46.6728 51.8219 46.6728 51.6842V50.3901C46.6728 50.2249 46.7554 50.0872 46.8931 50.0321L47.5539 49.6466C47.609 49.6466 47.6365 49.6466 47.6916 49.6466C47.7467 49.6466 47.7467 49.7292 47.7467 49.7567V51.7118C47.7467 51.7668 47.7467 51.7944 47.6916 51.8219L47.2786 52.0697C47.2235 52.0973 47.1409 52.1248 47.0858 52.1248V52.0973ZM47.4989 49.977L47.0308 50.2524C46.9757 50.2524 46.9481 50.335 46.9481 50.3901V51.6842C46.9481 51.7668 47.0032 51.7944 47.0308 51.8219C47.0308 51.8219 47.1134 51.8495 47.1684 51.8219L47.4989 51.6292V50.0046V49.977Z" fill="#58C0ED" stroke="#58C0ED" stroke-width="0.5"/>
<path d="M59.229 45.4888C59.1464 45.4888 59.0913 45.4888 59.0087 45.4337C58.8711 45.3511 58.7885 45.2134 58.7885 45.0482V43.5062C58.7885 43.341 58.8711 43.2033 59.0087 43.1207L61.6246 41.6063C61.6797 41.6063 61.7072 41.6063 61.7623 41.6063C61.8174 41.6063 61.8174 41.6889 61.8174 41.7164V43.9468C61.8174 44.0019 61.8174 44.0294 61.7623 44.0569L59.4493 45.3786C59.3942 45.4062 59.3116 45.4337 59.229 45.4337V45.4888ZM61.542 41.9918L59.1464 43.3685C59.0913 43.3961 59.0638 43.4511 59.0638 43.5062V45.0482C59.0638 45.1308 59.1189 45.1859 59.1464 45.1859C59.1464 45.1859 59.229 45.241 59.3116 45.1859L61.542 43.8917V41.9642V41.9918Z" fill="#58C0ED" stroke="#58C0ED" stroke-width="0.5"/>
<path d="M61.6797 43.9743H61.6246C61.5695 43.9743 61.5695 43.8917 61.5695 43.8641V41.9091C61.5695 41.854 61.5695 41.8265 61.6246 41.799L62.0101 41.5787C62.1478 41.4961 62.313 41.4961 62.4507 41.5787C62.5883 41.6613 62.6709 41.799 62.6709 41.9642V43.2033C62.6709 43.3685 62.5883 43.5062 62.4507 43.5888L61.7623 43.9743H61.7072H61.6797ZM61.8173 41.9642V43.5888L62.2854 43.3134C62.3405 43.2859 62.368 43.2308 62.368 43.1757V41.9366C62.368 41.854 62.313 41.799 62.2854 41.799C62.2854 41.799 62.2028 41.7439 62.1202 41.799L61.8173 41.9642Z" fill="#58C0ED" stroke="#58C0ED" stroke-width="0.5"/>
<path d="M45.2409 44.3047C45.1583 44.3047 45.0757 44.3047 44.9931 44.2772C44.7728 44.1946 44.5801 44.0569 44.4699 43.8366C42.7903 40.3671 40.5599 36.4571 38.7976 33.9238C38.6875 33.7586 38.6324 33.5383 38.6875 33.318C38.7425 33.0977 38.8802 32.9325 39.0454 32.8224L52.9784 24.8095C53.5016 24.5342 53.8596 24.8921 54.4929 25.6907C55.8697 27.3979 59.4493 34.0339 59.8899 35.2455C60.1377 35.8788 59.587 36.1542 59.3942 36.2643H59.3391L45.5989 44.1946C45.4612 44.2772 45.3235 44.3047 45.1859 44.3047H45.2409ZM53.3364 24.9747C53.2813 24.9747 53.1987 24.9747 53.1436 25.0298L39.2106 33.0427C39.1005 33.0977 39.0179 33.2354 38.9628 33.3731C38.9353 33.5108 38.9628 33.6484 39.0454 33.7586C40.8352 36.3469 43.0106 40.1468 44.7453 43.6989C44.8279 43.8366 44.938 43.9467 45.1033 44.0018C45.2685 44.0569 45.4337 44.0294 45.5714 43.9467L59.3116 36.044C59.3116 36.044 59.3391 36.044 59.3667 36.0165C59.6145 35.8788 59.8623 35.7136 59.7246 35.3281C59.2841 34.1165 55.732 27.5355 54.3552 25.8559C53.832 25.195 53.5842 24.9747 53.3639 24.9747H53.3364Z" fill="#285056" stroke="#221E2A" stroke-width="0.5"/>
<path d="M37.1455 60C36.4846 60 35.7412 59.7797 34.9702 59.3391C32.3818 57.8522 30.2891 54.2175 30.2891 51.2437C30.2891 48.2699 30.8123 48.6278 31.7485 48.0771C32.6847 47.5264 33.9238 47.6365 35.2455 48.4075C37.8339 49.8945 39.9266 53.5291 39.9266 56.503C39.9266 59.4768 39.4034 59.1189 38.4672 59.6696C38.0817 59.8899 37.6136 60 37.1455 60V60ZM33.0702 48.2974C32.6847 48.2974 32.3268 48.38 32.0239 48.5727C31.2529 49.0133 30.8398 49.9771 30.8398 51.2437C30.8398 54.0248 32.8224 57.4392 35.2455 58.8435C36.3745 59.5044 37.4208 59.6145 38.1918 59.1739C38.9628 58.7334 39.3759 57.7696 39.3759 56.503C39.3759 53.7219 37.3933 50.3075 34.9702 48.9032C34.2818 48.5177 33.6485 48.3249 33.0702 48.3249V48.2974Z" fill="#221E2A" stroke="#221E2A" stroke-width="0.5"/>
<path d="M36.2644 57.329C35.8789 57.329 35.4658 57.1914 35.0253 56.9435C33.5659 56.0899 32.3543 54.0248 32.3543 52.3451C32.3543 50.6654 32.6572 50.8582 33.1804 50.5553C33.7036 50.2524 34.4195 50.3075 35.1629 50.748C36.6223 51.6016 37.8339 53.6668 37.8339 55.3465C37.8339 57.0262 37.531 56.8334 37.0078 57.1363C36.7875 57.274 36.5397 57.329 36.2644 57.329V57.329ZM33.9514 50.6654C33.7311 50.6654 33.5108 50.7205 33.3456 50.8307C32.905 51.0785 32.6572 51.6292 32.6572 52.3726C32.6572 53.9697 33.7862 55.9247 35.1905 56.7233C35.8513 57.1088 36.4296 57.1638 36.8977 56.916C37.3382 56.6682 37.5861 56.1175 37.5861 55.374C37.5861 53.777 36.4571 51.8219 35.0528 51.0234C34.6673 50.8031 34.2818 50.693 33.9514 50.693V50.6654Z" fill="#285056" stroke="#221E2A" stroke-width="0.5"/>
<path d="M35.5759 55.3465C35.4107 55.3465 35.218 55.2914 35.0252 55.1813C34.4194 54.8233 33.8963 53.9697 33.8963 53.2538C33.8963 52.5379 34.0339 52.5929 34.2818 52.4552C34.5296 52.3176 34.8325 52.3451 35.1629 52.5379C35.7687 52.8958 36.2919 53.7494 36.2919 54.4653C36.2919 55.1813 36.1542 55.1262 35.9064 55.2639C35.7962 55.3189 35.6861 55.3465 35.5759 55.3465V55.3465ZM34.6397 52.648C34.5571 52.648 34.5021 52.648 34.447 52.7031C34.2818 52.7857 34.1992 52.9784 34.1992 53.2538C34.1992 53.8596 34.6397 54.6306 35.1904 54.9335C35.4383 55.0711 35.631 55.0987 35.7962 55.0161C35.9614 54.9335 36.044 54.7407 36.044 54.4653C36.044 53.8596 35.6035 53.0886 35.0528 52.7857C34.9151 52.7031 34.7774 52.648 34.6673 52.648H34.6397Z" fill="#285056" stroke="#221E2A" stroke-width="0.5"/>
</g>
<defs>
<clipPath id="clip0_5_1371">
<rect width="64.0202" height="60" fill="white"/>
</clipPath>
</defs>
</svg>
