<svg width="31" height="30" viewBox="0 0 31 30" fill="none" xmlns="http://www.w3.org/2000/svg">
<path d="M12.6729 17.1873C12.6729 18.3998 13.6104 19.3748 14.7604 19.3748H17.1103C18.1103 19.3748 18.9229 18.5248 18.9229 17.4623C18.9229 16.3248 18.4229 15.9123 17.6854 15.6498L13.9229 14.3373C13.1854 14.0748 12.6854 13.6748 12.6854 12.5248C12.6854 11.4748 13.4978 10.6123 14.4978 10.6123H16.8478C17.9978 10.6123 18.9354 11.5873 18.9354 12.7998" stroke="white" stroke-width="1.5" stroke-linecap="round" stroke-linejoin="round"/>
<path d="M15.7979 9.375V20.625" stroke="white" stroke-width="1.5" stroke-linecap="round" stroke-linejoin="round"/>
<path d="M28.2979 15C28.2979 21.9 22.6979 27.5 15.7979 27.5C8.89785 27.5 3.29785 21.9 3.29785 15C3.29785 8.1 8.89785 2.5 15.7979 2.5" stroke="white" stroke-width="1.5" stroke-linecap="round" stroke-linejoin="round"/>
<path d="M28.2979 7.5V2.5H23.2979" stroke="white" stroke-width="1.5" stroke-linecap="round" stroke-linejoin="round"/>
<path d="M22.0479 8.75L28.2979 2.5" stroke="white" stroke-width="1.5" stroke-linecap="round" stroke-linejoin="round"/>
</svg>
