<svg width="165" height="21" viewBox="0 0 165 21" fill="none" xmlns="http://www.w3.org/2000/svg">
<path d="M11.8329 1.82946L13.6073 5.37833C13.8464 5.86913 14.4883 6.33476 15.0294 6.43544L18.2385 6.96399C20.2898 7.30378 20.768 8.78877 19.2956 10.2738L16.7913 12.7781C16.376 13.1934 16.1369 14.0114 16.2753 14.6029L16.9926 17.6987C17.5589 20.1401 16.2501 21.0966 14.0981 19.8129L11.0904 18.0259C10.5493 17.6987 9.64318 17.6987 9.10204 18.0259L6.0943 19.8129C3.94233 21.084 2.63352 20.1401 3.19983 17.6987L3.91716 14.6029C4.03042 13.9988 3.79131 13.1808 3.37602 12.7655L0.87167 10.2612C-0.600734 8.78877 -0.122517 7.30378 1.92878 6.95141L5.13787 6.42285C5.67901 6.33476 6.32083 5.85655 6.55994 5.36574L8.33437 1.81687C9.30339 -0.0959972 10.8639 -0.0959969 11.8329 1.82946Z" fill="#EB7032"/>
<path d="M47.9672 1.82946L49.7416 5.37833C49.9807 5.86913 50.6225 6.33476 51.1637 6.43544L54.3728 6.96399C56.4241 7.30378 56.9023 8.78877 55.4299 10.2738L52.9255 12.7781C52.5102 13.1934 52.2711 14.0114 52.4096 14.6029L53.1269 17.6987C53.6932 20.1401 52.3844 21.0966 50.2324 19.8129L47.2247 18.0259C46.6835 17.6987 45.7775 17.6987 45.2363 18.0259L42.2286 19.8129C40.0766 21.084 38.7678 20.1401 39.3341 17.6987L40.0514 14.6029C40.1647 13.9988 39.9256 13.1808 39.5103 12.7655L37.0059 10.2612C35.5335 8.78877 36.0118 7.30378 38.0631 6.95141L41.2721 6.42285C41.8133 6.33476 42.4551 5.85655 42.6942 5.36574L44.4686 1.81687C45.4377 -0.0959972 46.9982 -0.0959969 47.9672 1.82946Z" fill="#EB7032"/>
<path d="M84.101 1.82946L85.8754 5.37833C86.1145 5.86913 86.7563 6.33476 87.2975 6.43544L90.5066 6.96399C92.5579 7.30378 93.0361 8.78877 91.5637 10.2738L89.0593 12.7781C88.644 13.1934 88.4049 14.0114 88.5434 14.6029L89.2607 17.6987C89.827 20.1401 88.5182 21.0966 86.3662 19.8129L83.3585 18.0259C82.8173 17.6987 81.9112 17.6987 81.3701 18.0259L78.3624 19.8129C76.2104 21.084 74.9016 20.1401 75.4679 17.6987L76.1852 14.6029C76.2985 13.9988 76.0594 13.1808 75.6441 12.7655L73.1397 10.2612C71.6673 8.78877 72.1455 7.30378 74.1968 6.95141L77.4059 6.42285C77.9471 6.33476 78.5889 5.85655 78.828 5.36574L80.6024 1.81687C81.5715 -0.0959972 83.132 -0.0959969 84.101 1.82946Z" fill="#EB7032"/>
<path d="M120.235 1.82946L122.01 5.37833C122.249 5.86913 122.891 6.33476 123.432 6.43544L126.641 6.96399C128.692 7.30378 129.17 8.78877 127.698 10.2738L125.194 12.7781C124.778 13.1934 124.539 14.0114 124.678 14.6029L125.395 17.6987C125.961 20.1401 124.652 21.0966 122.5 19.8129L119.493 18.0259C118.952 17.6987 118.046 17.6987 117.504 18.0259L114.497 19.8129C112.345 21.084 111.036 20.1401 111.602 17.6987L112.32 14.6029C112.433 13.9988 112.194 13.1808 111.778 12.7655L109.274 10.2612C107.802 8.78877 108.28 7.30378 110.331 6.95141L113.54 6.42285C114.081 6.33476 114.723 5.85655 114.962 5.36574L116.737 1.81687C117.706 -0.0959972 119.266 -0.0959969 120.235 1.82946Z" fill="#EB7032"/>
<path d="M156.369 1.82946L158.143 5.37833C158.383 5.86913 159.024 6.33476 159.566 6.43544L162.775 6.96399C164.826 7.30378 165.304 8.78877 163.832 10.2738L161.327 12.7781C160.912 13.1934 160.673 14.0114 160.811 14.6029L161.529 17.6987C162.095 20.1401 160.786 21.0966 158.634 19.8129L155.627 18.0259C155.085 17.6987 154.179 17.6987 153.638 18.0259L150.63 19.8129C148.478 21.084 147.17 20.1401 147.736 17.6987L148.453 14.6029C148.567 13.9988 148.327 13.1808 147.912 12.7655L145.408 10.2612C143.935 8.78877 144.414 7.30378 146.465 6.95141L149.674 6.42285C150.215 6.33476 150.857 5.85655 151.096 5.36574L152.871 1.81687C153.84 -0.0959972 155.4 -0.0959969 156.369 1.82946Z" fill="#EB7032"/>
</svg>
