<svg width="28" height="24" viewBox="0 0 28 24" fill="none" xmlns="http://www.w3.org/2000/svg">
<path d="M15.1523 2.25997L22.4993 5.76997C23.357 6.17997 23.357 7.34997 22.4993 7.75997L15.1523 11.27C14.4977 11.58 13.7303 11.58 13.0757 11.27L5.72873 7.75997C4.87102 7.34997 4.87102 6.17997 5.72873 5.76997L13.0757 2.25997C13.7303 1.94997 14.4977 1.94997 15.1523 2.25997Z" stroke="white" stroke-width="1.5" stroke-linecap="round" stroke-linejoin="round"/>
<path opacity="0.4" d="M4.64561 10.13L11.4735 13.16C12.3199 13.54 12.8616 14.31 12.8616 15.15V20.8701C12.8616 21.7001 11.8798 22.2301 11.0446 21.8601L4.21676 18.8301C3.37033 18.4501 2.82861 17.6801 2.82861 16.8401V11.12C2.82861 10.29 3.81047 9.76005 4.64561 10.13Z" stroke="white" stroke-width="1.5" stroke-linecap="round" stroke-linejoin="round"/>
<path opacity="0.4" d="M23.5827 10.13L16.7548 13.16C15.9084 13.54 15.3667 14.31 15.3667 15.15V20.8701C15.3667 21.7001 16.3486 22.2301 17.1837 21.8601L24.0116 18.8301C24.858 18.4501 25.3997 17.6801 25.3997 16.8401V11.12C25.3997 10.29 24.4178 9.76005 23.5827 10.13Z" stroke="white" stroke-width="1.5" stroke-linecap="round" stroke-linejoin="round"/>
</svg>
