<svg width="31" height="31" viewBox="0 0 31 31" fill="none" xmlns="http://www.w3.org/2000/svg">
<path d="M11.7778 14.0875C11.6528 14.075 11.5028 14.075 11.3653 14.0875C8.39033 13.9875 6.02783 11.55 6.02783 8.55C6.02783 5.4875 8.50283 3 11.5778 3C14.6403 3 17.1278 5.4875 17.1278 8.55C17.1153 11.55 14.7528 13.9875 11.7778 14.0875Z" stroke="white" stroke-width="1.5" stroke-linecap="round" stroke-linejoin="round"/>
<path d="M20.8402 5.5C23.2652 5.5 25.2152 7.4625 25.2152 9.875C25.2152 12.2375 23.3402 14.1625 21.0027 14.25C20.9027 14.2375 20.7902 14.2375 20.6777 14.25" stroke="white" stroke-width="1.5" stroke-linecap="round" stroke-linejoin="round"/>
<path d="M5.52754 18.7C2.50254 20.725 2.50254 24.025 5.52754 26.0375C8.96504 28.3375 14.6025 28.3375 18.04 26.0375C21.065 24.0125 21.065 20.7125 18.04 18.7C14.615 16.4125 8.97754 16.4125 5.52754 18.7Z" stroke="white" stroke-width="1.5" stroke-linecap="round" stroke-linejoin="round"/>
<path d="M23.2524 25.5C24.1524 25.3125 25.0024 24.95 25.7024 24.4125C27.6524 22.95 27.6524 20.5375 25.7024 19.075C25.0149 18.55 24.1774 18.2 23.2899 18" stroke="white" stroke-width="1.5" stroke-linecap="round" stroke-linejoin="round"/>
</svg>
