<svg width="31" height="30" viewBox="0 0 31 30" fill="none" xmlns="http://www.w3.org/2000/svg">
<circle cx="15.748" cy="15" r="15" fill="#2EFFD7"/>
<path d="M23.6895 11.3344C23.171 11.5606 22.6186 11.7106 22.0426 11.7835C22.6351 11.4315 23.0874 10.8783 23.3 10.2116C22.7475 10.5393 22.1376 10.7708 21.4876 10.9C20.963 10.3442 20.2154 10 19.3999 10C17.8175 10 16.5436 11.278 16.5436 12.8447C16.5436 13.0701 16.5628 13.2869 16.6098 13.4932C14.2337 13.3779 12.1312 12.2447 10.7187 10.5185C10.4721 10.9442 10.3275 11.4315 10.3275 11.956C10.3275 12.9409 10.8372 13.814 11.597 14.3195C11.1378 14.3108 10.6873 14.1782 10.3057 13.9692C10.3057 13.9779 10.3057 13.9892 10.3057 14.0005C10.3057 15.3825 11.2964 16.5304 12.5956 16.7949C12.3629 16.8582 12.1094 16.8885 11.8462 16.8885C11.6632 16.8885 11.4785 16.8781 11.3051 16.84C11.6754 17.9662 12.7263 18.7942 13.9758 18.8211C13.0034 19.578 11.7687 20.0341 10.432 20.0341C10.1977 20.0341 9.97285 20.0237 9.74805 19.9951C11.0141 20.8075 12.5145 21.2713 14.1326 21.2713C19.392 21.2713 22.2674 16.9362 22.2674 13.1785C22.2674 13.0528 22.2631 12.9314 22.257 12.8109C22.8242 12.4103 23.3008 11.9101 23.6895 11.3344Z" fill="#2B2B2B"/>
</svg>
