<svg width="31" height="30" viewBox="0 0 31 30" fill="none" xmlns="http://www.w3.org/2000/svg">
<circle cx="15.748" cy="15" r="15" fill="#2EFFD7"/>
<path d="M21.0643 20.2574V20.257H21.0671V16.1236C21.0671 14.1016 20.6296 12.5439 18.254 12.5439C17.1119 12.5439 16.3455 13.1676 16.0326 13.7588H15.9996V12.7327H13.7471V20.257H16.0925V16.5312C16.0925 15.5503 16.2794 14.6017 17.5003 14.6017C18.7032 14.6017 18.7212 15.7212 18.7212 16.5942V20.2574H21.0643Z" fill="#2B2B2B"/>
<path d="M9.92773 12.7461H12.276V20.2703H9.92773V12.7461Z" fill="#2B2B2B"/>
<path d="M11.1081 9C10.3573 9 9.74805 9.60624 9.74805 10.3534C9.74805 11.1005 10.3573 11.7194 11.1081 11.7194C11.859 11.7194 12.4682 11.1005 12.4682 10.3534C12.4677 9.60624 11.8585 9 11.1081 9V9Z" fill="#2B2B2B"/>
</svg>
