<svg width="31" height="30" viewBox="0 0 31 30" fill="none" xmlns="http://www.w3.org/2000/svg">
<circle cx="15.748" cy="15" r="15" fill="#2EFFD7"/>
<path d="M19.4835 9.00268L17.8048 9C15.9187 9 14.6999 10.2443 14.6999 12.1702V13.6318H13.012C12.8662 13.6318 12.748 13.7495 12.748 13.8946V16.0124C12.748 16.1575 12.8663 16.275 13.012 16.275H14.6999V21.6189C14.6999 21.764 14.818 21.8815 14.9639 21.8815H17.1661C17.312 21.8815 17.4301 21.7639 17.4301 21.6189V16.275H19.4037C19.5495 16.275 19.6676 16.1575 19.6676 16.0124L19.6684 13.8946C19.6684 13.8249 19.6405 13.7582 19.5911 13.7089C19.5417 13.6596 19.4744 13.6318 19.4043 13.6318H17.4301V12.3927C17.4301 11.7972 17.5727 11.4949 18.3524 11.4949L19.4832 11.4945C19.629 11.4945 19.7471 11.3768 19.7471 11.2318V9.26534C19.7471 9.12048 19.6291 9.00295 19.4835 9.00268Z" fill="#2B2B2B"/>
</svg>
