<svg width="217" height="162" viewBox="0 0 217 162" fill="none" xmlns="http://www.w3.org/2000/svg">
<path d="M164.691 56.5442L72.1434 31.5311L93.8013 45.0237L186.349 70.0368L164.691 56.5442Z" fill="#2B2B2B"/>
<path d="M136.015 69.0188L43.4671 44.0057L65.125 57.4983L157.673 82.5114L136.015 69.0188Z" fill="#2B2B2B"/>
<path d="M107.545 81.6155L14.9969 56.6024L36.6548 70.095L129.203 95.1081L107.545 81.6155Z" fill="#2B2B2B"/>
<rect width="32.0338" height="27.0936" transform="matrix(-0.965363 -0.26091 -0.26091 0.965363 214.695 57.4575)" fill="#EB7032"/>
<rect width="32.0338" height="27.0936" transform="matrix(-0.965363 -0.26091 -0.26091 0.965363 200.678 109.323)" fill="#EB7032"/>
<rect width="32.0338" height="27.0936" transform="matrix(-0.965363 -0.26091 -0.26091 0.965363 207.687 83.3904)" fill="#EB7032"/>
<rect width="32.0338" height="27.0936" transform="matrix(-0.965363 -0.26091 -0.26091 0.965363 193.669 135.256)" fill="#EB7032"/>
<rect width="32.0338" height="27.0936" transform="matrix(-0.965363 -0.26091 -0.26091 0.965363 183.995 49.1602)" fill="#EB7032"/>
<rect width="32.0338" height="27.0936" transform="matrix(-0.965363 -0.26091 -0.26091 0.965363 169.977 101.026)" fill="#EB7032"/>
<rect width="32.0338" height="27.0936" transform="matrix(-0.965363 -0.26091 -0.26091 0.965363 176.986 75.0928)" fill="#EB7032"/>
<rect width="32.0338" height="27.0936" transform="matrix(-0.965363 -0.26091 -0.26091 0.965363 162.968 126.958)" fill="#EB7032"/>
<rect width="32.0338" height="27.0936" transform="matrix(-0.965363 -0.26091 -0.26091 0.965363 153.294 40.8625)" fill="#EB7032"/>
<path d="M115.37 58.3307L122.303 32.679L100.853 19.4489L93.92 45.1006L115.37 58.3307Z" fill="white" stroke="#2B2B2B" stroke-width="0.5"/>
<path d="M108.36 84.2641L115.293 58.6124L93.8436 45.3823L86.9107 71.034L108.36 84.2641Z" fill="white" stroke="#2B2B2B" stroke-width="0.5"/>
<path d="M86.8008 70.8505L93.7337 45.1988L72.284 31.9687L65.3511 57.6204L86.8008 70.8505Z" fill="white" stroke="#2B2B2B" stroke-width="0.5"/>
<path d="M79.792 96.7829L86.7249 71.1312L65.2753 57.9011L58.3424 83.5528L79.792 96.7829Z" fill="white" stroke="#2B2B2B" stroke-width="0.5"/>
<path d="M58.1377 83.2763L65.0706 57.6246L43.621 44.3945L36.6881 70.0462L58.1377 83.2763Z" fill="white" stroke="#2B2B2B" stroke-width="0.5"/>
<path d="M51.1328 109.194L58.0657 83.5423L36.6161 70.3122L29.6832 95.9639L51.1328 109.194Z" fill="white" stroke="#2B2B2B" stroke-width="0.5"/>
<path d="M29.5561 95.8427L36.489 70.191L15.0394 56.9609L8.10651 82.6126L29.5561 95.8427Z" fill="white" stroke="#2B2B2B" stroke-width="0.5"/>
<path d="M72.7998 122.653L79.7327 97.0011L58.2831 83.771L51.3502 109.423L72.7998 122.653Z" fill="white" stroke="#2B2B2B" stroke-width="0.5"/>
<path d="M101.352 110.197L108.284 84.545L86.8348 71.3149L79.9019 96.9666L101.352 110.197Z" fill="white" stroke="#2B2B2B" stroke-width="0.5"/>
<path d="M94.3427 136.13L101.276 110.478L79.826 97.2478L72.8931 122.899L94.3427 136.13Z" fill="white" stroke="#2B2B2B" stroke-width="0.5"/>
<rect width="32.0338" height="27.0936" transform="matrix(-0.965363 -0.26091 -0.26091 0.965363 139.276 92.728)" fill="#EB7032"/>
<rect width="32.0338" height="27.0936" transform="matrix(-0.965363 -0.26091 -0.26091 0.965363 146.285 66.7954)" fill="#EB7032"/>
<rect width="32.0338" height="27.0936" transform="matrix(-0.965363 -0.26091 -0.26091 0.965363 132.268 118.661)" fill="#EB7032"/>
<path d="M193.021 44.0281L100.472 19.015L122.13 32.5076L214.678 57.5207L193.021 44.0281Z" fill="#2B2B2B"/>
</svg>
