<svg width="31" height="30" viewBox="0 0 31 30" fill="none" xmlns="http://www.w3.org/2000/svg">
<path d="M21.4263 26.25H8.92627C3.92627 26.25 2.67627 25 2.67627 20V10C2.67627 5 3.92627 3.75 8.92627 3.75H21.4263C26.4263 3.75 27.6763 5 27.6763 10V20C27.6763 25 26.4263 26.25 21.4263 26.25Z" stroke="white" stroke-width="1.5" stroke-linecap="round" stroke-linejoin="round"/>
<path d="M17.6763 10H23.9263" stroke="white" stroke-width="1.5" stroke-linecap="round" stroke-linejoin="round"/>
<path d="M18.9263 15H23.9263" stroke="white" stroke-width="1.5" stroke-linecap="round" stroke-linejoin="round"/>
<path d="M21.4263 20H23.9263" stroke="white" stroke-width="1.5" stroke-linecap="round" stroke-linejoin="round"/>
<path d="M10.8011 14.1124C12.0506 14.1124 13.0636 13.0994 13.0636 11.8499C13.0636 10.6004 12.0506 9.5874 10.8011 9.5874C9.55153 9.5874 8.53857 10.6004 8.53857 11.8499C8.53857 13.0994 9.55153 14.1124 10.8011 14.1124Z" stroke="white" stroke-width="1.5" stroke-linecap="round" stroke-linejoin="round"/>
<path d="M15.1763 20.4127C15.0013 18.6002 13.5638 17.1752 11.7513 17.0127C11.1263 16.9502 10.4888 16.9502 9.85127 17.0127C8.03877 17.1877 6.60127 18.6002 6.42627 20.4127" stroke="white" stroke-width="1.5" stroke-linecap="round" stroke-linejoin="round"/>
</svg>
