<svg width="61" height="60" viewBox="0 0 61 60" fill="none" xmlns="http://www.w3.org/2000/svg">
<circle cx="30.856" cy="30" r="30" fill="#2B2B2B"/>
<path d="M16.9133 34.9998C19.6552 34.9998 21.8779 32.7613 21.8779 29.9999C21.8779 27.2385 19.6552 25 16.9133 25C14.1715 25 11.9488 27.2385 11.9488 29.9999C11.9488 32.7613 14.1715 34.9998 16.9133 34.9998Z" fill="#4325F5"/>
<path d="M30.8558 34.9998C33.5976 34.9998 35.8203 32.7613 35.8203 29.9999C35.8203 27.2385 33.5976 25 30.8558 25C28.1139 25 25.8912 27.2385 25.8912 29.9999C25.8912 32.7613 28.1139 34.9998 30.8558 34.9998Z" fill="#2EFFD7"/>
<path d="M44.7982 34.9998C47.5401 34.9998 49.7628 32.7613 49.7628 29.9999C49.7628 27.2385 47.5401 25 44.7982 25C42.0564 25 39.8337 27.2385 39.8337 29.9999C39.8337 32.7613 42.0564 34.9998 44.7982 34.9998Z" fill="#56FD2E"/>
</svg>
