<?xml version="1.0" standalone="no"?>
<!DOCTYPE svg PUBLIC "-//W3C//DTD SVG 20010904//EN"
 "http://www.w3.org/TR/2001/REC-SVG-20010904/DTD/svg10.dtd">
<svg version="1.0" xmlns="http://www.w3.org/2000/svg"
 width="976.000000pt" height="976.000000pt" viewBox="0 0 976.000000 976.000000"
 preserveAspectRatio="xMidYMid meet">
<metadata>
Created by potrace 1.14, written by Peter Selinger 2001-2017
</metadata>
<g transform="translate(0.000000,976.000000) scale(0.100000,-0.100000)"
fill="#000000" stroke="none">
<path d="M4678 9675 c-1 -1 -46 -5 -98 -9 -52 -4 -106 -8 -120 -11 -14 -2 -54
-6 -90 -10 -36 -3 -76 -7 -90 -10 -14 -2 -41 -7 -60 -9 -62 -9 -104 -16 -130
-22 -14 -3 -38 -8 -55 -10 -36 -5 -70 -12 -70 -14 0 -1 -9 -3 -20 -5 -63 -11
-97 -19 -163 -37 -40 -11 -84 -22 -97 -24 -14 -2 -37 -9 -52 -15 -16 -6 -38
-13 -51 -15 -38 -7 -320 -104 -396 -136 -39 -16 -77 -30 -83 -31 -7 0 -13 -4
-13 -9 0 -4 -7 -8 -15 -8 -24 0 -331 -147 -470 -226 -33 -18 -67 -37 -75 -41
-8 -3 -17 -9 -20 -12 -3 -4 -16 -12 -30 -19 -31 -15 -33 -16 -215 -137 -82
-55 -161 -110 -175 -122 -14 -13 -28 -23 -32 -23 -3 0 -13 -6 -20 -13 -7 -7
-33 -28 -58 -46 -25 -19 -49 -40 -55 -46 -5 -6 -17 -16 -26 -21 -19 -11 -112
-91 -176 -151 -25 -24 -47 -43 -49 -43 -13 0 -287 -286 -374 -390 -30 -36 -58
-67 -61 -70 -3 -3 -34 -41 -68 -85 -34 -44 -68 -87 -76 -97 -26 -32 -155 -219
-155 -224 0 -4 -13 -23 -28 -43 -16 -20 -42 -58 -58 -86 -15 -27 -32 -51 -36
-53 -4 -2 -8 -8 -8 -13 0 -5 -24 -51 -53 -102 -29 -50 -61 -110 -72 -132 -11
-22 -24 -43 -28 -46 -5 -3 -8 -9 -8 -13 1 -3 -24 -58 -54 -121 -30 -64 -55
-118 -55 -120 0 -2 -11 -28 -24 -57 -29 -65 -107 -267 -111 -288 -2 -8 -4 -16
-5 -17 -2 -2 -4 -7 -5 -13 -1 -5 -4 -12 -5 -15 -1 -3 -3 -8 -4 -12 -1 -5 -7
-18 -14 -29 -6 -12 -9 -24 -6 -26 2 -3 -1 -18 -7 -34 -15 -36 -11 -21 -59
-199 -38 -142 -50 -190 -54 -225 -2 -8 -5 -24 -9 -35 -3 -11 -8 -38 -12 -60
-3 -22 -7 -47 -10 -55 -2 -8 -7 -31 -9 -50 -3 -19 -8 -46 -11 -60 -3 -14 -8
-47 -11 -75 -3 -27 -7 -61 -9 -75 -17 -138 -22 -196 -30 -355 -15 -282 -3
-597 31 -845 3 -19 7 -55 10 -80 3 -25 7 -56 10 -70 3 -14 7 -38 9 -55 2 -16
4 -32 5 -35 1 -3 3 -9 4 -15 1 -5 5 -30 10 -55 8 -42 11 -57 21 -105 3 -11 7
-29 9 -40 14 -65 62 -243 91 -340 15 -49 28 -96 28 -102 0 -7 4 -13 9 -13 4 0
8 -8 8 -18 0 -18 78 -231 99 -269 5 -11 7 -23 4 -27 -3 -3 -1 -6 5 -6 7 0 12
-6 12 -14 0 -15 22 -65 94 -219 25 -55 46 -103 46 -108 0 -5 5 -9 10 -9 6 0
10 -7 10 -15 0 -8 5 -15 12 -15 6 0 9 -3 5 -6 -6 -6 19 -63 32 -74 3 -3 19
-30 34 -60 15 -30 47 -85 70 -122 23 -37 60 -95 81 -130 22 -35 78 -116 125
-182 48 -65 91 -126 96 -135 6 -8 15 -20 21 -26 5 -5 28 -32 49 -60 73 -92 89
-110 178 -210 99 -109 306 -315 316 -315 5 0 11 -4 13 -9 11 -30 432 -371 457
-371 5 0 11 -4 13 -8 3 -8 245 -172 253 -172 2 0 34 -19 71 -42 99 -60 191
-109 341 -183 122 -60 314 -144 338 -149 6 -1 15 -5 22 -9 7 -4 32 -14 55 -21
24 -8 73 -25 110 -39 36 -14 69 -23 72 -19 3 3 6 0 6 -7 0 -7 4 -10 9 -6 5 3
12 1 16 -5 4 -6 11 -8 16 -4 5 3 15 2 22 -4 12 -9 116 -39 165 -48 14 -3 29
-7 34 -10 4 -3 16 -7 25 -9 10 -2 65 -15 123 -28 58 -14 119 -28 135 -31 63
-12 86 -16 108 -21 85 -17 222 -36 280 -39 15 0 27 -3 27 -6 0 -3 15 -5 33 -6
17 0 82 -4 142 -9 61 -6 225 -10 365 -10 238 0 332 4 498 22 37 4 82 8 100 8
17 0 32 3 32 6 0 3 6 6 13 6 24 1 112 12 137 18 14 3 45 8 70 11 25 3 48 8 51
10 3 2 21 6 40 9 48 8 131 26 149 32 8 3 24 7 36 8 11 2 40 9 65 16 24 7 49
13 54 15 6 1 28 7 50 13 22 6 43 10 48 11 4 0 20 6 36 14 16 9 31 12 34 9 4
-3 13 -1 20 5 8 7 17 9 20 5 4 -3 7 -2 7 3 0 5 12 11 26 12 15 1 32 6 38 11 6
5 14 10 18 10 14 2 32 9 143 51 61 23 116 42 123 42 6 1 12 5 12 10 0 5 4 7 9
3 5 -3 12 -1 15 4 3 5 16 11 29 15 13 3 72 28 131 56 58 27 110 50 115 50 5 0
11 3 13 8 1 4 41 26 88 50 104 52 183 95 190 103 3 3 21 14 40 24 19 10 46 26
60 35 23 16 185 122 221 145 37 23 105 71 121 85 25 23 39 34 87 68 46 33 133
105 163 134 10 10 21 18 24 18 3 0 27 22 54 48 27 27 51 48 53 46 6 -6 307
304 307 316 0 7 3 11 6 7 3 -3 18 8 33 26 46 56 75 90 108 126 18 19 36 43 39
53 3 10 9 18 13 18 4 0 23 21 41 48 19 26 37 49 40 52 26 20 230 322 230 340
0 6 4 10 8 10 5 0 21 21 36 48 14 26 37 65 51 87 73 121 260 497 280 565 1 3
9 23 19 45 19 45 107 284 110 300 1 6 4 15 7 20 4 6 10 24 14 40 5 17 9 32 10
35 18 60 29 97 30 105 2 6 9 33 18 60 8 28 15 53 16 58 0 4 1 8 2 10 4 12 58
263 63 292 3 17 8 41 11 55 3 14 7 43 10 65 3 22 8 56 11 75 3 19 7 49 10 65
2 17 7 59 10 95 9 93 12 115 14 115 5 0 13 253 13 410 1 269 -17 523 -49 705
-2 14 -6 43 -9 65 -7 53 -21 129 -46 243 -12 52 -22 101 -24 110 -2 9 -4 17
-5 17 -2 0 -3 7 -13 55 -3 14 -13 50 -23 80 -9 30 -18 62 -19 70 -2 8 -4 15
-5 15 -1 0 -3 9 -5 21 -8 40 -103 315 -135 389 -5 11 -14 37 -21 58 -7 20 -17
37 -21 37 -4 0 -7 3 -6 8 2 13 -12 47 -76 180 -19 39 -32 72 -29 72 3 0 0 7
-7 15 -7 9 -30 48 -50 88 -66 128 -85 162 -92 165 -5 2 -8 8 -8 13 0 4 -32 59
-72 121 -39 62 -76 123 -82 135 -6 13 -14 23 -18 23 -5 0 -8 6 -8 14 0 8 -3
16 -7 18 -9 3 -113 146 -113 154 0 2 -10 16 -22 30 -51 56 -58 64 -58 69 0 5
-5 12 -101 125 -35 41 -75 89 -89 105 -47 56 -365 370 -429 424 -35 29 -70 58
-76 64 -7 7 -27 23 -45 37 -19 14 -41 32 -50 40 -33 31 -140 110 -149 110 -5
0 -11 3 -13 8 -3 7 -97 78 -129 97 -9 6 -83 52 -164 103 -80 50 -148 92 -149
92 -2 0 -51 27 -109 59 -58 32 -108 56 -111 53 -3 -3 -6 0 -6 6 0 7 -3 11 -7
10 -5 -1 -46 17 -93 39 -143 69 -458 198 -505 207 -33 7 -131 42 -133 48 -2 4
-10 4 -18 1 -8 -3 -20 -1 -27 5 -6 5 -23 12 -37 14 -14 3 -77 19 -140 36 -108
29 -157 40 -205 47 -11 1 -20 4 -20 5 0 1 -9 4 -20 6 -11 1 -30 5 -41 7 -12 3
-37 8 -55 11 -19 3 -43 7 -54 10 -11 2 -45 7 -75 11 -30 4 -64 9 -75 11 -11 2
-40 6 -65 8 -128 12 -177 18 -200 22 -27 6 -636 14 -642 9z"/>
</g>
</svg>
